<?xml version="1.0" encoding="UTF-8" standalone="no"?>
<svg width="1800px" height="300px" viewBox="0 0 1800 300" version="1.1" xmlns="http://www.w3.org/2000/svg" xmlns:xlink="http://www.w3.org/1999/xlink" xmlns:sketch="http://www.bohemiancoding.com/sketch/ns">
    <!-- Generator: Sketch 3.1.1 (8761) - http://www.bohemiancoding.com/sketch -->
    <title>shaped-stakeholders</title>
    <desc>Created with Sketch.</desc>
    <defs></defs>
    <g id="Page-1" stroke="none" stroke-width="1" fill="none" fill-rule="evenodd" sketch:type="MSPage">
        <path d="M1200,0 L1200,300 L1800,300 L1800,0 L1200,0 Z M1412.49363,180.27014 C1412.34444,177.466719 1411.63618,174.667531 1411.08492,171.911441 C1408.61244,159.560003 1407.0635,147.61547 1406.59775,135.014637 C1406.48859,132.091069 1406.7871,129.343129 1407.64947,126.583397 C1408.69377,123.230214 1411.34735,121.349749 1414.88051,120.614306 C1416.76716,120.222919 1421.47958,120.723518 1422.54025,122.522077 C1422.92413,123.17014 1424.16484,125.01603 1424.41773,126.583397 C1426.35714,138.641749 1427.4639,150.259348 1429.38875,162.319521 C1429.46699,162.81103 1431.25269,171.030366 1432.95055,171.030366 C1434.64841,171.030366 1434.39794,169.910819 1434.54712,168.703892 C1434.93828,165.552774 1434.81639,162.321557 1434.71268,159.12857 C1434.1869,143.181836 1435.25246,127.27333 1436.58239,111.383028 C1437.20824,103.904811 1444.74155,99.3355983 1451.82059,101.864139 C1453.62355,102.508561 1454.43316,103.94668 1455.43197,105.581403 C1458.80139,111.086303 1456.8365,116.875185 1456.8456,122.522077 C1456.86197,132.769128 1456.59817,143.016179 1456.38895,153.26323 C1456.33982,155.658881 1455.19364,165.374371 1456.8456,168.703889 C1458.13005,171.292503 1461.42835,172.388195 1462.09257,171.030368 C1462.46887,170.26111 1462.84002,168.604373 1463.02741,167.77973 C1464.21908,162.540609 1465.37056,155.589233 1466.55131,150.346471 C1468.67811,140.924063 1469.92318,135.014637 1472.60773,124.780903 C1474.41692,117.884121 1481.25201,115.883066 1486.64817,116.958924 C1487.98174,117.224703 1489.27711,117.776285 1490.53609,118.326047 C1492.99947,119.407367 1494.32031,121.429835 1494.0747,124.045755 C1493.75086,127.50088 1493.21415,130.961467 1492.46095,134.351059 C1488.57848,151.795985 1484.45041,169.184478 1480.74805,186.665813 C1479.76743,191.298739 1479.45561,194.488109 1479.77945,199.217518 C1480.30706,206.948771 1495.10059,205.736506 1495.66277,205.468907 C1502.85097,202.044728 1508.64396,196.31031 1514.64959,191.240487 C1516.62721,189.571177 1519.15973,188.125776 1521.65586,187.590578 C1527.15207,186.414597 1531.55487,189.867902 1533.84724,195.099742 C1536.61081,201.403799 1534.24388,207.04023 1529.83926,211.072424 C1516.98564,222.839512 1505.2938,234.160212 1490.0241,242.867202 C1483.43082,246.626335 1476.7041,250.032533 1469.03742,249.999766 C1461.7255,249.966998 1453.7227,248.35714 1447.12579,245.297042 C1427.35687,236.12585 1412.20218,220.206748 1401.79375,201.458413 C1395.27688,189.718631 1391.42349,176.029196 1389.43859,162.760275 C1388.98012,159.700177 1389.33363,156.765686 1391.46589,154.005955 C1393.0469,151.958001 1397.54078,150.056563 1400.2807,151.208879 C1400.79558,151.425507 1401.25571,150.64185 1402.33457,154.005956 C1404.33585,160.231735 1407.83629,168.030343 1409.93399,174.221535 C1410.80181,176.779202 1412.53183,181.018326 1412.49363,180.27014 Z M1605.64414,165.301723 C1601.92967,170.24905 1599.60361,173.995573 1586.69338,178.264695 C1576.00804,181.798266 1562.25965,183.665828 1551.11694,183.715109 C1534.95592,183.784466 1521.46255,183.220285 1505.30699,182.758511 C1502.31678,182.672727 1498.36349,181.418626 1495.53727,180.369141 C1491.38996,178.826854 1489.49853,171.623259 1490.59137,167.994928 C1492.6079,161.299865 1495.43071,158.395273 1500.58023,158.451854 C1507.34603,158.524861 1514.10818,159.050516 1520.87034,159.380876 C1525.69915,159.616326 1530.47876,159.397303 1535.1053,157.807561 C1535.37863,157.714476 1538.49905,156.083342 1539.90214,154.082932 C1541.60589,151.653602 1541.31922,145.817772 1539.90214,143.622717 C1538.48505,141.427661 1539.30914,141.652558 1534.05025,137.753756 C1524.3017,130.526431 1514.5013,125.910907 1504.06014,119.730809 C1497.18683,115.662457 1490.4452,112.54705 1483.47349,108.641141 C1478.27478,105.728135 1477.25023,103.022812 1478.21599,98.0363895 C1479.08335,93.5683211 1483.82882,89.968849 1488.3023,89.8556871 C1492.88876,89.7407 1496.77914,91.9090274 1500.62761,93.8492058 C1511.33663,99.2481218 1521.89623,104.940894 1532.52508,110.498601 C1533.93728,111.237804 1536.86736,112.513613 1536.86736,112.513613 C1536.86736,112.513613 1537.96402,113.035184 1538.93889,111.434491 C1539.86274,109.921408 1537.89872,108.376817 1536.63777,107.278052 C1534.61513,105.511267 1530.79946,103.256826 1529.85192,102.62531 C1517.61772,94.4721804 1505.41086,86.2825468 1493.18213,78.1239415 C1491.39091,76.9284411 1487.74432,74.564718 1487.01798,70.4859466 C1486.29164,66.4071752 1487.38756,64.7702572 1490.37413,62.355529 C1494.28456,59.1961228 1498.60679,58.1721905 1503.13859,60.7603118 C1510.13945,64.7593061 1517.1804,68.7290972 1523.897,73.1825641 C1532.37566,78.8059787 1540.08268,85.1930409 1548.40463,91.0537303 C1549.52163,91.8403878 1552.83386,94.8584471 1553.04686,93.0989963 C1553.25986,91.3395455 1548.66647,86.2150946 1547.76631,85.4156608 C1538.7829,77.4450502 1530.23823,69.770464 1521.24935,61.8071542 C1519.88089,60.5952271 1519.35124,57.6310504 1519.90351,55.135072 C1520.45579,52.6390936 1521.59192,51.6102417 1523.897,50.715898 C1528.47981,48.941812 1533.95745,50.6950997 1537.76401,53.4566143 C1545.35162,58.9650417 1551.65263,63.4634202 1558.93046,69.3770402 C1563.89411,73.410713 1566.49538,77.0285801 1571.28957,81.2776255 C1572.25533,82.1336403 1574.04796,83.7960503 1575.21781,84.3052787 C1576.80494,84.9970262 1571.87632,78.7299056 1571.28957,78.1239421 C1566.88898,73.5609637 1562.20962,69.0545579 1557.80538,64.4952299 C1555.38551,61.9892422 1557.0435,60.2249508 1557.80538,58.8520248 C1558.56726,57.4790988 1560.65074,55.5061554 1562.81915,55.8164379 C1565.13151,56.1486227 1567.47463,56.7103973 1569.4426,57.9040724 C1580.50513,64.6098255 1588.75792,73.410713 1595.53283,84.3052802 C1602.35512,95.2710298 1608.8159,115.254251 1609.95366,119.701216 C1611.09142,124.148181 1611.33773,125.884071 1611.7959,131.982929 C1612.25406,138.081786 1611.79772,140.159786 1611.79772,144.248214 C1611.38408,146.516927 1609.3586,160.354396 1605.64414,165.301723 Z" id="TT" fill="#FF0000" sketch:type="MSShapeGroup"></path>
        <path d="M974.37262,64.0141353 C967.506382,58.3267176 960.215371,54.597384 953.753074,52.4262688 L953.753074,52.4262688 L953.753074,249.458387 L974.37262,249.458387 L974.37262,64.0141353 Z M979.871166,69.1134763 C991.339339,81.0097171 1000.4509,99.2598819 1000.4509,126.01882 C1000.4509,185.501792 1001,249.458387 1001,249.458387 L979.871166,249.458387 L979.871166,69.1134763 Z M948.254528,50.8952554 C944.886679,50.1585313 941.915289,49.8972414 939.57825,50.035497 C935.547565,50.1259258 931.802253,50.5481794 928.3223,51.2594583 L928.3223,51.2594583 L928.3223,249.458387 L948.254528,249.458387 L948.254528,50.8952554 L948.254528,50.8952554 Z M922.823752,52.686364 C914.245469,55.4145427 907.501481,60.0574143 902.204203,65.7861579 L902.204207,65.7861531 L902.204207,249.458387 L922.823754,249.458387 L922.823754,52.6863634 L922.823752,52.686364 Z M896.705662,72.8405199 C880.327055,97.7230707 883.304386,134.043395 883.304386,134.043395 C883.304386,134.043395 880.845884,133.733219 876.773433,133.573746 L876.773433,133.573746 L876.773433,249.457921 C876.887921,249.458231 877.002535,249.458387 877.117275,249.458387 L896.705662,249.458387 L896.705662,72.8405199 L896.705662,72.8405199 Z M871.274887,133.483531 C865.739938,133.515593 858.758446,133.922088 851.34266,135.255405 L851.342659,135.255404 L851.342659,246.519131 C857.449924,248.009275 864.095221,248.979213 871.274887,249.321004 L871.274887,133.483531 L871.274887,133.483531 Z M845.844113,136.406717 C838.865316,138.084358 831.727505,140.664991 825.224567,144.581843 L825.224567,144.581843 L825.224567,235.177088 C831.087637,239.173382 837.963919,242.53732 845.844113,244.994647 L845.844113,136.406717 L845.844113,136.406717 Z M819.726021,148.353205 C808.861468,156.827767 800.774938,169.993373 800.027731,190.33915 C799.514164,204.323126 806.135927,219.518913 819.726021,231.002521 L819.726021,148.353205 L819.726021,148.353205 Z M600,0 L600,300 L1200,300 L1200,0 L600,0 Z" id="HG-API" fill="#009242" sketch:type="MSShapeGroup"></path>
        <path d="M0,0 L0,300 L600,300 L600,0 L0,0 Z M303.200637,74.4616227 C304.890407,74.2717857 306.73432,74.8614309 308.342654,74.3983437 C311.24231,73.5642114 312.280602,71.1365987 310.643184,68.6859755 C308.659668,65.7578835 309.354771,63.2094654 310.680993,60.359034 C312.844828,55.6878931 315.785201,52.0809899 321.133713,50.7578835 C325.583535,49.6533772 329.538933,50.1596093 333.055165,53.1653619 C334.084732,54.0512679 335.056131,55.0234635 336.001355,55.9927828 C337.563155,57.5833868 337.664949,59.2689093 336.72845,61.3254769 C335.960637,63.0253811 335.352786,64.9697722 335.323702,66.8221212 C335.268443,69.937174 334.25051,72.223847 331.365396,73.6159851 C330.836071,73.8691011 330.335829,74.2142593 329.870488,74.5795517 C327.418723,76.498056 327.378006,78.8825239 329.998457,80.6169439 C331.307228,81.476963 332.918471,82.0493504 334.480272,82.3657454 C339.049338,83.2976725 341.919909,85.6476246 342.774973,90.4309419 C343.403184,93.8336265 344.61307,97.1212583 345.558294,100.46354 C346.070169,102.298631 346.925233,103.820204 349.170503,103.751172 C351.087125,103.696522 353.163709,101.602562 353.265503,99.5143552 C353.335304,98.1797435 353.248052,96.7933581 352.963031,95.4846332 C352.491873,93.3158892 353.140442,91.578593 354.847662,90.3245182 C356.409462,89.1653619 358.058514,87.9084108 359.873343,87.3647866 C360.931994,87.0541442 363.081287,87.6898106 363.537903,88.5325719 C364.465677,90.2295997 365.224764,92.4990148 364.852491,94.2852085 C364.110854,97.886359 363.049295,101.585304 361.257733,104.766512 C357.453571,111.465458 353.099725,117.86239 348.958191,124.371498 C348.629544,124.871977 348.234004,125.329312 347.829739,125.749255 C345.660087,127.998535 343.653304,127.754048 342.545211,124.840338 C341.204448,121.282332 340.279583,117.569005 339.002804,113.990865 C338.554913,112.742543 337.583514,111.681182 336.856419,110.533531 C336.068248,111.554624 335.067765,112.475045 334.503539,113.602562 C330.228219,122.176867 326.069235,130.794317 321.817182,139.377251 C320.389167,142.265074 320.520044,143.280415 323.22193,145.127011 C326.656728,147.491345 330.062441,149.939092 333.668833,152.030175 C339.852051,155.588181 342.568478,165.39355 336.24275,171.672553 C327.665936,180.183579 319.446852,189.025381 311.248127,197.887318 C305.210328,204.422313 302.834181,212.20563 304.105144,221.044557 C304.413432,223.213301 304.541401,225.430942 304.413432,227.608315 C304.230204,230.76076 301.618478,232.040721 299.268507,229.917999 C296.973794,227.847049 295.065897,225.269868 293.326685,222.692687 C288.01889,214.880606 287.87638,212.907452 293.751309,203.355199 C294.362069,202.35424 295.170598,201.422313 296.040204,200.625573 C304.57921,192.735832 308.645126,182.024422 314.173958,172.250693 C316.221458,168.617903 314.909778,165.600645 311.533148,164.887318 C310.806053,164.731997 309.610708,165.013876 309.142459,165.531613 C302.999959,172.561335 296.994153,179.717615 290.805119,186.715697 C288.815787,188.967855 286.660677,191.317807 284.08676,192.761719 C279.735822,195.203713 276.408635,198.615026 272.965112,202.009082 C271.217175,203.734873 269.486689,205.51819 267.50899,206.973607 C259.604011,212.752131 253.990836,220.072361 251.620506,229.621738 C250.852694,232.693646 249.756234,235.535448 247.449888,237.894029 C246.632633,238.742543 246.277811,240.117423 245.949164,241.311095 C245.512907,242.944844 245.300595,244.630367 244.989398,246.287126 C244.686927,247.869101 244.547324,249.896906 242.432931,249.773224 C240.347623,249.649542 238.404824,248.533531 237.951117,246.218094 C237.311273,242.901699 236.834299,239.553665 236.415492,236.20563 C235.900708,232.175908 235.452818,228.146186 235.100904,224.107836 C234.769348,220.296714 236.051944,218.65146 239.911365,218.582428 C243.541025,218.533531 245.728127,216.988948 247.37427,213.908411 C250.04998,208.900741 252.993262,204.042639 255.828933,199.118382 C258.673329,194.188372 262.195378,189.804863 267.32867,187.118382 C273.811451,183.718574 277.766848,178.874854 279.791081,171.695563 C281.649537,165.077155 285.177402,158.930463 287.815304,152.51052 C288.382438,151.115506 288.783794,149.303425 288.39698,147.922792 C287.233628,143.792399 287.87638,139.917999 289.138617,135.977442 C290.243802,132.520108 291.148308,128.996618 292.177875,125.519149 C292.372736,124.892112 292.59959,124.118382 293.070748,123.747337 C297.508936,120.30726 296.912718,115.365745 297.037779,110.700357 C297.127939,106.917999 296.848734,103.132764 296.799292,99.3417761 C296.773116,97.1730321 295.333468,95.4414884 293.248159,96.1404338 C287.131834,98.2056303 281.070769,100.480798 275.192931,103.132764 C272.648098,104.283291 271.685424,106.998535 272.432878,109.903617 C274.145914,116.599686 275.850226,123.304384 277.676689,129.97169 C277.97916,131.067567 278.973826,131.956349 279.462434,133.02634 C279.895783,133.981278 280.436742,135.097289 280.29714,136.055103 C279.968493,138.28425 273.049455,141.597768 271.11829,140.444365 C268.561824,138.919916 266.450339,136.992783 266.645201,133.595851 C266.845879,130.319724 267.142534,127.017711 266.947672,123.750213 C266.831337,121.840338 265.886113,119.970731 265.225911,118.104 C264.597701,116.309178 263.350005,114.58051 263.248212,112.774183 C262.934107,107.381086 262.823588,101.959226 263.146419,96.5776342 C263.239487,95.021546 264.722761,93.0570206 266.136234,92.1567329 C271.598173,88.6821404 277.199714,85.4319007 282.911774,82.3743744 C287.486657,79.9208748 292.236042,77.7348729 297.029054,75.7128211 C298.922409,74.916081 301.132779,74.8585546 303.200637,74.4616227 C304.317456,74.4299832 301.993659,74.662965 303.200637,74.4616227 Z" id="RK" fill="#2256AF" sketch:type="MSShapeGroup"></path>
    </g>
</svg>