<?xml version="1.0" encoding="UTF-8" standalone="no"?>
<svg width="804px" height="1250px" viewBox="0 0 804 1250" version="1.1" xmlns="http://www.w3.org/2000/svg" xmlns:xlink="http://www.w3.org/1999/xlink" xmlns:sketch="http://www.bohemiancoding.com/sketch/ns">
    <!-- Generator: Sketch 3.3.3 (12072) - http://www.bohemiancoding.com/sketch -->
    <title>apple</title>
    <desc>Created with Sketch.</desc>
    <defs></defs>
    <g id="All-logos" stroke="none" stroke-width="1" fill="none" fill-rule="evenodd" sketch:type="MSPage">
        <g id="Artboard-1" sketch:type="MSArtboardGroup" transform="translate(-3930.000000, -4413.000000)" fill="#4B0082">
            <path d="M4512.65304,4460.08438 C4514.66701,4465.64657 4515.57055,4471.27327 4515.83887,4477.01608 C4516.83616,4498.45044 4513.12016,4519.22197 4507.01681,4539.67097 C4491.82471,4590.55962 4462.17432,4631.24958 4419.61898,4662.74394 C4407.42359,4671.7702 4394.15495,4678.97573 4379.37825,4682.93329 C4366.57835,4686.36188 4353.45679,4688.09876 4340.30452,4689.54535 C4335.40536,4690.08399 4330.49164,4690.50813 4325.3969,4691 C4325.23526,4690.04206 4324.98311,4689.28893 4325.00089,4688.54225 C4326.16305,4639.61141 4337.54379,4593.61568 4364.11987,4551.89844 C4381.23705,4525.03091 4404.32666,4504.71738 4432.0358,4489.35483 C4456.99068,4475.51627 4483.74294,4466.49968 4511.43269,4460.02148 C4511.67353,4459.96181 4511.94831,4460.04083 4512.65304,4460.08438 Z M4703.40301,4769.29647 C4702.04462,4770.50085 4700.87337,4771.55832 4699.68114,4772.59157 C4681.3009,4788.53431 4663.5337,4805.10346 4648.09288,4823.98935 C4625.06312,4852.15352 4609.98529,4884.03415 4603.84832,4919.99129 C4600.75402,4938.12 4600.35877,4956.37303 4601.80105,4974.70031 C4603.84671,5000.65429 4610.0724,5025.52496 4621.17347,5049.07017 C4635.54791,5079.55592 4655.21557,5106.1024 4681.13312,5127.78937 C4695.0881,5139.4651 4710.66606,5148.36236 4728.05413,5153.94353 C4728.92369,5154.22284 4729.74647,5154.64582 4731,5155.17213 C4727.84279,5164.08877 4724.89691,5172.94082 4721.58966,5181.65565 C4706.84094,5220.52042 4687.21362,5256.88278 4664.80821,5291.79859 C4650.13692,5314.65766 4634.14273,5336.5093 4615.43822,5356.267 C4600.48783,5372.05637 4584.16131,5386.15056 4564.90666,5396.5315 C4546.66677,5406.36676 4527.31854,5411.61696 4506.46512,5410.16718 C4492.83602,5409.22273 4479.47634,5406.52982 4466.43932,5402.57117 C4451.64381,5398.07815 4437.00479,5393.06042 4422.31576,5388.22029 C4405.95052,5382.82962 4389.37393,5378.3818 4372.33272,5375.61785 C4350.64522,5372.09834 4329.26103,5373.47547 4308.00428,5378.60298 C4292.27467,5382.39695 4277.05809,5387.7085 4262.10932,5393.85473 C4246.04899,5400.45785 4229.69665,5406.10199 4212.63608,5409.63764 C4187.33804,5414.87978 4163.31126,5411.28762 4140.2686,5399.95576 C4121.84964,5390.89544 4106.01033,5378.32852 4091.48101,5363.99701 C4072.08762,5344.86895 4055.60783,5323.3741 4040.82845,5300.578 C4008.89977,5251.32583 3982.3853,5199.36299 3963.22745,5143.76763 C3953.20568,5114.68484 3945.53769,5084.99502 3940.55585,5054.63843 C3934.60602,5018.39069 3932.63135,4981.90563 3934.93836,4945.23167 C3937.14373,4910.16733 3943.00644,4875.78267 3954.72378,4842.5459 C3968.46097,4803.58265 3989.03368,4768.81052 4018.1504,4739.32089 C4041.93356,4715.23484 4069.60476,4697.42579 4102.20941,4687.73099 C4125.07461,4680.93091 4148.44316,4678.47532 4172.24729,4679.74913 C4202.553,4681.37004 4231.88428,4688.112 4260.92839,4696.40707 C4279.39576,4701.68149 4297.95508,4706.54907 4316.68702,4710.83384 C4334.53972,4714.91356 4352.0988,4714.35335 4369.79178,4710.18483 C4389.03514,4705.64982 4407.82839,4699.6715 4426.5313,4693.34445 C4447.92356,4686.10846 4469.68365,4680.3158 4492.07455,4677.13855 C4511.47117,4674.38591 4530.89683,4674.35846 4550.35637,4676.66552 C4584.11613,4680.66775 4615.11717,4692.07226 4643.1562,4711.3101 C4660.87016,4723.4621 4676.3013,4738.21499 4690.63541,4754.14643 C4694.1169,4758.01789 4697.47093,4762.00559 4700.85724,4765.96262 C4701.70905,4766.95713 4702.45278,4768.04527 4703.40301,4769.29647 Z" id="apple" sketch:type="MSShapeGroup"></path>
        </g>
    </g>
</svg>