<?xml version="1.0" encoding="UTF-8" standalone="no"?>
<svg width="2093px" height="1252px" viewBox="0 0 2093 1252" version="1.1" xmlns="http://www.w3.org/2000/svg" xmlns:xlink="http://www.w3.org/1999/xlink" xmlns:sketch="http://www.bohemiancoding.com/sketch/ns">
    <!-- Generator: Sketch 3.3.3 (12072) - http://www.bohemiancoding.com/sketch -->
    <title>asics</title>
    <desc>Created with Sketch.</desc>
    <defs></defs>
    <g id="All-logos" stroke="none" stroke-width="1" fill="none" fill-rule="evenodd" sketch:type="MSPage">
        <g id="Artboard-1" sketch:type="MSArtboardGroup" transform="translate(-14970.000000, -2326.000000)" fill="#4B0082">
            <path d="M15462.0008,2861.24266 C15469.8742,2850.76645 15478.0284,2840.48721 15485.5665,2829.77628 C15506.1069,2800.58984 15523.8248,2769.84766 15535.1095,2735.79583 C15540.8157,2718.57531 15544.9742,2701.02216 15543.1505,2682.6245 C15540.2986,2653.88038 15523.3338,2635.9321 15497.9372,2625.14097 C15474.6855,2615.26157 15450.1412,2614.79803 15425.5061,2617.82932 C15361.1158,2625.75076 15302.9841,2651.13807 15247.2109,2682.68584 C15229.1164,2692.92026 15211.6947,2704.34242 15193.3441,2715.60182 C15191.695,2713.43274 15189.7603,2710.88858 15187.1764,2707.49048 C15201.3437,2696.84088 15214.8677,2686.14999 15228.9205,2676.20573 C15283.9831,2637.23662 15343.039,2606.12172 15407.9333,2586.79934 C15444.8943,2575.79354 15482.5777,2569.42666 15521.2858,2571.33625 C15549.2131,2572.71389 15575.8219,2579.1999 15599.0382,2595.54053 C15626.2361,2614.6848 15640.9711,2641.69744 15646.5982,2674.02014 C15652.6926,2709.02381 15646.4435,2742.85153 15636.2212,2776.17561 C15619.4298,2830.91566 15592.6404,2880.84104 15561.7738,2928.73888 C15528.9112,2979.73169 15491.3234,3027.06219 15449.5794,3071.03116 C15395.0904,3128.42387 15335.4679,3179.61484 15266.1187,3218.56272 C15224.5258,3241.92249 15180.827,3259.75399 15132.9649,3265.30702 C15099.4341,3269.19815 15066.3956,3267.00548 15035.5397,3252.1345 C14990.8576,3230.60058 14970.7198,3193.40542 14970.021,3144.87538 C14969.3458,3098.00251 14985.0216,3055.82166 15008.4658,3016.1248 C15034.2932,2972.39527 15068.1143,2935.35816 15106.1518,2902.08244 C15147.6161,2865.80728 15193.1151,2835.42484 15242.7254,2811.368 C15278.238,2794.14747 15314.9417,2780.25664 15354.2895,2774.70361 C15378.2802,2771.3173 15402.1481,2771.19228 15425.0941,2780.66003 C15455.2111,2793.08711 15469.8222,2822.31483 15461.9725,2854.18578 C15461.4614,2856.26286 15460.929,2858.33404 15460.4073,2860.40758 C15460.9361,2860.68712 15461.4684,2860.9643 15462.0008,2861.24266 Z M15187.4877,3065 C15165.9188,3064.5567 15148.5082,3058.15708 15138.8564,3038.45246 C15132.5971,3025.67446 15132.8937,3012.23386 15136.8795,2998.81802 C15143.6102,2976.15882 15156.3402,2956.81733 15171.4537,2939.07809 C15214.3882,2888.67938 15265.7657,2849.78418 15328.4386,2826.89389 C15348.8956,2819.42257 15370.0355,2815.34441 15392.0818,2817.63757 C15416.021,2820.12761 15430.4787,2833.87829 15430.9868,2856.8794 C15431.177,2865.50378 15429.2923,2874.49837 15426.6702,2882.795 C15421.0514,2900.56842 15411.5579,2916.39649 15399.0949,2930.33817 C15360.5668,2973.43651 15316.843,3010.29323 15266.5326,3039.0455 C15245.6183,3050.9982 15223.5886,3060.37596 15199.4674,3063.86816 C15195.1921,3064.48478 15190.8578,3064.68992 15187.4877,3065 Z M15955.2164,3148.78989 L15948.6509,3148.78989 C15893.0382,3148.80521 15837.4196,3149.34493 15781.8175,3148.63198 C15750.3476,3148.23013 15720.5108,3140.36414 15696.2654,3119.02756 C15676.7637,3101.86614 15666.4864,3079.3311 15664.4288,3053.4505 C15661.3017,3014.10168 15675.4337,2980.80643 15701.7166,2952.29205 C15736.6343,2914.40919 15780.0253,2891.66675 15830.8896,2885.09231 C15855.2623,2881.94237 15880.2092,2883.18915 15904.9003,2882.56341 C15913.1484,2882.35482 15921.4106,2882.63882 15929.6563,2882.39607 C15931.2292,2882.34893 15933.8398,2881.17404 15934.1452,2880.03215 C15937.7133,2866.66762 15943.2493,2853.65661 15941.6893,2839.30456 C15940.5019,2828.37937 15934.2407,2821.73187 15924.1238,2818.91661 C15918.5335,2817.36109 15912.5435,2816.61515 15906.7268,2816.58687 C15866.8367,2816.39596 15826.9454,2816.49495 15787.0541,2816.48434 C15785.3078,2816.48434 15783.5603,2816.32643 15781.0287,2816.20388 C15783.2526,2807.7522 15785.3467,2799.69177 15787.4951,2791.64666 C15792.293,2773.67094 15797.2218,2755.72823 15801.8546,2737.70892 C15802.8969,2733.65277 15804.5619,2732.05247 15808.9883,2732.06779 C15851.2344,2732.21863 15893.4863,2731.72369 15935.7264,2732.24691 C15965.851,2732.62047 15992.1846,2743.46906 16013.0211,2765.51152 C16032.2386,2785.83937 16040.1317,2810.98109 16035.8786,2838.13439 C16031.833,2863.9537 16024.6674,2889.33582 16018.0123,2914.68376 C16002.548,2973.57561 15986.5707,3032.33075 15970.7845,3091.13893 C15965.6588,3110.22236 15960.4824,3129.28694 15955.2164,3148.78989 Z M15910,2966.71744 C15908.4892,2966.39519 15907.9244,2966.16855 15907.3608,2966.16855 C15882.4732,2966.16146 15857.5739,2965.71408 15832.7005,2966.30666 C15804.8196,2966.97005 15777.4022,2987.12925 15768.0819,3012.71012 C15757.8414,3040.81827 15773.9805,3064.58129 15803.7594,3064.84925 C15828.6457,3065.07117 15853.538,3064.74419 15878.4232,3064.99916 C15883.0286,3065.04638 15884.4547,3063.09869 15885.4408,3059.21275 C15888.6248,3046.66135 15892.0489,3034.17251 15895.38,3021.65888 C15900.2196,3003.47216 15905.0592,2985.28426 15910,2966.71744 Z M16401.4414,2732 L16493,2732 C16488.3861,2749.69643 16483.8358,2767.11937 16479.2996,2784.54702 C16452.0862,2889.10942 16424.8763,2993.673 16397.6687,3098.23657 C16393.6203,3113.79462 16389.6957,3129.38804 16385.4199,3144.88361 C16384.9604,3146.54928 16382.5415,3148.85858 16381.0157,3148.87037 C16352.5557,3149.07902 16324.0933,3148.98708 16295.6298,3148.92813 C16294.8981,3148.92696 16294.1664,3148.58392 16293,3148.29157 C16329.1644,3009.46092 16365.2829,2870.8118 16401.4414,2732 Z M16793,2731 C16788.2266,2749.00591 16783.8763,2765.48684 16779.4859,2781.95714 C16776.9566,2791.4399 16774.043,2800.83532 16771.9333,2810.40896 C16770.8489,2815.32857 16768.9407,2816.99874 16763.7642,2816.96923 C16744.7318,2816.85592 16725.6204,2816.31533 16706.6716,2817.73408 C16629.0816,2823.5413 16552.9354,2887.04061 16550.3565,2978.21509 C16548.6511,3038.50627 16594.8213,3064.78746 16634.277,3065.02943 C16657.8412,3065.17461 16681.4066,3065.07074 16704.9709,3065.07783 C16707.1018,3065.07901 16709.2328,3065.07783 16712.4492,3065.07783 C16704.8707,3093.53437 16697.4772,3121.29451 16690.0542,3149.16797 C16688.6941,3149.35446 16687.5484,3149.64836 16686.4028,3149.64718 C16656.9502,3149.59761 16627.4327,3150.73663 16598.059,3149.16561 C16550.5109,3146.62082 16509.9816,3128.84744 16481.9586,3088.39404 C16464.6552,3063.41592 16456.9882,3035.14824 16457,3004.98966 C16457.0271,2934.31985 16483.1843,2873.44795 16529.1554,2821.06733 C16575.057,2768.76461 16634.079,2740.83096 16702.8635,2734.39817 C16732.4682,2731.62793 16762.3699,2732.05521 16793,2731 Z M17063,2732.08688 C17056.2499,2757.29175 17049.7464,2781.55208 17043.2571,2805.81595 C17040.2698,2816.98624 17040.2816,2816.97561 17028.7147,2816.97797 C16991.9378,2816.98387 16955.1585,2816.95672 16918.3816,2817.037 C16900.4599,2817.07597 16886.8003,2825.83061 16880.8209,2840.4933 C16877.9374,2847.56431 16878.242,2854.50899 16883.5155,2859.71927 C16890.5737,2866.69347 16898.0674,2873.61335 16906.4735,2878.76106 C16927.7342,2891.78026 16949.8247,2903.43698 16971.1633,2916.33694 C16986.2145,2925.43634 16999.5719,2936.82622 17009.5549,2951.57393 C17024.0962,2973.05733 17027.9805,2996.94221 17023.4694,3022.05734 C17018.6916,3048.64949 17009.2232,3073.55564 16993.0768,3095.51486 C16971.2814,3125.15548 16941.3738,3141.39909 16905.5541,3147.11351 C16894.3519,3148.90104 16882.8923,3149.74522 16871.5426,3149.82432 C16827.2932,3150.12658 16783.0403,3149.94711 16738.7873,3149.94711 L16730,3149.94711 C16735.0363,3130.99624 16739.8579,3112.79863 16744.7124,3094.61047 C16746.8405,3086.64097 16749.3215,3078.75294 16751.0884,3070.7067 C16752.0315,3066.41143 16753.8078,3065.16347 16758.2021,3065.18354 C16798.5199,3065.37363 16838.8412,3065.55309 16879.1555,3065.11624 C16888.8528,3065.01116 16898.8216,3063.64867 16908.1413,3061.00988 C16923.1169,3056.76893 16930.4489,3044.34478 16931.7661,3027.71864 C16932.407,3019.61336 16928.0765,3012.41484 16921.8209,3007.81378 C16909.0537,2998.42395 16895.7198,2989.7673 16882.3175,2981.28303 C16865.0746,2970.36895 16846.8991,2960.81972 16830.2805,2949.04966 C16808.5642,2933.6703 16792.413,2913.68162 16787.4369,2886.44601 C16783.5147,2864.97206 16788.1073,2844.55125 16795.7592,2824.73849 C16815.2081,2774.37363 16853.8712,2747.07308 16905.0312,2735.8355 C16917.2024,2733.16129 16929.9744,2732.40685 16942.488,2732.25572 C16979.8503,2731.80352 17017.2221,2732.08925 17054.5916,2732.08688 C17057.1316,2732.08688 17059.6751,2732.08688 17063,2732.08688 Z M16002,3149.94022 C16006.4204,3133.26845 16010.4772,3117.9121 16014.5659,3102.56401 C16017.3988,3091.92969 16020.4759,3081.35441 16023.0396,3070.65751 C16024.0642,3066.37828 16026.0483,3065.18921 16030.3295,3065.20692 C16070.46,3065.37696 16110.5952,3065.56943 16150.7211,3065.14788 C16160.427,3065.04633 16170.362,3063.65653 16179.7434,3061.16857 C16194.0857,3057.3652 16200.6308,3046.07436 16203.2747,3032.23179 C16205.6283,3019.90538 16199.2356,3010.85807 16190.2343,3004.48409 C16176.331,2994.63973 16161.6404,2985.83329 16146.8708,2977.30317 C16126.5984,2965.59786 16106.176,2954.28103 16088.9642,2938.02609 C16059.2632,2909.97728 16051.6618,2876.44481 16063.267,2837.85733 C16081.436,2777.43678 16123.9957,2745.42519 16184.2358,2734.48268 C16194.9875,2732.52963 16206.1418,2732.23915 16217.1154,2732.15768 C16253.9009,2731.88373 16290.6887,2732.05022 16327.4765,2732.04904 L16335,2732.04904 C16327.3868,2760.41313 16319.9034,2788.28836 16312.2064,2816.95946 L16304.1753,2816.95946 C16266.2083,2816.95946 16228.2414,2816.90042 16190.2732,2816.98426 C16171.9779,2817.02441 16158.0156,2826.33386 16152.3629,2841.67368 C16150.1273,2847.73829 16150.3079,2853.84659 16154.6197,2858.34191 C16161.2155,2865.22009 16168.0709,2872.33443 16176.0937,2877.26547 C16197.5064,2890.42553 16220.1289,2901.65379 16241.224,2915.27318 C16253.9528,2923.4904 16266.0372,2933.57092 16276.0996,2944.87357 C16294.8565,2965.94738 16300.2825,2991.79399 16295.9058,3019.31498 C16291.4665,3047.22918 16281.6154,3073.26236 16264.6467,3096.14044 C16242.8729,3125.4964 16213.0362,3141.57777 16177.4098,3147.13581 C16165.6146,3148.97668 16153.5503,3149.74066 16141.6005,3149.8245 C16097.733,3150.13033 16053.8632,3149.94376 16009.9945,3149.94258 C16007.6763,3149.94022 16005.3593,3149.94022 16002,3149.94022 Z" id="asics" sketch:type="MSShapeGroup"></path>
        </g>
    </g>
</svg>