<?xml version="1.0" encoding="UTF-8" standalone="no"?>
<svg width="3202px" height="1250px" viewBox="0 0 3202 1250" version="1.1" xmlns="http://www.w3.org/2000/svg" xmlns:xlink="http://www.w3.org/1999/xlink" xmlns:sketch="http://www.bohemiancoding.com/sketch/ns">
    <!-- Generator: Sketch 3.3.3 (12072) - http://www.bohemiancoding.com/sketch -->
    <title>boonedam</title>
    <desc>Created with Sketch.</desc>
    <defs></defs>
    <g id="All-logos" stroke="none" stroke-width="1" fill="none" fill-rule="evenodd" sketch:type="MSPage">
        <g id="Artboard-1" sketch:type="MSArtboardGroup" transform="translate(-15001.000000, -4367.000000)" fill="#4B0082">
            <g id="boonedam" sketch:type="MSLayerGroup" transform="translate(13817.000000, 4367.000000)">
                <path d="M3128,431.892006 L3128,478.016647 L3095.04133,478.016647 C3060.72311,478.016647 3026.37868,478.844966 2992.10541,477.654725 C2975.19536,477.068932 2970.33396,483.06118 2971.13545,499.138763 C2972.28526,522.077955 2972.3377,545.173856 2971.06804,568.101854 C2970.12797,585.059992 2976.94817,589.395604 2992.83574,588.973982 C3028.19141,588.03746 3063.59202,588.682951 3100.14618,588.682951 L3100.14618,638.695464 C3063.97404,638.695464 3028.55845,639.646911 2993.229,638.292499 C2975.82457,637.624621 2970.3377,643.046001 2971.07927,660.145922 C2972.28901,688.066217 2972.33395,716.113372 2971.0568,744.029936 C2970.28152,760.935837 2975.30772,766.760183 2992.84698,766.308712 C3037.04156,765.163245 3081.27734,765.928134 3127.0412,765.928134 L3127.0412,816.735384 C3112.48695,816.735384 3098.33345,816.739116 3084.17995,816.735384 C3028.02661,816.724191 2971.86579,816.276451 2915.71994,816.992835 C2900.83985,817.183124 2894.91478,813.657175 2895.00092,797.538549 C2895.60766,680.066603 2895.37546,562.583464 2895.30804,445.104056 C2895.30055,436.421639 2895.27808,428.940656 2907.47279,429.000355 C2979.21033,429.347353 3050.95536,429.373471 3122.6929,429.582416 C3123.80526,429.589879 3124.91387,430.511476 3128,431.892006 Z M2430.65715,546.451685 L2430.65715,566.318544 C2430.64969,643.821246 2430.35516,721.327669 2430.89575,798.82665 C2430.99641,812.81792 2427.79388,818.418149 2412.44112,818.317679 C2366.39776,818.016272 2366.3903,818.667461 2366.38285,772.741863 C2366.37539,664.856524 2366.72211,556.971185 2366.00257,449.089567 C2365.88699,431.976309 2369.61893,426.483992 2388.13694,425.229987 C2416.01275,423.343399 2433.71801,433.051702 2450.6217,454.793986 C2509.24777,530.194277 2569.83114,604.080087 2629.64651,678.557549 C2633.88921,683.841486 2637.97159,689.25194 2645.51376,698.956522 C2646.13264,688.105846 2646.79253,681.884197 2646.79999,675.662547 C2646.8671,599.398965 2647.29584,523.131663 2646.46818,446.875523 C2646.28923,430.472992 2651.12098,425.509068 2667.47663,425.680238 C2712.56557,426.152816 2712.55812,425.483021 2712.56185,470.232757 C2712.5693,579.357216 2712.23004,688.485397 2712.99805,797.609856 C2713.11735,814.310074 2707.78974,817.279497 2691.99332,818.645135 C2664.26664,821.048954 2646.49801,811.23646 2629.55703,789.326727 C2568.86554,710.830496 2506.13844,633.893398 2444.17563,556.372091 C2441.14832,552.58775 2438.03527,548.881552 2434.9595,545.138143 C2433.52787,545.580952 2432.09251,546.016319 2430.65715,546.451685 Z M4004.69383,516.574456 L4004.69383,812.368346 L3946.06774,812.368346 C3945.44843,807.145147 3944.4038,802.417091 3944.40007,797.689035 C3944.29933,680.477918 3944.5493,563.259356 3944.00087,446.051963 C3943.92998,430.791883 3948.17939,425.147999 3963.90105,426.14573 C3983.7117,427.404063 4003.71635,427.340774 4023.52327,426.086164 C4036.45802,425.263408 4042.27809,430.3228 4046.83342,441.696195 C4082.75374,531.465971 4119.16653,621.042158 4155.47486,710.655574 C4156.57918,713.376998 4158.22447,715.882496 4160.90693,720.893491 C4164.04828,715.744749 4166.3987,712.669651 4167.95072,709.237157 C4208.28087,619.981138 4248.70429,530.769793 4288.56808,441.309016 C4293.63827,429.924452 4300.23062,425.661756 4312.65425,426.153176 C4336.18452,427.080173 4359.77076,426.421223 4385.17763,426.421223 C4385.65891,432.832021 4386.39761,438.122231 4386.40134,443.412442 C4386.52073,560.00556 4386.20734,676.602402 4386.99827,793.188074 C4387.1102,810.060161 4381.80124,814.743542 4365.77738,813.582004 C4347.92914,812.28272 4329.91675,813.284174 4309.2704,813.284174 L4309.2704,519.35917 C4307.81911,519.031556 4306.37155,518.703943 4304.92026,518.37633 C4303.09589,521.555668 4300.95067,524.59726 4299.49192,527.936682 C4260.34444,617.713905 4220.67465,707.271477 4182.68372,797.536397 C4175.27058,815.153059 4163.24989,812.409297 4149.90102,813.805377 C4135.76868,815.28336 4130.54553,808.224782 4125.82605,796.668966 C4089.02152,706.597636 4051.72453,616.719896 4014.55438,526.793759 C4012.96878,522.962916 4011.11083,519.24376 4009.376,515.472484 C4007.82025,515.841049 4006.25704,516.209614 4004.69383,516.574456 Z M2146.99997,204.313942 C2147.02605,228.509629 2128.93733,246.883545 2104.97424,246.999457 C2080.67963,247.119108 2061.50321,227.455205 2062.00981,202.949172 C2062.49034,179.796693 2082.27022,160.682437 2105.42125,161.003999 C2129.04908,161.333039 2146.97762,180.006082 2146.99997,204.313942 Z M1713.26149,160.004638 C1736.36447,159.658138 1756.28935,178.771525 1756.98105,201.938589 C1757.69893,225.865717 1737.92362,246.026055 1713.75877,245.999975 C1690.52867,245.973894 1671.05995,226.551266 1671.00012,203.335766 C1670.94404,180.030847 1690.13234,160.354864 1713.26149,160.004638 Z M1966,42.4405548 C1946.58345,62.0278084 1928.55114,80.2130505 1911.9068,97 C1894.76649,80.0457017 1876.24192,61.7191428 1856,41.6930633 C1871.10094,29.1567747 1888.23385,14.5527981 1905.96635,0.722345031 C1908.06124,-0.910236008 1914.43472,0.447149139 1917.15141,2.57805788 C1933.96972,15.7465532 1950.30686,29.528661 1966,42.4405548 Z M1891.99879,173.381263 C1892.19423,205.694074 1868.61273,230.611728 1837.4645,230.99565 C1806.44164,231.379572 1781.23395,206.30164 1781.00164,174.831221 C1780.76933,143.189342 1805.20633,117.518754 1836.04113,117.0081 C1867.2373,116.486264 1891.80336,141.239913 1891.99879,173.381263 Z M2036.99975,174.133148 C2037.08914,206.33143 2012.73242,230.977582 1980.79682,230.99998 C1949.76622,231.026112 1923.75593,204.912839 1924.00173,173.983822 C1924.24753,142.446305 1949.47572,117.206585 1980.94952,117.001263 C2012.52014,116.79594 2036.91037,141.654881 2036.99975,174.133148 Z M1714.31694,344 C1714.31694,328.194822 1713.30007,314.192501 1714.90918,300.490048 C1715.4232,296.112723 1722.35874,289.939854 1727.26428,288.94883 C1820.93508,270.079159 1915.35456,264.348776 2010.47058,276.102094 C2037.53111,279.444513 2064.36816,284.469112 2091.39145,288.158937 C2101.83946,289.585133 2106.65188,293.735729 2105.92927,304.691841 C2105.09865,317.216768 2105.73559,329.833119 2105.73559,343.919548 C1974.60838,323.941832 1846.1891,323.448148 1714.31694,344 Z M3902,813.371003 C3874.54226,813.371003 3849.79712,814.029925 3825.14887,812.786535 C3820.56202,812.555726 3814.32078,805.437877 3812.32731,800.181391 C3803.33992,776.4453 3794.85183,752.456064 3787.70514,728.109446 C3783.45737,713.642939 3777.2273,706.733563 3760.69453,707.392485 C3726.00067,708.76617 3691.21366,708.304552 3656.47881,707.608403 C3644.48445,707.366426 3638.80957,711.740627 3634.93069,722.849237 C3625.74581,749.146562 3615.92005,775.276364 3604.89074,800.847758 C3602.47622,806.454181 3594.28995,812.447767 3588.22756,813.069462 C3571.75813,814.748411 3555.00179,813.642762 3535,813.642762 C3546.59194,784.713471 3556.958,758.471986 3567.61096,732.338461 C3606.42218,637.129784 3645.68798,542.099799 3683.84713,446.634254 C3690.14054,430.890852 3698.13305,425.42217 3715.20239,426.047588 C3757.64657,427.596241 3757.19198,426.851696 3772.35727,467.399611 C3813.37062,577.056181 3854.84228,686.541505 3896.10156,796.105007 C3897.81185,800.643008 3899.25013,805.288968 3902,813.371003 Z M3769,663 C3751.62936,609.783787 3735.08164,559.083168 3716.77265,503 C3697.78969,559.483121 3680.74672,610.191216 3663,663 L3769,663 Z M3189.11217,813.287015 C3188.84738,807.558085 3188.37746,802.06755 3188.37373,796.580739 C3188.29914,679.938525 3188.45951,563.292586 3188.00079,446.650372 C3187.94858,434.197957 3190.46223,428.804269 3204.20902,429.005415 C3253.27378,429.724325 3302.38329,428.349829 3351.41821,429.769024 C3389.74213,430.879051 3426.61156,440.597373 3459.25552,461.300491 C3506.69796,491.390412 3530.97674,536.05968 3534.31833,591.497697 C3539.46126,676.850565 3516.39828,749.527522 3434.50683,790.844359 C3412.2345,802.086174 3386.53853,810.940314 3361.93529,812.296186 C3305.15801,815.425121 3248.09729,813.287015 3189.11217,813.287015 Z M3307.50745,762.654037 C3317.41108,762.654037 3327.35563,763.212793 3337.21462,762.56091 C3390.12946,759.059368 3431.08704,730.816074 3442.96619,681.455499 C3450.92778,648.373371 3454.11242,612.411784 3450.55202,578.677773 C3445.11284,527.156671 3414.04773,492.055569 3361.6835,481.927171 C3336.43334,477.043637 3310.0373,478.269177 3284.20676,476.160801 C3269.87961,474.991137 3264.87943,480.094449 3265.0022,495.024431 C3265.64582,570.683826 3265.35936,646.350672 3265.16962,722.017517 C3265.06173,763.916827 3264.86083,763.916827 3307.50745,762.654037 Z M1406.30641,612.630095 C1480.38497,643.024614 1492.43569,735.137665 1428.77152,784.03659 C1403.86496,803.165617 1375.15272,813.17443 1344.12948,814.029566 C1295.75142,815.364322 1247.3249,814.843804 1198.91702,814.99996 C1196.59484,815.007396 1194.26894,813.981232 1191,813.207892 L1191,425.072679 C1209.77497,425.072679 1227.61435,424.938832 1245.45001,425.098705 C1282.04573,425.425887 1318.798,423.942412 1355.20361,426.812695 C1405.11364,430.746322 1437.43774,456.500797 1443.72961,492.67678 C1451.68018,538.359649 1431.5708,574.728967 1385.6491,597.747006 C1383.5953,598.773169 1381.59741,599.922026 1376.35294,602.75513 C1388.73167,606.796579 1397.76319,609.124037 1406.30641,612.630095 Z M1271,765.306798 C1298.66233,761.229503 1324.88664,767.748004 1349.08651,760.37268 C1375.17635,752.424909 1386.04556,725.981582 1384.92129,696.317782 C1383.94642,670.568777 1371.3217,650.31895 1345.72116,644.036813 C1324.44216,638.810932 1271,639.000872 1271,639.000872 C1271,639.000872 1271,725.032429 1271,769 L1271,765.306798 Z M1271,588.350686 C1313.98362,591.938963 1343.49531,580.625447 1360.72777,555.142913 C1383.35549,521.679239 1367.04546,482.604289 1327.04221,476.42929 C1312.29465,474.155851 1271,475.275881 1271,475.275881 L1271,584.641978 L1271,588.350686 Z M2125.61856,420.000032 C2236.77102,420.059568 2319.10397,504.60829 2318.9999,618.593899 C2318.8884,741.30899 2239.38016,823.048352 2120.19214,822.999979 C2008.88358,822.947884 1927.73998,735.039093 1929.01481,615.888727 C1930.22275,502.829649 2013.41427,419.940496 2125.61856,420.000032 Z M2216.01402,531.088227 C2198.25219,491.5217 2163.76804,474.277425 2120.24348,476.135131 C2078.00237,477.936994 2047.67628,499.067932 2031.21666,536.836319 C2006.90625,592.619612 2009.0716,649.486256 2033.1043,704.766964 C2050.26944,744.25531 2082.29928,765.360188 2126.04526,764.995348 C2170.52677,764.61934 2203.09326,742.982093 2218.62219,701.881749 C2228.76216,675.039948 2236.32347,644.236326 2236.96946,615.012598 C2237.61545,585.78887 2227.92905,557.628476 2216.01402,531.088227 Z M1890.99985,621.392267 C1891.12646,736.096785 1809.84042,820.66949 1701.74327,822.947305 C1581.42101,825.481514 1501.52021,736.301157 1501.00261,621.879043 C1500.47011,503.692774 1581.58113,420.290561 1696.58958,420.000725 C1809.38612,419.714605 1890.86952,504.127529 1890.99985,621.392267 Z M1785.12083,532.476778 C1768.78753,494.422135 1736.82317,475.959097 1694.86414,476.000068 C1653.00171,476.041039 1621.70242,494.641889 1603.94981,532.078241 C1575.27365,592.551489 1578.40209,653.799462 1607.62071,713.099448 C1625.0798,748.531944 1656.4051,765.177358 1695.40288,764.998575 C1734.51213,764.816068 1764.13945,746.870755 1782.6686,711.948534 C1798.12504,682.821853 1803.38182,642.179197 1803.96951,618.653763 C1804.5572,595.128329 1796.59055,559.201066 1785.12083,532.476778 Z" id="Boon-Edam" sketch:type="MSShapeGroup"></path>
            </g>
        </g>
    </g>
</svg>