<?xml version="1.0" encoding="UTF-8" standalone="no"?>
<svg width="3495px" height="1263px" viewBox="0 0 3495 1263" version="1.1" xmlns="http://www.w3.org/2000/svg" xmlns:xlink="http://www.w3.org/1999/xlink" xmlns:sketch="http://www.bohemiancoding.com/sketch/ns">
    <!-- Generator: Sketch 3.4.4 (17249) - http://www.bohemiancoding.com/sketch -->
    <title>hoppinger</title>
    <desc>Created with Sketch.</desc>
    <defs></defs>
    <g id="All-logos" stroke="none" stroke-width="1" fill="none" fill-rule="evenodd" sketch:type="MSPage">
        <g id="Artboard-1" sketch:type="MSArtboardGroup" transform="translate(-2381.000000, -11711.000000)" fill="#4B0082">
            <path d="M5144.70385,12262.8967 C5135.04958,12259.2708 5121.19107,12256.851 5107.92656,12256.851 C5095.27534,12256.851 5083.21423,12258.6678 5074.20795,12262.2821 L5074.20795,12511.0901 L4974.74536,12511.0901 L4974.74536,12201.8863 C5010.90937,12188.0089 5058.5212,12178.3217 5115.77187,12178.3217 C5135.04958,12178.3217 5151.32646,12180.1269 5162.75501,12181.9631 L5144.70385,12262.8967 Z M5309.85717,12523.9715 L5875.42073,12523.9715 L5592.62897,12037.0562 L5309.85717,12523.9715 Z M4919.28438,12361.3066 L4716.82997,12387.9096 C4724.65212,12423.5347 4755.39693,12441.0303 4795.77674,12441.0303 C4828.31508,12441.0303 4863.25639,12433.2103 4887.37859,12421.1226 L4915.06858,12494.7851 C4885.56576,12508.678 4836.7698,12518.3265 4787.93529,12518.3265 C4675.2429,12518.3265 4619.78576,12444.6872 4619.78576,12348.0206 C4619.78576,12248.4008 4677.64585,12178.3217 4775.28019,12178.3217 C4869.879,12178.3217 4920.52635,12241.7404 4920.52635,12331.1242 C4920.52635,12341.3873 4920.52635,12351.0474 4919.28438,12361.3066 Z M4417.30822,12647 C4360.03825,12647 4317.27091,12636.1145 4285.93598,12621.004 L4313.03584,12543.7079 C4335.32207,12555.1848 4369.08311,12563.0319 4406.46981,12563.0319 C4448.60073,12563.0319 4467.32686,12542.5018 4467.32686,12503.8692 L4467.32686,12488.1479 C4452.2688,12494.7851 4429.97872,12498.4187 4411.27574,12498.4187 C4328.10932,12498.4187 4272.67147,12439.8359 4272.67147,12343.2157 C4272.67147,12235.1148 4337.17732,12178.3217 4445.01749,12178.3217 C4494.446,12178.3217 4537.84204,12188.581 4565.55132,12201.8863 L4565.55132,12503.8692 C4565.55132,12598.688 4506.5071,12647 4417.30822,12647 Z M4119.01301,12511.0901 L4119.01301,12299.7318 C4119.01301,12272.5452 4102.73227,12256.2402 4073.21015,12256.2402 C4059.35551,12256.2402 4044.29746,12259.2708 4035.82345,12262.8967 L4035.82345,12511.0901 L3936.39558,12511.0901 L3936.39558,12201.8863 C3972.58272,12188.0089 4015.36934,12178.3217 4072.00674,12178.3217 C4173.86072,12178.3217 4218.43703,12217.6076 4218.43703,12288.2472 L4218.43703,12511.0901 L4119.01301,12511.0901 Z M3771.28544,12185.589 L3870.70946,12185.589 L3870.70946,12511.0862 L3771.28544,12511.0862 L3771.28544,12185.589 Z M3820.71395,12140.8913 C3790.55928,12140.8913 3765.86624,12117.922 3765.86624,12089.5603 C3765.86624,12061.1676 3790.55928,12037.603 3820.71395,12037.603 C3850.8262,12037.603 3876.13252,12061.1676 3876.13252,12089.5603 C3876.13252,12117.922 3850.8262,12140.8913 3820.71395,12140.8913 Z M3563.3694,12514.113 C3548.90148,12514.113 3532.03446,12511.7009 3523.00889,12508.678 L3523.00889,12640.9542 L3423.58101,12640.9542 L3423.58101,12201.8863 C3449.49675,12188.581 3497.68328,12178.3217 3550.14732,12178.3217 C3657.96435,12178.3217 3716.44158,12238.7214 3716.44158,12347.4292 C3716.44158,12448.2899 3663.99683,12514.113 3563.3694,12514.113 Z M3216.23582,12514.113 C3201.79104,12514.113 3184.92016,12511.7009 3175.87531,12508.678 L3175.87531,12640.9542 L3076.44743,12640.9542 L3076.44743,12201.8863 C3102.36317,12188.581 3150.56899,12178.3217 3203.01374,12178.3217 C3310.8732,12178.3217 3369.32728,12238.7214 3369.32728,12347.4292 C3369.32728,12448.2899 3316.90567,12514.113 3216.23582,12514.113 Z M2869.7348,12518.3265 C2772.71374,12518.3265 2717.27589,12445.2979 2717.27589,12348.0206 C2717.27589,12250.7975 2772.71374,12178.3217 2869.7348,12178.3217 C2966.77514,12178.3217 3022.21299,12250.7975 3022.21299,12348.0206 C3022.21299,12445.2979 2966.77514,12518.3265 2869.7348,12518.3265 Z M2563.61358,12301.5602 C2563.61358,12272.5452 2547.92297,12257.4347 2516.60731,12257.4347 C2503.97537,12257.4347 2490.08215,12261.0683 2480.42402,12265.8771 L2480.42402,12511.0901 L2381,12511.0901 L2381,12037 L2480.42402,12037 L2480.42402,12193.4323 C2498.51759,12185.589 2520.82696,12180.1385 2543.13633,12180.1385 C2620.86425,12180.1385 2663.05688,12219.3935 2663.05688,12291.2894 L2663.05688,12511.0901 L2563.61358,12511.0901 L2563.61358,12301.5602 Z M2869.7348,12255.6178 C2834.79349,12255.6178 2816.7192,12287.0295 2816.7192,12346.8184 C2816.7192,12406.6383 2834.79349,12438.6414 2869.7348,12438.6414 C2904.69539,12438.6414 2922.78511,12406.6383 2922.78511,12346.8184 C2922.78511,12287.0295 2904.69539,12255.6178 2869.7348,12255.6178 Z M3204.80342,12254.435 C3193.3556,12254.435 3181.90392,12256.851 3175.87531,12259.2708 L3175.87531,12434.4047 C3181.29451,12436.813 3193.96502,12439.2212 3205.4167,12439.2212 C3247.59004,12439.2212 3269.88012,12401.787 3269.88012,12347.4292 C3269.88012,12286.4497 3246.39049,12254.435 3204.80342,12254.435 Z M3551.94086,12254.435 C3540.44676,12254.435 3529.03751,12256.851 3523.00889,12259.2708 L3523.00889,12434.4047 C3528.42423,12436.813 3541.06003,12439.2212 3552.50785,12439.2212 C3594.70434,12439.2212 3616.99442,12401.787 3616.99442,12347.4292 C3616.99442,12286.4497 3593.50093,12254.435 3551.94086,12254.435 Z M4467.32686,12258.0454 C4460.09483,12255.6178 4448.60073,12253.8281 4435.37865,12253.8281 C4396.83096,12253.8281 4372.09934,12281.61 4372.09934,12339.5782 C4372.09934,12396.9589 4395.58897,12424.7253 4434.17908,12424.7253 C4445.6462,12424.7253 4460.09483,12421.1226 4467.32686,12417.489 L4467.32686,12258.0454 Z M4772.87723,12248.4008 C4737.91277,12248.4008 4710.81676,12272.5452 4710.20734,12326.2768 L4824.68943,12311.7886 C4824.68943,12270.7284 4804.8023,12248.4008 4772.87723,12248.4008 Z" id="hoppinger" sketch:type="MSShapeGroup"></path>
        </g>
    </g>
</svg>