<?xml version="1.0" encoding="UTF-8" standalone="no"?>
<svg width="2032px" height="1233px" viewBox="0 0 2032 1233" version="1.1" xmlns="http://www.w3.org/2000/svg" xmlns:xlink="http://www.w3.org/1999/xlink" xmlns:sketch="http://www.bohemiancoding.com/sketch/ns">
    <!-- Generator: Sketch 3.3.3 (12072) - http://www.bohemiancoding.com/sketch -->
    <title>lego</title>
    <desc>Created with Sketch.</desc>
    <defs></defs>
    <g id="All-logos" stroke="none" stroke-width="1" fill="none" fill-rule="evenodd" sketch:type="MSPage">
        <g id="Artboard-1" sketch:type="MSArtboardGroup" transform="translate(-9795.000000, -8206.000000)" fill="#4B0082">
            <path d="M10341.3493,8474.14355 C10351.3375,8461.47222 10359.8376,8449.77856 10369.2657,8438.89231 C10398.8349,8404.75056 10435.9377,8381.907 10478.4218,8367.40116 C10512.812,8355.66356 10548.2621,8349.28669 10584.4699,8347.78173 C10612.0513,8346.63379 10639.792,8345.05193 10667.2745,8346.73265 C10715.0135,8349.6492 10760.0673,8362.44137 10797.9774,8393.34251 C10808.5586,8401.96583 10817.2179,8412.93996 10826.7009,8422.78263 C10838.5615,8414.65914 10851.1524,8405.17898 10864.5505,8397.02802 C10901.9554,8374.25587 10942.6604,8360.35969 10985.7265,8352.79644 C11019.1613,8346.92489 11052.7773,8345.18375 11086.5911,8346.82054 C11120.5476,8348.4683 11154.0263,8353.08205 11186.5716,8363.50144 C11235.8481,8379.28156 11282.1319,8410.69351 11308.0825,8462.46088 C11311.7834,8458.57764 11315.3526,8454.90861 11318.8339,8451.15719 C11363.2069,8403.33348 11417.277,8372.58064 11480.863,8358.04183 C11517.4992,8349.66019 11554.58,8347.25994 11591.8806,8349.14389 C11637.0827,8351.43429 11680.7802,8360.34322 11720.6341,8383.27465 C11770.9593,8412.23692 11801.0666,8456.29274 11815.8759,8511.55887 C11824.7878,8544.84927 11827.2149,8578.79878 11825.4742,8613.17671 C11823.135,8659.28125 11814.8491,8704.44657 11803.9439,8749.11206 C11784.5606,8828.50151 11757.1988,8905.19961 11723.6487,8979.66773 C11702.6235,9026.32702 11677.7712,9070.79478 11645.9397,9111.09369 C11595.4882,9174.97765 11531.6276,9217.62188 11451.0523,9233.34708 C11412.9885,9240.77302 11374.5623,9242.56359 11335.8726,9239.12525 C11294.3549,9235.42876 11255.0282,9224.8391 11219.2322,9202.94576 C11181.5309,9179.888 11154.7182,9147.54232 11138.1957,9106.59529 C11137.5423,9104.98047 11136.779,9103.40411 11136.0103,9101.84422 C11135.8401,9101.49819 11135.4227,9101.273 11135.1757,9101.04231 C11124.2595,9112.7085 11113.7881,9124.8196 11102.3668,9135.95302 C11050.9324,9186.08361 10990.1577,9218.92911 10919.7793,9233.94028 C10883.0114,9241.78365 10845.8866,9243.9587 10808.63,9240.21827 C10756.619,9235.00034 10708.7098,9218.47872 10668.2519,9184.13924 C10658.2638,9175.66422 10649.3738,9165.89296 10639.9402,9156.67644 C10631.5609,9164.13534 10623.3079,9172.29728 10614.2422,9179.42113 C10583.6298,9203.47305 10548.5586,9218.41281 10511.1757,9228.20055 C10470.3719,9238.87809 10428.706,9242.97554 10386.7546,9240.17982 C10322.0099,9235.86267 10264.14,9214.52408 10218.1033,9166.65642 C10217.8068,9166.34335 10217.395,9166.14012 10218.0923,9166.63445 C10202.9096,9177.56465 10188.6824,9189.22535 10173.1263,9198.711 C10141.1301,9218.21508 10105.8448,9229.21118 10068.7914,9233.61072 C10045.3447,9236.39545 10021.6509,9238.33982 9998.05602,9238.37826 C9955.91241,9238.45516 9915.27884,9230.54587 9878.5329,9208.47677 C9835.08243,9182.37613 9809.52721,9143.70302 9799.39627,9094.35786 C9792.31285,9059.85361 9794.68497,9025.40977 9800.19796,8991.07029 C9813.57409,8907.75914 9840.56797,8828.35871 9870.84547,8750.01833 C9906.29552,8658.29808 9946.55022,8568.75838 9994.48685,8482.79983 C10010.5481,8453.99135 10028.1413,8426.31984 10052.5764,8403.60261 C10083.0241,8375.28298 10118.7926,8358.5856 10159.9369,8352.91178 C10191.9825,8348.49577 10223.7645,8349.51738 10255.2556,8356.81699 C10287.6801,8364.33631 10313.8887,8380.7316 10329.8347,8410.97912 C10338.4171,8427.26456 10339.9766,8445.21424 10341.3219,8463.14745 C10341.558,8466.3606 10341.3493,8469.6067 10341.3493,8474.14355 Z M10988.8106,8883.87992 C10988.7392,8884.83524 10988.8326,8886.17489 10988.5306,8887.41571 C10981.7065,8915.21339 10970.6442,8941.062 10951.9891,8963.05089 C10936.1559,8981.71262 10917.4021,8996.39933 10892.0712,8999.10607 C10863.0784,9002.20264 10843.7481,8990.56857 10842.2878,8958.7739 C10841.4094,8939.68392 10845.1645,8921.2473 10849.7487,8902.95342 C10869.068,8825.90722 10896.9243,8751.84229 10928.7499,8679.22131 C10940.1691,8653.15309 10951.8464,8627.09585 10969.1015,8604.13517 C10987.5973,8579.50542 11010.8695,8564.57714 11043.2111,8567.48154 C11061.965,8569.16708 11069.4808,8577.49046 11066.1758,8596.04787 C11064.4245,8605.88659 11060.598,8615.34648 11058.089,8625.0754 C11049.9144,8656.72182 11062.2559,8678.39776 11093.5984,8687.44587 C11110.7382,8692.39268 11128.1855,8692.77152 11145.7425,8690.1636 C11180.9938,8684.9258 11209.5144,8668.76767 11228.5483,8637.99421 C11246.9508,8608.24745 11254.011,8575.26686 11254,8540.71604 C11253.989,8510.6728 11243.805,8484.55516 11221.6693,8463.56552 C11200.994,8443.97043 11175.7948,8433.14893 11148.6467,8426.69776 C11096.014,8414.19622 11042.997,8414.16327 10990.0459,8424.40279 C10939.8013,8434.12622 10895.7769,8456.60374 10858.4503,8491.764 C10826.9981,8521.40096 10802.4577,8556.38003 10782.1008,8594.21958 C10724.011,8702.19297 10682.1222,8815.92575 10662.4241,8937.29013 C10656.9176,8971.23152 10655.8745,9005.38704 10663.2037,9039.32844 C10675.7868,9097.62507 10709.0178,9138.32509 10765.8284,9158.35392 C10803.3746,9171.59667 10842.0846,9173.29868 10881.3492,9168.6758 C10946.0764,9161.04969 11001.7176,9134.03163 11049.1403,9089.87268 C11101.3064,9041.30497 11135.1523,8981.36123 11155.8222,8913.72002 C11166.3355,8879.31743 11174.7627,8844.46463 11173.2749,8807.94826 C11171.5071,8764.54698 11145.77,8735.43709 11102.86,8728.27218 C11076.9911,8723.95126 11051.232,8725.22503 11025.5333,8728.79376 C11005.3849,8731.58835 10986.0601,8737.30931 10969.892,8750.44224 C10946.4003,8769.53222 10934.3662,8795.4522 10929.5734,8824.39188 C10925.1594,8851.0311 10936.8916,8868.44652 10962.6397,8877.31894 C10970.8418,8880.14647 10979.527,8881.60142 10988.8106,8883.87992 Z M11571.8417,8418 C11553.098,8419.79063 11534.2225,8420.68045 11515.6489,8423.53666 C11467.7111,8430.90239 11425.2016,8450.23676 11389.2455,8483.3194 C11356.4289,8513.50737 11332.1416,8549.96803 11313.3101,8589.85065 C11264.4722,8693.28951 11225.2613,8800.16131 11203.2628,8912.79498 C11195.5129,8952.49634 11190.6225,8992.44488 11194.1846,9033.10197 C11199.7336,9096.47695 11236.2496,9141.9951 11297.2119,9160.21993 C11337.5974,9172.29293 11378.7896,9172.97402 11420.3277,9168.36014 C11477.662,9161.98309 11526.1322,9137.57346 11566.7263,9096.84496 C11600.443,9063.01531 11624.862,9022.83608 11646.0426,8980.5092 C11698.6129,8875.46098 11736.8303,8765.68353 11753.631,8649.01821 C11758.8068,8613.0464 11760.3327,8576.95924 11752.912,8540.99293 C11741.7865,8487.016 11711.2203,8449.69847 11658.7159,8431.54504 C11630.6525,8421.8449 11601.5407,8418.64814 11571.8417,8418 Z M10503.7406,8695.78843 C10515.6522,8665.54479 10529.234,8635.98165 10546.2937,8608.10328 C10547.2058,8606.61607 10550.1837,8605.72155 10552.2166,8605.68862 C10575.4903,8605.32093 10598.7696,8605.38679 10622.0378,8604.89288 C10644.861,8604.40995 10667.6403,8602.9392 10689.6834,8596.31534 C10733.1376,8583.25422 10764.6418,8558.54235 10771.8722,8510.7979 C10775.9819,8483.6604 10769.1581,8460.39184 10746.4722,8443.22031 C10721.2315,8424.10606 10691.9415,8416.47793 10661.0582,8414.79864 C10625.2849,8412.85594 10589.5447,8414.41449 10554.0791,8419.94626 C10514.817,8426.06523 10478.813,8439.85624 10447.7869,8465.30897 C10416.5684,8490.92085 10393.4814,8523.04134 10374.1416,8557.96064 C10338.8573,8621.68026 10310.8365,8688.6542 10286.8211,8757.29644 C10260.2452,8833.26499 10238.2352,8910.34758 10232.675,8991.23325 C10230.2959,9025.77389 10233.6859,9059.1072 10251.2566,9089.7734 C10273.7721,9129.07202 10309.0674,9151.04544 10351.7085,9162.6413 C10382.405,9170.98835 10413.6619,9171.31762 10445.1057,9168.14563 C10477.1538,9164.91877 10508.2678,9157.99857 10537.5468,9144.28988 C10584.3361,9122.3878 10615.8183,9088.78558 10620.2467,9034.82887 C10621.8235,9015.63231 10619.1588,8997.53881 10606.2418,8982.36486 C10592.2314,8965.91223 10573.1443,8959.04142 10552.5572,8956.0231 C10517.196,8950.83157 10482.0986,8953.73466 10447.2539,8960.74815 C10435.7819,8963.05854 10424.4142,8965.86833 10410.9148,8968.91959 C10422.6725,8930.72403 10433.9523,8894.08154 10445.254,8857.37868 C10447.5891,8857.66405 10448.6495,8857.75186 10449.6879,8857.92747 C10476.3406,8862.40557 10503.0867,8865.87939 10530.2065,8865.1056 C10554.3538,8864.41413 10577.8968,8860.68238 10599.2531,8848.71883 C10633.2352,8829.68141 10649.7345,8798.70789 10656.5089,8761.80747 C10662.3164,8730.18089 10649.3499,8709.22821 10618.8621,8698.99334 C10599.4344,8692.47375 10579.3198,8691.0963 10559.1229,8691.80423 C10540.7555,8692.44083 10522.4321,8694.38902 10503.7406,8695.78843 Z M10066.4812,8965.83659 C10067.3656,8963.74931 10068.1182,8961.76091 10069.0301,8959.85489 C10094.7272,8906.11304 10120.4902,8852.40414 10146.1434,8798.64031 C10178.8663,8730.05133 10211.4079,8661.36897 10238.1377,8590.14892 C10250.6841,8556.73054 10263.4063,8523.19132 10265.7629,8487.10891 C10267.4878,8460.75431 10260.0116,8439.34875 10236.3964,8429.18152 C10228.1017,8425.61118 10218.7852,8423.45249 10209.7654,8422.69448 C10173.439,8419.65145 10139.4637,8426.25384 10110.0971,8449.55992 C10090.1129,8465.42321 10076.1987,8486.10372 10063.5369,8507.81139 C10025.1615,8573.61001 9993.35599,8642.63842 9964.03887,8712.80384 C9927.88824,8799.31043 9895.13788,8887.01446 9875.76342,8979.09628 C9869.92966,9006.83508 9865.88119,9034.83753 9867.27646,9063.31786 C9868.12241,9080.63126 9872.20934,9097.1482 9881.00941,9112.20405 C9898.39534,9141.96421 9925.89421,9157.22879 9958.46878,9163.82568 C10002.189,9172.68561 10045.7939,9169.50526 10088.9319,9159.31057 C10115.019,9153.14761 10139.178,9142.49701 10160.0137,9125.21108 C10191.3028,9099.25196 10206.0795,9064.98219 10208.6228,9025.26352 C10210.3422,8998.3926 10197.3179,8979.695 10172.1206,8969.74199 C10152.9824,8962.17836 10132.9378,8960.39868 10112.6569,8961.55218 C10097.3914,8962.42554 10082.1808,8964.34254 10066.4812,8965.83659 Z M11583.982,8606.23316 C11583.4551,8628.34057 11577.681,8649.52067 11571.6325,8670.49226 C11545.0123,8762.80675 11512.8376,8853.13493 11473.0446,8940.64824 C11465.5086,8957.22468 11456.6279,8973.16462 11443.3563,8986.04278 C11430.5347,8998.49295 11415.1993,9003.63982 11397.5586,8999.7001 C11381.3944,8996.08412 11370.9055,8982.57495 11372.0911,8963.95183 C11373.1065,8948.1326 11375.796,8932.15425 11379.9289,8916.83983 C11407.2023,8815.71859 11442.5659,8717.5 11487.5622,8622.84801 C11494.7139,8607.80246 11502.711,8592.98737 11515.7027,8582.0242 C11530.6484,8569.40942 11548.2561,8567.65356 11566.506,8572.46023 C11577.7633,8575.42325 11583.6143,8585.45911 11583.9765,8599.65416 C11584.0259,8601.8435 11583.982,8604.03833 11583.982,8606.23316 Z" id="lego" sketch:type="MSShapeGroup"></path>
        </g>
    </g>
</svg>