<?xml version="1.0" encoding="UTF-8" standalone="no"?>
<svg width="4039px" height="1250px" viewBox="0 0 4039 1250" version="1.1" xmlns="http://www.w3.org/2000/svg" xmlns:xlink="http://www.w3.org/1999/xlink" xmlns:sketch="http://www.bohemiancoding.com/sketch/ns">
    <!-- Generator: Sketch 3.5.1 (25234) - http://www.bohemiancoding.com/sketch -->
    <title>rechtstreex</title>
    <desc>Created with Sketch.</desc>
    <defs></defs>
    <g id="All-logos" stroke="none" stroke-width="1" fill="none" fill-rule="evenodd" sketch:type="MSPage">
        <g id="Artboard-1" sketch:type="MSArtboardGroup" transform="translate(-2395.000000, -13340.000000)" fill="#4B0082">
            <g id="RECHTSTREEX-+-VAN-DE-BOER-+-Rectangle-1" sketch:type="MSLayerGroup" transform="translate(2400.000000, 13551.000000)">
                <path d="M421.654944,591.304462 L390.47553,591.304462 L390.47553,284.692278 L480.549394,284.692278 C495.56178,284.692278 509.491332,286.135823 522.33847,289.022958 C535.185608,291.910093 546.300381,296.601617 555.683122,303.09767 C565.065863,309.593723 572.355421,318.038466 577.552016,328.432151 C582.748612,338.825837 585.34687,351.529039 585.34687,366.54214 C585.34687,377.801966 583.326002,388.051141 579.284206,397.289972 C575.24241,406.528804 569.757198,414.540483 562.828404,421.325249 C555.899611,428.110016 547.671792,433.523313 538.144701,437.565302 C528.61761,441.60729 518.224576,444.205673 506.965287,445.360527 L596.606103,591.304462 L558.49793,591.304462 L473.620635,447.958935 L421.654944,447.958935 L421.654944,591.304462 Z M421.654944,421.108715 L475.785872,421.108715 C500.902748,421.108715 520.24534,416.561546 533.814227,407.467072 C547.383114,398.372597 554.167456,384.73109 554.167456,366.54214 C554.167456,356.437168 552.290936,347.920249 548.537839,340.991125 C544.784743,334.062001 539.588226,328.432173 532.948132,324.101471 C526.308038,319.770769 518.224567,316.594968 508.697476,314.573974 C499.170385,312.552979 488.633003,311.542497 477.085014,311.542497 L421.654944,311.542497 L421.654944,421.108715 Z M722.689526,563.588106 L886.814499,563.588106 L886.814499,591.304462 L691.510111,591.304462 L691.510111,284.692278 L881.61793,284.692278 L881.61793,312.408633 L722.689526,312.408633 L722.689526,418.077239 L871.224792,418.077239 L871.224792,445.360527 L722.689526,445.360527 L722.689526,563.588106 Z M1247.60962,541.934703 C1242.41303,549.729967 1236.1339,557.09205 1228.77206,564.021174 C1221.41022,570.950298 1212.8937,577.01319 1203.22226,582.210032 C1193.55082,587.406875 1182.86909,591.52098 1171.17675,594.552472 C1159.48442,597.583964 1146.70964,599.099687 1132.85206,599.099687 C1109.75608,599.099687 1088.39262,595.057758 1068.76104,586.973781 C1049.12946,578.889804 1032.24078,567.702324 1018.09449,553.411007 C1003.9482,539.119689 992.905605,522.158027 984.966363,502.52551 C977.02712,482.892993 973.057559,461.384162 973.057559,437.99837 C973.057559,414.612578 977.099294,393.103746 985.182887,373.471229 C993.266479,353.838712 1004.45343,336.87705 1018.74406,322.585733 C1033.0347,308.294415 1049.92338,297.106936 1069.41061,289.022958 C1088.89784,280.938981 1110.04478,276.897053 1132.85206,276.897053 C1144.11135,276.897053 1155.15395,278.051889 1165.98019,280.361597 C1176.80643,282.671305 1186.98294,285.919283 1196.51003,290.105628 C1206.03712,294.291974 1214.69798,299.344384 1222.49287,305.26301 C1230.28777,311.181637 1236.78341,317.894124 1241.98001,325.400675 L1215.99716,344.455669 C1212.82147,339.54754 1208.56321,334.639485 1203.22226,329.731356 C1197.88132,324.823226 1191.60219,320.492589 1184.3847,316.739314 C1177.16721,312.986039 1169.30026,309.954592 1160.78362,307.644885 C1152.26697,305.335177 1143.1009,304.18034 1133.28511,304.18034 C1113.36482,304.18034 1095.53788,307.789205 1079.80375,315.007042 C1064.06961,322.224879 1050.71745,331.968812 1039.74686,344.239135 C1028.77627,356.509458 1020.40411,370.728384 1014.63011,386.896339 C1008.85612,403.064294 1005.96916,420.098134 1005.96916,437.99837 C1005.96916,455.898605 1008.92829,472.932445 1014.84664,489.1004 C1020.76498,505.268355 1029.20932,519.487281 1040.17991,531.757604 C1051.1505,544.027927 1064.50266,553.771861 1080.2368,560.989698 C1095.97093,568.207535 1113.65352,571.816399 1133.28511,571.816399 C1150.89579,571.816399 1167.64012,568.207535 1183.51861,560.989698 C1199.39709,553.771861 1212.67708,542.223495 1223.35897,526.344253 L1247.60962,541.934703 Z M1342.94668,284.692278 L1374.12609,284.692278 L1374.12609,417.644171 L1541.2824,417.644171 L1541.2824,284.692278 L1572.46181,284.692278 L1572.46181,591.304462 L1541.2824,591.304462 L1541.2824,446.226663 L1374.12609,446.226663 L1374.12609,591.304462 L1342.94668,591.304462 L1342.94668,284.692278 Z M1793.81567,591.304462 L1762.63626,591.304462 L1762.63626,312.408633 L1660.00402,312.408633 L1660.00402,284.692278 L1896.44791,284.692278 L1896.44791,312.408633 L1793.81567,312.408633 L1793.81567,591.304462 Z M2132.52538,334.062036 C2125.88528,324.823205 2117.36877,317.388944 2106.97558,311.759031 C2096.58239,306.129118 2084.02414,303.314204 2069.30045,303.314204 C2061.79426,303.314204 2054.14383,304.469041 2046.34894,306.778749 C2038.55405,309.088456 2031.48101,312.625143 2025.12962,317.388916 C2018.77822,322.152688 2013.65388,328.143403 2009.75643,335.36124 C2005.85899,342.579077 2003.91029,351.095997 2003.91029,360.912256 C2003.91029,370.728514 2005.78681,378.81237 2009.53991,385.164067 C2013.29301,391.515763 2018.273,396.92906 2024.48005,401.404119 C2030.68709,405.879178 2037.76013,409.560219 2045.69937,412.447354 C2053.63861,415.334489 2061.9386,418.221581 2070.5996,421.108715 C2081.28149,424.573277 2092.03539,428.326496 2102.86163,432.368485 C2113.68787,436.410474 2123.43134,441.679416 2132.09233,448.175469 C2140.75332,454.671522 2147.82636,462.899733 2153.31165,472.860348 C2158.79695,482.820963 2161.53955,495.451989 2161.53955,510.753803 C2161.53955,526.055618 2158.58043,539.264061 2152.66208,550.37953 C2146.74374,561.494999 2139.09331,570.661515 2129.71057,577.879352 C2120.32783,585.097189 2109.6461,590.438308 2097.66506,593.90287 C2085.68402,597.367432 2073.63099,599.099687 2061.5056,599.099687 C2052.26721,599.099687 2043.02896,598.161382 2033.79056,596.284744 C2024.55217,594.408107 2015.74696,591.593192 2007.37467,587.839917 C1999.00238,584.086642 1991.2076,579.322941 1983.99011,573.548671 C1976.77262,567.774402 1970.42132,561.134091 1964.93602,553.627541 L1991.78496,533.70641 C1998.42506,544.677522 2007.73549,553.844038 2019.71652,561.206232 C2031.69756,568.568425 2045.77146,572.249467 2061.93865,572.249467 C2069.73354,572.249467 2077.67266,571.022453 2085.75626,568.568389 C2093.83985,566.114324 2101.12941,562.361105 2107.62515,557.308619 C2114.12089,552.256133 2119.46176,546.048886 2123.64791,538.686693 C2127.83405,531.324499 2129.92709,522.735402 2129.92709,512.919143 C2129.92709,502.236745 2127.83405,493.358938 2123.64791,486.285458 C2119.46176,479.211978 2113.90437,473.29344 2106.97558,468.529668 C2100.04679,463.765895 2092.10766,459.796144 2083.15797,456.620296 C2074.20828,453.444448 2064.82568,450.268647 2055.00989,447.092799 C2044.9054,443.916951 2034.94541,440.308086 2025.12962,436.266097 C2015.31383,432.224109 2006.50862,426.955167 1998.71372,420.459113 C1990.91883,413.96306 1984.63971,405.951381 1979.87616,396.423836 C1975.11262,386.896291 1972.73088,375.203571 1972.73088,361.345324 C1972.73088,346.620936 1975.69001,333.917733 1981.60835,323.235335 C1987.52669,312.552936 1995.2493,303.747307 2004.77639,296.818183 C2014.30348,289.88906 2024.84086,284.83665 2036.38885,281.660801 C2047.93684,278.484953 2059.34031,276.897053 2070.5996,276.897053 C2091.38598,276.897053 2109.14074,280.578094 2123.86443,287.940288 C2138.58811,295.302482 2149.70289,304.035934 2157.20908,314.140905 L2132.52538,334.062036 Z M2360.37494,591.304462 L2329.19553,591.304462 L2329.19553,312.408633 L2226.56329,312.408633 L2226.56329,284.692278 L2463.00718,284.692278 L2463.00718,312.408633 L2360.37494,312.408633 L2360.37494,591.304462 Z M2581.7288,591.304462 L2550.54939,591.304462 L2550.54939,284.692278 L2640.62325,284.692278 C2655.63564,284.692278 2669.56519,286.135823 2682.41233,289.022958 C2695.25946,291.910093 2706.37424,296.601617 2715.75698,303.09767 C2725.13972,309.593723 2732.42928,318.038466 2737.62587,328.432151 C2742.82247,338.825837 2745.42073,351.529039 2745.42073,366.54214 C2745.42073,377.801966 2743.39986,388.051141 2739.35806,397.289972 C2735.31627,406.528804 2729.83105,414.540483 2722.90226,421.325249 C2715.97347,428.110016 2707.74565,433.523313 2698.21856,437.565302 C2688.69147,441.60729 2678.29843,444.205673 2667.03914,445.360527 L2756.67996,591.304462 L2718.57179,591.304462 L2633.69449,447.958935 L2581.7288,447.958935 L2581.7288,591.304462 Z M2581.7288,421.108715 L2635.85973,421.108715 C2660.9766,421.108715 2680.3192,416.561546 2693.88808,407.467072 C2707.45697,398.372597 2714.24131,384.73109 2714.24131,366.54214 C2714.24131,356.437168 2712.36479,347.920249 2708.61169,340.991125 C2704.8586,334.062001 2699.66208,328.432173 2693.02199,324.101471 C2686.38189,319.770769 2678.29842,316.594968 2668.77133,314.573974 C2659.24424,312.552979 2648.70686,311.542497 2637.15887,311.542497 L2581.7288,311.542497 L2581.7288,421.108715 Z M2882.76338,563.588106 L3046.88835,563.588106 L3046.88835,591.304462 L2851.58397,591.304462 L2851.58397,284.692278 L3041.69179,284.692278 L3041.69179,312.408633 L2882.76338,312.408633 L2882.76338,418.077239 L3031.29865,418.077239 L3031.29865,445.360527 L2882.76338,445.360527 L2882.76338,563.588106 Z M3180.76663,563.588106 L3344.8916,563.588106 L3344.8916,591.304462 L3149.58722,591.304462 L3149.58722,284.692278 L3339.69504,284.692278 L3339.69504,312.408633 L3180.76663,312.408633 L3180.76663,418.077239 L3329.3019,418.077239 L3329.3019,445.360527 L3180.76663,445.360527 L3180.76663,563.588106 Z M3548.05747,408.549742 L3631.63562,284.692278 L3668.8777,284.692278 L3567.11155,430.636213 L3679.70388,591.304462 L3640.72962,591.304462 L3547.19137,453.155752 L3454.08618,591.304462 L3415.11191,591.304462 L3527.70424,430.203145 L3425.072,284.692278 L3464.04627,284.692278 L3548.05747,408.549742 Z" id="RECHTSTREEX" sketch:type="MSShapeGroup"></path>
                <path d="M1524.81827,854.210085 L1525.29296,854.210085 L1558.99571,762.43297 L1575.92619,762.43297 L1531.93857,874.464345 L1517.38151,874.464345 L1473.71035,762.43297 L1491.11552,762.43297 L1524.81827,854.210085 Z M1591.55754,874.464345 L1574.15237,874.464345 L1622.72863,762.43297 L1636.96922,762.43297 L1685.0708,874.464345 L1667.34917,874.464345 L1655.95669,846.93121 L1602.79179,846.93121 L1591.55754,874.464345 Z M1608.3298,833.164643 L1650.26045,833.164643 L1629.37424,780.630156 L1608.3298,833.164643 Z M1780.92418,851.994775 L1781.24064,851.994775 L1781.24064,762.43297 L1796.9053,762.43297 L1796.9053,874.464345 L1777.12669,874.464345 L1717.94909,783.003702 L1717.63264,783.003702 L1717.63264,874.464345 L1701.96798,874.464345 L1701.96798,762.43297 L1722.3795,762.43297 L1780.92418,851.994775 Z M1868.67458,762.43297 L1907.12419,762.43297 C1914.29727,762.43297 1921.47024,763.487868 1928.64332,765.597698 C1935.8164,767.707527 1942.30372,771.030458 1948.10547,775.566591 C1953.90722,780.102724 1958.6013,785.904668 1962.18784,792.972596 C1965.77438,800.040524 1967.56762,808.532459 1967.56762,818.448657 C1967.56762,828.04838 1965.77438,836.355709 1962.18784,843.370891 C1958.6013,850.386073 1953.90722,856.188017 1948.10547,860.776896 C1942.30372,865.365774 1935.8164,868.794195 1928.64332,871.062262 C1921.47024,873.330328 1914.29727,874.464345 1907.12419,874.464345 L1868.67458,874.464345 L1868.67458,762.43297 Z M1884.33924,860.697777 L1903.95962,860.697777 C1910.71075,860.697777 1916.96073,859.748368 1922.70974,857.849522 C1928.45875,855.950676 1933.41654,853.207939 1937.58325,849.621229 C1941.74997,846.034519 1944.99362,841.603944 1947.31433,836.329371 C1949.63503,831.054798 1950.79536,825.094619 1950.79536,818.448657 C1950.79536,811.48622 1949.63503,805.367807 1947.31433,800.093234 C1944.99362,794.818661 1941.74997,790.414458 1937.58325,786.880494 C1933.41654,783.34653 1928.45875,780.656538 1922.70974,778.810438 C1916.96073,776.964337 1910.71075,776.041301 1903.95962,776.041301 L1884.33924,776.041301 L1884.33924,860.697777 Z M2007.24976,860.539541 L2065.79444,860.539541 L2065.79444,874.464345 L1991.5851,874.464345 L1991.5851,762.43297 L2063.421,762.43297 L2063.421,776.199537 L2007.24976,776.199537 L2007.24976,809.745655 L2060.0982,809.745655 L2060.0982,823.195749 L2007.24976,823.195749 L2007.24976,860.539541 Z M2131.23456,762.43297 L2169.84241,762.43297 C2174.06186,762.43297 2178.28126,762.907674 2182.50072,763.857097 C2186.72017,764.806521 2190.49126,766.388869 2193.81408,768.604189 C2197.1369,770.81951 2199.82677,773.720482 2201.88375,777.307192 C2203.94074,780.893902 2204.96922,785.377222 2204.96922,790.757286 C2204.96922,796.981283 2203.17597,802.203032 2199.58943,806.42269 C2196.00289,810.642349 2191.25608,813.543321 2185.34884,815.125693 L2185.34884,815.442165 C2188.93537,815.864131 2192.25815,816.787168 2195.31725,818.211303 C2198.37636,819.635437 2201.01348,821.507883 2203.2287,823.828695 C2205.44391,826.149507 2207.15804,828.892244 2208.37114,832.056988 C2209.58423,835.221732 2210.19077,838.755643 2210.19077,842.658827 C2210.19077,848.038892 2209.08318,852.733192 2206.86796,856.741867 C2204.65275,860.750543 2201.64643,864.047102 2197.84892,866.631643 C2194.0514,869.216183 2189.59467,871.167746 2184.47858,872.48639 C2179.36248,873.805033 2173.90364,874.464345 2168.10189,874.464345 L2131.23456,874.464345 L2131.23456,762.43297 Z M2146.89922,809.745655 L2167.31075,809.745655 C2170.26437,809.745655 2173.08609,809.402813 2175.77599,808.717118 C2178.46589,808.031424 2180.81293,806.976525 2182.81717,805.55239 C2184.82142,804.128255 2186.40369,802.334927 2187.56404,800.172352 C2188.72439,798.009777 2189.30456,795.398903 2189.30456,792.33965 C2189.30456,786.326637 2187.08938,782.027924 2182.65895,779.443383 C2178.22851,776.858842 2172.26862,775.566591 2164.77908,775.566591 L2146.89922,775.566591 L2146.89922,809.745655 Z M2146.89922,861.172487 L2166.5196,861.172487 C2169.78968,861.172487 2173.08608,860.882389 2176.4089,860.302186 C2179.73173,859.721983 2182.73805,858.693457 2185.42795,857.216576 C2188.11785,855.739696 2190.28029,853.761761 2191.91533,851.282711 C2193.55037,848.803662 2194.36788,845.665338 2194.36788,841.867645 C2194.36788,835.221683 2192.09996,830.421893 2187.56404,827.468132 C2183.02812,824.514371 2176.48806,823.037513 2167.94366,823.037513 L2146.89922,823.037513 L2146.89922,861.172487 Z M2348.29126,818.290421 C2348.29126,826.940721 2346.7881,834.878834 2343.78173,842.105 C2340.77537,849.331165 2336.63509,855.555068 2331.36077,860.776896 C2326.08645,865.998723 2319.8101,870.060083 2312.53153,872.961099 C2305.25297,875.862114 2297.3416,877.3126 2288.7972,877.3126 C2280.2528,877.3126 2272.36781,875.862114 2265.14199,872.961099 C2257.91617,870.060083 2251.66619,865.998723 2246.39187,860.776896 C2241.11754,855.555068 2237.00364,849.331165 2234.05002,842.105 C2231.09639,834.878834 2229.61961,826.940721 2229.61961,818.290421 C2229.61961,809.534629 2231.09639,801.543771 2234.05002,794.317605 C2237.00364,787.09144 2241.11754,780.920282 2246.39187,775.803946 C2251.66619,770.68761 2257.91617,766.705367 2265.14199,763.857097 C2272.36781,761.008828 2280.2528,759.584714 2288.7972,759.584714 C2297.3416,759.584714 2305.25297,761.008828 2312.53153,763.857097 C2319.8101,766.705367 2326.08645,770.68761 2331.36077,775.803946 C2336.63509,780.920282 2340.77537,787.09144 2343.78173,794.317605 C2346.7881,801.543771 2348.29126,809.534629 2348.29126,818.290421 L2348.29126,818.290421 Z M2331.36077,818.290421 C2331.36077,812.171916 2330.35866,806.396345 2328.35442,800.963534 C2326.35018,795.530724 2323.50209,790.757307 2319.81006,786.64314 C2316.11804,782.528973 2311.6613,779.285159 2306.43972,776.911601 C2301.21814,774.538043 2295.33736,773.351282 2288.7972,773.351282 C2282.36253,773.351282 2276.53449,774.538043 2271.31291,776.911601 C2266.09133,779.285159 2261.66097,782.528973 2258.02169,786.64314 C2254.38241,790.757307 2251.56069,795.530724 2249.55644,800.963534 C2247.5522,806.396345 2246.5501,812.171916 2246.5501,818.290421 C2246.5501,824.514417 2247.5522,830.369106 2249.55644,835.854662 C2251.56069,841.340218 2254.40878,846.113635 2258.1008,850.175056 C2261.79283,854.236478 2266.22319,857.427547 2271.39203,859.748359 C2276.56086,862.069171 2282.36253,863.22956 2288.7972,863.22956 C2295.23188,863.22956 2301.08629,862.069171 2306.36061,859.748359 C2311.63493,857.427547 2316.11804,854.236478 2319.81006,850.175056 C2323.50209,846.113635 2326.35018,841.340218 2328.35442,835.854662 C2330.35866,830.369106 2331.36077,824.514417 2331.36077,818.290421 L2331.36077,818.290421 Z M2387.81516,860.539541 L2446.35984,860.539541 L2446.35984,874.464345 L2372.1505,874.464345 L2372.1505,762.43297 L2443.98641,762.43297 L2443.98641,776.199537 L2387.81516,776.199537 L2387.81516,809.745655 L2440.6636,809.745655 L2440.6636,823.195749 L2387.81516,823.195749 L2387.81516,860.539541 Z M2485.40906,874.464345 L2469.7444,874.464345 L2469.7444,762.43297 L2505.66236,762.43297 C2511.04216,762.43297 2516.15818,762.986792 2521.01056,764.094452 C2525.86293,765.202112 2530.1087,766.969068 2533.74798,769.395372 C2537.38726,771.821675 2540.26172,775.012744 2542.37145,778.968674 C2544.48118,782.924604 2545.53603,787.750766 2545.53603,793.447305 C2545.53603,801.675639 2543.00439,808.321502 2537.94104,813.385092 C2532.8777,818.448682 2526.33763,821.666124 2518.32066,823.037513 L2549.64998,874.464345 L2530.66252,874.464345 L2502.18132,824.619877 L2485.40906,824.619877 L2485.40906,874.464345 Z M2485.40906,811.486255 L2503.44715,811.486255 C2507.13918,811.486255 2510.56743,811.169786 2513.73203,810.536837 C2516.89662,809.903888 2519.6656,808.875362 2522.03904,807.451227 C2524.41249,806.027092 2526.28484,804.181019 2527.65617,801.912953 C2529.02749,799.644886 2529.71314,796.823032 2529.71314,793.447305 C2529.71314,790.071578 2529.02749,787.249724 2527.65617,784.981657 C2526.28484,782.713591 2524.46523,780.89389 2522.19727,779.522501 C2519.92931,778.151112 2517.26582,777.175331 2514.20671,776.595128 C2511.14761,776.014925 2507.93032,775.724828 2504.55475,775.724828 L2485.40906,775.724828 L2485.40906,811.486255 Z" id="VAN-DE-BOER" sketch:type="MSShapeGroup"></path>
                <path d="M2739.85773,841.151417 L4039,841.151417 L4039,0 L0,0 L0,841.151417 L1299.14227,841.151417 L1299.14227,807.83849 L33.3113402,807.83849 L33.3113402,33.3129274 L4005.68866,33.3129274 L4005.68866,807.83849 L2739.85773,807.83849 L2739.85773,841.151417 Z" id="Rectangle-1" sketch:type="MSShapeGroup"></path>
            </g>
        </g>
    </g>
</svg>