<?xml version="1.0" encoding="UTF-8" standalone="no"?>
<svg width="4519px" height="1250px" viewBox="0 0 4519 1250" version="1.1" xmlns="http://www.w3.org/2000/svg" xmlns:xlink="http://www.w3.org/1999/xlink" xmlns:sketch="http://www.bohemiancoding.com/sketch/ns">
    <!-- Generator: Sketch 3.3.3 (12072) - http://www.bohemiancoding.com/sketch -->
    <title>rituals</title>
    <desc>Created with Sketch.</desc>
    <defs></defs>
    <g id="All-logos" stroke="none" stroke-width="1" fill="none" fill-rule="evenodd" sketch:type="MSPage">
        <g id="Artboard-1" sketch:type="MSArtboardGroup" transform="translate(-8551.000000, -2327.000000)" fill="#4B0082">
            <g id="rituals" sketch:type="MSLayerGroup" transform="translate(8551.000000, 2457.000000)">
                <path d="M1021,975 L0,975 L0,0 L1021,0 C1020.90448,1.74050245 1020.72141,3.4810049 1020.72141,5.2254902 C1020.70947,326.585172 1020.70947,647.94087 1020.72141,969.300551 C1020.72141,971.200368 1020.90448,973.100184 1021,975 Z M254.113991,247.775048 C256.129884,246.942412 257.547741,246.335778 258.981441,245.772758 C268.748026,241.93074 276.213562,235.741482 281.069131,226.12256 C288.938638,210.524521 287.742568,188.075082 275.215517,174.649825 C265.361801,164.087249 253.282286,159.277788 238.862118,159.365016 C219.237857,159.483964 199.609636,159.091436 179.981415,159.000243 C177.197185,158.988348 174.412956,159.41656 171.260401,159.670316 L171.260401,229.623594 C166.923657,229.298469 163.042371,228.822678 159.161084,228.810783 C157.77887,228.806818 155.22039,229.881314 155.196627,230.539493 C154.915431,238.064932 155.018404,245.602266 155.018404,253.801743 L171.462386,253.801743 L171.462386,296.024293 L197.134326,296.024293 L197.134326,253.393355 C205.677117,253.393355 213.728807,253.615391 221.764654,253.302162 C225.701388,253.147529 228.457894,254.368728 230.525273,257.580322 C238.054177,269.280834 245.511792,281.028924 253.226839,292.602558 C254.462514,294.45418 256.830891,296.654717 258.763614,296.741946 C268.193556,297.170158 277.651222,296.936227 287.100967,296.936227 C287.398005,296.385102 287.699002,295.830012 288,295.278886 C276.779913,279.550005 265.567747,263.833018 254.113991,247.775048 Z M281.954325,719.095462 C270.971416,708.959069 259.611171,701.368727 244.842853,699.448231 C229.568742,697.46 214.443158,696.894211 199.706953,701.870765 C177.897692,709.237979 167.962495,723.617792 169.443742,744.72731 C170.395113,758.278361 181.458305,771.040494 194.825661,773.642328 C207.823708,776.172442 220.894011,778.339973 233.896073,780.838211 C239.34337,781.882132 244.939194,782.778629 250.045283,784.794752 C257.539833,787.7512 259.699484,793.560501 257.178553,801.122952 C254.091618,810.390739 246.047119,813.685864 237.785853,815.690033 C219.549247,820.112752 203.705117,814.458843 189.683444,802.744615 C187.921201,801.270376 186.054588,799.919653 184.216075,798.493227 C177.628739,804.406123 171.474938,809.936514 165,815.753784 C166.798371,817.825688 168.030737,820.05697 169.925449,821.272221 C177.13499,825.906115 184.171919,831.101813 191.975564,834.480611 C215.575169,844.700678 239.271114,845.123028 262.01569,831.8987 C267.571371,828.663341 273.002612,824.368124 276.912463,819.351725 C290.243691,802.238592 290.295876,775.546886 267.695812,764.147428 C256.78516,758.644928 245.135891,756.804121 233.125342,755.381679 C223.226273,754.210256 213.186707,752.102492 203.889772,748.624083 C194.713263,745.193488 193.420684,734.84592 200.437542,727.901056 C202.966501,725.398833 206.322389,723.506228 209.618065,722.031988 C216.241529,719.067571 223.250359,719.346481 230.347501,720.282823 C241.747888,721.788938 252.188877,725.13586 259.992522,734.096847 C261.714623,736.073124 263.175799,736.308206 265.162839,734.451461 C270.626193,729.363342 276.177861,724.370849 281.954325,719.095462 Z M443,575.443586 C452.281175,575.443586 460.69249,575.554719 469.091833,575.304669 C470.145243,575.272916 471.525848,573.518593 472.104425,572.264372 C475.013271,565.941665 477.566991,559.456227 480.587562,553.189087 C481.225992,551.867391 483.272958,550.434562 484.705436,550.39884 C499.852186,550.033687 515.002926,549.986058 530.153667,549.747915 C536.099045,549.656626 540.983034,550.561571 542.347678,557.701904 C542.890344,560.551686 545.228593,563.024408 546.038601,565.874191 C548.017734,572.812101 551.281707,577.507495 559.569326,575.554719 C560.147903,575.419771 560.822245,575.784925 561.456684,575.788894 C566.779594,575.808739 572.102503,575.800801 578,575.800801 C577.1461,573.443181 576.635356,571.811899 575.972985,570.244122 C567.629504,550.585386 559.262081,530.930619 550.902639,511.27982 C541.046877,488.116407 531.131262,464.976809 521.391216,441.761798 C520.022582,438.503203 518.226997,437.665732 514.819378,438.110266 C511.399787,438.5548 507.864481,438.110266 504.377058,438.106297 C490.423374,438.09439 476.469689,438.102328 462.069104,438.102328 C462.069104,441.154532 462.081075,443.190658 462.065114,445.222815 C462.049153,447.286724 462.160878,449.362541 461.949399,451.406605 C460.844117,462.174655 461.223184,462.305634 471.845063,461.456256 C478.859811,460.896619 485.954364,461.35306 493.284338,461.35306 C476.433778,499.58698 459.85455,537.201728 443,575.443586 Z M170.084279,438 C170.084279,446.021607 170.064274,453.561128 170.08828,461.1046 C170.152298,477.989491 170.972525,494.909946 170.108286,511.747419 C169.232044,528.920772 173.629259,544.074892 184.920378,556.806724 C200.768756,574.679498 221.470475,579.543833 244.520842,575.841248 C266.454901,572.316483 282.307281,560.438181 289.841362,539.688693 C294.670696,526.391792 294.198566,512.122814 293.702429,498.059316 C293.422351,490.19577 293.630409,482.316418 293.626408,474.444968 C293.622406,462.361187 293.626408,450.277406 293.626408,438.106691 L267.143092,438.106691 C267.143092,449.996847 267.051066,461.622251 267.1751,473.247655 C267.255123,480.64492 267.843285,488.038234 267.847286,495.4355 C267.855288,501.880447 266.66696,508.388618 267.235117,514.758485 C269.023611,534.82831 251.346728,554.906038 228.080301,552.333592 C213.860372,550.760882 199.136305,540.463193 198.080013,524.570136 C196.835669,505.86359 196.755647,487.074061 196.355537,468.316144 C196.139477,458.275304 196.315526,448.230513 196.315526,438.007903 C187.449076,438 179.334835,438 170.084279,438 Z M855.065813,517.908742 C847.846599,517.908742 841.37625,517.900766 834.901939,517.908742 C828.800078,517.916718 828.752531,518.63852 829.176492,524.935351 C829.731206,533.246052 829.311208,541.620558 829.311208,550.242312 C826.882351,550.353972 825.337075,550.489559 823.791798,550.489559 C810.007141,550.505511 796.222485,550.334033 782.445752,550.597232 C777.988224,550.680977 776.371628,549.544436 776.490495,544.802871 C776.807475,532.412589 776.597476,520.006356 776.6054,507.608099 C776.609362,493.614698 776.621249,479.621296 776.629174,465.627895 C776.633136,456.459805 776.629174,447.287726 776.629174,438 L750.149478,438 C750.149478,449.493013 750.06627,460.738779 750.185138,471.980556 C750.244572,478.014189 750.795324,484.035858 750.862682,490.06949 C750.977587,501.319244 750.997398,512.572985 750.874569,523.822738 C750.704192,539.191951 750.490231,554.561165 750.010799,569.92639 C749.876083,574.372854 750.957776,576.490408 755.748133,575.904192 C759.34189,575.465527 762.995082,575.38577 766.6245,575.397734 C794.332493,575.513382 822.040485,575.589151 849.748478,575.952046 C854.451665,576.015852 856.420902,574.895263 855.925621,569.882523 C855.347133,564.044296 855.156945,558.154227 855.093549,552.280109 C854.978644,541.062258 855.065813,529.840419 855.065813,517.908742 Z M857.9405,159 L752,159 L752,183.790324 L791.867104,183.790324 L791.867104,297 L817.543417,297 L817.543417,260.645118 L817.543417,191.301696 C817.547372,183.035592 817.551327,182.931767 825.987491,183.067539 C835.281905,183.21529 844.576319,183.510793 853.866778,183.874183 C856.916137,183.993981 858.078927,182.9118 857.995871,179.749117 C857.809982,173.072342 857.9405,166.395567 857.9405,159 Z M522,161 L496,161 L496,297 L522,297 L522,161 Z M839.105781,793.017132 C822.016185,792.99732 815.929426,805.197152 816.000616,814.496602 C816.091582,826.331906 827.818184,837.442113 839.129511,836.986452 C852.552812,836.443621 860.810872,825.840584 859.936815,810.276784 C859.406843,800.965447 849.28202,792.569395 839.105781,793.017132 Z M550.403557,835.945549 C563.073102,835.120319 570.786355,826.143989 569.936259,813.224458 C569.187551,801.82304 558.553557,792.726039 547.264442,793.006306 C534.587099,793.321607 526.616477,805.626107 527.014228,815.48995 C527.517267,828.051362 537.687218,836.774673 550.403557,835.945549 Z M692.914079,793.000011 C680.869421,792.988387 670.520484,802.178868 671.017171,813.395748 C671.525499,824.779235 679.538456,835.988366 692.762744,835.99999 C704.240868,836.011614 714.011631,825.926108 713.99999,814.097045 C713.988349,802.101376 704.904411,793.015509 692.914079,793.000011 Z M530,525 L492,525 C498.220868,509.510959 504.313964,494.321655 510.411054,479.136244 C510.858254,479.089532 511.305453,479.046712 511.752653,479 C517.765893,494.154269 523.775139,509.308539 530,525 Z M198,185.030272 C208.179543,185.030272 218.070304,184.944647 227.961066,185.061409 C233.796856,185.131466 239.817145,184.70723 245.416294,185.944911 C256.438116,188.381354 262.630872,197.449903 261.949027,208.468384 C261.371464,217.793809 252.2187,228.053335 242.420188,228.648823 C230.672402,229.361074 218.836377,228.77337 207.040461,228.750017 C204.188745,228.746125 201.337029,228.750017 198.008022,228.750017 C198,213.668204 198,199.057332 198,185.030272 Z" id="Rituals-icon" sketch:type="MSShapeGroup"></path>
                <path d="M1619.90892,542.745789 C1625.7444,540.356487 1629.84872,538.61571 1633.99891,537.000087 C1662.2706,525.975166 1683.88136,508.214688 1697.93696,480.612562 C1720.71711,435.852973 1717.2548,371.432843 1680.99229,332.908194 C1652.46837,302.598193 1617.50136,288.79713 1575.75876,289.047438 C1518.95169,289.388767 1462.13316,288.262382 1405.31462,288.000696 C1397.25501,287.966563 1389.1954,289.195347 1380.06958,289.923515 L1380.06958,490.659008 C1367.51585,489.726042 1356.28055,488.360727 1345.04524,488.326594 C1341.0441,488.315217 1333.63797,491.398554 1333.56918,493.28724 C1332.7552,514.881978 1333.05328,536.510849 1333.05328,560.039784 L1380.65428,560.039784 L1380.65428,681.200146 L1454.96778,681.200146 L1454.96778,558.867888 C1479.69692,558.867888 1503.00444,559.505036 1526.2661,558.606203 C1537.66191,558.162475 1545.64127,561.666785 1551.62579,570.882664 C1573.41999,604.458044 1595.00782,638.169956 1617.34085,671.381253 C1620.9178,676.694605 1627.77363,683.009188 1633.36836,683.259496 C1660.66556,684.48828 1688.04301,683.817 1715.39754,683.817 C1716.25738,682.23551 1717.12869,680.642642 1718,679.061152 C1685.5208,633.926101 1653.06453,588.825183 1619.90892,542.745789 Z M1455,360.089441 C1484.26619,360.089441 1512.70212,359.836456 1541.13806,360.181436 C1557.91596,360.388424 1575.22429,359.134997 1591.32185,362.791784 C1623.00958,369.990364 1640.81376,396.783803 1638.85345,429.338406 C1637.19296,456.8908 1610.87876,487.203034 1582.70804,488.962431 C1548.93316,491.066809 1514.90458,489.33041 1480.99132,489.261414 C1472.79264,489.249915 1464.59396,489.261414 1455.02306,489.261414 C1455,444.701511 1455,401.533026 1455,360.089441 Z M3141,685.391237 C3167.67478,685.391237 3191.84953,685.712558 3215.98986,684.989586 C3219.01744,684.89778 3222.9854,679.825498 3224.64827,676.199161 C3233.00851,657.918292 3240.34809,639.166916 3249.02944,621.046707 C3250.86433,617.225282 3256.74747,613.082537 3260.86451,612.979255 C3304.39739,611.923486 3347.94174,611.785777 3391.48609,611.097232 C3408.57355,610.83329 3422.6105,613.449761 3426.53259,634.094635 C3428.09225,642.334223 3434.81255,649.483615 3437.14057,657.723204 C3442.82875,677.782815 3452.20965,691.358627 3476.02888,685.712558 C3477.69175,685.322383 3479.62986,686.378152 3481.45329,686.389627 C3496.75172,686.447006 3512.05016,686.424055 3529,686.424055 C3526.54583,679.607459 3525.07791,674.890926 3523.17421,670.358005 C3499.19443,613.518615 3475.14583,556.690701 3451.12018,499.874263 C3422.79399,432.901787 3394.29578,365.998164 3366.30216,298.876503 C3362.3686,289.454912 3357.20796,287.033529 3347.41421,288.318813 C3337.58606,289.604097 3327.42532,288.318813 3317.40221,288.307337 C3277.29829,288.27291 3237.19437,288.295861 3195.80602,288.295861 C3195.80602,297.120713 3195.84042,303.007773 3195.79455,308.883357 C3195.74868,314.850747 3196.06978,320.852564 3195.46197,326.762575 C3192.28531,357.896285 3193.37478,358.274985 3223.90285,355.819174 C3244.06375,354.201093 3264.45402,355.520805 3285.52091,355.520805 C3237.09115,466.066704 3189.44123,574.822386 3141,685.391237 Z M3388,541 L3280,541 C3297.68036,495.543031 3314.99758,450.965727 3332.32615,406.399848 C3333.59714,406.262757 3334.86813,406.137091 3336.13912,406 C3353.22938,450.474486 3370.30829,494.948972 3388,541 Z M1961,290 L1888,290 L1888,683 L1961,683 L1961,290 Z M2459.82711,289 L2152,289 L2152,359.95781 L2267.84026,359.95781 L2267.84026,684 L2342.44691,684 L2342.44691,579.940737 L2342.44691,381.457752 C2342.4584,357.797529 2342.46989,357.500347 2366.98252,357.888969 C2393.98893,358.311881 2420.99534,359.157706 2447.99026,360.197841 C2456.85066,360.540743 2460.22934,357.443197 2459.988,348.39059 C2459.44787,329.27953 2459.82711,310.16847 2459.82711,289 Z M4013.28557,517.724297 C3992.30899,517.724297 3973.50835,517.701468 3954.6962,517.724297 C3936.96627,517.747126 3936.82811,519.813156 3938.06,537.836694 C3939.67181,561.624569 3938.45144,585.595076 3938.45144,610.273284 C3931.394,610.592891 3926.90395,610.980985 3922.4139,610.980985 C3882.36037,611.026643 3842.30684,610.535818 3802.27634,611.289177 C3789.32427,611.528882 3784.62699,608.275742 3784.97238,594.703869 C3785.89342,559.238933 3785.28323,523.728339 3785.30626,488.240573 C3785.31777,448.186997 3785.35231,408.133421 3785.37533,368.079845 C3785.38685,341.837847 3785.37533,315.584434 3785.37533,289 L3708.43433,289 C3708.43433,321.896668 3708.19256,354.085634 3708.53795,386.263187 C3708.71064,403.533367 3710.31094,420.769303 3710.50666,438.039482 C3710.84054,470.239864 3710.8981,502.45166 3710.5412,534.652041 C3710.04614,578.643629 3709.42444,622.635217 3708.03138,666.615391 C3707.63994,679.342589 3710.78297,685.403703 3724.70212,683.725767 C3735.14436,682.470169 3745.7593,682.241879 3756.30515,682.276122 C3836.81517,682.607144 3917.32518,682.82402 3997.8352,683.862742 C4011.50106,684.045374 4017.223,680.837892 4015.78388,666.489831 C4014.10299,649.778963 4013.55037,632.919706 4013.36616,616.106108 C4013.03229,583.997043 4013.28557,551.876563 4013.28557,517.724297 Z M2634.2406,286 C2634.2406,309.256891 2634.18349,331.116077 2634.25203,352.986719 C2634.43479,401.940756 2636.7764,450.997902 2634.30914,499.814459 C2631.80761,549.604827 2644.36095,593.540875 2676.59527,630.454028 C2721.83984,682.272214 2780.9399,696.375284 2846.74499,685.640453 C2909.36319,675.421169 2954.61917,640.982641 2976.12776,580.824053 C2989.91473,542.272606 2988.56687,500.902836 2987.15048,460.128809 C2986.35091,437.330182 2986.94488,414.485729 2986.93345,391.664189 C2986.92203,356.629917 2986.93345,321.595645 2986.93345,286.309328 L2911.32786,286.309328 C2911.32786,320.782227 2911.06514,354.487533 2911.41924,388.19284 C2911.64769,409.639589 2913.3268,431.074881 2913.33822,452.521629 C2913.36107,471.207338 2909.96858,490.076352 2911.59058,508.544386 C2916.69644,566.732439 2866.23179,624.943406 2799.80989,617.485161 C2759.21429,612.925436 2717.17945,583.069546 2714.16391,536.991115 C2710.61151,482.755587 2710.38306,428.279471 2709.24081,373.895008 C2708.62399,344.783796 2709.12658,315.661128 2709.12658,286.022913 C2683.8143,286 2660.64945,286 2634.2406,286 Z M4508.46481,339.649454 C4477.14991,310.507323 4444.75912,288.68509 4402.65111,283.163664 C4359.10096,277.447499 4315.97429,275.820855 4273.95784,290.12845 C4211.77441,311.30919 4183.44678,352.651152 4187.67017,413.341015 C4190.38276,452.300287 4221.92657,488.991422 4260.04011,496.471694 C4297.10066,503.745771 4334.36722,509.977422 4371.43922,517.159857 C4386.97077,520.16113 4402.9258,522.73856 4417.48448,528.534911 C4438.85324,537.034699 4445.01093,553.73644 4437.82315,575.478486 C4429.02155,602.123375 4406.08476,611.596858 4382.52991,617.358844 C4330.53298,630.074161 4285.35757,613.819175 4245.37841,580.140769 C4240.35384,575.90233 4235.03168,572.019003 4229.78964,567.918027 C4211.00756,584.917604 4193.4616,600.817477 4175,617.542128 C4180.12759,623.498853 4183.64136,629.913788 4189.04364,633.407636 C4209.59976,646.73008 4229.66374,661.667714 4251.9138,671.381757 C4319.20193,700.764449 4386.76475,701.978704 4451.61498,663.958762 C4467.45556,654.657107 4482.94133,642.308358 4494.08925,627.88621 C4532.09978,578.685953 4532.24857,501.947298 4467.81037,469.173856 C4436.70149,453.354169 4403.48663,448.061848 4369.24168,443.972327 C4341.01706,440.604487 4312.39185,434.544665 4285.88406,424.54424 C4259.71963,414.681278 4256.03418,384.932019 4276.04092,364.965535 C4283.25159,357.771644 4292.82004,352.330405 4302.2168,348.091966 C4321.10188,339.569267 4341.08573,340.371134 4361.32139,343.063116 C4393.82662,347.393197 4423.59638,357.015598 4445.84645,382.778434 C4450.75657,388.460233 4454.92273,389.136092 4460.58826,383.79795 C4476.16559,369.169608 4491.99473,354.816192 4508.46481,339.649454 Z" id="Rituals-name" sketch:type="MSShapeGroup"></path>
            </g>
        </g>
    </g>
</svg>