<?xml version="1.0" encoding="UTF-8" standalone="no"?>
<svg width="3576px" height="1250px" viewBox="0 0 3576 1250" version="1.1" xmlns="http://www.w3.org/2000/svg" xmlns:xlink="http://www.w3.org/1999/xlink" xmlns:sketch="http://www.bohemiancoding.com/sketch/ns">
    <!-- Generator: Sketch 3.3.3 (12072) - http://www.bohemiancoding.com/sketch -->
    <title>runkeeper</title>
    <desc>Created with Sketch.</desc>
    <defs></defs>
    <g id="All-logos" stroke="none" stroke-width="1" fill="none" fill-rule="evenodd" sketch:type="MSPage">
        <g id="Artboard-1" sketch:type="MSArtboardGroup" transform="translate(-2290.000000, -9835.000000)" fill="#4B0082">
            <g id="runkeeper" sketch:type="MSLayerGroup" transform="translate(2290.000000, 10041.000000)">
                <path d="M308.160535,116.116923 C315.90053,115.238882 324.346584,117.966132 331.713567,115.824243 C344.995453,111.966181 349.751354,100.737892 342.251152,89.4031727 C333.165649,75.8600461 336.349572,64.0730027 342.424336,50.889075 C352.335793,29.28393 365.804184,12.6011395 390.303069,6.48145556 C410.685501,1.37284985 428.803218,3.71429413 444.909336,17.6166196 C449.625272,21.7141471 454.07477,26.2107844 458.404372,30.694118 C465.558206,38.0510424 466.02447,45.8469876 461.734834,55.359105 C458.217866,63.2215684 455.433599,72.2148431 455.30038,80.7824005 C455.047265,95.1902651 450.384617,105.766675 437.169341,112.205647 C434.744764,113.376369 432.453406,114.972809 430.321909,116.662373 C419.091589,125.535915 418.905083,136.56465 430.908071,144.586757 C436.902904,148.564552 444.283209,151.21198 451.437043,152.675383 C472.365671,156.985769 485.514339,167.85486 489.430963,189.978848 C492.308483,205.717078 497.850373,220.923162 502.179974,236.382016 C504.52462,244.869752 508.441244,251.907388 518.725713,251.5881 C527.504813,251.335331 537.016615,241.650266 537.48288,231.991808 C537.802604,225.818909 537.402949,219.406545 536.097407,213.353379 C533.939267,203.322419 536.91004,195.287008 544.729967,189.486612 C551.883801,184.125237 559.43729,178.311537 567.750126,175.797145 C572.599279,174.36035 582.444127,177.300459 584.535658,181.198431 C588.785328,189.047591 592.262332,199.54418 590.557135,207.805753 C587.160063,224.461936 582.297587,241.570444 574.091327,256.284292 C556.666345,287.268518 536.723534,316.85586 517.753218,346.962044 C516.247849,349.276881 514.436077,351.392163 512.58434,353.334497 C502.646239,363.73796 493.454162,362.607149 488.378537,349.13054 C482.237163,332.673912 478.000815,315.498886 472.152522,298.949132 C470.100957,293.175344 465.651459,288.266293 462.320996,282.958132 C458.710774,287.680932 454.128057,291.938103 451.543618,297.153138 C431.960497,336.811351 412.91025,376.669118 393.433704,416.367242 C386.892675,429.724117 387.492158,434.420309 399.868158,442.961259 C415.601264,453.896868 431.201152,465.218284 447.720247,474.890045 C476.042502,491.346673 488.485111,536.698853 459.510085,565.740744 C420.223946,605.106276 382.576395,646.001729 345.022097,686.990307 C317.365934,717.216225 306.481981,753.21593 312.30363,794.09808 C313.715747,804.12904 314.301908,814.386162 313.715747,824.457033 C312.87647,839.037846 300.913448,844.957975 290.149392,835.139873 C279.638451,825.561237 270.899317,813.641157 262.93285,801.721077 C238.620472,765.588335 237.967701,756.462024 264.87784,712.280566 C267.675429,707.650893 271.378904,703.340506 275.362137,699.655392 C314.475092,663.163451 333.09904,613.620619 358.423879,568.41478 C367.802462,551.612256 361.794307,537.656716 346.327638,534.357408 C342.997175,533.639011 337.521894,534.942769 335.377076,537.337428 C307.241327,569.851575 279.731704,602.951083 251.382805,635.318889 C242.270659,645.735656 232.399167,656.604746 220.609329,663.283184 C200.67984,674.577992 185.439642,690.356134 169.66657,706.054453 C161.660138,714.03665 153.733636,722.284919 144.674778,729.016572 C108.465986,755.743626 82.7548136,789.601442 71.897505,833.769596 C68.3805363,847.977906 63.3581984,861.121922 52.7939704,872.030924 C49.0505303,875.955504 47.4252644,882.314654 45.9198953,887.835673 C43.9216176,895.392152 42.9491225,903.188097 41.5236844,910.851006 C40.1382119,918.168019 39.498763,927.5471 29.8137773,926.975043 C20.26201,926.402985 11.3630135,921.241165 9.28480469,910.531718 C6.35399744,895.192597 4.16921386,879.707136 2.25086729,864.221675 C-0.107100355,845.583247 -2.15866543,826.944818 -3.77060941,808.266478 C-5.28930044,790.639128 0.585635904,783.029434 18.2637323,782.710146 C34.8894025,782.483984 44.9074346,775.339918 52.4476023,761.091698 C64.7037053,737.930024 78.1854187,715.460141 91.1742235,692.684274 C104.202994,669.8818 120.335756,649.607021 143.848823,637.181402 C173.543229,621.456475 191.660947,599.05311 200.932955,565.847173 C209.445618,535.23545 225.605023,506.805527 237.687942,477.111756 C240.285703,470.659481 242.124119,462.278175 240.352312,455.892418 C235.023572,436.788361 237.967701,418.86833 243.749384,400.642315 C248.811688,384.651315 252.954784,368.35433 257.670719,352.270204 C258.563283,349.370006 259.602387,345.791322 261.760527,344.075149 C282.089672,328.163971 279.358692,305.308282 279.931532,283.729744 C280.344509,266.235431 279.065612,248.727813 278.83914,231.193588 C278.719244,221.162628 272.124927,213.153824 262.57316,216.386614 C234.557307,225.938642 206.794569,236.461838 179.871108,248.727813 C168.214489,254.049277 163.804956,266.607933 167.228672,280.04463 C175.075242,311.015553 182.881847,342.026386 191.247969,372.864271 C192.633442,377.932966 197.189515,382.043797 199.427586,386.992759 C201.412542,391.409574 203.890406,396.571394 203.250957,401.001514 C201.745588,411.311851 170.052904,426.637668 161.207195,421.3029 C149.497288,414.25196 139.825624,405.338507 140.718188,389.626884 C141.637396,374.474014 142.996224,359.201412 142.10366,344.088453 C141.570786,335.254822 137.241185,326.607443 134.217124,317.973367 C131.339605,309.671883 125.624531,301.676383 125.158266,293.321684 C123.719506,268.37732 123.213275,243.29992 124.692001,218.40877 C125.1183,211.21149 131.912444,202.12509 138.386864,197.961044 C163.4053,181.890222 189.063186,166.857085 215.227301,152.715294 C236.182573,141.367271 257.937156,131.256489 279.891567,121.904016 C288.564092,118.218902 298.688698,117.952829 308.160535,116.116923 C313.276125,115.970583 302.631966,117.04818 308.160535,116.116923 L308.160535,116.116923 Z" id="Path" sketch:type="MSShapeGroup"></path>
                <path d="M1049.7745,447.229935 C1073.54803,472.602372 1096.61246,498.268916 1120.82918,522.796384 C1150.09824,552.445023 1135.0905,589.549004 1111.69018,604.370989 C1091.0143,617.465688 1061.53064,613.357547 1044.9181,594.702853 C1033.99701,582.439119 1023.43515,569.843933 1013.0319,557.141375 C992.398001,531.936997 971.983368,506.550554 950.607717,480.165086 C950.411781,482.924076 950.215845,484.413277 950.215845,485.902478 C950.20185,510.359921 950.313813,534.817364 950.192519,559.270139 C950.066561,584.185079 934.512999,604.118899 910.949399,609.921648 C882.715999,616.872809 854.771837,602.853778 846.93441,577.3693 C845.101011,571.407827 844.107338,564.937506 844.098007,558.700601 C843.948723,459.568362 844.000039,360.431455 844.056021,261.299216 C844.070017,235.842748 856.488607,216.884612 877.92024,210.348933 C884.236833,208.420908 891.071257,207.393873 897.677089,207.333184 C930.692253,207.03441 963.721413,206.763647 996.731911,207.333184 C1024.10693,207.800019 1050.73086,212.501039 1075.24148,225.754461 C1107.54288,243.21406 1125.28905,270.934673 1131.59631,306.44675 C1135.26311,327.099494 1136.69531,347.91563 1131.16712,368.517023 C1122.45731,401.004014 1101.51552,423.267336 1071.97122,437.977281 C1065.02017,441.431854 1057.62593,443.985437 1049.7745,447.229935 Z M950,372.890851 L954.840862,372.890851 C968.430719,372.881607 982.029903,373.205132 995.605769,372.779928 C1012.12439,372.262289 1022.52432,363.846029 1025.42044,349.060958 C1026.18994,345.127824 1025.98474,340.977467 1025.94743,336.93341 C1025.81685,320.983651 1017.39898,310.025413 1001.35604,308.708206 C984.427016,307.321672 967.29279,308.398547 950,308.398547 C950,329.261257 950,350.766395 950,372.890851 Z M3479.5008,323.278702 C3480.73712,322.138005 3481.97344,321.086133 3483.1118,319.931412 C3498.84344,303.900886 3529.52295,299.286675 3549.67738,309.216345 C3575.6262,322.00243 3582.26969,359.85579 3570.13972,377.704885 C3562.06395,389.588699 3549.65872,394.315109 3537.25815,399.532393 C3524.84358,404.749677 3512.08378,409.649062 3500.70959,416.680241 C3490.44577,423.028871 3485.2672,433.561614 3485.40716,446.45055 C3485.82238,485.318381 3486.19094,524.190887 3485.89236,563.058718 C3485.69641,588.088591 3469.10634,610.159199 3446.9458,614.693935 C3414.19487,621.402539 3388.97384,601.622675 3384.76101,570.155346 C3384.09386,565.185836 3383.99122,560.104127 3384.00055,555.078517 C3384.12652,502.933727 3384.35046,450.793611 3384.49042,398.648821 C3384.53707,381.323324 3383.44071,363.927702 3384.67703,346.695705 C3385.6241,333.53562 3393.33131,323.185202 3403.59513,314.541153 C3420.28785,300.478796 3461.54376,298.057154 3479.5008,323.278702 Z M1438.86366,425.140933 C1438.86366,448.920769 1439.21034,472.705289 1438.79807,496.475757 C1437.81426,553.403101 1403.66182,595.955752 1348.24023,609.332788 C1316.08353,617.093905 1283.8753,616.766036 1251.63895,609.070494 C1233.67261,604.7801 1217.33191,597.164182 1203.19777,585.585739 C1186.34642,571.77779 1174.17522,554.19467 1168.13647,533.159562 C1165.09601,522.560041 1162.67396,511.37504 1162.54278,500.419547 C1161.93844,449.679551 1161.74636,398.925503 1162.44908,348.185506 C1162.73486,327.941966 1172.25444,311.497018 1191.12495,302.504052 C1208.73524,294.110618 1226.55167,295.206636 1242.64407,306.550887 C1257.90726,317.309658 1264.79397,332.822524 1264.76117,351.445456 C1264.6909,396.204194 1264.65811,440.958248 1264.57378,485.716986 C1264.54567,501.272005 1269.55844,513.820002 1284.52649,520.953485 C1304.83524,530.639658 1336.39697,520.091659 1336.29859,488.485133 C1336.15336,442.606958 1336.35949,396.7241 1336.49535,350.845925 C1336.53752,336.063738 1341.1755,322.972416 1351.66016,312.265167 C1366.67974,296.925604 1385.03023,294.485325 1404.44418,300.443164 C1423.49272,306.288592 1433.97269,320.616447 1437.60812,339.852962 C1438.70906,345.679654 1438.75122,351.759273 1438.78402,357.721796 C1438.91051,380.194842 1438.83555,402.667888 1438.83555,425.145617 C1438.8496,425.140933 1438.85897,425.140933 1438.86366,425.140933 Z M1560.94139,316.044968 C1577.91361,303.006273 1598.83057,297.978065 1621.09052,297.130667 C1650.55676,296.011727 1678.1138,301.957559 1702.31571,319.67333 C1727.09318,337.81514 1740.66347,362.839135 1744.19642,392.849201 C1746.14774,409.464759 1745.70319,426.398676 1745.76403,443.187459 C1745.90441,483.06667 1746.34427,522.959926 1745.4739,562.820411 C1744.50994,606.997475 1700.66856,625.214194 1668.73627,606.992794 C1650.276,596.458839 1643.17265,578.925657 1643.13522,558.372741 C1643.05099,514.560853 1643.30836,470.748966 1643.26624,426.937078 C1643.26156,421.936961 1642.77491,416.791709 1641.55358,411.960136 C1637.23916,394.838948 1623.49106,385.835928 1604.18382,387.006368 C1586.63603,388.073808 1574.94219,398.799715 1572.62588,416.117536 C1572.10647,419.994032 1571.79762,423.926708 1571.79294,427.835976 C1571.75083,471.839815 1571.83038,515.843655 1571.78827,559.842813 C1571.76487,584.347132 1557.56286,605.475904 1536.40257,611.599643 C1507.25453,620.040852 1476.88984,605.522722 1470.50713,570.545311 C1469.60868,565.61542 1469.30452,560.512304 1469.29984,555.488778 C1469.23901,487.706292 1468.51838,419.914442 1469.55721,352.141319 C1470.23104,307.889346 1510.50204,292.280366 1540.09463,302.86582 C1547.34771,305.473559 1553.4871,311.227439 1560.94139,316.044968 Z M3326.45989,495.342713 C3328.17862,496.232108 3329.92077,497.084054 3331.61141,498.02494 C3347.96513,507.129532 3356.4745,521.322398 3356.67587,539.75159 C3356.81169,552.404399 3351.10755,563.156712 3341.59598,571.704262 C3309.73151,600.356811 3271.44639,612.803655 3229.51305,615.598226 C3198.82875,617.643834 3169.47916,611.937665 3142.46648,597.112862 C3132.15877,591.458184 3122.37557,584.268131 3113.69761,576.31039 C3087.42956,552.207796 3072.78052,521.734328 3067.39016,486.687499 C3060.37005,441.024108 3068.60311,398.482959 3094.88521,360.210905 C3153.41579,274.978815 3275.78303,276.205243 3334.64144,362.284599 C3348.5037,382.553434 3359.35466,404.240619 3361.56045,428.83472 C3363.11058,446.145148 3366.00012,464.279436 3353.60838,479.914057 C3347.99323,486.991766 3339.04364,492.454521 3326.45989,495.342713 Z M3172,495 C3174.03158,498.219749 3175.36422,500.925101 3177.20942,503.192261 C3191.55164,520.76752 3210.83303,525.544752 3231.88506,523.591945 C3256.56226,521.305733 3276.05799,505.311771 3298,495 C3256.37587,495 3214.75175,495 3172,495 Z M3257,416 C3255.14678,401.852243 3239.24266,383.228764 3207.14034,385.135422 C3188.57075,386.236449 3170.94412,403.011455 3171.00013,416 L3257,416 Z M2376.25299,493.933723 C2382.97375,499.381786 2391.36417,504.047539 2396.80345,511.018061 C2410.68459,528.819127 2410.16545,546.779465 2396.62572,565.732915 C2389.44663,575.785833 2379.78876,582.405018 2369.3966,588.541701 C2339.76822,606.038275 2307.73121,615.065289 2273.49604,615.941289 C2254.92861,616.419107 2236.56696,613.992541 2218.82266,608.216563 C2163.16245,590.078214 2131.67732,550.203828 2119.37231,494.449017 C2110.33179,453.483144 2115.14903,413.243367 2135.33469,376.423268 C2164.39716,323.418253 2209.39864,294.561789 2270.79745,297.161682 C2322.32325,299.33997 2361.1044,325.128093 2388.83863,368.169195 C2404.5999,392.636291 2413.06047,419.351943 2412.99967,448.541006 C2412.98564,454.265454 2412.23733,460.139805 2410.80619,465.681558 C2406.07781,483.960442 2392.21537,491.179242 2376.25299,493.933723 Z M2348,496.258348 C2347.90215,495.835803 2347.8043,495.417902 2347.71112,495 L2222,495 C2226.81318,505.935091 2235.06967,513.225151 2245.24584,517.715272 C2260.64056,524.508494 2277.1116,526.300827 2293.08875,520.575576 C2307.67273,515.347163 2321.5345,508.136039 2335.71311,501.797865 C2339.80874,499.959099 2343.89971,498.101758 2348,496.258348 Z M2220,416 L2306,416 C2304.89916,401.381624 2286.42995,386.696192 2268.65455,385.243295 C2239.35728,382.838192 2224.94917,398.641238 2220,416 Z M2686.52042,493.482958 C2697.08386,497.716476 2704.85192,503.118183 2710.80322,511.346908 C2722.94463,528.13145 2722.31719,547.158916 2710.49887,563.733185 C2702.25789,575.28424 2690.87971,582.961579 2678.60252,589.666985 C2649.86678,605.367448 2619.28149,614.413905 2586.4674,614.974636 C2565.78534,615.329766 2545.64176,611.94669 2525.87745,605.390812 C2501.84749,597.428434 2481.97548,583.578383 2465.82129,564.616336 C2448.27642,544.018824 2437.19324,520.098981 2431.61653,493.501649 C2427.585,474.282601 2427.36025,454.853278 2428.83051,435.62021 C2430.25864,417.046002 2437.15578,399.518491 2444.69909,382.425547 C2451.59154,366.818539 2460.9563,352.641395 2472.84953,340.725865 C2497.2494,316.282674 2526.35973,300.502774 2561.52438,297.629028 C2623.43008,292.568433 2669.7341,318.179813 2702.74954,369.500701 C2718.14987,393.443907 2726.16142,419.765547 2725.99754,448.320764 C2725.91793,461.642793 2722.60749,473.913453 2712.18452,483.277657 C2705.35294,489.412987 2697.1541,492.277387 2686.52042,493.482958 Z M2662,496.240692 C2661.90694,495.825573 2661.81387,495.415119 2661.72081,495 L2536,495 C2539.79703,503.778131 2545.7392,510.434026 2552.91912,514.333344 C2569.87082,523.535923 2588.43253,527.244007 2607.11522,520.672069 C2621.54487,515.597358 2635.21604,508.363096 2649.21759,502.075677 C2653.49391,500.154004 2657.7423,498.185687 2662,496.240692 Z M2619,418 C2615.9402,397.427743 2593.93565,380.830942 2567.39256,384.5148 C2549.11279,387.051705 2533.91143,402.846611 2533,418 L2619,418 Z M2851.2626,600.506014 C2851.2626,603.906803 2851.28603,606.631166 2851.2626,609.360194 C2851.04707,631.915494 2851.68898,654.522109 2850.36299,677.012098 C2849.06512,699.016927 2831.15731,724.40855 2796.73794,722.939074 C2771.71759,721.870788 2750.30974,700.812954 2749.4851,674.250415 C2748.70731,649.278643 2749.08215,624.26955 2749.14775,599.274453 C2749.36796,516.078752 2749.89742,432.88305 2749.81777,349.687349 C2749.79434,326.441628 2771.86284,297.378646 2803.84577,299.977054 C2817.96774,301.124646 2829.96251,305.999576 2839.03824,317.111618 C2839.86289,318.123924 2840.51416,319.26685 2841.23572,320.325807 C2847.49081,316.285912 2852.68698,312.306663 2858.4173,309.335055 C2898.81062,288.365857 2953.87412,294.658948 2989.1275,324.202426 C3016.81387,347.406161 3032.64134,377.574749 3040.43326,412.259063 C3048.15489,446.64015 3048.59532,480.927938 3036.95665,514.58595 C3029.86286,535.097977 3020.10306,554.499734 3005.08148,570.444721 C2996.22597,579.840042 2986.72854,589.384642 2975.74583,595.896989 C2937.92014,618.326334 2898.22026,621.400572 2857.52237,603.272362 C2855.68567,602.460651 2853.85366,601.653606 2851.2626,600.506014 Z M2897.72097,391.183645 C2876.78167,389.22612 2863.81051,403.20778 2856.69897,419.291107 C2850.42518,433.486654 2850.44401,448.430803 2851.58298,463.281959 C2852.76432,478.686429 2857.77205,493.081913 2868.50762,504.831715 C2878.12303,515.358646 2890.16701,519.85026 2904.48423,517.302222 C2923.14557,513.982333 2932.5539,500.846919 2938.98771,484.837987 C2947.59122,463.435399 2946.77228,442.028161 2937.74048,421.048695 C2930.44538,404.109823 2917.92604,389.291216 2897.72097,391.183645 Z M1906.85344,339.874763 C1910.63195,335.652638 1914.32183,331.351027 1918.1983,327.222416 C1935.31821,309.001353 1952.51275,290.850425 1969.63266,272.629362 C1984.06096,257.26513 1998.49393,241.905574 2012.79162,226.42445 C2038.41084,198.67906 2077.32481,203.593183 2095.74154,232.297084 C2106.32603,248.792827 2105.67295,266.434107 2094.94386,283.032715 C2090.72219,289.559942 2085.85211,295.844034 2080.39893,301.356642 C2049.66706,332.42643 2018.67397,363.229705 1987.76484,394.112466 C1986.3234,395.55257 1984.81667,396.92254 1981.85917,399.732614 C1990.49376,407.812161 1999.41757,415.452196 2007.53436,423.873067 C2037.85106,455.312232 2068.03248,486.891667 2097.95733,518.70021 C2104.17554,525.306923 2109.764,532.731878 2114.46148,540.498156 C2124.92002,557.784086 2124.05236,575.799419 2114.60143,593.080674 C2107.85143,605.429102 2095.49897,610.123469 2082.48411,613.326299 C2065.92864,617.398802 2050.94056,614.008946 2037.86972,603.488702 C2029.50569,596.755746 2021.68744,589.241954 2014.20506,581.522432 C2002.05319,568.991653 1990.30716,556.058766 1978.51449,543.186663 C1966.80578,530.412748 1955.26966,517.479862 1943.6216,504.64984 C1932.36071,492.254654 1921.0625,479.896874 1909.75497,467.54377 C1908.55144,466.229908 1907.18465,465.060992 1904.92687,462.89616 C1904.74961,466.117692 1904.53036,468.217065 1904.53503,470.321114 C1904.61433,500.236013 1904.0872,530.17429 1904.98751,560.06581 C1905.98112,593.057295 1880.23595,617.436208 1846.73318,614.700944 C1829.48732,613.293569 1815.81938,605.901345 1806.73697,591.589137 C1801.59633,583.490887 1799.95431,573.690695 1800.00096,563.73153 C1800.37881,483.702865 1800.55141,403.678874 1800.87328,323.654884 C1800.96658,300.66932 1801.47971,277.683755 1801.53569,254.698191 C1801.59167,230.604494 1823.00321,209.521925 1848.44051,208.273522 C1861.32475,207.642308 1873.2667,209.970788 1884.03312,217.325608 C1898.23285,227.022935 1903.95659,241.255657 1904.30179,257.695291 C1904.81958,282.364095 1904.59567,307.051601 1904.68897,331.729756 C1904.69363,333.955372 1904.68897,336.180988 1904.68897,338.406604 C1905.40268,338.892873 1906.1304,339.383818 1906.85344,339.874763 Z" id="Shape" sketch:type="MSShapeGroup"></path>
            </g>
        </g>
    </g>
</svg>