<?xml version="1.0" encoding="UTF-8" standalone="no"?>
<svg width="2756px" height="1250px" viewBox="0 0 2756 1250" version="1.1" xmlns="http://www.w3.org/2000/svg" xmlns:xlink="http://www.w3.org/1999/xlink" xmlns:sketch="http://www.bohemiancoding.com/sketch/ns">
    <!-- Generator: Sketch 3.3.3 (12072) - http://www.bohemiancoding.com/sketch -->
    <title>schiphol</title>
    <desc>Created with Sketch.</desc>
    <defs></defs>
    <g id="All-logos" stroke="none" stroke-width="1" fill="none" fill-rule="evenodd" sketch:type="MSPage">
        <g id="Artboard-1" sketch:type="MSArtboardGroup" transform="translate(-3014.000000, -2346.000000)" fill="#4B0082">
            <g id="schiphol" sketch:type="MSLayerGroup" transform="translate(3014.000000, 2563.000000)">
                <path d="M2435.04338,897.70773 L2435.04339,666.877133 C2435.04339,666.877133 2424.01127,667.19008 2418.55573,661.563378 C2413.10019,655.936676 2411.26001,642.347571 2411.26001,642.347571 C2411.26001,642.347571 2371.23934,645.849284 2359.32888,587.169354 C2347.41842,528.489424 2319.34557,433.702849 2297.17021,354.277098 C2284.05261,307.293636 2333.4164,292.898484 2364.30994,280.116161 C2396.38709,266.838769 2426.97926,257.535853 2426.97926,257.535853 L2391.20006,131.188314 L2460.46783,101.110044 C2460.46783,101.110044 2450.84734,82.0593142 2449.57554,69.9285769 C2445.51658,31.1998692 2485.08996,0.481735213 2527.6164,1.0066276 C2570.84822,1.54344936 2607.3191,32.3093009 2603.42154,71.9207821 C2602.30095,83.2924619 2594.56669,101.110044 2594.56669,101.110044 L2661.76207,131.188314 L2625.36025,257.231654 C2625.36025,257.231654 2675.13667,275.181502 2706.3829,287.898213 C2740.10396,301.616991 2765.32078,314.82813 2754.43403,356.829984 C2736.74701,425.067741 2705.96026,518.002852 2693.41872,587.169354 C2684.63128,635.662253 2644.78006,642.347571 2644.78006,642.347571 C2644.78006,642.347571 2642.23287,655.861429 2636.36057,661.563378 C2632.53827,665.274799 2616.5489,666.877133 2616.5489,666.877133 L2616.5489,898 L2435.04338,897.70773 Z M2617,390 L2432,390 C2437.74445,422.838405 2442.76783,451.601971 2447.73113,480 L2608.60566,480 C2611.36371,450.421466 2614.0076,422.077369 2617,390 Z M2333,417.78087 C2340.9616,447.308919 2348.0273,473.564698 2355.69027,502 C2377.22184,495.294237 2396.3285,489.346828 2417,482.915744 C2410.77645,452.283006 2405.02474,423.96713 2398.72952,393 C2374.32509,402.201764 2354.47782,409.689767 2333,417.78087 Z M2721,415.975242 C2698.14435,408.126818 2677.56422,401.064436 2654.08206,393 C2649.98613,427.261852 2646.48716,456.543435 2643,485.69301 C2662.68175,492.269366 2679.13048,497.759663 2697.8311,504 C2705.31371,475.588464 2712.35303,448.845019 2721,415.975242 Z" id="Tower" sketch:type="MSShapeGroup"></path>
                <path d="M541.003943,413.256308 C541.003943,352.711938 540.992547,292.165298 541.01306,231.618658 C541.017618,213.71264 546.656276,205.703188 563.884494,201.583782 C583.054562,197.001113 602.477618,193.467599 621.752527,189.307316 C626.281231,188.32856 628.145589,189.611616 627.808272,194.2556 C627.619102,196.889839 627.778643,199.55133 627.778643,202.199195 C627.776364,247.231071 627.746735,292.260676 627.849297,337.290281 C627.856135,339.636117 626.135364,343.006127 629.23503,344.232411 C631.429868,345.099894 633.075426,342.331671 634.800755,340.989571 C660.550776,320.996599 690.107005,314.906055 721.769184,318.623512 C765.572482,323.764822 795.605056,354.939688 802.631726,401.318205 C804.163326,411.428236 805.015734,421.588227 804.99978,431.836782 C804.931405,480.651971 804.986105,529.467161 804.963313,578.280079 C804.951918,600.6257 796.505327,608.932639 773.870926,608.957619 C759.819866,608.973515 745.766526,609.057538 731.715466,608.932639 C715.952751,608.791843 718.272943,610.944653 718.241034,596.04076 C718.136193,547.227841 718.147588,498.412652 718.268384,449.597463 C718.293455,440.084678 717.477514,430.630936 715.752185,421.377033 C713.192681,407.654006 708.789331,394.587268 692.974196,390.454237 C675.846261,385.976029 660.553055,389.44823 648.074619,402.328754 C641.67472,408.934792 637.316954,416.955598 634.463438,425.691736 C630.091997,439.083213 627.771806,452.83349 627.774085,466.94257 C627.774085,510.838997 627.78776,554.733154 627.762689,598.627311 C627.758131,608.894034 627.698872,608.939451 617.31727,608.953077 C595.289127,608.984869 573.260984,608.993953 551.232842,608.953077 C541.065481,608.932639 541.010781,608.869054 541.008502,598.298031 C540.992547,536.622755 541.003943,474.938396 541.003943,413.256308 Z M904.305353,294.825385 C892.563284,294.827657 880.800695,294.446042 869.083706,294.975305 C862.341707,295.28196 860.802698,292.746947 861.019299,286.56842 C861.443382,274.506664 861.295181,262.41765 861.10366,250.342265 C860.916698,238.630322 866.525531,230.389258 877.180034,226.877493 C898.76948,219.765372 921.460173,217.162214 943.587703,212.196677 C947.803448,211.249455 947.890088,213.884414 947.892368,216.660208 C947.919729,240.81325 947.808008,264.968564 947.999529,289.119334 C948.045129,294.80267 944.77331,294.882173 940.671566,294.852643 C928.551015,294.770869 916.428184,294.825385 904.305353,294.825385 Z M861.010359,464.971062 C861.017202,421.469095 860.985267,377.967129 861.03545,334.465163 C861.051417,321.579644 859.760352,323.212188 872.757679,323.164506 C894.797022,323.085035 916.843207,323.38021 938.877987,323.005565 C945.629845,322.892036 948.022649,324.472357 947.999839,331.726848 C947.748925,414.948001 947.929127,498.171424 947.785422,581.390307 C947.755768,598.349239 937.796777,607.751695 920.531638,607.917447 C904.192597,608.069575 887.851276,607.96967 871.509954,607.944694 C861.07879,607.926529 861.019483,607.897012 861.01264,597.749807 C860.989829,553.491739 861.003516,509.2314 861.010359,464.971062 Z M2047.99594,387.638339 C2047.99594,450.643449 2048.0096,513.650824 2047.98683,576.655934 C2047.98,598.464001 2039.561,606.926292 2017.90337,606.971593 C2002.73415,607.003304 1987.56721,607.016895 1972.39799,606.967063 C1959.77633,606.926292 1961.29257,607.961428 1961.26752,596.309922 C1961.21288,569.899238 1961.25159,543.488554 1961.25159,517.080135 C1961.25159,421.249671 1961.57715,325.419207 1961.00116,229.591009 C1960.87367,208.419425 1971.29382,200.67516 1987.17563,197.313801 C2004.21169,193.710079 2021.30467,190.37137 2038.38171,186.964709 C2047.89121,185.066582 2047.98,185.109618 2047.98228,195.223144 C2048.0096,259.360787 2047.99594,323.500696 2047.99594,387.638339 Z M500.125263,566.442725 C500.71344,576.610767 501.162552,586.792414 501.949068,596.942315 C502.338907,601.962842 500.519661,604.475373 495.495077,605.720301 C453.625062,616.074288 411.638779,619.763718 369.832597,606.221446 C336.329289,595.366314 311.776308,573.440624 297.712487,541.421724 C275.986404,491.955698 275.028906,441.514593 297.274774,392.10299 C317.651241,346.845681 354.941225,323.128565 403.871647,318.103503 C432.733369,315.137446 461.396753,318.291716 489.55631,325.870127 C496.090093,327.627538 497.854625,329.92011 496.903966,336.704851 C494.33924,355.011408 492.882475,373.467628 490.705307,391.833142 C489.544911,401.61342 489.259942,401.640631 480.314176,397.955737 C467.631888,392.726588 454.67375,388.59497 440.810548,388.179995 C408.098316,387.198112 386.112341,402.06241 376.735701,433.074483 C369.324211,457.594339 370.106168,482.374972 379.831611,506.314315 C390.881592,533.505436 415.183801,547.09306 444.508314,543.324263 C456.632061,541.766403 468.067321,537.795787 479.627969,534.129034 C485.516581,532.262776 492.111917,525.795503 497.127383,529.818274 C500.989291,532.911318 498.363011,541.258455 498.864557,547.251794 C499.398021,553.641968 499.863091,560.038945 500.357798,566.429119 C500.278007,566.431387 500.202775,566.435922 500.125263,566.442725 Z M108.087456,613.999766 C75.2427819,614.045187 43.4036037,607.484037 11.8328609,599.264998 C8.36822323,598.363379 4.69202202,598.093121 5.4154329,592.201939 C8.35002421,568.185267 10.9456589,544.116361 13.088593,520.01793 C13.79153,512.116843 16.7920927,513.865574 21.5261117,516.322883 C40.7397227,526.306551 60.6357968,534.48471 82.1675075,538.054848 C100.477992,541.091282 118.274355,539.901236 135.627117,532.631509 C149.287753,526.908387 158.755791,518.117036 159.445079,502.605559 C160.138916,486.989613 151.159977,477.223968 138.106733,470.685529 C119.832646,461.530805 100.750978,454.174777 81.8785981,446.369075 C64.6464049,439.240154 48.1649212,430.823531 34.0151863,418.493838 C4.73979444,392.978253 -3.31781984,359.906785 1.15003856,322.974481 C7.81087837,267.928042 45.9423664,231.465852 104.449928,223.349012 C144.915439,217.737173 184.411854,222.570031 223.478316,233.700595 C231.144651,235.885374 232.518677,239.421445 231.560954,246.536739 C228.944845,266.011251 227.0021,285.576606 224.681726,305.094268 C223.553387,314.566943 223.437368,314.551045 214.699566,311.342009 C192.976765,303.363705 171.062875,296.187092 147.640742,295.274118 C138.493462,294.919829 129.425802,295.444449 120.690274,298.378684 C111.868301,301.342443 103.894858,305.916399 99.2859568,314.258076 C90.3365907,330.448606 88.8579207,349.076004 109.429633,361.228554 C124.857849,370.342398 141.689664,376.095044 158.250768,382.510845 C177.739639,390.055373 196.320835,399.037495 213.073029,411.848658 C278.13451,461.610293 258.879952,568.952892 189.973928,598.179422 C166.790656,608.010927 139.778767,613.931633 108.087456,613.999766 Z M1327.14848,414.449305 C1327.15076,353.558997 1327.14393,292.66869 1327.15304,231.776112 C1327.15531,213.831813 1332.69326,205.880026 1349.91052,201.712318 C1369.03827,197.083801 1388.43018,193.533531 1407.65585,189.290913 C1413.75397,187.944807 1413.6606,191.479187 1413.65149,195.592415 C1413.60595,216.015547 1413.631,236.438679 1413.631,256.861811 C1413.631,283.336746 1413.55586,309.811681 1413.74713,336.284346 C1413.76535,338.960669 1411.70912,342.883217 1415.24775,344.290614 C1417.85732,345.328001 1419.57655,341.84129 1421.63506,340.343095 C1454.38451,316.487732 1490.46766,311.496016 1528.46587,323.629132 C1561.08325,334.043863 1578.35516,359.016062 1586.33644,391.059291 C1589.63598,404.302433 1591.00681,417.845215 1590.99997,431.515116 C1590.97493,480.683177 1591.02958,529.846697 1590.9681,579.017028 C1590.94077,599.687589 1581.83231,608.731244 1561.20166,608.792534 C1545.26641,608.840204 1529.31751,608.383935 1513.40503,608.978673 C1505.76987,609.262422 1504.04837,606.747269 1504.09391,599.48102 C1504.4036,549.936141 1504.21916,500.391261 1504.28747,450.844111 C1504.30341,439.834643 1503.77512,428.831984 1501.24297,418.165284 C1498.19163,405.303501 1493.09773,393.535854 1478.16214,390.112704 C1461.39575,386.267335 1446.45332,389.558825 1434.34591,402.08238 C1423.69357,413.100928 1418.94351,427.120409 1416.24513,441.773217 C1414.4667,451.42069 1413.55586,461.217982 1413.58318,471.101534 C1413.69248,513.838703 1413.48071,556.575872 1413.77446,599.310771 C1413.82228,606.368181 1412.42413,609.176163 1404.5772,608.990023 C1381.82655,608.447495 1359.0463,608.449765 1336.29565,608.985483 C1328.5398,609.167083 1326.96859,606.57021 1327.00047,599.38568 C1327.26006,537.746275 1327.14848,476.09779 1327.14848,414.449305 Z M1005.00342,519.327233 C1005.00797,457.770018 1004.99886,396.212804 1005.01481,334.655589 C1005.01708,323.548901 1005.06037,323.51036 1015.98781,323.496757 C1037.23903,323.471819 1058.49025,323.700799 1079.73463,323.372065 C1086.22914,323.272311 1089.73494,324.278918 1088.76908,331.901022 C1088.22464,336.194973 1086.56172,343.019046 1089.55726,344.581101 C1093.20885,346.485493 1096.66909,340.425445 1100.22273,337.915728 C1158.67554,296.610819 1243.99934,322.184087 1270.0343,390.356798 C1288.73192,439.313283 1288.47678,489.679925 1270.33955,538.860857 C1251.89708,588.869292 1211.92547,614.034477 1158.3703,612.592579 C1134.46751,611.948713 1112.80626,605.675555 1094.31822,590.075407 C1092.97194,588.939573 1091.63021,586.781262 1089.5527,588.078063 C1087.75538,589.198027 1088.64835,591.469695 1088.64607,593.217655 C1088.59823,624.184434 1088.65973,655.151213 1088.59595,686.12026 C1088.55267,706.379367 1079.91687,714.876584 1059.42422,714.962735 C1045.00464,715.02168 1030.58507,714.999009 1016.16777,714.974071 C1005.04898,714.953666 1005.01481,714.926461 1005.01025,703.996609 C1004.99431,642.439395 1005.00114,580.884447 1005.00342,519.327233 Z M1196.99929,469.496623 C1197.04508,449.916862 1194.88592,433.571782 1188.07642,418.143798 C1180.91661,401.920696 1169.53234,390.423121 1150.63335,389.135573 C1131.76184,387.852543 1116.74844,395.699807 1107.58745,411.674435 C1086.82238,447.879374 1087.05821,484.974302 1106.7769,521.450304 C1115.35632,537.325542 1130.20029,544.811389 1148.62531,543.930436 C1166.44585,543.078847 1178.09802,533.130846 1185.89894,517.998772 C1194.23107,501.841177 1196.68789,484.461542 1196.99929,469.496623 Z M1627.00005,450.444436 C1627.42882,420.97067 1641.48935,380.710054 1677.92814,350.510053 C1742.38308,297.093249 1849.73348,309.221362 1897.81297,374.902449 C1936.66018,427.972023 1937.45158,518.776279 1887.007,571.239901 C1863.14401,596.061229 1833.49943,609.285502 1799.70626,613.395534 C1760.55116,618.161447 1723.13395,612.762349 1689.35446,591.086523 C1649.04076,565.214425 1626.96355,520.850586 1627.00005,450.444436 Z M1834.89744,462.354978 C1835.54963,449.190313 1833.09821,435.549355 1827.34479,422.653312 C1820.03613,406.269715 1807.9455,395.066658 1789.94865,390.829677 C1758.07106,383.319588 1730.65848,399.292353 1720.77071,432.061803 C1712.89423,458.160885 1715.12902,484.214822 1724.83892,509.462896 C1733.72789,532.577808 1751.23445,544.051743 1775.61411,543.999825 C1800.42021,543.945649 1818.2369,531.859981 1827.11675,508.625432 C1832.67634,494.070262 1834.9841,478.869499 1834.89744,462.354978 Z" id="Schiphol" sketch:type="MSShapeGroup"></path>
            </g>
        </g>
    </g>
</svg>