<?xml version="1.0" encoding="UTF-8" standalone="no"?>
<svg width="2095px" height="1250px" viewBox="0 0 2095 1250" version="1.1" xmlns="http://www.w3.org/2000/svg" xmlns:xlink="http://www.w3.org/1999/xlink" xmlns:sketch="http://www.bohemiancoding.com/sketch/ns">
    <!-- Generator: Sketch 3.3.3 (12072) - http://www.bohemiancoding.com/sketch -->
    <title>tudelft</title>
    <desc>Created with Sketch.</desc>
    <defs></defs>
    <g id="All-logos" stroke="none" stroke-width="1" fill="none" fill-rule="evenodd" sketch:type="MSPage">
        <g id="Artboard-1" sketch:type="MSArtboardGroup" transform="translate(-14969.000000, -6444.000000)" fill="#4B0082">
            <path d="M15884.7362,7264.46316 L16023.1676,7264.46316 C16195.5065,7264.46316 16213.5976,7118.63158 16213.5976,7063.07368 C16213.5976,7007.51579 16195.5065,6861.64211 16023.1676,6861.64211 L15884.7362,6861.64211 L15884.7362,7264.46316 Z M16897.2248,6984.4 L16897.2248,7021.28421 L16945.243,7021.28421 L16945.243,7199.74737 C16945.243,7237.01053 16945.7695,7272.8 17024.5573,7272.8 C17036.8145,7272.8 17048.3136,7271.66316 17060.8236,7269.49474 L17060.8236,7228.75789 C17052.1888,7230.84211 17041.2794,7232.10526 17032.8973,7232.10526 C17013.9006,7232.10526 16998.2947,7222.56842 16998.2947,7202.54737 L16998.2947,7021.28421 L17063.0561,7021.28421 L17063.0561,6984.4 L16998.2947,6984.4 L16998.2947,6907.95789 L16945.243,6924.69474 L16945.243,6984.44211 L16897.2248,6984.4 Z M16802.0309,7264.46316 L16802.0309,7021.28421 L16866.7291,7021.28421 L16866.7291,6984.4 L16802.0309,6984.4 L16802.0309,6939.15789 C16802.0309,6906.77895 16817.6158,6901.24211 16847.8167,6901.24211 C16856.7042,6901.24211 16865.6761,6902.37895 16874.6058,6902.88421 L16874.6058,6858.86316 C16862.18,6856.04211 16849.5015,6853.26316 16836.6335,6853.26316 C16786.4039,6853.26316 16748.9792,6878.44211 16748.9792,6932.04211 L16748.9792,6984.4 L16694.3059,6984.4 L16694.3059,7021.28421 L16748.9792,7021.28421 L16748.9792,7264.46316 L16802.0309,7264.46316 Z M15366.7717,6665.49474 C15339.5403,6674.04211 15311.4455,6667.2 15311.5297,6630.8 C15311.5718,6575.30526 15441.937,6528.77895 15460.028,6480.27368 C15464.4929,6468.18947 15464.7667,6458.25263 15458.9961,6458.54737 C15454.8261,6458.8 15458.0905,6464.82105 15448.9502,6473.97895 C15394.9508,6527.97895 15304.4533,6527.89474 15235.0165,6558.98947 C15189.4835,6579.41053 15056.0435,6642.18947 15086.7709,6782.18947 C15088.2241,6788.84211 15092.2045,6811.11579 15096.2692,6811.11579 C15101.0079,6811.11579 15100.9658,6797.87368 15100.8394,6781.81053 C15099.8074,6698.44211 15198.5606,6675.17895 15230.6991,6620.71579 C15234.5321,6614.21053 15241.1873,6605.07368 15242.7668,6609.30526 C15243.525,6611.36842 15243.0406,6614.37895 15241.7348,6620.18947 C15231.6889,6664.94737 15184.8502,6693.66316 15198.1183,6725.66316 C15215.3038,6767.17895 15264.9647,6736.23158 15280.1915,6709.53684 C15284.2983,6702.16842 15286.5729,6697.49474 15289.3108,6698.44211 C15291.3747,6699.15789 15291.2905,6707.57895 15290.0058,6715.17895 C15281.8764,6763.34737 15270.7774,6790.4 15235.5009,6817.81053 C15224.2335,6826.58947 15206.4794,6828.42105 15208.8171,6835.15789 C15209.4068,6836.90526 15217.0518,6836.71579 15223.1383,6836.10526 C15317.0476,6830.10526 15395.6036,6719.41053 15416.4115,6647.09474 C15418.6018,6642.02105 15419.2547,6637.24211 15416.9591,6635.43158 C15414.1159,6633.26316 15409.988,6638.27368 15405.797,6642 C15395.0771,6651.41053 15380.3347,6661.24211 15366.7717,6665.49474 Z M15098.5859,7264.46316 L15210.2282,7264.46316 L15210.2282,6939.81053 L15335.3071,6939.81053 L15335.3071,6861.66316 L14973.528,6861.66316 L14973.528,6939.81053 L15098.5859,6939.81053 L15098.5859,7264.46316 Z M16582.6847,6861.64211 L16635.7574,6861.64211 L16635.7574,7264.48421 L16582.6847,7264.48421 L16582.6847,6861.64211 Z M15580.4526,7194.65263 C15632.9356,7194.65263 15661.4517,7159.81053 15661.4517,7110.94737 L15661.4517,6861.64211 L15773.0939,6861.64211 L15773.0939,7116.50526 C15771.9777,7228.69474 15682.07,7272.75789 15580.4526,7272.75789 C15478.8352,7272.75789 15388.9485,7228.69474 15387.8323,7116.50526 L15387.8323,6861.64211 L15499.4745,6861.64211 L15499.4745,7110.94737 C15499.4745,7159.81053 15527.9695,7194.65263 15580.4526,7194.65263 Z M15940.6311,6907.22105 L15938.2723,6907.22105 L15938.2723,7218.86316 L16023.1886,7218.86316 C16107.1994,7218.86316 16157.3447,7160.63158 16157.3447,7063.07368 C16157.3447,6965.47368 16107.1994,6907.22105 16023.1886,6907.22105 L15940.6311,6907.22105 Z M16267.2389,7126.61053 C16267.2389,7054.90526 16300.7885,6978.27368 16394.9505,6978.27368 C16469.6103,6978.27368 16516.0068,7028.04211 16516.0068,7108.18947 L16516.0068,7132.06316 L16316.5418,7132.06316 L16316.5418,7134.44211 C16316.5418,7199.43158 16343.71,7236.69474 16391.0964,7236.69474 C16433.4071,7236.69474 16454.2992,7219.43158 16460.9755,7179.78947 L16511.8158,7179.78947 C16502.9071,7237.26316 16459.1221,7270.44211 16390.5067,7270.44211 C16283.2661,7270.44211 16267.2389,7180.31579 16267.2389,7126.61053 Z M16317.7423,7097.57895 L16317.7212,7099.95789 L16464.8717,7099.95789 L16464.8717,7097.6 C16464.8717,7042.44211 16438.6723,7012.06316 16391.0964,7012.06316 C16343.4152,7012.06316 16318.1003,7055.07368 16317.7423,7097.57895 Z" id="tudelft" sketch:type="MSShapeGroup"></path>
        </g>
    </g>
</svg>