<svg xmlns="http://www.w3.org/2000/svg" width="16" height="16" viewBox="0 0 16 16">
  <path fill="#000000" fill-rule="evenodd" d="M0,0 L16,0 L16,16 L0,16 L0,0 Z M1.10344828,1.10344828 L1.10344828,14.8965517 L6.8891446,14.8965517 L7.35172414,13.7931034 L2.20689655,13.7931034 L2.20689655,1.10344828 L1.10344828,1.10344828 Z M6.89655172,1.10344828 L3.31034483,1.10344831 L3.31034483,12.6896552 L7.80689655,12.6896552 L8.27586207,11.5862069 L4.4137931,11.5862069 L4.4137931,7.17241379 L9.44827586,7.17241379 L8.97931034,6.06896552 L4.4137931,6.06896552 L4.4137931,2.20689655 L7.36551724,2.20689655 L6.89655172,1.10344828 Z M9.17241379,1.10344828 L8,1.10344828 L10.8689655,8 L8,14.8965517 L9.17241379,14.8965517 L11.4482759,9.40689655 L13.7241379,14.8965517 L14.8965517,14.8965517 L12.0275862,8 L14.8965517,1.10344828 L13.7241379,1.10344828 L11.4482758,6.57931034 L9.17241379,1.10344828 Z"/>
</svg>
