<svg xmlns="http://www.w3.org/2000/svg" width="16" height="16" viewBox="0 0 16 16">
  <path fill="#000000" fill-rule="evenodd" d="M0,0 L16,0 L16,16 L0,16 L0,0 Z M1,1 L1,15 L6.8891446,15 L7.35172414,14 L2,14 L2,1 L1,1 Z M6.89655172,1 L3,1 L3,13 L7.80689655,13 L8.27586207,12 L4,12 L4,7 L9.44827586,7 L8.97931034,6 L4,6 L4,2 L7.36551724,2 L6.89655172,1 Z M9.27000046,1 L8.10000038,1 L10.9700003,8 L8.10000038,15 L9.27000046,15 L11.5500002,9.40689655 L13.8199997,15 L15,15 L12.1300001,8 L15,1 L13.8199997,1 L11.5500002,6.57931034 L9.27000046,1 Z"/>
</svg>
