<svg xmlns="http://www.w3.org/2000/svg" width="400" height="400" viewBox="0 0 400 400">
  <path fill-rule="evenodd" d="M0,0 L400,0 L400,400 L0,400 L0,0 Z M27.5862069,27.5862069 L27.5862069,372.413793 L172.228615,372.413793 L183.793103,344.827586 L55.1724138,344.827586 L55.1724138,27.5862069 L27.5862069,27.5862069 Z M172.413793,27.5862069 L82.7586207,27.5862078 L82.7586207,317.241379 L195.172414,317.241379 L206.896552,289.655172 L110.344828,289.655172 L110.344828,179.310345 L236.206897,179.310345 L224.482759,151.724138 L110.344828,151.724138 L110.344828,55.1724138 L184.137931,55.1724138 L172.413793,27.5862069 Z M229.310345,27.5862069 L200,27.5862069 L271.724138,200 L200,372.413793 L229.310345,372.413793 L286.206897,235.172414 L343.103448,372.413793 L372.413793,372.413793 L300.689655,200 L372.413793,27.5862069 L343.103448,27.5862069 L286.206895,164.482759 L229.310345,27.5862069 Z"/>
</svg>
