<?xml version="1.0" encoding="UTF-8" standalone="no"?>
<svg width="1160px" height="1160px" viewBox="0 0 1160 1160" version="1.1" xmlns="http://www.w3.org/2000/svg" xmlns:xlink="http://www.w3.org/1999/xlink" xmlns:sketch="http://www.bohemiancoding.com/sketch/ns">
    <!-- Generator: Sketch 3.4 (15575) - http://www.bohemiancoding.com/sketch -->
    <title>lex-logo-purple-web</title>
    <desc>Created with Sketch.</desc>
    <defs></defs>
    <g id="Page-1" stroke="none" stroke-width="1" fill="none" fill-rule="evenodd" sketch:type="MSPage">
        <g id="lex-logo-purple" sketch:type="MSArtboardGroup" fill="#4B0082">
            <path d="M0,0 L1160,0 L1160,1160 L0,1160 L0,0 Z M80,80 L80,1080 L499.462983,1080 L533,1000 L160,1000 L160,80 L80,80 Z M500,80 L240,80.0000026 L240,920 L566,920 L600,840 L320,840 L320,520 L685,520 L651,440 L320,440 L320,160 L534,160 L500,80 Z M665,80 L580,80 L788,580 L580,1080 L665,1080 L830,682 L995,1080 L1080,1080 L872,580 L1080,80 L995,80 L829.999995,477 L665,80 Z" id="LEX-logo" sketch:type="MSShapeGroup"></path>
        </g>
    </g>
</svg>