<?xml version="1.0" encoding="UTF-8" standalone="no"?>
<svg width="2948px" height="1268px" viewBox="0 0 2948 1268" version="1.1" xmlns="http://www.w3.org/2000/svg" xmlns:xlink="http://www.w3.org/1999/xlink" xmlns:sketch="http://www.bohemiancoding.com/sketch/ns">
    <!-- Generator: Sketch 3.4.4 (17249) - http://www.bohemiancoding.com/sketch -->
    <title>incrediblemachine</title>
    <desc>Created with Sketch.</desc>
    <defs></defs>
    <g id="All-logos" stroke="none" stroke-width="1" fill="none" fill-rule="evenodd" sketch:type="MSPage">
        <g id="Artboard-1" sketch:type="MSArtboardGroup" transform="translate(-9444.000000, -6193.000000)" fill="#4B0082">
            <path d="M10764.2824,6433.9043 C10765.0005,6432.561 10765.8622,6430.49808 10765.8622,6428.03537 C10765.8622,6423.7816 10761.3141,6419.68775 10761.3141,6419.68775 L10762.0641,6419.33594 L10761.0747,6418.34445 L10762.2078,6417.20905 L10760.0055,6417.25703 L10648.8233,6304.83597 L10595.969,6304.83597 L10703.784,6412.5395 L10396.2655,6405.08741 L10396.2655,6449.70401 L10703.8479,6442.25192 L10596.0329,6550.29128 L10648.8073,6550.29128 L10760.6438,6437.56638 L10762.2716,6437.59836 L10761.4258,6436.7508 L10764.2824,6433.9043 Z M10318.5557,6429.83583 L10142.7579,6429.83583 C10134.4755,6460.49175 10158.3492,6510.7534 10188.75,6527.68852 C10229.0609,6550.14075 10268.6059,6539.89013 10310.4967,6495.83322 C10313.1298,6497.22449 10315.8906,6498.69572 10319.2738,6500.50278 C10307.6561,6536.59585 10286.5272,6563.06198 10248.9611,6572.06526 C10203.32,6583.00352 10161.6686,6576.04717 10129.2251,6538.70675 C10109.7399,6516.27051 10101.7448,6489.03679 10100.0213,6459.94804 C10098.3456,6431.53094 10101.7607,6403.72152 10112.788,6377.09548 C10135.7362,6321.60457 10186.5797,6293.98705 10244.9396,6305.99676 C10272.2444,6311.60981 10292.3679,6327.21763 10305.1028,6352.08459 C10317.4386,6376.15197 10318.7312,6402.17033 10318.5557,6429.83583 Z M9676.74047,6552.31561 L9676.74047,6571.18572 L9525.37497,6571.18572 L9525.37497,6552.68342 C9535.17343,6551.08426 9544.95594,6550.26868 9554.29161,6547.80597 C9567.98392,6544.19187 9575.94716,6534.61289 9576.011,6520.90808 C9576.34612,6430.37954 9576.31421,6339.83501 9576.36208,6249.30648 C9576.36208,6248.37896 9575.88333,6247.46744 9574.87795,6243.86933 C9554.67461,6245.50047 9533.62547,6245.27659 9513.56575,6249.62631 C9504.05454,6251.68923 9494.24012,6260.99635 9488.43126,6269.63182 C9478.85621,6283.91233 9471.53131,6299.93593 9465.00432,6315.92755 C9460.93492,6325.90632 9455.49311,6328.8008 9444.2903,6325.66644 C9446.66811,6291.95612 9449.06187,6257.89398 9451.48755,6223.44804 L9750.00551,6223.44804 C9752.60673,6257.44621 9755.20795,6291.26848 9757.77726,6324.89885 C9743.74982,6329.07266 9742.50506,6328.43299 9737.14304,6316.56721 C9731.07884,6303.15025 9725.09444,6289.66932 9718.42383,6276.55619 C9709.40732,6258.77351 9695.65118,6246.87575 9674.87333,6246.10816 C9658.62767,6245.51647 9642.36606,6245.99621 9625.01927,6245.99621 L9625.01927,6256.91849 L9625.01927,6514.7673 C9625.01927,6537.09159 9634.80177,6547.82197 9657.07971,6550.07678 C9663.27157,6550.74843 9669.43151,6551.50004 9676.74047,6552.31561 Z M9865.09755,6193 L9865.09755,6350.94919 C9870.42765,6346.08774 9874.11405,6342.7295 9877.80044,6339.37126 C9903.38177,6316.05548 9931.99519,6300.91142 9968.01332,6303.56603 C10005.0528,6306.3006 10027.7456,6330.1441 10028.3999,6370.12313 C10029.1978,6419.32934 10028.8787,6468.56752 10028.9904,6517.78971 C10029.0542,6541.56924 10034.8312,6548.36568 10058.4337,6552.25164 C10061.3221,6552.73139 10064.1468,6553.53097 10067.3863,6554.2506 L10067.3863,6571.36162 L9945.92688,6571.36162 L9945.92688,6554.20262 C9952.18258,6552.82734 9958.56594,6551.72392 9964.7578,6549.98083 C9977.04577,6546.52665 9983.10997,6539.23447 9983.15784,6526.53713 C9983.3653,6478.94608 9983.70043,6431.35503 9983.01422,6383.77997 C9982.58334,6353.14004 9966.88027,6338.98746 9936.20821,6340.15485 C9911.71205,6341.08236 9889.49795,6349.28606 9869.78932,6363.82244 C9867.41152,6365.58152 9865.40076,6369.59541 9865.3848,6372.56985 C9865.12946,6423.43918 9865.08159,6474.3245 9865.30501,6525.17784 C9865.36884,6540.7057 9872.91717,6548.36568 9890.02458,6551.7719 C9904.94569,6554.74634 9904.94569,6554.74634 9902.08914,6571.4096 L9781.36378,6571.4096 L9781.36378,6554.41051 C9787.58756,6553.00325 9794.24222,6551.86785 9800.6575,6549.96484 C9813.79127,6546.0469 9819.4565,6538.54683 9819.47246,6524.66611 C9819.55225,6434.40943 9819.58417,6344.15275 9819.23308,6253.89607 C9819.23308,6250.44188 9815.92969,6245.72436 9812.80185,6243.80536 C9805.33331,6239.19978 9796.82748,6236.32129 9789.23128,6231.87562 C9786.53431,6230.29245 9783.67775,6226.13463 9783.8533,6223.3201 C9784.01288,6220.61752 9787.49181,6216.8435 9790.34837,6215.75607 C9809.25908,6208.59183 9828.32938,6201.7794 9847.52734,6195.39874 C9852.61807,6193.71962 9858.31522,6193.86355 9865.09755,6193 Z M9622.63248,7108.11076 C9658.63465,7199.79069 9694.18998,7290.39919 9730.75069,7383.48638 C9765.47618,7290.41518 9799.1963,7200.01458 9833.44304,7108.25469 L9918.93223,7108.25469 L9918.93223,7126.74099 C9914.00108,7127.3007 9909.14972,7127.52458 9904.44199,7128.4521 C9884.7174,7132.33806 9875.7009,7144.10789 9878.19041,7164.22534 C9884.01523,7211.72044 9890.3188,7259.16756 9896.46279,7306.61469 C9900.48431,7337.83032 9904.31433,7369.06194 9908.6231,7400.2296 C9912.4212,7427.54328 9915.97992,7430.90152 9943.09326,7435.69901 C9945.31148,7436.08281 9947.48182,7436.4826 9949.98729,7436.91437 L9949.98729,7455.5446 L9814.24508,7455.5446 L9814.24508,7437.12226 C9822.67112,7435.69901 9831.12907,7434.78748 9839.29978,7432.78853 C9855.17839,7428.93455 9861.37025,7421.29056 9860.54042,7404.65928 C9859.72654,7388.9875 9857.52428,7373.36369 9855.56139,7357.75587 C9848.55565,7301.8172 9841.40629,7245.89452 9834.28884,7189.95585 C9834.14521,7188.83644 9833.842,7187.74901 9831.83124,7186.37373 C9829.43748,7192.61046 9827.0118,7198.84719 9824.64996,7205.09991 C9793.86619,7285.87356 9763.05051,7366.64721 9732.42632,7447.48483 C9730.24002,7453.19383 9728.27714,7456.75996 9720.95223,7456.60005 C9713.93053,7456.45612 9710.85055,7454.20131 9708.26529,7447.70871 C9674.52922,7363.14505 9640.47398,7278.70932 9606.48257,7194.22561 C9605.18994,7191.0113 9603.65793,7187.89293 9601.10459,7182.13595 C9597.57778,7209.8814 9594.32226,7234.79634 9591.27421,7259.72727 C9585.62493,7305.92705 9580.07141,7352.14282 9574.45405,7398.35858 C9571.77303,7420.53896 9580.56612,7431.74908 9602.73235,7434.48364 C9608.50929,7435.18728 9614.28623,7436.01884 9620.46214,7436.83441 L9620.46214,7455.51262 L9504.49239,7455.51262 L9504.49239,7437.0423 C9508.70541,7436.2907 9512.80672,7435.47512 9516.92399,7434.81947 C9535.85066,7431.79705 9542.79257,7425.30446 9545.28208,7406.69022 C9550.69198,7366.40734 9555.78271,7326.07648 9560.92132,7285.76162 C9565.82055,7247.39773 9570.52828,7209.00186 9575.47539,7170.63798 C9579.27349,7140.98952 9569.61865,7129.09176 9539.93601,7127.42863 C9538.62742,7127.36467 9537.35075,7127.17277 9535.29212,7126.96488 L9535.29212,7108.09477 C9565.11838,7108.11076 9595.00848,7108.11076 9622.63248,7108.11076 Z M10867.2925,7085.9144 C10885.2457,7085.88242 10898.9221,7099.87508 10899.1136,7118.45734 C10899.337,7138.22297 10885.6128,7152.87129 10866.9095,7152.87129 C10848.6212,7152.87129 10834.7054,7138.57479 10834.5299,7119.59274 C10834.3863,7099.92305 10847.935,7085.94638 10867.2925,7085.9144 Z M10929.0994,7455.84844 L10808.5656,7455.84844 L10808.5656,7438.52952 C10814.7095,7437.18623 10821.1567,7436.14677 10827.3646,7434.33972 C10839.9238,7430.67764 10845.9082,7423.04964 10845.9402,7409.95251 C10846.0997,7355.85287 10845.9082,7301.76923 10846.1317,7247.68558 C10846.1636,7242.08852 10843.9773,7239.52986 10839.2376,7237.45095 C10831.4818,7234.02874 10823.7101,7230.44662 10816.4809,7226.08091 C10813.768,7224.44977 10810.9274,7220.33992 10811.087,7217.5094 C10811.2466,7214.80682 10814.6776,7211.01681 10817.5023,7209.91339 C10836.0779,7202.74914 10854.7492,7195.92072 10873.612,7189.58804 C10878.9102,7187.81297 10884.8946,7188.08483 10891.661,7187.28525 L10891.661,7200.46234 C10891.661,7268.65059 10891.6291,7336.83884 10891.6929,7405.02709 C10891.6929,7425.11256 10896.8634,7431.62114 10915.7263,7435.93888 C10930.5038,7439.31311 10930.5038,7439.31311 10929.0994,7455.84844 Z M11917.7723,7322.55303 C11918.4904,7321.20973 11919.3521,7319.14681 11919.3521,7316.68411 C11919.3521,7312.43034 11914.804,7308.33648 11914.804,7308.33648 L11915.554,7307.98467 L11914.5646,7306.99319 L11915.6977,7305.85778 L11913.4954,7305.90576 L11802.3132,7193.4847 L11749.4589,7193.4847 L11857.2739,7301.18823 L11549.7554,7293.73614 L11549.7554,7338.35275 L11857.3378,7330.90065 L11749.5228,7438.94001 L11802.2972,7438.94001 L11914.1337,7326.21511 L11915.7615,7326.24709 L11914.9157,7325.39954 L11917.7723,7322.55303 Z M10446.7087,7381.23156 C10454.6879,7382.55887 10456.3476,7386.125 10453.7463,7393.65705 C10439.8466,7433.93993 10407.834,7457.6555 10366.9645,7460.61394 C10288.6087,7466.27498 10247.1169,7408.78512 10242.9517,7346.78562 C10240.4622,7310.19681 10246.8137,7275.51099 10267.0489,7244.34333 C10301.4233,7191.41109 10355.0755,7178.07408 10410.2437,7193.23413 C10438.4582,7200.99006 10453.0122,7222.57875 10453.2516,7249.65255 C10453.4112,7266.66763 10438.7295,7281.92363 10422.9306,7279.20506 C10418.5421,7278.43746 10413.8982,7279.07712 10407.7861,7279.07712 C10407.7861,7273.41609 10407.818,7268.31477 10407.7861,7263.22943 C10407.6904,7223.57023 10380.7685,7203.94851 10342.8673,7215.86227 C10317.7169,7223.74613 10302.2213,7241.76868 10293.2207,7265.35632 C10279.6561,7300.88969 10280.7572,7336.87082 10295.407,7371.74854 C10319.0574,7428.05501 10389.7212,7440.8643 10432.5855,7397.1912 C10437.5805,7392.0419 10442.0967,7386.46082 10446.7087,7381.23156 Z M11504.8309,7385.00559 C11491.4896,7431.5092 11456.2375,7458.08727 11409.4475,7460.75787 C11335.0813,7464.97965 11290.2541,7412.11137 11286.3922,7345.6822 C11284.6527,7315.56999 11287.988,7286.22538 11300.3239,7258.20807 C11323.8945,7204.57219 11375.6316,7177.91416 11432.6031,7190.4356 C11470.7278,7198.81521 11498.1762,7231.74194 11502.8839,7275.23914 C11504.2245,7287.82454 11504.5117,7300.52188 11505.3415,7314.22669 L11328.8096,7314.22669 C11324.6605,7348.94449 11341.1455,7393.3692 11375.3124,7412.27129 C11408.5059,7430.64566 11450.7159,7425.11256 11478.8825,7398.67842 C11483.1913,7394.66452 11487.5798,7390.57067 11491.0428,7385.86913 C11495.4473,7379.90426 11499.5327,7379.77633 11504.8309,7385.00559 Z M10040.7268,7274.31162 C10029.7793,7275.89479 10019.7574,7276.98222 10009.8313,7278.88522 C10003.0969,7280.18055 10000.2882,7276.37454 9997.63909,7271.56106 C9986.75546,7251.81142 9995.1815,7220.05207 10017.3956,7206.93895 C10031.1358,7198.8312 10047.0304,7193.20215 10062.6856,7189.8599 C10083.5751,7185.39824 10105.0073,7186.45369 10125.7691,7192.80236 C10152.9463,7201.13399 10172.0166,7226.46471 10172.4634,7257.77629 C10173.0858,7301.70526 10172.0964,7345.65022 10172.1283,7389.59518 C10172.1602,7397.3671 10172.7826,7405.41089 10174.8732,7412.831 C10177.9212,7423.65732 10186.1558,7428.43881 10197.4384,7427.54328 C10203.9175,7427.03155 10210.3487,7426.10404 10217.0991,7425.32045 C10221.8388,7432.94845 10220.2429,7438.86535 10213.0776,7444.43043 C10201.9865,7453.01793 10190.3847,7459.84635 10175.9903,7460.502 C10151.7973,7461.58943 10139.6849,7453.2578 10131.945,7430.13392 C10130.7322,7426.42387 10129.8226,7422.58588 10128.2906,7417.08477 C10123.3913,7421.91423 10119.29,7426.184 10114.9493,7430.26186 C10094.7141,7449.35585 10071.6542,7461.36555 10042.945,7460.75787 C10006.6716,7460.00626 9981.26577,7435.44314 9980.02101,7399.06222 C9978.90392,7366.8551 9992.61219,7343.37941 10022.8215,7330.82599 C10054.1159,7317.80882 10086.1604,7306.50274 10118.1091,7295.03676 C10125.1468,7292.51008 10128.0512,7289.24779 10127.1735,7281.76372 C10125.6415,7268.79452 10126.5511,7255.29759 10123.1839,7242.87211 C10115.1728,7213.09572 10073.1224,7200.76618 10049.1847,7220.29194 C10039.0192,7228.59159 10037.1202,7240.15353 10037.7745,7252.29117 C10038.2054,7259.43942 10039.6735,7266.5397 10040.7268,7274.31162 Z M11088.1888,7455.9284 L10967.9741,7455.9284 L10967.9741,7438.60948 C10973.5595,7437.34614 10979.8791,7436.22673 10986.0231,7434.46765 C10999.2047,7430.70962 11005.0933,7423.17757 11005.1253,7409.48875 C11005.2529,7355.69295 11005.1253,7301.88117 11005.3168,7248.06938 C11005.3168,7242.72818 11003.7528,7239.72176 10998.7738,7237.57888 C10990.6669,7234.12469 10982.6239,7230.36666 10975.0915,7225.80905 C10972.5063,7224.22588 10970.4796,7219.9881 10970.2242,7216.80577 C10970.0646,7214.71087 10973.0967,7211.14474 10975.4586,7210.23322 C10994.9757,7202.81311 11014.5726,7195.60089 11034.3611,7188.93239 C11039.0688,7187.34922 11044.5585,7188.02086 11050.5429,7187.58909 L11050.5429,7235.59592 C11055.873,7230.75046 11059.2721,7227.58412 11062.7351,7224.48175 C11088.6675,7201.27791 11117.281,7185.2863 11153.7459,7187.84496 C11189.0619,7190.32366 11210.5898,7210.77693 11213.9251,7248.05339 C11215.6326,7267.27531 11215.3294,7286.68913 11215.4571,7306.023 C11215.6805,7339.15762 11215.5209,7372.30824 11215.5209,7405.44287 C11215.5528,7424.76074 11221.3457,7431.97296 11240.1128,7436.03483 C11255.0499,7439.26514 11255.0499,7439.26514 11253.1987,7455.59258 L11131.7712,7455.59258 L11131.7712,7438.73741 C11137.7556,7437.39412 11144.0592,7436.25871 11150.2191,7434.53162 C11163.3688,7430.85355 11169.2894,7424.18504 11169.3213,7410.67213 C11169.4809,7361.1301 11169.5767,7311.58808 11168.6989,7262.07804 C11168.3,7238.05863 11153.0757,7224.94551 11126.1538,7224.64166 C11099.8863,7224.32183 11076.0285,7232.9733 11054.9953,7248.66107 C11052.5377,7250.50011 11051.0376,7255.21763 11051.0376,7258.62385 C11050.7823,7307.83005 11050.7823,7357.05224 11050.878,7406.25844 C11050.9419,7425.20851 11056.5273,7431.84503 11075.1827,7436.00285 C11089.8804,7439.26514 11089.8804,7439.26514 11088.1888,7455.9284 Z M10610.6175,7455.9284 L10489.6847,7455.9284 L10489.6847,7438.64146 C10496.0361,7437.20222 10502.8025,7436.13078 10509.2656,7434.16381 C10521.8887,7430.34182 10527.5859,7422.80976 10527.5859,7409.52073 C10527.7136,7318.92823 10527.7136,7228.35172 10527.3944,7137.75922 C10527.3944,7134.56089 10524.2825,7130.13122 10521.3781,7128.40412 C10513.5584,7123.73457 10504.8292,7120.61621 10496.9777,7115.99463 C10494.3286,7114.44344 10491.9667,7110.18967 10491.9667,7107.16726 C10491.9986,7104.78451 10495.3659,7101.21838 10498.015,7100.2269 C10517.2768,7092.99868 10536.6343,7086.07432 10556.1514,7079.59771 C10561.1624,7077.93458 10566.8436,7078.23842 10573.3227,7077.50281 L10573.3227,7234.70039 C10582.6743,7226.68859 10590.2545,7219.63629 10598.3774,7213.33559 C10618.5169,7197.74377 10640.6991,7187.74901 10666.823,7187.66905 C10710.4533,7187.54112 10735.8271,7211.19272 10736.5453,7254.96177 C10737.3591,7304.16797 10737.0081,7353.40615 10737.1357,7402.62835 C10737.1996,7425.64028 10743.3436,7432.86849 10766.0843,7436.57855 C10769.2281,7437.09028 10772.324,7437.96982 10775.6593,7438.72142 L10775.6593,7455.57659 L10653.8488,7455.57659 L10653.8488,7438.75341 C10659.9609,7437.36213 10666.2485,7436.16276 10672.3925,7434.46765 C10685.2709,7430.90152 10691.2553,7423.7053 10691.3191,7410.41626 C10691.5106,7363.16104 10691.8458,7315.88982 10691.2234,7268.6346 C10690.7925,7235.88377 10675.3288,7224.09795 10642.8854,7224.70563 C10619.4744,7225.1534 10598.0582,7233.46904 10579.1794,7247.38174 C10576.1633,7249.60458 10573.594,7254.64194 10573.5621,7258.39996 C10573.195,7307.62216 10573.2748,7356.86034 10573.3386,7406.08253 C10573.3706,7424.6488 10579.6901,7432.21283 10597.6752,7436.01884 C10612.4048,7439.1532 10612.4048,7439.1532 10610.6175,7455.9284 Z M10347.3739,7012.64488 L10226.7922,7012.64488 L10226.7922,6995.59782 C10232.2021,6994.31849 10238.1386,6993.11912 10243.9634,6991.51995 C10258.5973,6987.49007 10264.2465,6980.42177 10264.2625,6965.53358 C10264.3582,6912.04162 10264.2146,6858.56566 10264.438,6805.0897 C10264.47,6799.1728 10262.3794,6796.29431 10257.177,6794.08747 C10249.3573,6790.7772 10241.6016,6787.13112 10234.3884,6782.73342 C10231.7552,6781.13426 10229.3934,6776.91247 10229.3774,6773.87407 C10229.3615,6771.49132 10232.6968,6767.8932 10235.3299,6766.88573 C10254.2087,6759.62554 10273.2152,6752.65319 10292.3812,6746.19258 C10297.4241,6744.48148 10303.1691,6744.83329 10309.5205,6744.12966 L10309.5205,6792.5043 C10314.6432,6787.88272 10317.8189,6785.00423 10320.9946,6782.14173 C10339.6979,6765.27058 10359.9651,6750.87812 10385.307,6746.38448 C10406.9466,6742.54649 10428.4426,6742.97826 10447.6725,6755.85152 C10465.2906,6767.65333 10471.5622,6785.83579 10473.158,6805.68139 C10474.5624,6823.28816 10474.4986,6841.03885 10474.5943,6858.74157 C10474.7858,6893.18751 10474.6422,6927.64944 10474.6581,6962.09538 C10474.6581,6981.57317 10480.3234,6988.72142 10499.0107,6992.84726 C10514.0116,6996.17351 10514.0116,6996.17351 10512.3838,7012.35703 L10390.9403,7012.35703 L10390.9403,6995.48587 C10397.1003,6994.14258 10403.1964,6993.07114 10409.1329,6991.424 C10422.3944,6987.76192 10428.4107,6981.15739 10428.4266,6967.74042 C10428.5703,6917.87856 10428.7298,6868.00072 10427.7564,6818.15485 C10427.2936,6794.45528 10411.3511,6781.45409 10384.4772,6781.45409 C10358.5607,6781.45409 10335.054,6789.97762 10314.2283,6805.36156 C10311.8983,6807.08865 10310.1589,6811.24647 10310.1429,6814.28488 C10309.9035,6864.81838 10309.8557,6915.3359 10310.0631,6965.8694 C10310.127,6982.24482 10316.3507,6988.78539 10334.0965,6992.83127 C10348.858,6996.12554 10348.858,6996.12554 10347.3739,7012.64488 Z M9907.41156,6858.68281 C9908.12969,6857.33951 9908.97548,6855.27659 9908.97548,6852.81388 C9908.97548,6848.56011 9904.42733,6844.46626 9904.42733,6844.46626 L9905.19334,6844.11445 L9904.20392,6843.12296 L9905.32101,6841.98756 L9903.1347,6842.03553 L9791.95248,6729.61448 L9739.09823,6729.61448 L9846.91323,6837.31801 L9539.39473,6829.86592 L9539.39473,6874.48252 L9846.97707,6867.03043 L9739.16207,6975.06979 L9791.93652,6975.06979 L9903.75708,6862.34489 L9905.4008,6862.37687 L9904.555,6861.52931 L9907.41156,6858.68281 Z M11624.0624,6642.72683 C11641.9837,6642.74282 11655.5962,6656.83143 11655.692,6675.47766 C11655.8037,6695.19532 11641.9997,6709.79566 11623.2964,6709.7157 C11605.024,6709.63575 11591.2041,6695.24329 11591.1083,6676.21327 C11591.0126,6656.57557 11604.657,6642.71083 11624.0624,6642.72683 Z M11685.1353,7012.62889 L11565.1599,7012.62889 L11565.1599,6995.35794 C11570.8571,6994.0946 11576.9373,6993.02317 11582.8259,6991.37603 C11596.7097,6987.50606 11602.4867,6980.19789 11602.5186,6965.91738 C11602.6303,6912.15357 11602.4867,6858.38975 11602.6941,6804.62594 C11602.7101,6799.12483 11600.7791,6796.39026 11595.9437,6794.29536 C11588.156,6790.93712 11580.4162,6787.29103 11573.1551,6782.94131 C11570.4581,6781.31017 11567.5537,6777.28028 11567.6654,6774.44976 C11567.7612,6771.74718 11571.1443,6767.86122 11573.969,6766.77379 C11592.5127,6759.60954 11611.2159,6752.78112 11630.0628,6746.44845 C11635.3769,6744.65738 11641.3454,6744.88127 11648.2394,6744.03371 L11648.2394,6757.13084 C11648.2394,6825.31909 11648.2075,6893.50734 11648.2394,6961.69559 C11648.2554,6982.0849 11653.761,6988.88134 11673.1026,6992.94321 C11687.9758,6996.06157 11687.9758,6996.06157 11685.1353,7012.62889 Z M10795.9009,7012.48496 L10795.9009,6995.4379 C10802.1566,6994.06262 10808.2527,6993.00717 10814.1892,6991.37603 C10827.7858,6987.60201 10833.3553,6980.62966 10833.3872,6966.60502 C10833.5148,6912.80922 10833.3712,6858.99744 10833.5627,6805.18565 C10833.5787,6799.47664 10831.8711,6796.24634 10826.5091,6794.0235 C10818.6735,6790.74522 10810.9337,6787.08314 10803.6886,6782.70144 C10801.0235,6781.08628 10798.5819,6776.97644 10798.5021,6773.93803 C10798.4383,6771.60326 10801.7736,6767.95717 10804.3748,6766.9497 C10823.2536,6759.67351 10842.2281,6752.6372 10861.3942,6746.19258 C10866.6764,6744.41751 10872.6927,6744.88127 10879.2038,6744.2416 L10879.2038,6820.31372 C10882.0763,6816.21986 10883.4487,6814.4288 10884.6456,6812.5258 C10894.3004,6796.94997 10903.3169,6780.92637 10913.7537,6765.89425 C10924.5735,6750.28643 10939.8138,6742.46653 10959.3948,6744.86528 C10967.9166,6745.90473 10973.2945,6748.89516 10972.6722,6759.06583 C10971.954,6770.81967 10972.5126,6782.63747 10972.5126,6795.47874 C10964.693,6795.83055 10957.3202,6796.37427 10949.9474,6796.48621 C10918.9721,6797.01393 10898.9603,6815.90003 10881.0549,6838.04842 C10879.3314,6840.1913 10879.5389,6844.23717 10879.5229,6847.38752 C10879.4272,6884.79191 10879.4112,6922.1963 10879.491,6959.60069 C10879.5229,6982.74056 10883.5445,6987.60201 10905.982,6991.88776 C10912.7005,6993.16709 10919.4987,6994.06262 10926.7439,6995.21402 L10926.7439,7012.50095 C10883.337,7012.48496 10839.994,7012.48496 10795.9009,7012.48496 Z M12097.8516,6634.21929 L12097.8516,6648.94756 L12097.8516,6956.00258 C12097.8516,6984.40368 12100.9635,6988.17771 12128.9386,6993.75878 C12131.1089,6994.19055 12133.1995,6995.03811 12135.5294,6995.75773 L12135.5294,7012.421 L12014.3732,7012.421 L12014.3732,6995.46988 C12019.8309,6994.22254 12025.8153,6993.10312 12031.6561,6991.47198 C12046.5293,6987.36213 12051.7956,6980.70962 12051.8116,6965.4856 C12051.8754,6875.59673 12051.7956,6785.70786 12051.9871,6695.83498 C12052.0031,6689.63023 12049.9604,6686.39993 12044.3271,6684.09714 C12036.4755,6680.88282 12028.7198,6677.23673 12021.4587,6672.85503 C12018.8256,6671.27186 12016.4318,6667.13003 12016.352,6664.10762 C12016.3041,6661.77284 12019.6075,6658.12675 12022.1928,6657.15126 C12041.4386,6649.93905 12060.7962,6643.01468 12080.2973,6636.52208 C12085.3562,6634.84296 12091.0533,6635.05085 12097.8516,6634.21929 Z M10710.3957,6835.88955 C10710.3957,6829.66881 10710.4117,6824.51951 10710.3957,6819.35422 C10710.2521,6780.91038 10683.6016,6761.19271 10646.6738,6772.22693 C10620.7095,6779.98286 10604.767,6798.4212 10595.575,6822.77643 C10582.2816,6858.03794 10583.4945,6893.69924 10597.857,6928.27311 C10621.268,6984.59558 10692.1234,6997.7247 10734.9557,6954.21151 C10739.9667,6949.11019 10744.5148,6943.52912 10749.2704,6938.18792 C10758.1912,6939.19539 10758.7657,6943.67304 10756.1325,6951.14112 C10742.0891,6991.02421 10710.284,7014.45193 10669.8933,7017.44236 C10590.8194,7023.26331 10549.4712,6965.13379 10545.4975,6902.95839 C10543.1037,6865.28214 10550.0776,6829.78075 10571.6693,6798.16533 C10606.1714,6747.61583 10659.7278,6734.88651 10713.4438,6750.39837 C10741.8178,6758.58608 10756.4677,6779.93489 10755.6378,6807.16861 C10755.0793,6825.60694 10744.4191,6835.90554 10725.8754,6835.92153 C10721.3113,6835.88955 10716.7472,6835.88955 10710.3957,6835.88955 Z M10189.2101,6993.50291 L10189.2101,7012.50095 L10041.4991,7012.50095 L10041.4991,6993.5349 C10047.9622,6992.7673 10054.0743,6991.95173 10060.2023,6991.29607 C10081.2355,6989.07324 10091.3372,6978.18295 10091.3691,6957.106 C10091.4329,6878.05944 10091.417,6799.01289 10091.3691,6719.96633 C10091.3532,6698.96934 10083.4218,6689.63023 10062.5323,6686.04811 C10055.8138,6684.89672 10048.9995,6684.30503 10041.5948,6683.37751 L10041.5948,6664.79526 L10189.0984,6664.79526 L10189.0984,6683.29756 C10180.4649,6684.36899 10172.3421,6684.94469 10164.3948,6686.4639 C10148.4364,6689.5023 10139.4199,6699.70495 10139.372,6715.76053 C10139.1805,6797.42972 10139.1645,6879.0989 10139.372,6960.78407 C10139.4199,6978.2789 10150.2876,6988.83336 10169.0706,6991.18413 C10175.5657,6992.01569 10182.0448,6992.68734 10189.2101,6993.50291 Z M11218.5912,6941.77004 C11210.9791,6968.98777 11196.1058,6990.08071 11171.9448,7004.07337 C11135.7032,7025.08635 11067.4811,7025.31024 11030.5693,6982.05292 C11013.1586,6961.66361 11003.6953,6937.94804 11000.8068,6911.68981 C10996.4661,6871.99862 11001.3015,6833.76267 11022.4305,6798.94892 C11052.0333,6750.1585 11102.9247,6734.79056 11153.1298,6749.48685 C11191.3343,6760.66499 11209.3194,6790.24948 11215.6549,6827.65387 C11217.9848,6841.43864 11217.8731,6855.6392 11218.9583,6870.68731 L11041.0858,6870.68731 C11040.9422,6900.94344 11046.8149,6928.28911 11066.7151,6950.62939 C11101.1054,6989.20117 11158.0769,6989.7129 11195.7228,6952.5164 C11198.739,6949.52597 11201.5157,6946.26368 11204.3404,6943.08135 C11210.0215,6936.71669 11210.0056,6936.7007 11218.5912,6941.77004 Z M12391.7097,6871.02313 L12215.465,6871.02313 C12210.2147,6898.99247 12224.7848,6947.97478 12260.3082,6968.33211 C12299.885,6990.99223 12337.5309,6981.73309 12382.9964,6937.24441 C12385.4061,6938.37982 12388.0073,6939.57919 12391.3905,6941.14636 C12382.9007,6972.56989 12365.0432,6996.3814 12335.185,7008.77491 C12295.305,7025.31024 12237.9345,7021.77609 12203.4164,6982.11688 C12185.5271,6961.56766 12176.0957,6937.37234 12173.3987,6910.82626 C12170.0474,6877.85155 12173.0636,6845.43655 12186.7559,6814.55674 C12210.486,6761.06478 12262.6381,6734.45473 12319.3383,6747.31199 C12357.1119,6755.8835 12384.1933,6788.33049 12389.0925,6831.52384 C12390.5128,6844.17321 12390.8001,6856.93452 12391.7097,6871.02313 Z M11790.1416,6782.15772 C11805.7649,6771.65123 11819.6168,6758.69802 11836.022,6752.01353 C11885.6207,6731.81612 11948.5128,6748.86318 11968.7481,6812.57378 C11986.1268,6867.24911 11981.7223,6920.50119 11948.0021,6968.33211 C11925.5965,7000.10745 11893.7436,7016.51485 11854.3103,7017.52232 C11819.154,7018.41785 11786.2477,7011.23762 11755.8948,6992.92722 C11747.9156,6988.11374 11744.3729,6982.77254 11744.4207,6972.69782 C11744.9154,6881.17781 11744.6122,6789.6418 11744.8835,6698.10579 C11744.8995,6690.52577 11743.2558,6686.00014 11735.7394,6683.32954 C11728.3985,6680.72291 11721.2013,6677.25272 11714.6264,6673.07891 C11711.7698,6671.27186 11709.4399,6666.89016 11709.1367,6663.46795 C11708.9612,6661.45301 11712.8231,6657.99882 11715.552,6656.97536 C11733.8722,6650.06698 11752.2882,6643.39847 11770.8479,6637.19373 C11776.5131,6635.29073 11782.7688,6635.09883 11790.1256,6633.88346 C11790.1416,6684.78478 11790.1416,6734.08693 11790.1416,6782.15772 Z M11531.9026,6983.17233 L11531.9026,7000.65117 C11503.8158,7006.66401 11475.6333,7012.69285 11445.9506,7019.05752 L11445.9506,6974.53686 C11441.0355,6979.75012 11437.8916,6982.82051 11435.0511,6986.14677 C11392.5219,7035.8647 11306.2986,7026.17378 11274.1424,6964.57408 C11248.5451,6915.5118 11252.455,6823.49605 11300.8887,6777.4242 C11331.2576,6748.54335 11367.2757,6738.72449 11407.5388,6747.6798 C11420.864,6750.65424 11432.8967,6759.46562 11445.6474,6765.67037 C11445.6474,6742.29062 11445.7751,6716.86396 11445.4081,6691.45328 C11445.3761,6689.42234 11442.4079,6686.73575 11440.1737,6685.53638 C11431.8275,6681.1067 11422.9865,6677.54057 11414.8317,6672.80706 C11412.1827,6671.25587 11409.7091,6667.09805 11409.6772,6664.10762 C11409.6453,6661.77284 11413.0763,6658.19072 11415.7095,6657.21523 C11435.2745,6649.92305 11454.9512,6642.93472 11474.7556,6636.34617 C11479.5112,6634.763 11484.8732,6635.03486 11491.2725,6634.31524 L11491.2725,6646.99659 L11491.2725,6952.06864 C11491.2725,6975.04859 11495.1983,6979.30236 11518.1465,6981.47722 C11522.6627,6981.87701 11527.1311,6982.56465 11531.9026,6983.17233 Z M10271.4624,6404.9049 C10272.9466,6387.23416 10268.4942,6367.30861 10260.116,6353.79569 C10252.5677,6341.62608 10242.067,6333.32643 10227.9279,6329.88823 C10185.3987,6319.55765 10140.5237,6359.82453 10144.7208,6404.9049 C10186.7712,6404.9049 10228.8535,6404.9049 10271.4624,6404.9049 Z M11330.4055,7289.16783 L11458.2323,7289.16783 C11458.6632,7271.60904 11455.7428,7255.53747 11447.604,7240.52134 C11437.6619,7222.13098 11421.6716,7213.62344 11401.3566,7212.23217 C11358.604,7209.35368 11330.964,7254.41805 11330.4055,7289.16783 Z M10127.1097,7316.75337 C10125.051,7316.75337 10123.9978,7316.46552 10123.1839,7316.78535 C10099.741,7325.75665 10076.2502,7334.52006 10053.0307,7344.01907 C10047.4453,7346.28988 10042.179,7350.30378 10037.95,7354.66949 C10024.4811,7368.5662 10024.4173,7385.18149 10030.4336,7402.22856 C10036.1946,7418.54 10048.9135,7425.06458 10065.4304,7425.56032 C10080.8303,7426.02408 10094.8577,7421.62639 10108.6617,7414.97387 C10121.8434,7408.60921 10129.0406,7400.88526 10127.5884,7384.33394 C10125.6415,7362.04163 10127.1097,7339.42948 10127.1097,7316.75337 Z M11174.4822,6845.99625 C11170.8117,6830.66029 11168.7531,6816.69961 11164.0135,6803.71442 C11158.7312,6789.19403 11148.5976,6778.15982 11133.2297,6772.83461 C11089.4558,6757.69055 11040.0964,6797.98942 11044.2616,6845.99625 C11086.5194,6845.99625 11128.8092,6845.99625 11174.4822,6845.99625 Z M12344.8079,6846.06022 C12344.3771,6839.2318 12344.5366,6833.33089 12343.5472,6827.63788 C12339.43,6803.81037 12331.2752,6782.26966 12306.2524,6773.07448 C12262.8615,6757.13084 12212.9436,6797.8455 12217.029,6846.06022 L12344.8079,6846.06022 Z M11933.6715,6888.91775 C11930.783,6871.87069 11929.6978,6854.24793 11924.655,6837.85652 C11905.3772,6775.21736 11855.8104,6766.42197 11807.7756,6789.57783 C11795.3919,6795.5587 11787.285,6804.16219 11790.2692,6819.64207 C11791.3704,6825.33508 11790.4129,6831.42789 11790.4607,6837.3288 C11790.732,6870.78326 11790.365,6904.25371 11791.53,6937.66019 C11792.264,6959.04098 11800.5943,6977.27142 11820.8934,6987.63399 C11847.7355,7001.33881 11883.3227,6995.10208 11904.0367,6972.9217 C11926.0274,6949.35006 11931.3894,6920.05342 11933.6715,6888.91775 Z M11445.2485,6829.42894 C11444.4665,6798.24529 11429.7848,6778.28775 11402.8151,6770.54781 C11369.5258,6760.98482 11337.0983,6774.59369 11320.3261,6806.73684 C11298.6865,6848.15512 11298.6067,6891.41244 11315.2353,6934.09406 C11335.8855,6987.13825 11397.5967,7000.37931 11440.2375,6961.88749 C11443.142,6959.26487 11445.3283,6954.29147 11445.44,6950.34154 C11445.9666,6930.04818 11445.6794,6909.72284 11445.6794,6889.3975 C11445.3442,6869.40798 11445.7432,6849.40247 11445.2485,6829.42894 Z" id="incrediblemachine" sketch:type="MSShapeGroup"></path>
        </g>
    </g>
</svg>