<?xml version="1.0" encoding="UTF-8" standalone="no"?>
<svg width="1900px" height="1250px" viewBox="0 0 1900 1250" version="1.1" xmlns="http://www.w3.org/2000/svg" xmlns:xlink="http://www.w3.org/1999/xlink" xmlns:sketch="http://www.bohemiancoding.com/sketch/ns">
    <!-- Generator: Sketch 3.3.3 (12072) - http://www.bohemiancoding.com/sketch -->
    <title>jobe</title>
    <desc>Created with Sketch.</desc>
    <defs></defs>
    <g id="All-logos" stroke="none" stroke-width="1" fill="none" fill-rule="evenodd" sketch:type="MSPage">
        <g id="Artboard-1" sketch:type="MSArtboardGroup" transform="translate(-3383.000000, -6179.000000)" fill="#4B0082">
            <path d="M3829.68292,7006 L3754.9688,7006 C3735.98588,7005.94464 3717.5564,7002.84474 3700.28914,6994.81819 C3669.4073,6980.42575 3652.74882,6955.90326 3649.42819,6922.08104 C3648.09994,6908.51894 3650.09232,6895.23362 3652.25073,6881.94829 C3656.23548,6857.59187 3660.10955,6833.23544 3664.03895,6808.87902 C3667.85768,6785.07614 3671.73174,6761.21792 3675.55046,6737.41505 C3677.8749,6723.07797 3679.92262,6708.63018 3682.63447,6694.34846 C3692.26429,6643.97494 3721.43046,6609.98665 3769.13681,6591.83005 C3782.97276,6586.57127 3797.36215,6583.96956 3812.13894,6582.75174 C3825.58748,6581.64463 3839.03602,6582.08748 3852.48456,6582.08748 C3891.55728,6582.03212 3930.68534,6581.92141 3969.75805,6582.14283 C3989.18372,6582.25354 4008.27733,6584.96596 4026.20872,6593.04787 C4056.75849,6606.83139 4074.0811,6630.41284 4078.28723,6663.73686 C4079.94754,6676.7454 4078.45326,6689.47717 4076.40554,6702.2643 C4072.08872,6728.61352 4067.88259,6754.96274 4063.62112,6781.36733 C4059.74706,6805.39162 4055.92834,6829.36056 4052.05427,6853.38485 C4049.78517,6867.55586 4047.84814,6881.83758 4045.02561,6895.89788 C4035.45113,6943.50362 4007.50252,6976.10802 3963.06145,6994.70748 C3944.4106,7002.5126 3924.70821,7006 3904.45238,7006 C3879.49233,7006 3854.58763,7006 3829.68292,7006 L3829.68292,7006 Z M3881.91146,6683.05538 L3881.91146,6683.11076 C3868.44609,6683.11076 3854.98071,6682.83385 3841.51534,6683.16615 C3821.84371,6683.60921 3809.37577,6694.40875 3805.99558,6713.62641 C3802.89244,6731.57028 3800.06638,6749.62491 3797.1849,6767.62416 C3792.86268,6794.37381 3788.48505,6821.06808 3784.27366,6847.81773 C3782.77751,6857.45425 3780.6164,6867.03539 3780.06227,6876.78268 C3779.28648,6891.51437 3785.76981,6900.15401 3798.95812,6903.03389 C3802.61538,6903.80924 3806.27264,6903.97539 3809.9299,6903.97539 C3834.47788,6904.03077 3859.02587,6903.97539 3883.57385,6903.97539 C3885.79037,6903.97539 3888.0069,6903.97539 3890.22342,6903.69847 C3904.51999,6901.92624 3914.93764,6895.00345 3920.36812,6881.26864 C3921.64262,6878.00109 3922.64005,6874.62277 3923.2496,6871.18906 C3926.68521,6850.30993 3930.00999,6829.37542 3933.39019,6808.44091 C3937.7124,6781.69126 3942.09004,6754.99699 3946.24601,6728.24734 C3947.40969,6720.82611 3949.29373,6713.40488 3948.96125,6705.76213 C3948.46254,6694.5749 3942.42251,6687.09829 3931.61697,6684.32918 C3927.29475,6683.22153 3922.91712,6683 3918.48407,6683 C3906.2932,6683.05538 3894.10233,6683.05538 3881.91146,6683.05538 Z M4436,7005.83397 C4437.93592,6993.76937 4439.76121,6982.14751 4441.64182,6970.52565 C4445.51366,6946.3411 4449.44081,6922.15656 4453.36796,6897.97202 C4456.85261,6876.33321 4460.33727,6854.69441 4463.82192,6833.05561 C4467.69376,6808.87107 4471.62091,6784.68652 4475.49275,6760.50198 C4479.36459,6736.48346 4483.23642,6712.52029 4487.10826,6688.50177 C4490.9801,6664.48325 4494.85194,6640.52008 4498.72377,6616.50156 C4500.27251,6606.70599 4501.65531,6596.79974 4503.42529,6587.05951 C4504.53153,6580.97186 4503.81248,6582.07871 4509.73086,6582.07871 C4559.12445,6582.07871 4608.57335,6582.13405 4657.96694,6582.13405 C4703.70994,6582.13405 4749.39763,6582.18939 4795.14063,6582.18939 C4801.55682,6582.18939 4801.5015,6582.18939 4800.50589,6588.60909 C4795.74906,6618.05114 4790.99223,6647.4932 4786.2354,6676.99059 C4786.12478,6677.71004 4785.95884,6678.42949 4785.7929,6679.14894 C4784.90791,6683.57631 4784.90791,6683.57631 4780.20639,6683.57631 L4621.46104,6683.57631 C4620.18886,6683.57631 4618.86138,6683.687 4617.5892,6683.57631 C4615.32141,6683.35494 4614.27048,6684.18508 4613.8833,6686.50945 C4611.1177,6704.16361 4608.29679,6721.81778 4605.42057,6739.97002 L4775.28363,6739.97002 C4775.83675,6744.89548 4774.50926,6749.15683 4773.84552,6753.41818 C4769.25462,6782.52818 4764.44248,6811.58283 4759.79628,6840.69283 C4759.35378,6843.4046 4758.63473,6844.78816 4755.7585,6844.4561 C4754.65226,6844.34542 4753.54602,6844.4561 4752.43978,6844.4561 L4594.80067,6844.4561 C4588.60573,6844.4561 4588.4951,6844.4561 4587.5548,6850.26703 C4584.84451,6866.81435 4582.18954,6883.36167 4579.58988,6899.90899 C4579.36863,6901.34789 4578.92613,6902.78679 4579.81112,6904.66842 L4749.06575,6904.66842 C4748.73388,6912.08428 4747.12984,6918.89137 4746.07891,6925.69846 C4742.26238,6950.2704 4738.22461,6974.787 4734.24215,6999.35894 C4734.07621,7000.24441 4733.91027,7001.18523 4733.74434,7002.0707 C4732.91466,7005.94466 4732.91466,7006 4728.82157,7006 L4438.98685,7006 C4438.26779,7006 4437.54874,7005.94466 4436,7005.83397 Z M3383,7005.80935 C3384.71694,6994.79485 3386.26773,6984.61058 3387.92928,6974.48167 C3391.47393,6952.50801 3395.12935,6930.479 3398.72939,6908.50534 C3399.4494,6904.24344 3399.4494,6904.24344 3403.9356,6904.24344 L3470.95165,6904.24344 C3476.87787,6904.24344 3482.69331,6903.7453 3488.3426,6901.80808 C3502.46582,6896.88199 3509.33358,6886.03353 3511.71514,6872.19622 C3516.14595,6846.7909 3519.96753,6821.33024 3524.06603,6795.86958 C3528.27531,6769.68937 3532.59535,6743.50917 3536.74924,6717.32896 C3537.69079,6711.35124 3538.85387,6705.31817 3537.91233,6699.1744 C3536.36154,6689.21153 3530.43533,6683.84265 3520.41061,6683.51056 C3514.70594,6683.34451 3508.94588,6683.45521 3503.24121,6683.45521 C3497.92423,6683.45521 3497.86885,6683.39986 3498.64424,6678.36308 C3500.19502,6668.56626 3501.85658,6658.71409 3503.40736,6648.91727 C3506.6197,6629.10223 3509.83204,6609.28719 3512.93361,6589.47215 C3514.0967,6582 3513.98593,6582 3521.5737,6582 C3574.18961,6582.05535 3626.75014,6582.05535 3679.36606,6582.1107 C3685.34766,6582.1107 3685.51381,6582.1107 3684.57226,6587.86702 C3681.083,6609.67463 3677.53835,6631.48225 3674.04908,6653.28986 C3670.55981,6674.93142 3667.07055,6696.57299 3663.58128,6718.21455 C3659.70432,6742.40218 3655.77197,6766.58981 3651.89501,6790.77744 C3648.01805,6814.79903 3644.25186,6838.82061 3640.26413,6862.78684 C3637.77179,6877.84184 3636.49793,6893.17359 3632.06712,6907.84115 C3618.66391,6952.06521 3589.36515,6981.28963 3546.2201,6996.95347 C3529.65994,7002.93119 3512.49053,7005.92005 3494.82266,7005.9754 C3458.8223,7006.03075 3422.82194,7005.9754 3386.87696,7005.9754 C3385.71387,7005.80935 3384.66156,7005.80935 3383,7005.80935 Z M4402.79063,6785.1044 C4409.87457,6789.25611 4416.84783,6793.6846 4423.04628,6799.1095 C4433.67219,6808.40933 4441.80766,6819.31449 4445.46032,6833.20888 C4447.95077,6842.67478 4447.78474,6852.14068 4446.12444,6861.71729 C4443.68933,6875.66704 4442.41644,6889.89357 4438.98515,6903.62189 C4427.36306,6949.89963 4398.25248,6980.62228 4353.75646,6996.89699 C4337.26416,7002.93081 4320.05239,7005.9754 4302.39788,7005.9754 C4217.16919,7006.03075 4131.99585,7005.9754 4046.76717,7005.9754 C4046.0477,7005.9754 4045.32824,7005.86468 4044,7005.80933 C4044.99618,6999.33266 4045.88167,6993.02206 4046.87785,6986.76682 C4051.58203,6957.48342 4056.28621,6928.20002 4060.99039,6898.91662 C4065.58389,6870.35285 4070.28807,6841.84444 4074.88156,6813.28067 C4079.5304,6784.55083 4084.01321,6755.821 4088.66205,6727.09116 C4093.64294,6696.20243 4098.67918,6665.25835 4103.71542,6634.36962 C4106.31656,6618.20563 4109.02838,6602.04164 4111.46349,6585.82229 C4111.90623,6582.72234 4113.12378,6581.94736 4116.00164,6582.00271 C4125.7974,6582.16878 4135.53782,6582.16878 4145.33359,6582.16878 C4215.06615,6582.16878 4284.79871,6582.11343 4354.47593,6582.22414 C4374.45486,6582.22414 4394.15708,6584.38303 4412.86311,6592.02218 C4440.2027,6603.20412 4458.41065,6622.52341 4465.38391,6651.6961 C4468.48313,6664.76015 4468.64916,6677.99026 4466.82283,6691.27574 C4465.49459,6700.74164 4463.88964,6710.20754 4462.28468,6719.67344 C4458.41065,6742.42481 4446.40115,6759.75128 4427.14168,6772.26177 C4420.66652,6776.46884 4413.7486,6779.95627 4406.60932,6782.83479 C4405.39177,6783.27764 4403.73147,6783.333 4402.79063,6785.1044 Z M4187,6904.16227 C4189.045,6905.38442 4190.9242,6904.88445 4192.74812,6904.88445 C4207.11841,6904.94 4221.4887,6904.94 4235.85899,6904.94 C4252.27429,6904.94 4268.63431,6905.10666 4285.04961,6904.88445 C4304.06261,6904.60669 4316.49844,6894.60727 4321.19642,6876.10833 C4323.13088,6868.55321 4324.23629,6860.88699 4324.89953,6853.16521 C4325.83913,6842.05474 4320.14628,6833.72189 4309.58964,6830.38875 C4304.11788,6828.66663 4298.4803,6828 4292.73218,6828 L4203.80219,6828 C4199.15948,6828 4199.15948,6828.05555 4198.38569,6832.72195 C4195.51163,6850.77646 4192.58231,6868.83098 4189.70825,6886.88549 C4188.71338,6892.66293 4187.88433,6898.44038 4187,6904.16227 Z M4210,6756.29347 C4211.49235,6757.24027 4212.5978,6756.9618 4213.70325,6756.9618 L4295.94847,6756.9618 C4300.70189,6756.9618 4305.45531,6756.73902 4310.20873,6755.68084 C4321.42901,6753.23029 4330.60422,6747.93935 4334.80491,6736.63344 C4338.67398,6726.16295 4340.33215,6715.07982 4339.94524,6703.94099 C4339.66888,6695.02993 4335.026,6688.62511 4326.51407,6685.45054 C4321.81592,6683.72402 4316.95195,6683 4311.92217,6683 L4225.80789,6683 C4221.66246,6683 4221.60719,6683.05569 4220.94392,6687.12137 C4217.24067,6710.12304 4213.64797,6733.18041 4210,6756.29347 Z M4958,7004.94483 C4984.95965,6985.41602 5010.98014,6966.60437 5037.00062,6947.73756 C5038.9342,6946.3584 5040.86778,6944.92408 5042.80137,6943.54493 C5047.44196,6940.17979 5047.49721,6940.17979 5051.91682,6943.37943 C5069.04283,6955.79181 5086.11359,6968.14902 5103.2396,6980.5614 C5113.18374,6987.78817 5123.18312,6994.95976 5133.12725,7002.24169 C5134.12166,7002.95885 5135.33706,7003.40018 5136,7005 C5076.99814,7004.94483 5018.10677,7004.94483 4958,7004.94483 Z M5282.95457,6768 L5282.95457,6774.52843 L5282.95457,7000.09136 C5282.95457,7006.89643 5283.89868,7005.95589 5277.17884,7005.95589 C5260.18485,7006.01122 5243.13532,7005.95589 5226.14133,7005.95589 C5220.19899,7005.95589 5220.19899,7005.95589 5218.47738,7000.64462 C5205.03769,6959.42697 5191.59799,6918.15398 5178.1583,6876.93633 C5175.65919,6869.24605 5173.27114,6861.50045 5170.49435,6853.92083 C5169.38363,6850.87792 5170.16113,6849.43945 5172.66025,6847.66903 C5194.37479,6832.06718 5216.0338,6816.35467 5237.6928,6800.64217 C5251.74339,6790.46224 5265.79398,6780.28231 5279.84456,6770.10238 C5280.51099,6769.65977 5281.23296,6769.16184 5282.95457,6768 Z M5008.65771,6582.0486 C5009.54161,6584.15912 5008.49198,6585.60316 5007.99478,6587.15828 C4995.84114,6624.70333 4983.68749,6662.19283 4971.53385,6699.73788 C4970.15275,6703.95892 4970.15275,6703.95892 4965.40178,6703.95892 L4825.19292,6703.95892 C4823.59085,6703.95892 4821.87829,6704.23662 4820,6703.34798 C4821.21536,6695.35022 4822.43073,6687.35246 4823.75658,6679.3547 C4828.0656,6652.36225 4832.37462,6625.36981 4836.73888,6598.43291 C4837.45705,6594.04525 4838.34095,6589.71312 4838.83815,6585.32546 C4839.11437,6582.65954 4840.32973,6581.7709 4842.76046,6582.0486 C4843.47863,6582.10414 4844.25205,6582.0486 4844.97021,6582.0486 L5003.90674,6582.0486 C5005.50881,6582.0486 5007.16612,6582.0486 5008.65771,6582.0486 Z M5083.28338,6582.06006 L5088.99408,6582.06006 L5276.78194,6582.06006 C5283.49063,6582.06006 5282.99163,6580.9495 5282.99163,6588.27922 L5282.99163,6697.61426 L5282.99163,6699.83538 C5282.88074,6703.94447 5282.88074,6704 5278.61158,6704 L5195.50145,6704 L5126.80669,6704 C5121.8722,6704 5121.81676,6704 5120.31978,6699.39116 C5108.12216,6661.68751 5095.8691,6624.03939 5083.61604,6586.33573 C5083.17249,6585.11411 5082.6735,6583.89249 5083.28338,6582.06006 Z M4771,7005.29007 C4783.64305,6926.61726 4796.3413,6847.83388 4808.98435,6769.21636 C4810.9719,6768.44235 4811.91047,6769.93509 4813.01467,6770.7091 C4848.23853,6796.30679 4883.46239,6821.95976 4918.63104,6847.61274 C4923.04782,6850.81936 4922.38531,6849.71363 4920.78422,6854.68942 C4904.99421,6903.45219 4889.149,6952.15967 4873.24857,7000.86715 C4871.37144,7006.67224 4872.58605,7005.89823 4866.0713,7005.95351 L4776.68661,7005.95351 C4774.86469,7005.89823 4772.98755,7006.34052 4771,7005.29007 Z M5259,6740.79288 C5238.59633,6755.62466 5218.24796,6770.45644 5197.8443,6785.28822 C5176.11357,6801.11616 5154.38283,6816.94411 5132.6521,6832.77205 C5128.50501,6835.81589 5128.56031,6835.42849 5130.16385,6840.29863 C5145.6463,6887.67178 5161.01817,6935.04493 5176.39004,6982.41808 C5177.10887,6984.63178 5178.15946,6986.84548 5178.21476,6990 C5173.57002,6986.62411 5169.42293,6983.69096 5165.27585,6980.70247 C5127.28853,6953.08658 5089.30122,6925.52603 5051.31391,6897.91014 C5047.16682,6894.8663 5047.11153,6894.8663 5043.07503,6897.79945 C5021.289,6913.57205 4999.55827,6929.34466 4977.77224,6945.11726 C4976.88753,6945.78137 4976.00282,6946.39014 4974.89693,6947.16493 C4975.1734,6946.11342 4974.95222,6947.16493 4974.56516,6946.50082 C4974.50987,6946.39014 4974.39928,6946.11342 4974.50987,6946.00274 C5009.95363,6896.91397 5045.45269,6847.76986 5080.89646,6798.6811 C5081.00705,6798.57041 5080.95175,6798.34904 5081.11764,6797.68493 C5022.78195,6778.70247 4964.39098,6759.66466 4906,6740.62685 C4906,6740.29479 4906,6740.01808 4906.05529,6739.68603 L4911.08709,6739.68603 L4991.81704,6739.68603 C4996.57237,6739.68603 4996.57237,6739.68603 4998.12061,6734.98192 C5013.71366,6687.11068 5029.3067,6639.18411 5044.89975,6591.31288 C5045.45269,6589.59726 5046.06093,6587.88164 5046.72447,6586 C5048.71507,6587.49425 5048.77036,6589.6526 5049.32331,6591.42356 C5064.97165,6639.29479 5080.5094,6687.22137 5096.10244,6735.0926 C5097.92716,6740.68219 5096.60009,6739.63068 5102.46131,6739.63068 C5152.55811,6739.68603 5202.71021,6739.63068 5252.80702,6739.63068 L5258.72353,6739.63068 C5258.83412,6740.12877 5258.94471,6740.46082 5259,6740.79288 Z M4917.34628,6988 C4916.84724,6985.90057 4917.73443,6984.02213 4918.34437,6982.08844 C4930.76505,6944.13289 4943.18574,6906.2326 4955.60642,6868.27705 C4958.65614,6858.99535 4961.65041,6849.76889 4964.64468,6840.48719 C4965.97547,6836.39882 4965.97547,6836.28832 4962.37125,6833.69165 C4931.4859,6811.31611 4900.54509,6788.88533 4869.65974,6766.50979 C4859.51248,6759.16177 4849.36523,6751.81376 4839.16253,6744.46574 C4838.27534,6743.85801 4837.27725,6743.36077 4837,6742.03482 C4838.71893,6741.81382 4840.21607,6742.69779 4841.76865,6743.19503 C4876.53547,6754.41042 4911.24684,6765.73631 4946.01366,6776.95171 C4977.7862,6787.22788 5009.55875,6797.44881 5041.3313,6807.72498 C5042.05214,6807.94597 5042.77298,6808.11172 5043.43838,6808.38796 C5047.87433,6809.93491 5047.87433,6809.93491 5045.04641,6813.85753 C5003.12661,6871.26046 4961.20681,6928.66339 4919.23156,6986.06631 C4918.73252,6986.78454 4917.95623,6987.33702 4917.29083,6987.94475 L4917.34628,6988 Z" id="jobe" sketch:type="MSShapeGroup"></path>
        </g>
    </g>
</svg>