<?xml version="1.0" encoding="UTF-8" standalone="no"?>
<svg width="908px" height="1250px" viewBox="0 0 908 1250" version="1.1" xmlns="http://www.w3.org/2000/svg" xmlns:xlink="http://www.w3.org/1999/xlink" xmlns:sketch="http://www.bohemiancoding.com/sketch/ns">
    <!-- Generator: Sketch 3.3.3 (12072) - http://www.bohemiancoding.com/sketch -->
    <title>lex</title>
    <desc>Created with Sketch.</desc>
    <defs></defs>
    <g id="All-logos" stroke="none" stroke-width="1" fill="none" fill-rule="evenodd" sketch:type="MSPage">
        <g id="Artboard-1" sketch:type="MSArtboardGroup" transform="translate(-10272.000000, -4276.000000)" fill="#4B0082">
            <path d="M10272,4435 L11180,4435 L11180,5343 L10272,5343 L10272,4435 Z M10335,4498 L10335,5281 L10663.7182,5281 L10690,5218.36 L10397.6932,5218.36 L10397.6932,4498 L10335,4498 Z M10663.3258,4498 L10460,4498 L10460,5156 L10714.9393,5156 L10741.5281,5093.33333 L10522.5618,5093.33333 L10522.5618,4842.66667 L10808,4842.66667 L10781.4112,4780 L10522.5618,4780 L10522.5618,4560.66667 L10689.9146,4560.66667 L10663.3258,4498 Z M10792.47,4498 L10726,4498 L10888.656,4889.5 L10726,5281 L10792.47,5281 L10921.5,4969.366 L11050.53,5281 L11117,5281 L10954.344,4889.5 L11117,4498 L11050.53,4498 L10921.5,4808.851 L10792.47,4498 Z" id="lex" sketch:type="MSShapeGroup"></path>
        </g>
    </g>
</svg>