<?xml version="1.0" encoding="UTF-8" standalone="no"?>
<svg width="2437px" height="1250px" viewBox="0 0 2437 1250" version="1.1" xmlns="http://www.w3.org/2000/svg" xmlns:xlink="http://www.w3.org/1999/xlink" xmlns:sketch="http://www.bohemiancoding.com/sketch/ns">
    <!-- Generator: Sketch 3.3.3 (12072) - http://www.bohemiancoding.com/sketch -->
    <title>ljs</title>
    <desc>Created with Sketch.</desc>
    <defs></defs>
    <g id="All-logos" stroke="none" stroke-width="1" fill="none" fill-rule="evenodd" sketch:type="MSPage">
        <g id="Artboard-1" sketch:type="MSArtboardGroup" transform="translate(-2910.000000, -7948.000000)" fill="#4B0082">
            <g id="ljs" sketch:type="MSLayerGroup" transform="translate(2910.000000, 8349.000000)">
                <path d="M1476.64062,222.398438 L1479.82031,225.578125 L1476.64062,238.296875 L1479.82031,247.835938 L1454.38281,311.429688 L1451.20313,320.96875 L1448.02344,320.96875 L1435.30469,336.867188 L1435.30469,343.226562 L1428.94531,343.226562 L1422.58594,355.945312 L1416.22656,355.945312 L1413.04688,362.304688 L1413.04688,368.664062 L1403.50781,368.664062 L1400.32812,375.023437 L1393.96875,375.023437 L1390.78906,381.382812 L1381.25,381.382812 L1378.07031,390.921875 L1368.53125,390.921875 L1365.35156,394.101562 L1358.99219,394.101562 L1355.8125,390.921875 L1349.45312,400.460937 L1343.09375,406.820312 L1339.91406,406.820312 L1336.73438,410 L1333.55469,410 L1330.375,406.820312 L1327.19531,406.820312 L1324.01562,403.640625 L1308.11719,410 L1304.9375,410 L1301.75781,403.640625 L1295.39844,406.820312 L1289.03906,400.460938 L1282.67969,406.820312 L1273.14063,406.820312 L1269.96094,403.640625 L1263.60156,410 L1257.24219,410 L1254.0625,406.820312 L1244.52344,410 L1228.625,410 L1215.90625,397.28125 L1209.54688,403.640625 L1206.36719,403.640625 L1203.1875,400.460937 L1193.64844,400.460937 L1193.64844,397.28125 L1184.10938,397.28125 L1180.92969,397.28125 L1174.57031,384.5625 L1168.21094,384.5625 L1165.03125,381.382812 L1161.85156,384.5625 L1155.49219,375.023438 L1145.95313,375.023438 L1145.95313,368.664063 L1139.59375,362.304688 L1139.59375,359.125 L1130.05469,359.125 L1130.05469,352.765625 L1126.875,349.585938 L1123.69531,349.585938 L1120.51563,340.046875 L1114.15625,336.867188 L1114.15625,330.507813 L1107.79688,324.148438 L1107.79688,311.429688 L1101.4375,298.710938 L1101.4375,289.171875 L1098.25781,285.992188 L1088.71875,279.632812 L1088.71875,276.453125 L1085.53906,270.09375 L1085.53906,263.734375 L1082.35938,257.375 L1082.35938,247.835938 L1082.35938,244.65625 L1076,241.476563 L1082.35938,209.679688 L1079.17969,206.5 L1076,203.320313 L1079.17969,190.601563 L1076,174.703125 L1085.53906,149.265625 L1085.53906,139.726562 L1088.71875,127.007812 L1101.4375,111.109375 L1104.61719,98.390625 L1120.51563,82.4921875 L1126.875,69.7734375 L1133.23438,63.4140625 L1184.10938,25.2578125 L1209.54688,15.71875 L1212.72656,12.5390625 L1215.90625,12.5390625 L1219.08594,15.71875 L1228.625,9.359375 L1234.98438,9.359375 L1234.98438,12.5390625 L1244.52344,6.1796875 L1254.0625,6.1796875 L1269.96094,3 L1279.5,6.1796875 L1279.5,12.5390625 L1285.85938,12.5390625 L1295.39844,9.359375 L1295.39844,18.8984375 L1304.9375,15.71875 L1304.9375,12.5390625 L1311.29688,9.359375 L1314.47656,9.359375 L1311.29688,15.71875 L1308.11719,18.8984375 L1320.83594,22.078125 L1330.375,15.71875 L1333.55469,15.71875 L1333.55469,18.8984375 L1343.09375,18.8984375 L1343.09375,25.2578125 L1355.8125,25.2578125 L1355.8125,31.6171875 L1362.17187,28.4375 L1368.53125,31.6171875 L1371.71094,28.4375 L1374.89062,28.4375 L1378.07031,28.4375 L1378.07031,34.796875 L1381.25,34.796875 L1384.42969,37.9765625 L1387.60938,37.9765625 L1390.78906,37.9765625 L1403.50781,44.3359375 L1400.32813,50.6953125 L1413.04688,47.515625 L1413.04688,50.6953125 L1409.86719,53.875 L1419.40625,57.0546875 L1419.40625,60.234375 L1428.94531,60.234375 L1432.125,66.59375 L1438.48438,66.59375 L1438.48438,72.953125 L1448.02344,76.1328125 L1448.02344,88.8515625 L1457.5625,88.8515625 L1457.5625,95.2109375 L1454.38281,104.75 L1463.92188,104.75 L1463.92188,111.109375 L1467.10156,111.109375 L1470.28125,114.289062 L1467.10156,127.007813 L1473.46094,133.367188 L1470.28125,139.726563 L1467.10156,142.90625 L1476.64062,146.085938 L1473.46094,158.804688 L1470.28125,165.164063 L1479.82031,168.34375 L1479.82031,177.882813 L1483,181.0625 L1479.82031,193.78125 L1483,200.140625 L1476.64062,222.398438 Z M1422.81522,177.691489 L1419.63043,161.787234 L1413.26087,161.787234 L1410.07609,158.606383 L1406.8913,152.244681 L1410.07609,139.521277 L1406.8913,126.797872 L1403.70652,126.797872 L1400.52174,114.074468 L1394.15217,110.893617 L1394.15217,110.893617 L1390.96739,110.893617 L1378.22826,101.351064 L1375.04348,94.9893617 L1371.8587,98.1702128 L1368.67391,101.351064 L1365.48913,98.1702128 L1365.48913,91.8085106 L1359.11957,88.6276596 L1355.93478,85.4468085 L1352.75,85.4468085 L1349.56522,82.2659574 L1349.56522,79.0851064 L1349.56522,75.9042553 L1346.38043,75.9042553 L1340.01087,75.9042553 L1340.01087,69.5425532 L1330.45652,79.0851064 L1324.08696,75.9042553 L1324.08696,69.5425532 L1317.71739,75.9042553 L1314.53261,75.9042553 L1311.34783,72.7234043 L1311.34783,63.1808511 L1304.97826,69.5425532 L1301.79348,69.5425532 L1298.6087,66.3617021 L1292.23913,63.1808511 L1292.23913,60 L1285.86957,66.3617021 L1282.68478,66.3617021 L1279.5,66.3617021 L1276.31522,60 L1266.76087,66.3617021 L1260.3913,63.1808511 L1254.02174,66.3617021 L1250.83696,66.3617021 L1247.65217,63.1808511 L1244.46739,60 L1241.28261,66.3617021 L1234.91304,66.3617021 L1228.54348,63.1808511 L1225.3587,66.3617021 L1215.80435,69.5425532 L1193.51087,88.6276596 L1180.77174,101.351064 L1177.58696,101.351064 L1164.84783,117.255319 L1164.84783,120.43617 L1158.47826,126.797872 L1148.92391,145.882979 L1136.18478,164.968085 L1136.18478,174.510638 L1133,184.053191 L1133,209.5 L1136.18478,212.680851 L1133,222.223404 L1139.36957,222.223404 L1142.55435,225.404255 L1142.55435,231.765957 L1139.36957,238.12766 L1145.73913,247.670213 L1142.55435,260.393617 L1145.73913,260.393617 L1148.92391,263.574468 L1148.92391,266.755319 L1145.73913,273.117021 L1148.92391,266.755319 L1148.92391,273.117021 L1155.29348,279.478723 L1155.29348,285.840426 L1158.47826,285.840426 L1161.66304,285.840426 L1161.66304,292.202128 L1158.47826,295.382979 L1158.47826,301.744681 L1161.66304,301.744681 L1164.84783,304.925532 L1164.84783,311.287234 L1168.03261,311.287234 L1171.21739,314.468085 L1168.03261,330.37234 L1174.40217,327.191489 L1180.77174,330.37234 L1190.32609,336.734043 L1190.32609,343.095745 L1199.88043,339.914894 L1203.06522,343.095745 L1212.61957,343.095745 L1218.98913,349.457447 L1225.3587,349.457447 L1228.54348,352.638298 L1228.54348,355.819149 L1231.72826,355.819149 L1238.09783,359 L1244.46739,349.457447 L1247.65217,349.457447 L1254.02174,352.638298 L1266.76087,352.638298 L1266.76087,355.819149 L1269.94565,355.819149 L1273.13043,352.638298 L1279.5,352.638298 L1292.23913,352.638298 L1298.6087,349.457447 L1304.97826,352.638298 L1308.16304,349.457447 L1311.34783,349.457447 L1314.53261,349.457447 L1317.71739,346.276596 L1320.90217,343.095745 L1330.45652,343.095745 L1362.30435,320.829787 L1362.30435,317.648936 L1390.96739,292.202128 L1410.07609,250.851064 L1410.07609,257.212766 L1422.81522,215.861702 L1422.81522,212.680851 L1426,180.87234 L1422.81522,177.691489 Z M1406.64286,203.230769 L1403.46429,206.410256 L1403.46429,212.769231 L1403.46429,215.948718 L1400.28571,215.948718 L1393.92857,225.487179 L1393.92857,235.025641 L1384.39286,235.025641 L1381.21429,244.564103 L1374.85714,244.564103 L1371.67857,254.102564 L1362.14286,254.102564 L1358.96429,260.461538 L1352.60714,260.461538 L1346.25,266.820513 L1343.07143,266.820513 L1339.89286,270 L1336.71429,270 L1333.53571,266.820513 L1308.10714,266.820513 L1304.92857,270 L1298.57143,266.820513 L1295.39286,260.461538 L1289.03571,260.461538 L1289.03571,247.74359 L1289.03571,241.384615 L1285.85714,241.384615 L1279.5,231.846154 L1273.14286,228.666667 L1269.96429,225.487179 L1266.78571,222.307692 L1260.42857,222.307692 L1244.53571,215.948718 L1225.46429,215.948718 L1222.28571,222.307692 L1215.92857,225.487179 L1212.75,228.666667 L1209.57143,235.025641 L1206.39286,241.384615 L1196.85714,247.74359 L1193.67857,257.282051 L1190.5,257.282051 L1187.32143,254.102564 L1180.96429,257.282051 L1174.60714,254.102564 L1165.07143,235.025641 L1146,215.948718 L1152.35714,209.589744 L1155.53571,196.871795 L1158.71429,196.871795 L1171.42857,184.153846 L1171.42857,180.974359 L1177.78571,177.794872 L1180.96429,174.615385 L1190.5,171.435897 L1209.57143,161.897436 L1219.10714,152.358974 L1225.46429,152.358974 L1231.82143,152.358974 L1241.35714,155.538462 L1250.89286,152.358974 L1257.25,161.897436 L1260.42857,165.076923 L1266.78571,165.076923 L1269.96429,168.25641 L1276.32143,168.25641 L1279.5,174.615385 L1282.67857,174.615385 L1285.85714,180.974359 L1295.39286,184.153846 L1301.75,180.974359 L1304.92857,184.153846 L1311.28571,187.333333 L1314.46429,196.871795 L1324,196.871795 L1333.53571,193.692308 L1343.07143,184.153846 L1346.25,184.153846 L1349.42857,184.153846 L1365.32143,161.897436 L1365.32143,155.538462 L1368.5,152.358974 L1371.67857,152.358974 L1371.67857,149.179487 L1371.67857,146 L1381.21429,152.358974 L1393.92857,168.25641 L1397.10714,177.794872 L1413,196.871795 L1413,203.230769 L1406.64286,203.230769 Z" id="LJS-thingy" sketch:type="MSShapeGroup"></path>
                <path d="M942.275862,127.076923 L939.094828,130.253846 L935.913793,133.430769 L926.37069,139.784615 L913.646552,155.669231 L904.103448,162.023077 L907.284483,181.084615 L907.284483,219.207692 L907.284483,235.092308 L904.103448,247.8 L913.646552,254.153846 L916.827586,254.153846 L920.008621,260.507692 L923.189655,260.507692 L923.189655,266.861538 L923.189655,270.038462 L926.37069,273.215385 L929.551724,273.215385 L932.732759,279.569231 L935.913793,279.569231 L939.094828,285.923077 L951.818966,289.1 L951.818966,295.453846 L951.818966,298.630769 L948.637931,298.630769 L945.456897,304.984615 L942.275862,304.984615 L939.094828,320.869231 L932.732759,327.223077 L932.732759,336.753846 L929.551724,343.107692 L929.551724,349.461538 L923.189655,349.461538 L916.827586,346.284615 L913.646552,343.107692 L904.103448,336.753846 L897.741379,336.753846 L891.37931,327.223077 L875.474138,317.692308 L875.474138,314.515385 L859.568966,314.515385 L846.844828,327.223077 L837.301724,333.576923 L837.301724,336.753846 L834.12069,336.753846 L827.758621,336.753846 L815.034483,346.284615 L811.853448,358.992308 L811.853448,362.169231 L815.034483,365.346154 L811.853448,384.407692 L815.034483,390.761538 L815.034483,397.115385 L808.672414,403.469231 L799.12931,403.469231 L795.948276,406.646154 L789.586207,403.469231 L780.043103,406.646154 L770.5,406.646154 L767.318966,409.823077 L754.594828,406.646154 L751.413793,409.823077 L748.232759,413 L741.87069,413 L748.232759,390.761538 L745.051724,387.584615 L748.232759,365.346154 L745.051724,362.169231 L745.051724,346.284615 L713.241379,324.046154 L703.698276,320.869231 L690.974138,304.984615 L687.793103,304.984615 L684.612069,314.515385 L678.25,314.515385 L675.068966,320.869231 L671.887931,320.869231 L668.706897,324.046154 L662.344828,324.046154 L655.982759,336.753846 L652.801724,339.930769 L646.439655,339.930769 L643.258621,343.107692 L643.258621,352.638462 L630.534483,352.638462 L627.353448,349.461538 L627.353448,343.107692 L620.991379,339.930769 L617.810345,324.046154 L614.62931,320.869231 L608.267241,320.869231 L605.086207,308.161538 L601.905172,304.984615 L601.905172,298.630769 L592.362069,295.453846 L598.724138,285.923077 L611.448276,285.923077 L636.896552,263.684615 L643.258621,266.861538 L659.163793,250.976923 L655.982759,244.623077 L655.982759,222.384615 L652.801724,212.853846 L659.163793,193.792308 L659.163793,190.615385 L655.982759,187.438462 L649.62069,187.438462 L649.62069,184.261538 L643.258621,181.084615 L633.715517,168.376923 L627.353448,165.2 L624.172414,165.2 L620.991379,162.023077 L605.086207,162.023077 L601.905172,155.669231 L595.543103,162.023077 L592.362069,162.023077 L589.181034,152.492308 L586,146.138462 L586,139.784615 L605.086207,101.661538 L611.448276,88.9538462 L611.448276,82.6 L614.62931,82.6 L620.991379,88.9538462 L624.172414,82.6 L633.715517,82.6 L636.896552,95.3076923 L646.439655,95.3076923 L662.344828,111.192308 L668.706897,111.192308 L675.068966,120.723077 L678.25,120.723077 L690.974138,117.546154 L700.517241,104.838462 L706.87931,101.661538 L716.422414,101.661538 L745.051724,85.7769231 L748.232759,79.4230769 L748.232759,69.8923077 L741.87069,69.8923077 L741.87069,54.0076923 L738.689655,50.8307692 L735.508621,38.1230769 L735.508621,31.7692308 L729.146552,28.5923077 L732.327586,19.0615385 L732.327586,12.7076923 L735.508621,9.53076923 L748.232759,9.53076923 L757.775862,3.17692308 L767.318966,0 L770.5,6.35384615 L776.862069,1.76354657e-15 L780.043103,1.76354657e-15 L783.224138,6.35384615 L795.948276,1.76354657e-15 L795.948276,6.35384615 L802.310345,3.17692308 L805.491379,3.17692308 L805.491379,12.7076923 L808.672414,12.7076923 L808.672414,19.0615385 L802.310345,31.7692308 L805.491379,34.9461538 L802.310345,47.6538462 L802.310345,50.8307692 L805.491379,50.8307692 L805.491379,63.5384615 L802.310345,69.8923077 L808.672414,73.0692308 L802.310345,92.1307692 L815.034483,98.4846154 L827.758621,101.661538 L840.482759,114.369231 L843.663793,114.369231 L859.568966,101.661538 L865.931034,92.1307692 L875.474138,92.1307692 L885.017241,85.7769231 L891.37931,79.4230769 L894.560345,76.2461538 L907.284483,66.7153846 L907.284483,63.5384615 L916.827586,57.1846154 L923.189655,50.8307692 L926.37069,47.6538462 L929.551724,50.8307692 L926.37069,57.1846154 L929.551724,66.7153846 L932.732759,69.8923077 L932.732759,76.2461538 L939.094828,82.6 L939.094828,88.9538462 L948.637931,104.838462 L955,120.723077 L945.456897,127.076923 L942.275862,127.076923 Z M801.666667,180.64 L789,171.16 L766.833333,168 L754.166667,171.16 L744.666667,177.48 L738.333333,193.28 L732,199.6 L732,202.76 L732,221.72 L738.333333,234.36 L754.166667,247 L760.5,243.84 L766.833333,247 L782.666667,240.68 L795.333333,237.52 L808,221.72 L808,202.76 L801.666667,180.64 Z" id="LJS-gear" sketch:type="MSShapeGroup"></path>
                <path d="M460.806452,319.347826 L464,338.391304 L464,347.913043 L460.806452,373.304348 L457.612903,379.652174 L451.225806,382.826087 L428.870968,379.652174 L425.677419,382.826087 L396.935484,382.826087 L393.741935,382.826087 L390.548387,386 L384.16129,386 L380.967742,382.826087 L371.387097,382.826087 L368.193548,382.826087 L368.193548,357.434783 L365,351.086957 L374.580645,319.347826 L371.387097,309.826087 L374.580645,303.478261 L374.580645,293.956522 L377.774194,287.608696 L374.580645,271.73913 L374.580645,255.869565 L377.774194,236.826087 L374.580645,217.782609 L377.774194,208.26087 L374.580645,195.565217 L374.580645,179.695652 L374.580645,167 L371.387097,160.652174 L371.387097,151.130435 L371.387097,138.434783 L368.193548,132.086957 L371.387097,109.869565 L368.193548,103.521739 L371.387097,97.173913 L371.387097,84.4782609 L368.193548,78.1304348 L368.193548,33.6956522 L365,30.5217391 L365,24.173913 L384.16129,21 L396.935484,24.173913 L416.096774,24.173913 L425.677419,21 L425.677419,27.3478261 L438.451613,21 L444.83871,27.3478261 L460.806452,21 L460.806452,33.6956522 L460.806452,43.2173913 L460.806452,46.3913043 L464,52.7391304 L457.612903,74.9565217 L460.806452,81.3043478 L457.612903,97.173913 L460.806452,103.521739 L457.612903,119.391304 L457.612903,125.73913 L454.419355,141.608696 L460.806452,147.956522 L460.806452,167 L460.806452,176.521739 L460.806452,195.565217 L457.612903,205.086957 L457.612903,208.26087 L454.419355,224.130435 L454.419355,227.304348 L460.806452,227.304348 L460.806452,240 L464,243.173913 L460.806452,265.391304 L460.806452,274.913043 L460.806452,278.086957 L460.806452,287.608696 L457.612903,293.956522 L464,303.478261 L464,313 L460.806452,319.347826 Z M314.692308,49.6016949 L314.692308,62.3135593 L314.692308,65.4915254 L314.692308,75.0254237 L311.538462,84.559322 L314.692308,87.7372881 L314.692308,94.0932203 L311.538462,100.449153 L314.692308,109.983051 L317.846154,109.983051 L314.692308,129.050847 L314.692308,138.584746 L311.538462,141.762712 L314.692308,148.118644 L314.692308,154.474576 L311.538462,164.008475 L311.538462,176.720339 L314.692308,176.720339 L308.384615,189.432203 L314.692308,202.144068 L314.692308,211.677966 L311.538462,224.389831 L314.692308,227.567797 L308.384615,243.457627 L308.384615,252.991525 L308.384615,256.169492 L314.692308,256.169492 L311.538462,272.059322 L314.692308,278.415254 L311.538462,287.949153 L314.692308,291.127119 L308.384615,307.016949 L314.692308,310.194915 L311.538462,329.262712 L308.384615,335.618644 L311.538462,341.974576 L308.384615,348.330508 L311.538462,351.508475 L311.538462,361.042373 L314.692308,364.220339 L314.692308,386.466102 L308.384615,389.644068 L292.615385,389.644068 L289.461538,396 L283.153846,389.644068 L286.307692,367.398305 L286.307692,351.508475 L286.307692,338.79661 L289.461538,332.440678 L286.307692,322.90678 L286.307692,297.483051 L283.153846,291.127119 L286.307692,278.415254 L286.307692,268.881356 L286.307692,233.923729 L286.307692,214.855932 L289.461538,211.677966 L289.461538,186.254237 L289.461538,167.186441 L289.461538,154.474576 L289.461538,144.940678 L289.461538,129.050847 L286.307692,125.872881 L289.461538,113.161017 L289.461538,100.449153 L289.461538,90.9152542 L289.461538,87.7372881 L283.153846,78.2033898 L283.153846,62.3135593 L286.307692,59.1355932 L283.153846,49.6016949 L286.307692,46.4237288 L280,36.8898305 L280,27.3559322 L280,24.1779661 L283.153846,24.1779661 L305.230769,24.1779661 L308.384615,24.1779661 L314.692308,21 L317.846154,27.3559322 L314.692308,36.8898305 L321,43.2457627 L314.692308,49.6016949 Z M254.285714,192.57265 L257.464286,195.74359 L254.285714,214.769231 L254.285714,224.282051 L251.107143,233.794872 L251.107143,236.965812 L254.285714,236.965812 L251.107143,249.649573 L257.464286,252.820513 L251.107143,275.017094 L254.285714,278.188034 L251.107143,290.871795 L251.107143,309.897436 L251.107143,313.068376 L254.285714,316.239316 L251.107143,325.752137 L254.285714,338.435897 L254.285714,363.803419 L257.464286,373.316239 L257.464286,379.65812 L254.285714,382.82906 L241.571429,379.65812 L203.428571,382.82906 L190.714286,382.82906 L187.535714,386 L184.357143,382.82906 L187.535714,366.974359 L187.535714,347.948718 L184.357143,338.435897 L187.535714,322.581197 L187.535714,316.239316 L187.535714,309.897436 L184.357143,306.726496 L184.357143,294.042735 L187.535714,290.871795 L187.535714,268.675214 L187.535714,236.965812 L184.357143,230.623932 L187.535714,217.940171 L187.535714,202.08547 L190.714286,189.401709 L187.535714,170.376068 L187.535714,132.324786 L187.535714,119.641026 L187.535714,113.299145 L184.357143,106.957265 L187.535714,100.615385 L187.535714,94.2735043 L187.535714,81.5897436 L187.535714,78.4188034 L184.357143,65.7350427 L184.357143,40.3675214 L178,34.025641 L178,30.8547009 L181.178571,30.8547009 L184.357143,27.6837607 L184.357143,18.1709402 L187.535714,15 L190.714286,21.3418803 L219.321429,18.1709402 L222.5,18.1709402 L225.678571,18.1709402 L228.857143,21.3418803 L241.571429,18.1709402 L247.928571,18.1709402 L247.928571,21.3418803 L257.464286,21.3418803 L257.464286,27.6837607 L254.285714,37.1965812 L257.464286,43.5384615 L254.285714,53.0512821 L254.285714,62.5641026 L251.107143,65.7350427 L254.285714,68.9059829 L251.107143,78.4188034 L254.285714,81.5897436 L251.107143,91.1025641 L251.107143,103.786325 L260.642857,116.470085 L257.464286,135.495726 L263.821429,138.666667 L260.642857,148.179487 L260.642857,164.034188 L267,164.034188 L254.285714,192.57265 Z M162.4375,252.649573 L162.4375,265.333333 L162.4375,303.384615 L162.4375,316.068376 L159.25,344.606838 L162.4375,350.948718 L162.4375,385.82906 L159.25,389 L156.0625,382.65812 L152.875,382.65812 L149.6875,385.82906 L136.9375,385.82906 L127.375,385.82906 L133.75,335.094017 L133.75,319.239316 L130.5625,312.897436 L133.75,300.213675 L133.75,290.700855 L130.5625,290.700855 L130.5625,281.188034 L133.75,268.504274 L133.75,249.478632 L133.75,192.401709 L133.75,173.376068 L127.375,170.205128 L130.5625,154.350427 L130.5625,132.153846 L127.375,128.982906 L130.5625,116.299145 L127.375,113.128205 L127.375,106.786325 L124.1875,103.615385 L127.375,90.9316239 L127.375,78.2478632 L127.375,71.9059829 L124.1875,65.5641026 L127.375,56.0512821 L121,46.5384615 L121,40.1965812 L124.1875,37.025641 L121,30.6837607 L124.1875,21.1709402 L130.5625,21.1709402 L140.125,21.1709402 L149.6875,18 L159.25,18 L162.4375,30.6837607 L162.4375,87.7606838 L162.4375,113.128205 L168.8125,119.470085 L168.8125,128.982906 L162.4375,148.008547 L162.4375,163.863248 L165.625,173.376068 L165.625,179.717949 L172,182.888889 L162.4375,205.08547 L165.625,208.25641 L168.8125,227.282051 L162.4375,252.649573 Z M50.6666667,334.923077 L53.8333333,338.094017 L53.8333333,350.777778 L57,360.290598 L53.8333333,376.145299 L47.5,376.145299 L44.3333333,382.487179 L28.5,382.487179 L28.5,385.65812 L22.1666667,385.65812 L12.6666667,392 L6.33333333,388.82906 L3.16666667,385.65812 L3.16666667,379.316239 L0,376.145299 L0,363.461538 L3.16666667,360.290598 L3.16666667,341.264957 L3.16666667,338.094017 L6.33333333,312.726496 L6.33333333,303.213675 L6.33333333,290.529915 L3.16666667,287.358974 L9.5,255.649573 L9.5,246.136752 L6.33333333,236.623932 L9.5,204.91453 L6.33333333,198.57265 L6.33333333,176.376068 L6.33333333,176.376068 L3.16666667,170.034188 L6.33333333,141.495726 L6.33333333,138.324786 L6.33333333,97.1025641 L3.16666667,93.9316239 L3.16666667,84.4188034 L6.33333333,81.2478632 L6.33333333,74.9059829 L1.4062825e-14,65.3931624 L6.33333333,49.5384615 L1.4062825e-14,43.1965812 L3.16666667,40.025641 L3.16666667,33.6837607 L1.4062825e-14,33.6837607 L1.4062825e-14,27.3418803 L9.5,24.1709402 L19,21 L28.5,24.1709402 L31.6666667,24.1709402 L34.8333333,27.3418803 L44.3333333,27.3418803 L50.6666667,33.6837607 L50.6666667,40.025641 L50.6666667,49.5384615 L47.5,59.0512821 L47.5,62.2222222 L50.6666667,62.2222222 L47.5,78.0769231 L50.6666667,84.4188034 L47.5,93.9316239 L50.6666667,106.615385 L44.3333333,122.470085 L44.3333333,125.641026 L50.6666667,128.811966 L47.5,135.153846 L50.6666667,138.324786 L47.5,157.350427 L50.6666667,163.692308 L50.6666667,179.547009 L57,185.888889 L47.5,198.57265 L50.6666667,208.08547 L50.6666667,239.794872 L57,242.965812 L53.8333333,261.991453 L57,265.162393 L57,277.846154 L53.8333333,293.700855 L53.8333333,300.042735 L57,303.213675 L50.6666667,334.923077 Z" id="LJS-barcode" sketch:type="MSShapeGroup"></path>
                <path d="M1852.64557,297.823529 L1852.64557,320.058824 L1846.29114,329.588235 L1849.46835,335.941176 L1849.46835,342.294118 L1852.64557,345.470588 L1846.29114,361.352941 L1846.29114,364.529412 L1849.46835,367.705882 L1843.11392,389.941176 L1833.58228,389.941176 L1824.05063,383.588235 L1814.51899,386.764706 L1814.51899,383.588235 L1804.98734,386.764706 L1798.63291,383.588235 L1795.4557,386.764706 L1789.10127,386.764706 L1779.56962,393.117647 L1766.86076,386.764706 L1763.68354,389.941176 L1760.50633,389.941176 L1757.32911,383.588235 L1747.79747,393.117647 L1741.44304,393.117647 L1735.08861,396.294118 L1728.73418,396.294118 L1709.67089,393.117647 L1703.31646,396.294118 L1700.13924,396.294118 L1696.96203,393.117647 L1687.43038,396.294118 L1684.25316,396.294118 L1677.89873,396.294118 L1674.72152,393.117647 L1671.5443,396.294118 L1668.36709,396.294118 L1668.36709,393.117647 L1665.18987,389.941176 L1658.83544,393.117647 L1652.48101,396.294118 L1649.3038,396.294118 L1646.12658,389.941176 L1636.59494,399.470588 L1627.06329,396.294118 L1611.17722,409 L1608,405.823529 L1608,399.470588 L1611.17722,389.941176 L1608,386.764706 L1611.17722,374.058824 L1608,364.529412 L1611.17722,345.470588 L1614.35443,316.882353 L1614.35443,301 L1617.53165,291.470588 L1614.35443,288.294118 L1614.35443,275.588235 L1614.35443,272.411765 L1614.35443,269.235294 L1620.70886,243.823529 L1617.53165,227.941176 L1620.70886,218.411765 L1620.70886,205.705882 L1620.70886,193 L1617.53165,183.470588 L1620.70886,170.764706 L1620.70886,161.235294 L1623.88608,151.705882 L1623.88608,145.352941 L1617.53165,139 L1623.88608,116.764706 L1620.70886,91.3529412 L1620.70886,85 L1620.70886,65.9411765 L1620.70886,53.2352941 L1620.70886,46.8823529 L1623.88608,43.7058824 L1623.88608,40.5294118 L1633.41772,40.5294118 L1646.12658,34.1764706 L1658.83544,31 L1674.72152,31 L1681.07595,31 L1690.60759,34.1764706 L1716.02532,31 L1719.20253,31 L1728.73418,31 L1728.73418,46.8823529 L1722.37975,62.7647059 L1722.37975,72.2941176 L1719.20253,75.4705882 L1719.20253,91.3529412 L1716.02532,110.411765 L1719.20253,113.588235 L1716.02532,116.764706 L1716.02532,119.941176 L1719.20253,123.117647 L1712.8481,142.176471 L1716.02532,145.352941 L1712.8481,158.058824 L1716.02532,161.235294 L1712.8481,170.764706 L1716.02532,173.941176 L1716.02532,183.470588 L1712.8481,189.823529 L1712.8481,205.705882 L1709.67089,208.882353 L1716.02532,215.235294 L1712.8481,224.764706 L1716.02532,231.117647 L1709.67089,250.176471 L1709.67089,253.352941 L1703.31646,269.235294 L1709.67089,272.411765 L1709.67089,278.764706 L1712.8481,288.294118 L1712.8481,291.470588 L1719.20253,294.647059 L1731.91139,294.647059 L1738.26582,291.470588 L1757.32911,291.470588 L1773.21519,291.470588 L1779.56962,288.294118 L1789.10127,291.470588 L1827.22785,285.117647 L1836.75949,291.470588 L1839.93671,288.294118 L1849.46835,288.294118 L1859,281.941176 L1859,285.117647 L1852.64557,297.823529 Z M2071.82456,164.576159 L2065.47368,183.609272 L2068.64912,189.953642 L2075,196.298013 L2068.64912,215.331126 L2071.82456,218.503311 L2068.64912,228.019868 L2071.82456,234.364238 L2068.64912,250.225166 L2068.64912,253.397351 L2062.29825,272.430464 L2068.64912,275.602649 L2065.47368,288.291391 L2068.64912,291.463576 L2059.12281,310.496689 L2062.29825,313.668874 L2059.12281,329.529801 L2059.12281,339.046358 L2055.94737,345.390728 L2055.94737,354.907285 L2049.59649,367.596026 L2052.77193,370.768212 L2036.89474,405.662252 L2036.89474,408.834437 L2021.01754,434.211921 L2021.01754,443.728477 L2008.31579,456.417219 L2005.14035,465.933775 L1998.78947,475.450331 L1998.78947,475.450331 L1998.78947,481.794702 L1979.73684,500.827815 L1976.5614,504 L1973.38596,504 L1960.68421,491.311258 L1944.80702,484.966887 L1938.45614,472.278146 L1935.2807,472.278146 L1928.92982,465.933775 L1913.05263,462.761589 L1900.35088,456.417219 L1894,456.417219 L1894,450.072848 L1941.63158,386.629139 L1951.15789,358.07947 L1957.50877,339.046358 L1960.68421,307.324503 L1963.85965,297.807947 L1967.03509,269.258278 L1967.03509,256.569536 L1970.21053,253.397351 L1970.21053,218.503311 L1973.38596,205.81457 L1973.38596,196.298013 L1973.38596,174.092715 L1973.38596,158.231788 L1976.5614,142.370861 L1973.38596,136.02649 L1973.38596,88.4437086 L1970.21053,85.2715232 L1973.38596,66.2384106 L1970.21053,63.0662252 L1967.03509,59.8940397 L1970.21053,50.3774834 L1967.03509,44.0331126 L1963.85965,34.5165563 L2005.14035,31.3443709 L2011.49123,31.3443709 L2033.7193,31.3443709 L2049.59649,31.3443709 L2059.12281,31.3443709 L2065.47368,25 L2068.64912,25 L2071.82456,37.6887417 L2068.64912,50.3774834 L2075,53.5496689 L2068.64912,63.0662252 L2068.64912,101.13245 L2065.47368,110.649007 L2068.64912,120.165563 L2068.64912,132.854305 L2071.82456,136.02649 L2068.64912,148.715232 L2071.82456,151.887417 L2071.82456,164.576159 L2071.82456,164.576159 Z M2427.47253,319.761905 L2421.12088,329.285714 L2421.12088,338.809524 L2414.76923,348.333333 L2408.41758,357.857143 L2367.13187,395.952381 L2363.95604,395.952381 L2354.42857,402.301587 L2344.9011,402.301587 L2341.72527,405.47619 L2335.37363,408.650794 L2329.02198,411.825397 L2313.14286,411.825397 L2303.61538,415 L2290.91209,415 L2284.56044,408.650794 L2268.68132,415 L2255.97802,405.47619 L2246.45055,408.650794 L2236.92308,405.47619 L2224.21978,405.47619 L2221.04396,399.126984 L2214.69231,399.126984 L2211.51648,399.126984 L2205.16484,392.777778 L2192.46154,395.952381 L2186.10989,389.603175 L2179.75824,389.603175 L2176.58242,380.079365 L2173.40659,383.253968 L2170.23077,383.253968 L2167.05495,373.730159 L2163.87912,373.730159 L2154.35165,370.555556 L2148,370.555556 L2148,357.857143 L2167.05495,310.238095 L2176.58242,294.365079 L2176.58242,281.666667 L2189.28571,265.793651 L2201.98901,265.793651 L2221.04396,278.492063 L2230.57143,284.84127 L2236.92308,291.190476 L2255.97802,294.365079 L2259.15385,297.539683 L2278.20879,300.714286 L2300.43956,300.714286 L2309.96703,300.714286 L2319.49451,294.365079 L2325.84615,284.84127 L2322.67033,268.968254 L2313.14286,262.619048 L2306.79121,259.444444 L2306.79121,256.269841 L2303.61538,253.095238 L2300.43956,253.095238 L2297.26374,256.269841 L2290.91209,253.095238 L2287.73626,256.269841 L2284.56044,256.269841 L2281.38462,249.920635 L2271.85714,256.269841 L2259.15385,249.920635 L2255.97802,246.746032 L2252.8022,246.746032 L2249.62637,246.746032 L2246.45055,243.571429 L2243.27473,246.746032 L2240.0989,246.746032 L2236.92308,240.396825 L2233.74725,243.571429 L2230.57143,243.571429 L2217.86813,230.873016 L2208.34066,230.873016 L2208.34066,221.349206 L2201.98901,221.349206 L2195.63736,211.825397 L2192.46154,211.825397 L2189.28571,211.825397 L2186.10989,199.126984 L2182.93407,192.777778 L2182.93407,186.428571 L2179.75824,180.079365 L2182.93407,170.555556 L2182.93407,167.380952 L2179.75824,161.031746 L2182.93407,135.634921 L2179.75824,129.285714 L2186.10989,110.238095 L2182.93407,103.888889 L2195.63736,88.015873 L2195.63736,84.8412698 L2214.69231,65.7936508 L2217.86813,59.4444444 L2243.27473,40.3968254 L2249.62637,37.2222222 L2265.50549,27.6984127 L2284.56044,21.3492063 L2297.26374,21.3492063 L2313.14286,15 L2325.84615,18.1746032 L2329.02198,15 L2351.25275,18.1746032 L2354.42857,18.1746032 L2354.42857,15 L2405.24176,21.3492063 L2408.41758,27.6984127 L2414.76923,24.5238095 L2417.94505,27.6984127 L2417.94505,30.8730159 L2421.12088,30.8730159 L2421.12088,34.047619 L2417.94505,37.2222222 L2421.12088,43.5714286 L2417.94505,43.5714286 L2421.12088,49.9206349 L2414.76923,62.6190476 L2424.2967,68.968254 L2414.76923,81.6666667 L2417.94505,88.015873 L2411.59341,94.3650794 L2414.76923,103.888889 L2405.24176,126.111111 L2405.24176,129.285714 L2405.24176,132.460317 L2398.89011,138.809524 L2376.65934,132.460317 L2370.30769,132.460317 L2338.54945,126.111111 L2319.49451,126.111111 L2313.14286,122.936508 L2303.61538,122.936508 L2284.56044,138.809524 L2281.38462,154.68254 L2284.56044,157.857143 L2287.73626,164.206349 L2290.91209,161.031746 L2297.26374,161.031746 L2300.43956,167.380952 L2319.49451,170.555556 L2325.84615,170.555556 L2329.02198,173.730159 L2344.9011,176.904762 L2351.25275,186.428571 L2354.42857,183.253968 L2357.6044,186.428571 L2360.78022,189.603175 L2363.95604,189.603175 L2370.30769,195.952381 L2373.48352,195.952381 L2376.65934,199.126984 L2398.89011,205.47619 L2408.41758,211.825397 L2417.94505,215 L2417.94505,221.349206 L2427.47253,227.698413 L2427.47253,243.571429 L2430.64835,246.746032 L2430.64835,259.444444 L2437,268.968254 L2433.82418,275.31746 L2433.82418,278.492063 L2433.82418,284.84127 L2430.64835,294.365079 L2433.82418,297.539683 L2427.47253,319.761905 Z" id="LJS-text" sketch:type="MSShapeGroup"></path>
            </g>
        </g>
    </g>
</svg>