<?xml version="1.0" encoding="UTF-8" standalone="no"?>
<svg width="2547px" height="1250px" viewBox="0 0 2547 1250" version="1.1" xmlns="http://www.w3.org/2000/svg" xmlns:xlink="http://www.w3.org/1999/xlink" xmlns:sketch="http://www.bohemiancoding.com/sketch/ns">
    <!-- Generator: Sketch 3.3.3 (12072) - http://www.bohemiancoding.com/sketch -->
    <title>peerby</title>
    <desc>Created with Sketch.</desc>
    <defs></defs>
    <g id="All-logos" stroke="none" stroke-width="1" fill="none" fill-rule="evenodd" sketch:type="MSPage">
        <g id="Artboard-1" sketch:type="MSArtboardGroup" transform="translate(-14737.000000, -8169.000000)" fill="#4B0082">
            <g id="Peerby" sketch:type="MSLayerGroup" transform="translate(14737.500000, 8326.500000)">
                <path d="M1964.84405,372.501495 C1972.68302,362.642742 1979.95187,352.641109 1989.35863,344.639802 C2003.32624,332.637841 2018.71911,324.350774 2037.9602,327.779905 C2053.21055,330.494634 2063.04489,340.067626 2065.89542,355.355838 C2067.32068,363.357145 2067.46321,371.501332 2065.75289,379.502639 C2061.61962,399.077265 2049.50486,409.221779 2029.26608,407.792974 C2004.60898,405.935528 1985.08283,415.651401 1967.40953,431.511134 C1962.70615,435.797548 1960.42573,440.655485 1959.85562,446.942226 C1957.29014,470.088864 1954.58214,493.235501 1951.58908,516.382139 C1951.1615,520.097032 1952.01666,521.811598 1955.86488,521.525837 C1958.43036,521.382956 1961.13836,521.525837 1963.70384,521.525837 C1987.22073,521.525837 2000.47571,539.814538 1993.4919,562.532535 C1989.78621,574.677375 1981.37714,581.535638 1967.40953,581.678519 C1932.49051,582.10716 1897.57149,582.10716 1862.65248,581.678519 C1846.26192,581.392758 1836,569.105037 1836,551.673618 C1836,534.52796 1845.69181,522.954641 1861.93984,521.668717 C1865.50301,521.382956 1868.06849,521.525837 1868.49607,516.52502 C1872.20176,477.661529 1876.04998,438.798038 1880.04072,400.077428 C1880.61083,394.219329 1879.47062,392.219002 1873.19944,392.504763 C1862.08237,392.933404 1854.24341,387.075304 1850.11013,376.78791 C1847.11708,369.072364 1846.54697,361.071057 1848.82739,353.06975 C1852.24803,340.924909 1860.37205,333.638005 1872.77186,333.209363 C1904.12772,332.06632 1935.48357,331.780559 1966.6969,330.780395 C1971.40028,330.637515 1970.9727,333.066483 1970.40259,336.066973 C1968.69227,348.068933 1966.83943,360.213774 1964.84405,372.501495 Z M1399.03955,485.000761 C1399.61149,444.368239 1408.19053,406.016842 1434.78555,374.081106 C1468.10082,333.876295 1511.139,317.338146 1562.61323,328.316055 C1616.37521,339.721675 1635.67805,400.884313 1599.5031,442.657396 C1583.77487,460.906388 1562.75622,470.886306 1540.73668,479.297951 C1522.29175,486.426463 1503.13189,491.416422 1483.82906,495.550959 C1478.53865,496.691521 1477.53776,498.972645 1478.25268,503.820034 C1479.8255,513.799951 1484.68696,519.645331 1494.55286,522.069026 C1507.13545,525.205571 1519.1461,522.211596 1531.01377,518.362199 C1542.88144,514.512802 1553.89121,508.809992 1565.18695,503.820034 C1570.90631,501.253769 1576.48268,498.972645 1582.63099,497.546943 C1603.64964,492.699554 1619.23489,507.52686 1615.66029,528.769827 C1613.65852,540.745728 1607.08126,550.155365 1597.50133,556.713597 C1557.89476,584.087085 1513.85569,594.352143 1466.67098,586.368209 C1431.06796,580.380258 1408.90545,555.858175 1402.1852,519.787902 C1400.04044,508.239711 1398.75358,496.691521 1399.03955,485.000761 Z M1521.17547,389.03912 C1516.58813,388.753035 1511.85744,390.040416 1507.55681,392.758219 C1490.64099,403.486392 1483.61663,420.365383 1479.17265,438.817839 C1478.45587,442.107812 1480.03277,442.393897 1482.75651,441.678685 C1497.09194,438.102628 1511.28402,433.954401 1523.8992,425.944032 C1528.91661,422.797102 1533.50395,418.791917 1536.37103,413.499352 C1543.25204,401.054673 1536.08432,389.182162 1521.17547,389.03912 Z M1617,485.458967 C1617.7139,444.820984 1625.9952,406.464431 1652.40967,374.381813 C1686.10597,333.458651 1729.65416,317.060868 1782.05476,328.610611 C1807.32698,334.171598 1826.45963,348.573129 1832.59921,375.23735 C1839.02435,403.327464 1832.74199,428.565791 1811.46763,448.956077 C1793.04889,466.209396 1770.06116,475.477708 1746.50231,483.320126 C1731.79587,488.310755 1716.94665,492.16067 1701.81187,495.297637 C1697.24288,496.295763 1696.10064,498.292014 1696.3862,502.569697 C1696.95732,512.550956 1702.24022,519.110069 1712.37766,521.819268 C1723.65736,524.813646 1734.50871,522.532215 1745.36006,519.395248 C1758.63868,515.545334 1770.91784,509.12881 1783.48257,503.567823 C1789.1938,501.143803 1794.76226,498.719783 1800.90184,497.293889 C1821.89064,492.588438 1837.8821,508.415863 1833.31311,529.661686 C1830.88584,541.211428 1824.46069,550.337151 1815.03715,556.896264 C1775.62962,584.130842 1731.93865,594.112101 1684.96372,586.554862 C1649.12571,580.708696 1627.13745,556.183317 1619.9984,518.82489 C1617.85669,507.702916 1617,496.580941 1617,485.458967 Z M1757,404.245947 C1757,396.268787 1751.70698,390.428367 1743.55286,389.288773 C1736.11402,388.291628 1729.39045,389.85857 1723.2391,394.274497 C1707.93224,405.100643 1701.49478,421.197411 1697.20314,438.576223 C1696.77398,440.570513 1696.77398,442.564803 1699.77813,441.852556 C1717.37385,437.436629 1734.82652,432.878252 1748.84588,420.485164 C1753.70974,416.069237 1756.42778,410.656164 1757,404.245947 Z M2158.54541,361.007128 C2165.39073,354.877386 2171.80822,348.319987 2179.08137,342.760454 C2213.30797,316.53086 2251.09983,324.656332 2271.92101,362.575201 C2280.33505,377.82828 2284.61338,394.364328 2286.03948,411.470585 C2289.31953,451.955392 2284.75599,491.299783 2263.64959,526.937818 C2237.69442,570.843877 2198.33383,589.803311 2147.70699,586.667164 C2124.1762,585.241643 2101.50108,581.250183 2080.39468,570.41622 C2078.68335,569.560907 2077.11463,568.563042 2075.4033,567.70773 C2061.71266,560.865227 2056.72128,551.599338 2059.14567,534.920738 C2065.70576,488.44874 2069.55626,441.549086 2074.54764,394.934537 C2077.97029,362.432649 2081.53557,329.788209 2085.24345,297.286321 C2085.81389,292.867205 2085.52867,291.014027 2080.25207,291.156579 C2063.85182,291.441683 2053.29862,280.465169 2053.0134,263.21636 C2052.58557,244.256925 2062.42572,232.139993 2079.11118,231.569785 C2109.91512,230.57192 2140.86167,230.001711 2171.66561,229.003846 C2177.65526,228.861294 2176.08654,232.710202 2175.65871,235.703797 C2173.23432,253.522814 2170.52472,271.341832 2167.95772,289.160849 C2164.82029,310.54367 2161.68285,331.926491 2158.68802,353.309312 C2158.4028,355.87525 2157.40452,358.441189 2158.54541,361.007128 C2158.4028,361.292232 2158.11758,361.434784 2157.83236,361.577336 C2157.97497,361.577336 2158.26019,361.719888 2158.26019,361.577336 C2158.4028,361.434784 2158.4028,361.14968 2158.54541,361.007128 Z M2203.98095,440.337776 C2204.12273,435.182777 2203.5556,425.445557 2199.4439,416.281114 C2193.6308,403.107227 2182.8553,399.384173 2170.66198,406.687088 C2166.83384,408.978199 2163.28927,411.842087 2159.74469,414.562781 C2156.05834,417.426669 2154.21516,420.863335 2153.64803,425.87514 C2150.38702,454.943607 2146.84245,484.155269 2143.1561,513.223736 C2142.58897,517.376374 2143.43966,519.094707 2147.83493,519.953873 C2168.96058,523.820123 2182.8553,517.089985 2192.63832,497.758738 C2201.14529,481.148186 2203.5556,463.248883 2203.98095,440.337776 Z M1266.33473,360.618468 C1273.62235,354.630478 1279.76682,347.359347 1287.48312,341.6565 C1320.77755,316.991683 1356.64408,323.8351 1378.22116,359.335328 C1388.65246,376.443871 1393.08219,395.263269 1394.36824,414.938094 C1396.94034,454.002601 1392.08193,491.926539 1371.9338,526.286196 C1346.21278,569.912982 1307.20257,589.587807 1256.6179,586.308669 C1245.90081,585.595813 1245.75792,585.310671 1244.32897,595.860939 C1243.47161,602.419214 1242.90003,609.12006 1242.04266,615.678335 C1241.61398,619.100044 1242.75713,620.383185 1246.1866,620.240614 C1254.33159,620.098042 1262.33369,620.098042 1270.47867,620.240614 C1286.19707,620.525756 1297.34285,632.92945 1297.19995,650.180565 C1297.05706,667.289108 1286.33997,679.692802 1270.90736,679.835373 C1231.18267,680.120515 1191.45799,679.977944 1151.59041,679.835373 C1135.15754,679.692802 1122.43993,663.011972 1125.44071,645.903429 C1128.4415,628.794885 1136.87228,621.238612 1154.16252,620.240614 C1158.02067,620.098042 1158.87804,618.529759 1159.16383,615.108051 C1162.30751,582.316676 1165.73697,549.525301 1169.02355,516.591355 C1172.73881,479.522845 1176.45407,442.454334 1180.16932,405.385823 C1180.31222,403.247256 1180.16932,401.108688 1180.7409,398.97012 C1182.16985,392.98213 1179.45485,391.84156 1174.02486,391.984131 C1162.4504,392.126702 1154.5912,386.423855 1150.59015,375.731015 C1146.8749,365.60846 1147.16068,355.628477 1152.16199,346.076207 C1156.87751,336.95165 1164.73671,332.817085 1174.88223,332.531943 C1204.60429,331.819087 1234.32635,331.248802 1264.04842,330.250804 C1268.90683,330.108233 1269.62131,331.676516 1269.04973,335.953652 C1268.04947,344.08021 1265.19158,352.064197 1266.47763,360.475897 C1265.62026,360.048184 1265.47737,360.333326 1265.62026,361.188753 C1265.76315,361.188753 1266.04894,360.903611 1266.33473,360.618468 Z M1311.94778,445.356331 C1312.23146,434.058945 1311.52226,422.904565 1305.70689,412.894224 C1300.03335,403.169892 1290.95569,400.452799 1280.88516,405.45797 C1274.92795,408.461072 1269.67993,412.608214 1264.99926,417.327375 C1263.15536,419.043433 1262.30433,421.045502 1262.02065,423.619589 C1258.47469,453.650613 1254.78689,483.538633 1251.09909,513.569657 C1250.67358,517.287783 1251.52461,519.003842 1255.49608,519.861871 C1276.06266,523.866008 1290.2465,517.430788 1300.17519,498.554145 C1309.11101,481.965579 1311.52226,463.80396 1311.94778,445.356331 Z M2414.17468,535.513544 C2419.88215,529.230275 2423.44932,523.089808 2426.58842,516.949341 C2443.14008,485.532998 2455.12576,452.688639 2458.69292,417.131051 C2460.11979,403.850506 2454.84038,393.711595 2443.28276,387.713929 C2430.44096,381.002256 2425.7323,370.149337 2426.8738,356.440388 C2428.01529,343.731049 2435.435,335.59136 2446.99262,331.164512 C2485.51802,316.598753 2532.46193,341.874629 2542.59269,381.573462 C2547.87209,402.565292 2543.59149,422.414708 2538.1694,441.835721 C2512.4858,535.085139 2460.26248,609.056347 2376.79077,659.750901 C2344.97165,679.029112 2312.15371,696.022497 2276.48204,707.018217 C2265.92323,710.159852 2255.22173,713.158684 2244.52023,713.872692 C2215.55483,715.729112 2192.01153,697.16491 2202.57035,665.891368 C2206.85095,653.467632 2217.69513,647.327165 2229.11007,642.614714 C2242.95067,636.902651 2257.07665,632.047398 2270.91726,626.192534 C2291.46414,617.481639 2311.58296,607.628332 2329.98954,594.918993 C2334.27014,591.92016 2335.69701,588.778526 2335.26895,583.63767 C2331.13104,534.085528 2327.13581,484.676189 2322.9979,435.124047 C2322.14178,423.699922 2321.28566,412.418599 2320.42954,400.994474 C2320.14416,397.138832 2319.14536,394.854007 2314.4367,395.425214 C2298.3131,397.710039 2288.18235,383.715486 2287.04086,367.436108 C2285.75668,350.585524 2296.60086,336.733772 2312.72446,335.448558 C2341.83254,333.163733 2371.08331,331.450115 2400.19139,329.308091 C2405.04273,328.879687 2406.18423,330.593305 2406.32691,335.162955 C2408.18184,390.569961 2410.32214,445.834164 2412.31976,501.241169 C2413.03319,512.094088 2413.60394,523.089808 2414.17468,535.513544 Z" id="peerby" sketch:type="MSShapeGroup"></path>
                <path d="M453.001777,0 C202.817728,0 0,202.817728 0,453.001777 C0,703.185827 202.817728,906 453.001777,906 C703.189382,906 906,703.185827 906,453.001777 C906,202.817728 703.189382,0 453.001777,0 Z M667.934818,575.569779 C667.710855,580.027702 667.497557,584.414526 667.195386,589.284825 C665.481894,617.614322 654.845445,713.303251 589.597661,755.692625 C556.305436,777.342348 513.770309,782.664127 480.446089,784.868203 C471.658221,785.444107 462.824139,785.732059 453.997167,785.732059 C442.941233,785.732059 431.895964,785.284134 420.964454,784.384729 C380.562304,781.025289 349.477711,771.746836 325.958078,755.991242 C291.986855,733.271476 273.668133,697.409013 261.517271,668.706245 C248.29281,637.465233 242.388017,609.26016 237.080458,575.480905 C210.631536,573.909611 189.568382,553.504126 189.568382,528.416755 C189.568382,505.04643 207.908434,485.913621 231.776453,482.102702 C229.68969,475.511801 230.749069,467.363826 235.896655,458.444425 L429.510584,134.875282 C441.878299,113.456632 462.127367,113.456632 474.495082,134.875282 L668.098346,458.444425 C673.146393,467.168304 674.287536,475.177634 672.389186,481.672551 C697.153056,484.768924 716.428063,504.431422 716.428063,528.416755 C716.428063,553.816963 694.860105,574.464186 667.934818,575.569779 Z M232.345247,504.833133 C222.682859,507.709097 215.676028,515.544235 215.676028,524.861792 C215.676028,534.463746 223.145004,542.515736 233.297977,545.139299 C231.627145,530.226231 231.310753,516.781362 232.345247,504.833133 Z M669.029746,503.891067 C669.61987,514.125805 669.67675,527.730647 669.075961,545.818297 C681.034855,544.389202 690.323972,535.580004 690.323972,524.861792 C690.323972,514.125805 681.013525,505.313053 669.029746,503.891067 Z M557.610108,592.711809 C576.031924,544.769583 585.349481,509.731871 589.153291,493.837633 L305.915199,493.837633 L353.786326,591.648875 C386.253799,582.704589 469.958949,565.253277 557.610108,592.711809 Z M509.579008,537.784081 C509.891844,533.205289 511.000993,528.758031 512.966887,524.445861 C514.907897,520.130137 517.620333,516.077479 521.132636,512.316329 C524.06548,509.198627 527.449805,506.546625 531.093641,504.317663 C533.10575,503.084091 535.316937,501.7652 537.741422,501.811414 C540.649381,501.846964 543.663989,504.431422 542.323768,507.43181 C541.036872,510.33266 537.680987,511.587562 535.228063,513.283279 C533.212399,514.676824 531.310494,516.304997 529.636107,518.121583 C526.777917,521.260615 524.627164,524.584505 523.205179,528.093253 C524.374762,527.549344 525.690098,527.080089 527.151188,526.660603 C530.28311,525.754088 533.180405,525.494575 535.846627,525.885621 C538.523513,526.255337 540.873344,527.080089 542.935222,528.35632 C544.975771,529.632552 546.717702,531.285609 548.118357,533.308383 C549.522568,535.313382 550.535732,537.478354 551.20762,539.771305 C551.925722,542.249114 552.16746,544.769583 551.961272,547.318491 C551.772859,549.867399 551.065422,552.256334 549.870954,554.499515 C548.680042,556.735587 547.002099,558.754806 544.837127,560.557172 C542.64727,562.345318 539.966828,563.696204 536.770917,564.620494 C533.070201,565.669208 529.728536,565.932275 526.788582,565.406141 C523.830853,564.865786 521.296164,563.870397 519.152522,562.402197 C516.99466,560.948218 515.242063,559.192066 513.873403,557.176402 C512.494077,555.157183 511.530682,553.194844 510.972553,551.264499 C509.731871,546.859901 509.273281,542.355763 509.579008,537.784081 Z M355.876644,537.798301 C356.185925,533.215954 357.309294,528.782916 359.257413,524.456526 C361.198423,520.140802 363.928634,516.102364 367.440937,512.326994 C370.356006,509.212847 373.747441,506.557289 377.398387,504.328328 C379.396276,503.108976 381.600353,501.790085 384.028393,501.825634 C386.932797,501.861184 389.954515,504.442087 388.628514,507.442475 C387.338063,510.33266 383.978623,511.601781 381.529254,513.297499 C379.50648,514.691044 377.60102,516.319217 375.933743,518.128693 C373.071998,521.27128 370.93902,524.591615 369.517035,528.103918 C370.668843,527.570674 371.987734,527.080089 373.448824,526.667713 C376.580746,525.761198 379.481595,525.508795 382.137152,525.899841 C384.810484,526.269557 387.153205,527.090754 389.218638,528.35632 C391.269851,529.650327 393.015338,531.299829 394.423103,533.319048 C395.827314,535.327602 396.847588,537.485464 397.491036,539.785525 C398.212693,542.263334 398.479316,544.776693 398.273128,547.332711 C398.056275,549.881619 397.366612,552.270554 396.165035,554.51018 C394.988342,556.760472 393.3104,558.769026 391.120543,560.557172 C388.941351,562.366648 386.253799,563.717533 383.054333,564.620494 C379.357172,565.690538 376.036837,565.946495 373.071998,565.416806 C370.124934,564.869341 367.579581,563.881062 365.443048,562.423527 C363.288741,560.962437 361.536144,559.206286 360.160374,557.187067 C358.795268,555.164293 357.828318,553.205509 357.295074,551.275164 C356.025952,546.867011 355.538922,542.366428 355.876644,537.798301 Z M620.724914,503.464472 L620.436962,503.471582 C620.372973,503.738204 620.276989,504.08659 620.20589,504.353213 C618.975873,509.454584 617.294375,515.892621 615.143623,523.553566 C608.883334,545.914281 598.534837,578.641267 582.217559,619.278044 L576.294991,634.052469 L561.389033,628.485398 C457.228628,589.640321 351.777772,626.306205 350.729058,626.686586 L337.006902,631.56755 L269.572816,493.837633 L267.084342,493.837633 C265.175327,501.455918 264.343466,510.780585 264.492774,521.488132 C264.517659,523.219399 264.581648,524.989771 264.649193,526.802802 C264.990469,534.278888 265.626807,542.17446 266.892374,550.894783 C267.564262,555.388256 268.21482,559.700426 268.868933,563.927276 C274.037849,597.475459 279.299194,623.444461 291.556705,652.424516 C301.95497,676.960868 317.308854,707.402013 344.116827,725.311915 C362.91547,737.892927 388.930686,745.411673 423.655561,748.294748 C441.728991,749.805607 460.125923,749.969135 478.277562,748.753338 C507.659328,746.805219 544.844237,742.315301 571.822848,724.796445 C613.490565,697.70052 631.58888,634.187558 634.621263,583.778188 C634.89855,579.160291 635.222052,571.499347 635.513559,562.675929 C636.189002,543.301383 636.693806,517.844296 636.110792,503.222734 L620.724914,503.464472 Z M502.771254,677.202605 L497.321497,677.202605 C491.590897,686.619701 475.458476,693.473669 456.226129,693.473669 C436.986671,693.473669 420.86847,686.619701 415.130761,677.202605 L409.677448,677.202605 C403.285625,677.202605 398.1096,672.01947 398.1096,665.648977 C398.1096,659.242934 403.285625,654.070464 409.677448,654.070464 L502.771254,654.070464 C509.173742,654.070464 514.353322,659.242934 514.353322,665.648977 C514.353322,672.01947 509.173742,677.202605 502.771254,677.202605 Z" id="gnome" sketch:type="MSShapeGroup"></path>
            </g>
        </g>
    </g>
</svg>