<?xml version="1.0" encoding="UTF-8" standalone="no"?>
<svg width="2547px" height="1250px" viewBox="0 0 2547 1250" version="1.1" xmlns="http://www.w3.org/2000/svg" xmlns:xlink="http://www.w3.org/1999/xlink" xmlns:sketch="http://www.bohemiancoding.com/sketch/ns">
    <!-- Generator: Sketch 3.3.3 (12072) - http://www.bohemiancoding.com/sketch -->
    <title>peerbyLight</title>
    <desc>Created with Sketch.</desc>
    <defs></defs>
    <g id="All-logos" stroke="none" stroke-width="1" fill="none" fill-rule="evenodd" sketch:type="MSPage">
        <g id="Artboard-1" sketch:type="MSArtboardGroup" transform="translate(-14743.000000, -9619.000000)" fill="#4B0082">
            <g id="Peerby-Copy" sketch:type="MSLayerGroup" transform="translate(14743.500000, 9776.000000)">
                <path d="M1964.84405,372.501495 C1972.68302,362.642742 1979.95187,352.641109 1989.35863,344.639802 C2003.32624,332.637841 2018.71911,324.350774 2037.9602,327.779905 C2053.21055,330.494634 2063.04489,340.067626 2065.89542,355.355838 C2067.32068,363.357145 2067.46321,371.501332 2065.75289,379.502639 C2061.61962,399.077265 2049.50486,409.221779 2029.26608,407.792974 C2004.60898,405.935528 1985.08283,415.651401 1967.40953,431.511134 C1962.70615,435.797548 1960.42573,440.655485 1959.85562,446.942226 C1957.29014,470.088864 1954.58214,493.235501 1951.58908,516.382139 C1951.1615,520.097032 1952.01666,521.811598 1955.86488,521.525837 C1958.43036,521.382956 1961.13836,521.525837 1963.70384,521.525837 C1987.22073,521.525837 2000.47571,539.814538 1993.4919,562.532535 C1989.78621,574.677375 1981.37714,581.535638 1967.40953,581.678519 C1932.49051,582.10716 1897.57149,582.10716 1862.65248,581.678519 C1846.26192,581.392758 1836,569.105037 1836,551.673618 C1836,534.52796 1845.69181,522.954641 1861.93984,521.668717 C1865.50301,521.382956 1868.06849,521.525837 1868.49607,516.52502 C1872.20176,477.661529 1876.04998,438.798038 1880.04072,400.077428 C1880.61083,394.219329 1879.47062,392.219002 1873.19944,392.504763 C1862.08237,392.933404 1854.24341,387.075304 1850.11013,376.78791 C1847.11708,369.072364 1846.54697,361.071057 1848.82739,353.06975 C1852.24803,340.924909 1860.37205,333.638005 1872.77186,333.209363 C1904.12772,332.06632 1935.48357,331.780559 1966.6969,330.780395 C1971.40028,330.637515 1970.9727,333.066483 1970.40259,336.066973 C1968.69227,348.068933 1966.83943,360.213774 1964.84405,372.501495 Z M1399.03955,485.000761 C1399.61149,444.368239 1408.19053,406.016842 1434.78555,374.081106 C1468.10082,333.876295 1511.139,317.338146 1562.61323,328.316055 C1616.37521,339.721675 1635.67805,400.884313 1599.5031,442.657396 C1583.77487,460.906388 1562.75622,470.886306 1540.73668,479.297951 C1522.29175,486.426463 1503.13189,491.416422 1483.82906,495.550959 C1478.53865,496.691521 1477.53776,498.972645 1478.25268,503.820034 C1479.8255,513.799951 1484.68696,519.645331 1494.55286,522.069026 C1507.13545,525.205571 1519.1461,522.211596 1531.01377,518.362199 C1542.88144,514.512802 1553.89121,508.809992 1565.18695,503.820034 C1570.90631,501.253769 1576.48268,498.972645 1582.63099,497.546943 C1603.64964,492.699554 1619.23489,507.52686 1615.66029,528.769827 C1613.65852,540.745728 1607.08126,550.155365 1597.50133,556.713597 C1557.89476,584.087085 1513.85569,594.352143 1466.67098,586.368209 C1431.06796,580.380258 1408.90545,555.858175 1402.1852,519.787902 C1400.04044,508.239711 1398.75358,496.691521 1399.03955,485.000761 Z M1521.17547,389.03912 C1516.58813,388.753035 1511.85744,390.040416 1507.55681,392.758219 C1490.64099,403.486392 1483.61663,420.365383 1479.17265,438.817839 C1478.45587,442.107812 1480.03277,442.393897 1482.75651,441.678685 C1497.09194,438.102628 1511.28402,433.954401 1523.8992,425.944032 C1528.91661,422.797102 1533.50395,418.791917 1536.37103,413.499352 C1543.25204,401.054673 1536.08432,389.182162 1521.17547,389.03912 Z M1617,485.458967 C1617.7139,444.820984 1625.9952,406.464431 1652.40967,374.381813 C1686.10597,333.458651 1729.65416,317.060868 1782.05476,328.610611 C1807.32698,334.171598 1826.45963,348.573129 1832.59921,375.23735 C1839.02435,403.327464 1832.74199,428.565791 1811.46763,448.956077 C1793.04889,466.209396 1770.06116,475.477708 1746.50231,483.320126 C1731.79587,488.310755 1716.94665,492.16067 1701.81187,495.297637 C1697.24288,496.295763 1696.10064,498.292014 1696.3862,502.569697 C1696.95732,512.550956 1702.24022,519.110069 1712.37766,521.819268 C1723.65736,524.813646 1734.50871,522.532215 1745.36006,519.395248 C1758.63868,515.545334 1770.91784,509.12881 1783.48257,503.567823 C1789.1938,501.143803 1794.76226,498.719783 1800.90184,497.293889 C1821.89064,492.588438 1837.8821,508.415863 1833.31311,529.661686 C1830.88584,541.211428 1824.46069,550.337151 1815.03715,556.896264 C1775.62962,584.130842 1731.93865,594.112101 1684.96372,586.554862 C1649.12571,580.708696 1627.13745,556.183317 1619.9984,518.82489 C1617.85669,507.702916 1617,496.580941 1617,485.458967 Z M1757,404.245947 C1757,396.268787 1751.70698,390.428367 1743.55286,389.288773 C1736.11402,388.291628 1729.39045,389.85857 1723.2391,394.274497 C1707.93224,405.100643 1701.49478,421.197411 1697.20314,438.576223 C1696.77398,440.570513 1696.77398,442.564803 1699.77813,441.852556 C1717.37385,437.436629 1734.82652,432.878252 1748.84588,420.485164 C1753.70974,416.069237 1756.42778,410.656164 1757,404.245947 Z M2158.54541,361.007128 C2165.39073,354.877386 2171.80822,348.319987 2179.08137,342.760454 C2213.30797,316.53086 2251.09983,324.656332 2271.92101,362.575201 C2280.33505,377.82828 2284.61338,394.364328 2286.03948,411.470585 C2289.31953,451.955392 2284.75599,491.299783 2263.64959,526.937818 C2237.69442,570.843877 2198.33383,589.803311 2147.70699,586.667164 C2124.1762,585.241643 2101.50108,581.250183 2080.39468,570.41622 C2078.68335,569.560907 2077.11463,568.563042 2075.4033,567.70773 C2061.71266,560.865227 2056.72128,551.599338 2059.14567,534.920738 C2065.70576,488.44874 2069.55626,441.549086 2074.54764,394.934537 C2077.97029,362.432649 2081.53557,329.788209 2085.24345,297.286321 C2085.81389,292.867205 2085.52867,291.014027 2080.25207,291.156579 C2063.85182,291.441683 2053.29862,280.465169 2053.0134,263.21636 C2052.58557,244.256925 2062.42572,232.139993 2079.11118,231.569785 C2109.91512,230.57192 2140.86167,230.001711 2171.66561,229.003846 C2177.65526,228.861294 2176.08654,232.710202 2175.65871,235.703797 C2173.23432,253.522814 2170.52472,271.341832 2167.95772,289.160849 C2164.82029,310.54367 2161.68285,331.926491 2158.68802,353.309312 C2158.4028,355.87525 2157.40452,358.441189 2158.54541,361.007128 C2158.4028,361.292232 2158.11758,361.434784 2157.83236,361.577336 C2157.97497,361.577336 2158.26019,361.719888 2158.26019,361.577336 C2158.4028,361.434784 2158.4028,361.14968 2158.54541,361.007128 Z M2203.98095,440.337776 C2204.12273,435.182777 2203.5556,425.445557 2199.4439,416.281114 C2193.6308,403.107227 2182.8553,399.384173 2170.66198,406.687088 C2166.83384,408.978199 2163.28927,411.842087 2159.74469,414.562781 C2156.05834,417.426669 2154.21516,420.863335 2153.64803,425.87514 C2150.38702,454.943607 2146.84245,484.155269 2143.1561,513.223736 C2142.58897,517.376374 2143.43966,519.094707 2147.83493,519.953873 C2168.96058,523.820123 2182.8553,517.089985 2192.63832,497.758738 C2201.14529,481.148186 2203.5556,463.248883 2203.98095,440.337776 Z M1266.33473,360.618468 C1273.62235,354.630478 1279.76682,347.359347 1287.48312,341.6565 C1320.77755,316.991683 1356.64408,323.8351 1378.22116,359.335328 C1388.65246,376.443871 1393.08219,395.263269 1394.36824,414.938094 C1396.94034,454.002601 1392.08193,491.926539 1371.9338,526.286196 C1346.21278,569.912982 1307.20257,589.587807 1256.6179,586.308669 C1245.90081,585.595813 1245.75792,585.310671 1244.32897,595.860939 C1243.47161,602.419214 1242.90003,609.12006 1242.04266,615.678335 C1241.61398,619.100044 1242.75713,620.383185 1246.1866,620.240614 C1254.33159,620.098042 1262.33369,620.098042 1270.47867,620.240614 C1286.19707,620.525756 1297.34285,632.92945 1297.19995,650.180565 C1297.05706,667.289108 1286.33997,679.692802 1270.90736,679.835373 C1231.18267,680.120515 1191.45799,679.977944 1151.59041,679.835373 C1135.15754,679.692802 1122.43993,663.011972 1125.44071,645.903429 C1128.4415,628.794885 1136.87228,621.238612 1154.16252,620.240614 C1158.02067,620.098042 1158.87804,618.529759 1159.16383,615.108051 C1162.30751,582.316676 1165.73697,549.525301 1169.02355,516.591355 C1172.73881,479.522845 1176.45407,442.454334 1180.16932,405.385823 C1180.31222,403.247256 1180.16932,401.108688 1180.7409,398.97012 C1182.16985,392.98213 1179.45485,391.84156 1174.02486,391.984131 C1162.4504,392.126702 1154.5912,386.423855 1150.59015,375.731015 C1146.8749,365.60846 1147.16068,355.628477 1152.16199,346.076207 C1156.87751,336.95165 1164.73671,332.817085 1174.88223,332.531943 C1204.60429,331.819087 1234.32635,331.248802 1264.04842,330.250804 C1268.90683,330.108233 1269.62131,331.676516 1269.04973,335.953652 C1268.04947,344.08021 1265.19158,352.064197 1266.47763,360.475897 C1265.62026,360.048184 1265.47737,360.333326 1265.62026,361.188753 C1265.76315,361.188753 1266.04894,360.903611 1266.33473,360.618468 Z M1311.94778,445.356331 C1312.23146,434.058945 1311.52226,422.904565 1305.70689,412.894224 C1300.03335,403.169892 1290.95569,400.452799 1280.88516,405.45797 C1274.92795,408.461072 1269.67993,412.608214 1264.99926,417.327375 C1263.15536,419.043433 1262.30433,421.045502 1262.02065,423.619589 C1258.47469,453.650613 1254.78689,483.538633 1251.09909,513.569657 C1250.67358,517.287783 1251.52461,519.003842 1255.49608,519.861871 C1276.06266,523.866008 1290.2465,517.430788 1300.17519,498.554145 C1309.11101,481.965579 1311.52226,463.80396 1311.94778,445.356331 Z M2414.17468,535.513544 C2419.88215,529.230275 2423.44932,523.089808 2426.58842,516.949341 C2443.14008,485.532998 2455.12576,452.688639 2458.69292,417.131051 C2460.11979,403.850506 2454.84038,393.711595 2443.28276,387.713929 C2430.44096,381.002256 2425.7323,370.149337 2426.8738,356.440388 C2428.01529,343.731049 2435.435,335.59136 2446.99262,331.164512 C2485.51802,316.598753 2532.46193,341.874629 2542.59269,381.573462 C2547.87209,402.565292 2543.59149,422.414708 2538.1694,441.835721 C2512.4858,535.085139 2460.26248,609.056347 2376.79077,659.750901 C2344.97165,679.029112 2312.15371,696.022497 2276.48204,707.018217 C2265.92323,710.159852 2255.22173,713.158684 2244.52023,713.872692 C2215.55483,715.729112 2192.01153,697.16491 2202.57035,665.891368 C2206.85095,653.467632 2217.69513,647.327165 2229.11007,642.614714 C2242.95067,636.902651 2257.07665,632.047398 2270.91726,626.192534 C2291.46414,617.481639 2311.58296,607.628332 2329.98954,594.918993 C2334.27014,591.92016 2335.69701,588.778526 2335.26895,583.63767 C2331.13104,534.085528 2327.13581,484.676189 2322.9979,435.124047 C2322.14178,423.699922 2321.28566,412.418599 2320.42954,400.994474 C2320.14416,397.138832 2319.14536,394.854007 2314.4367,395.425214 C2298.3131,397.710039 2288.18235,383.715486 2287.04086,367.436108 C2285.75668,350.585524 2296.60086,336.733772 2312.72446,335.448558 C2341.83254,333.163733 2371.08331,331.450115 2400.19139,329.308091 C2405.04273,328.879687 2406.18423,330.593305 2406.32691,335.162955 C2408.18184,390.569961 2410.32214,445.834164 2412.31976,501.241169 C2413.03319,512.094088 2413.60394,523.089808 2414.17468,535.513544 Z" id="peerby" sketch:type="MSShapeGroup"></path>
                <path d="M905.999919,454.352956 C905.999919,703.776472 701.950072,906.994602 450.669107,905.996338 C195.820837,904.998073 -3.52016716,694.221655 0.0471378548,446.794668 C3.32905847,216.623396 187.401997,3.42262114 457.090256,0 C718.787752,7.70089757 906.142611,215.625132 905.999919,454.352956 Z M452.80949,870.058816 C682.543933,870.201425 869.328023,684.096401 870.184176,455.208612 C870.897637,228.74518 688.537005,37.5062233 453.951028,37.2210049 C219.650434,36.9357865 37.860571,226.178214 36.1482646,450.359898 C34.4359582,682.099872 222.789663,870.486644 452.80949,870.058816 Z M454.379104,799.895082 C427.410278,799.752473 400.869529,797.470726 374.471472,791.481139 C324.671894,780.35762 289.569613,751.122731 265.882707,706.771266 C246.333876,670.120698 234.062347,631.188382 227.926582,590.259538 C226.785044,582.986468 225.500815,578.565582 216.368514,576.996881 C193.395069,572.861213 176.700082,553.038533 176.129313,531.504541 C175.415852,508.829676 189.827764,489.292214 213.086593,482.446972 C218.08082,481.02088 220.078511,479.452178 219.507742,473.890419 C218.794281,466.33213 222.504278,459.629497 226.214276,453.212083 C277.440776,367.646554 328.809968,282.081026 380.036468,196.515497 C395.73261,170.275402 411.571444,143.892697 427.267586,117.652602 C442.535651,92.2681616 461.799099,92.1255524 476.924472,117.509993 C543.561729,228.74518 610.198987,339.980367 676.836245,451.215554 C681.687779,459.20167 686.111238,467.330395 684.541623,477.170431 C683.970855,481.306098 687.395467,480.165224 689.250466,480.735661 C707.943144,485.726984 721.92698,496.280065 728.062745,515.104482 C736.909661,542.057623 719.215828,570.436857 689.963927,577.13949 C678.976628,579.706456 679.262012,579.706456 678.548551,590.829974 C676.408168,628.906635 668.417405,665.557203 652.578571,700.353851 C629.034357,752.263605 588.652465,782.068931 533.002507,792.336794 C507.032526,797.328117 480.777161,799.752473 454.379104,799.895082 Z M645.872037,543.055888 L645.872037,511.967079 C645.872037,510.113159 646.585498,507.974021 644.587807,506.690538 C639.878965,503.553135 629.17705,507.831412 627.750128,513.250562 C617.618981,551.897659 604.776683,589.546492 589.794002,626.624887 C587.653619,632.044037 587.225543,640.030153 582.374008,642.169292 C577.237089,644.593648 571.101324,639.174498 565.250944,637.320578 C564.822867,637.177969 564.394791,637.03536 563.824022,636.892751 C488.48254,611.65092 413.426443,614.503104 338.513037,638.88928 C332.519965,640.885809 330.094198,640.172763 327.383046,634.468394 C317.109207,612.506575 306.2646,590.829974 295.562685,569.153374 C284.575386,546.763727 273.588086,524.374081 262.600787,501.984434 C261.744633,500.130514 261.316557,497.135721 258.748097,497.420939 C255.751561,497.848767 256.179638,500.98617 256.036945,503.267917 C255.466177,508.972286 254.895408,514.676654 254.752716,520.238413 C254.181947,539.633267 257.463867,558.600292 260.317711,577.567318 C266.453476,618.496162 277.583468,657.713696 297.988452,694.079046 C315.682285,725.595682 340.65342,747.842719 376.469163,756.541881 C428.409124,769.091492 480.491777,768.093228 532.57443,757.397537 C560.827486,751.550559 585.513236,739.428776 603.492454,715.755646 C618.18975,696.360793 627.464743,674.398974 634.171277,651.153672 C644.7305,615.21615 645.158576,578.280364 645.872037,543.055888 Z M447.244494,496.565284 C399.870684,496.565284 352.639565,496.707893 305.265755,496.422675 C299.272682,496.422675 298.416529,497.420939 301.127681,502.982699 C316.110362,532.930633 330.807659,563.021178 345.362263,593.111722 C347.78803,598.245654 350.071106,599.101309 355.636101,597.675217 C423.272204,581.132548 490.908307,579.563847 558.401718,599.243918 C563.110561,600.67001 564.109406,598.673481 565.393636,595.108251 C576.523628,565.302925 586.512082,535.069772 594.645537,504.266181 C596.357844,497.991376 595.50169,496.280065 588.652465,496.280065 C541.421346,496.707893 494.33292,496.565284 447.244494,496.565284 Z M680.546242,529.080185 C680.546242,534.927162 680.688934,540.916749 680.546242,546.763727 C680.40355,550.043739 680.831626,551.469831 684.827008,550.471567 C695.243538,548.04721 703.09161,538.777611 702.948917,528.794966 C702.806225,519.240149 694.530077,509.97055 684.684316,507.831412 C681.259703,507.118366 680.546242,508.259239 680.688934,511.396642 C680.688934,517.24362 680.546242,523.233207 680.546242,529.080185 Z M220.078511,526.085391 L220.506588,526.085391 C220.506588,521.807115 220.363895,517.528838 220.506588,513.250562 C220.791972,508.972286 219.222358,508.11663 215.655053,510.255768 C208.235058,514.534045 203.098139,520.523632 203.240831,529.508012 C203.383524,538.777611 208.805827,544.767198 216.653898,548.902865 C221.220049,551.327222 221.790817,549.330693 221.362741,545.195026 C220.934664,538.777611 220.506588,532.502806 220.078511,526.085391 Z M528.150972,531.78976 C537.711349,529.222794 545.844805,529.508012 552.265954,537.066301 C557.830949,543.626325 559.115179,553.181142 554.977105,560.311603 C549.982878,569.153374 541.992115,572.433386 532.289046,571.862949 C523.870206,571.435121 517.02098,565.588144 514.309828,557.031591 C508.174064,538.207174 520.588285,512.822734 539.138271,505.834883 C542.2775,504.694009 544.988651,504.836618 546.558266,507.546193 C548.555956,510.826205 545.844805,512.822734 543.561729,514.534045 C531.147508,524.231471 531.147508,524.231471 528.150972,531.78976 Z M366.195324,531.076714 C368.478399,532.074978 370.190706,530.648886 372.045704,530.363668 C381.891466,528.937575 390.310306,533.64368 393.877611,542.485451 C397.730301,552.040268 394.876457,561.880304 386.600309,567.584673 C372.331089,577.282099 355.350717,570.722075 351.783412,554.036797 C347.78803,535.497599 358.77533,514.106217 376.041086,506.26271 C379.323007,504.836618 382.747619,504.123572 384.888002,507.688803 C387.171078,511.396642 383.746465,513.250562 381.178005,514.819263 C374.756856,518.95493 369.049168,523.661035 366.195324,531.076714 Z M457.37564,665.271984 L503.037144,665.271984 C512.026753,665.271984 517.163672,669.407651 517.591749,676.538112 C518.019826,683.811182 512.882906,688.945114 503.893298,689.65816 C501.752915,689.800769 499.755224,689.65816 498.042917,691.51208 C486.627541,703.919081 471.359476,706.486047 455.663334,706.486047 C440.537961,706.343438 425.840664,703.491254 414.853365,691.51208 C413.426443,689.800769 411.571444,689.943378 409.716445,689.800769 C400.156068,688.802505 395.019149,683.953791 395.589918,676.395503 C396.160686,669.265042 401.440298,665.414593 411.000675,665.414593 C426.411433,665.271984 441.82219,665.271984 457.37564,665.271984 Z" id="gnome-copy" sketch:type="MSShapeGroup"></path>
            </g>
        </g>
    </g>
</svg>