<?xml version="1.0" encoding="UTF-8" standalone="no"?>
<svg width="2528px" height="1498px" viewBox="0 0 2528 1498" version="1.1" xmlns="http://www.w3.org/2000/svg" xmlns:xlink="http://www.w3.org/1999/xlink" xmlns:sketch="http://www.bohemiancoding.com/sketch/ns">
    <!-- Generator: Sketch 3.3.3 (12072) - http://www.bohemiancoding.com/sketch -->
    <title>whirlpool</title>
    <desc>Created with Sketch.</desc>
    <defs></defs>
    <g id="All-logos" stroke="none" stroke-width="1" fill="none" fill-rule="evenodd" sketch:type="MSPage">
        <g id="Artboard-1" sketch:type="MSArtboardGroup" transform="translate(-9654.000000, -10059.000000)" fill="#4B0082">
            <g id="whirlpool" sketch:type="MSLayerGroup" transform="translate(9654.000000, 10181.000000)">
                <path d="M2162.58754,0 C2163.59118,4.09718111 2167.2433,3.28889368 2170.04047,3.92994923 C2196.88773,10.0432036 2216.90469,24.8060625 2228.177,50.2996339 C2239.05902,74.8827206 2238.08326,100.441327 2234.70064,126.436594 C2232.22872,145.352378 2227.68448,163.599234 2221.37458,181.465174 C2209.07075,216.370184 2193.02187,249.53784 2174.49178,281.553455 C2166.85299,294.746192 2158.89825,307.715954 2150.35805,320.341961 C2148.28573,323.407879 2148.25785,326.548122 2149.66108,329.864888 C2157.32775,348.121035 2150.70189,363.664309 2139.20654,377.312289 C2122.28413,397.426568 2105.05505,417.308581 2087.52859,436.884002 C2076.09829,449.66795 2065.55082,463.241604 2053.28416,475.384497 C2046.28659,482.31533 2039.9674,490.156647 2033.49023,497.719244 C2017.05105,516.885876 2000.90924,536.312646 1983.02965,554.187876 C1981.28258,555.93452 1979.9444,558.108535 1978.42966,560.087445 C1976.25511,560.663466 1974.39653,561.685439 1972.78885,563.357758 C1965.243,571.115459 1957.6135,578.808126 1950.0026,586.510083 C1948.96179,587.569218 1948.57149,588.842039 1948.47856,590.2728 C1940.33796,595.707836 1934.54847,603.558444 1927.83897,610.461405 C1927.86685,611.344017 1927.32786,611.817841 1926.61231,612.161595 L1926.69594,611.994364 C1923.97312,611.576284 1922.8115,613.843205 1921.30605,615.311129 C1896.16869,639.996413 1870.97557,664.635244 1846.06124,689.552794 C1842.64144,692.981048 1837.87417,695.498817 1836.44306,700.729458 C1825.28226,711.348683 1814.13075,721.967907 1802.96995,732.587132 C1800.73035,733.228188 1799.26207,734.909797 1797.6451,736.442756 C1766.93198,765.336709 1736.22816,794.230662 1705.48717,823.087452 C1704.22333,824.267366 1703.09889,825.372955 1703.19181,827.221796 C1698.12717,829.841762 1694.88394,834.524255 1690.80435,838.24981 C1681.18617,847.010902 1671.65163,855.864901 1662.00557,864.57954 C1659.90537,866.474835 1658.27911,868.65814 1656.73648,870.971514 C1653.27022,870.191099 1651.84841,873.145529 1649.90618,874.882882 C1630.03791,892.693078 1610.20681,910.531145 1590.46864,928.489991 C1585.82218,932.717242 1580.12561,935.903938 1577.00319,941.692019 C1567.86825,949.644824 1558.55674,957.411816 1549.62624,965.587597 C1526.72847,986.547326 1503.1802,1006.70806 1479.10223,1026.33922 C1464.93981,1037.8968 1451.02831,1049.84459 1436.70791,1061.22565 C1425.0267,1070.51631 1413.09459,1079.55612 1401.19035,1088.56807 C1389.71359,1097.25483 1378.34834,1106.15528 1366.82512,1114.81418 C1351.31522,1126.46467 1335.51725,1137.75282 1319.64494,1148.92948 C1301.51444,1161.70414 1283.30031,1174.38589 1264.87244,1186.73318 C1251.82517,1195.4664 1238.66639,1204.06026 1225.49832,1212.60767 C1210.47166,1222.37215 1194.7852,1231.02176 1179.89794,1241.01851 C1168.44905,1248.72046 1156.16381,1255.21464 1144.11088,1261.97824 C1127.29998,1271.42684 1110.51696,1280.93118 1093.39939,1289.79447 C1082.84263,1295.25738 1072.57395,1301.26844 1061.3481,1305.53285 C1053.67214,1308.44083 1046.54447,1312.86318 1039.24023,1316.70022 C1025.51458,1323.90049 1011.0362,1329.31694 997.031766,1335.83898 C978.260059,1344.55362 958.661281,1351.19645 939.229775,1358.1087 C928.88675,1361.7878 918.199887,1365.03953 907.299286,1367.43652 C895.478686,1370.0379 883.992631,1374.1165 871.800314,1375.04557 C870.313446,1375.16635 869.439912,1376.36484 869.551427,1378 L809.333275,1378 C807.716306,1376.32768 805.746206,1375.56585 803.422975,1375.27784 C786.760761,1373.14098 772.263799,1365.94072 759.170068,1355.74887 C753.473505,1351.31722 749.338154,1345.46411 744.784621,1339.88042 C736.61614,1329.89296 732.703819,1318.28893 728.800791,1306.48979 C725.2416,1295.75908 725.706247,1284.56383 725.009277,1273.49865 C724.925641,1272.13293 725.436752,1270.72075 725.371701,1269.34573 C724.57251,1251.10816 728.075942,1233.30726 731.783819,1215.68288 C735.036343,1200.23251 740.677148,1185.33958 746.317953,1170.54885 C753.250475,1152.38561 761.075118,1134.594 770.210063,1117.46202 C778.276321,1102.32753 786.983792,1087.50893 795.979343,1072.90401 C807.604791,1054.03468 819.667007,1035.43478 832.323971,1017.2065 C848.289215,994.221412 865.248803,971.970281 881.362734,949.096675 C895.432222,929.121756 910.728376,910.075903 925.996651,891.067212 C938.29119,875.765495 950.660073,860.463778 962.908147,845.134189 C971.875819,833.911071 982.209552,823.728508 989.885507,811.464836 C991.26086,809.253659 993.342475,807.86006 996.074595,807.702119 C997.031766,812.254543 1000.65601,811.724975 1003.91782,811.743556 C1015.52469,811.817881 1027.13155,811.855044 1038.757,811.901497 C1034.56589,816.426049 1031.22044,821.823922 1025.65397,824.992038 C1025.44024,825.112816 1025.34731,825.44728 1025.21721,825.688837 C1020.8867,833.585898 1014.03782,839.429723 1008.32267,846.165452 C995.405505,861.383553 981.63339,875.876983 968.911377,891.253026 C945.827752,919.152878 923.078672,947.359322 901.68636,976.597029 C889.094447,993.812623 876.985766,1011.37197 864.616884,1028.73621 C857.210423,1039.13246 850.649618,1050.06757 843.624167,1060.68679 C837.044776,1070.6278 830.957911,1080.8754 824.480742,1090.87215 C817.408827,1101.79797 811.95388,1113.75504 805.448833,1125.07107 C794.919949,1143.37367 786.268236,1162.65179 778.36925,1182.08785 C772.812081,1195.77299 768.165619,1210.08061 764.597136,1224.68553 C760.406027,1241.80821 757.376534,1258.91232 757.367241,1276.46238 C757.367241,1302.49481 768.816124,1322.60908 791.565203,1334.93779 C808.68277,1344.21916 827.807609,1346.35601 847.248408,1345.31546 C861.986986,1344.52575 876.539706,1342.73265 890.971618,1339.43447 C907.197064,1335.7275 922.920693,1330.41324 938.653614,1325.1826 C945.995024,1322.72986 952.983304,1319.23657 960.315421,1316.77455 C977.888342,1310.8564 994.569141,1302.84785 1011.37075,1295.20164 C1028.74852,1287.29529 1045.60588,1278.25547 1062.61194,1269.54083 C1083.96708,1258.60573 1104.87616,1246.87162 1125.5715,1234.73802 C1139.20422,1226.74805 1153.18078,1219.27836 1166.37673,1210.61947 C1179.5541,1201.96986 1193.05672,1193.83124 1206.3456,1185.38603 C1230.43286,1170.07503 1253.73022,1153.63985 1277.42718,1137.78069 C1291.91485,1128.09053 1306.17949,1118.06591 1320.0817,1107.52101 C1336.85543,1094.79281 1354.42835,1083.10516 1370.86754,1069.96816 C1388.82147,1055.61409 1407.63035,1042.38419 1425.2962,1027.67708 C1430.81619,1023.0782 1436.41983,1018.53507 1442.08851,1014.16846 C1459.44769,1000.80849 1475.61738,986.054921 1492.71636,972.38836 C1503.08727,964.091801 1513.05858,955.284255 1522.89049,946.34664 C1529.87877,939.991829 1537.74058,934.621827 1543.99472,927.468019 C1551.94017,921.772844 1559.19795,915.352998 1564.80158,907.251542 C1568.88117,903.14507 1574.30824,900.32071 1576.81733,894.709151 C1580.64602,894.792767 1582.54177,891.782593 1584.88359,889.562125 C1591.52803,883.263058 1598.07954,876.852502 1604.68681,870.516272 C1630.12155,846.109708 1655.56558,821.703144 1681.0189,797.315161 C1682.59869,795.800783 1684.71748,794.667323 1684.04839,791.917288 C1686.96637,790.867443 1689.64273,789.213705 1691.61283,786.937494 C1699.26091,778.139239 1708.2007,770.69742 1716.4807,762.568092 C1721.48958,757.653333 1728.11544,753.94636 1730.28998,746.532413 C1734.10937,748.446289 1735.7821,745.09236 1737.83584,743.215647 C1741.90614,739.490092 1745.66977,735.420783 1749.62856,731.555869 C1767.8334,713.801417 1786.06612,696.084128 1804.27096,678.329677 C1806.03661,676.601614 1808.04388,675.031493 1808.65722,672.430108 C1821.69519,660.603097 1834.96549,648.999063 1846.81396,635.917813 C1848.56103,634.589249 1850.49396,633.427916 1852.03659,631.894958 C1863.09517,621.034176 1874.11658,610.126941 1885.07293,599.154671 C1895.7598,588.451831 1906.35373,577.665374 1916.98484,566.90679 C1919.72625,562.289332 1924.30766,559.464971 1927.9319,555.702254 C1942.54038,540.549187 1956.79573,525.089529 1971.06966,509.601998 C1995.10116,483.495243 2015.95448,455.075114 2034.3266,424.889759 C2046.16578,405.425826 2056.37871,384.967793 2066.13628,364.333237 C2068.71042,358.88891 2071.25668,353.426002 2074.69506,348.641312 C2077.58516,349.226623 2077.84536,351.447091 2078.63526,353.11941 C2079.99203,356.008805 2082.01789,358.275726 2084.65708,359.88301 C2089.00617,362.530849 2093.68051,364.593375 2098.88454,363.032544 C2103.93989,361.518167 2109.53424,359.195502 2111.89464,354.875345 C2119.73787,340.549147 2113.82757,328.647811 2097.91808,324.82935 C2097.64859,324.764315 2097.3605,324.764315 2097.08172,324.708571 C2095.51121,324.41127 2093.53182,324.745734 2092.87202,322.757533 C2092.09142,320.425577 2093.97788,319.2085 2095.38111,317.93568 C2096.60778,316.830091 2098.00172,315.919607 2099.35848,314.971959 C2106.21666,310.159398 2114.0506,309.964294 2121.7916,311.116336 C2127.8413,312.01753 2132.08816,310.688965 2134.73665,305.003081 C2135.31281,303.767423 2136.44655,302.801195 2137.1621,301.61199 C2152.56977,275.886152 2167.29905,249.872304 2179.24976,222.23259 C2190.86591,195.373292 2201.29257,168.235273 2207.32368,139.573587 C2211.00368,122.135018 2213.6057,104.547798 2210.78994,86.6168243 C2209.5261,78.5711127 2208.12287,70.3581691 2203.33702,63.854707 C2193.49581,50.4947378 2181.89824,39.253039 2164.55764,35.6575535 C2156.38916,33.9666534 2148.4623,31.8019296 2139.96856,31.5510818 C2123.66877,31.0586768 2107.88939,34.3475705 2091.99849,36.9675366 C2079.41587,39.0393538 2067.37224,43.5267427 2054.97548,46.1095462 C2043.22922,48.5529898 2031.89185,52.4550671 2020.7961,56.2363657 C2005.47207,61.4670074 1990.34318,67.8218189 1975.26077,74.0279799 C1959.3234,80.5871859 1943.39533,87.3693678 1928.09918,95.071325 C1903.38929,107.511519 1878.29839,119.301367 1854.33194,133.218775 C1838.28306,142.537308 1822.14125,151.688608 1806.03661,160.886361 C1792.50611,168.6069 1779.33804,176.894169 1766.17926,185.227891 C1747.69563,196.924832 1728.38493,207.432569 1710.50535,219.97496 C1693.90818,231.616157 1676.79991,242.504811 1660.40719,254.434018 C1649.41366,262.433276 1638.15063,270.023746 1627.46377,278.478247 C1616.38661,287.230048 1604.27792,294.662576 1592.91268,303.079915 C1580.9341,311.961786 1569.49451,321.577619 1557.48805,330.403746 C1531.61655,349.412437 1506.94383,369.935505 1481.88081,389.975459 C1469.58628,399.814268 1457.51477,409.922506 1445.33174,419.909966 C1442.46952,422.251212 1443.37094,423.449707 1446.54912,423.969984 C1442.26508,425.651594 1437.77659,424.601749 1433.39033,424.852597 C1414.56287,425.921023 1395.7447,427.537598 1376.87077,427.593341 C1380.00248,421.136333 1386.4146,417.958927 1391.4049,413.434375 C1398.73702,406.800844 1406.83116,401.022054 1414.53499,394.788021 C1430.017,382.236339 1445.66629,369.879761 1460.85093,356.993615 C1478.56324,341.970618 1497.39071,328.387673 1515.50262,313.894243 C1525.62261,305.792787 1536.2816,298.388131 1546.61533,290.546814 C1571.36239,271.761099 1595.83066,252.594467 1620.8565,234.19896 C1635.99468,223.07804 1651.63467,212.616757 1667.07022,201.886044 C1680.25688,192.716163 1693.80596,184.150174 1707.35504,175.612058 C1722.36312,166.163456 1737.85442,157.476689 1753.20633,148.585527 C1765.63097,141.385266 1778.16713,134.361527 1790.64753,127.263462 C1809.40065,116.616366 1828.00508,105.69984 1846.95336,95.4057888 C1866.62648,84.712239 1886.33677,74.0093985 1906.56747,64.4400186 C1929.06564,53.7929221 1951.85189,43.7032652 1975.23289,35.0257887 C1987.38803,30.5105278 1999.27369,25.1683983 2011.64257,21.3870996 C2018.75166,19.2130851 2026.20458,17.8938114 2033.32296,15.5711464 C2046.52821,11.2695707 2060.40254,9.80164643 2073.65425,5.7323373 C2078.23567,4.32015696 2083.07728,4.8218526 2087.72374,4.06001847 C2092.17505,3.32605632 2097.40697,4.58029544 2100.71525,0.0185813202 C2121.32696,0 2141.95725,0 2162.58754,0 L2162.58754,0 Z M1105.90013,729.98994 C1104.26462,721.174556 1105.39546,712.275833 1105.20854,703.41415 C1105.04032,695.376594 1105.27396,687.329778 1105.33938,679.292222 C1110.39545,678.0977 1112.65712,673.449252 1115.86273,670.254601 C1128.17111,657.98529 1139.74118,644.984451 1151.8533,632.511423 C1160.6944,623.408984 1169.92803,614.676938 1179.02147,605.824515 C1181.17099,603.731787 1183.52613,601.861296 1184.72239,599 C1192.29247,604.565174 1193.02144,613.000904 1193.61022,621.158838 C1194.18966,629.076016 1194.16162,637.076533 1193.26443,645.03075 C1188.21771,646.604926 1185.04949,650.679263 1181.62894,654.160969 C1164.35795,671.726918 1147.38602,689.579923 1130.1898,707.219951 C1124.58233,712.970322 1118.61038,718.350299 1114.02161,724.989617 C1112.07769,727.776834 1109.76928,730.175137 1105.90013,729.98994 L1105.90013,729.98994 Z M1274.40604,565 C1272.68787,558.856256 1272.68787,558.874817 1267.03183,559.543019 C1253.38861,561.16712 1239.87541,564.248273 1226,563.060359 C1228.6562,556.712442 1234.32153,552.963087 1239.03025,548.517689 C1256.25842,532.202428 1273.59803,515.998535 1291.23485,500.138022 C1304.58087,488.147512 1318.50272,476.778801 1332.07164,465.029586 C1340.85754,457.41951 1349.42983,449.558858 1358.17858,441.91166 C1362.09787,438.487126 1366.2122,435.294606 1370.23365,432 C1371.32028,438.023097 1370.61444,444.083316 1370.62372,450.124974 C1370.63301,453.985695 1372.20259,455.442746 1376.01972,455.581955 C1383.11531,455.851092 1390.38736,455.17361 1397,458.672389 C1394.54812,464.853255 1388.14909,466.700091 1383.73756,470.737143 C1374.3294,479.340241 1364.99555,488.036145 1355.19732,496.156653 C1331.71872,515.618031 1308.86237,535.756891 1286.3961,556.359779 C1282.82044,559.645105 1279.67201,563.904891 1274.40604,565 L1274.40604,565 Z" id="Ring" sketch:type="MSShapeGroup"></path>
                <path d="M0.0279032072,265.12558 C1.64628923,266.157081 2.47408438,265.246387 3.28327739,263.926809 C7.65477985,256.817815 14.137625,252.087778 21.2808461,248.101166 C39.455135,237.972011 59.0896919,231.810882 79.1241947,226.746305 C123.27637,215.594942 168.200533,209.229372 213.468836,204.852462 C259.016172,200.43838 304.656518,198.254572 350.399175,197.390341 C394.765275,196.563282 439.075568,197.594783 483.348657,200.001619 C527.631047,202.408455 571.746017,206.841121 615.340128,215.213937 C635.858287,219.144792 656.171821,224.107149 675.56455,232.145423 C683.312341,235.35144 690.753196,239.133611 697.329052,244.449094 C710.136624,254.801276 710.322646,266.984141 697.626686,277.271274 C686.818844,286.015801 674.048476,290.978158 661.036281,295.169212 C637.374361,302.807896 613.070667,307.482175 588.394931,310.576679 C559.561617,314.200872 530.644593,316.040847 501.615957,315.529743 C472.615223,315.027931 443.679597,313.206542 415.292734,306.627238 C406.038171,304.4806 397.053338,301.534782 388.607967,297.046358 C385.575819,295.42941 382.98082,293.357115 380.915983,290.736545 C376.693298,285.38389 378.041953,279.724574 384.403884,277.289859 C389.054419,275.514934 394.049093,274.659996 398.848444,273.24749 C401.50855,272.466895 404.261666,271.714178 406.661342,270.3946 C411.42349,267.764736 411.153759,263.582975 406.317203,260.897355 C404.531397,259.903025 402.587474,259.661412 400.662153,259.642827 C384.813131,259.466263 369.484969,261.956735 355.617075,270.041473 C340.577246,278.813879 340.074989,289.19394 354.035893,299.852784 C364.611209,307.92823 377.037437,312.175041 389.565977,316.059432 C417.43198,324.692446 446.153682,328.437446 475.135813,330.370349 C513.065573,332.907284 550.930225,330.974381 588.766974,327.935634 C619.088459,325.50092 649.223923,321.746628 679.052451,315.743477 C711.05743,309.294272 742.560151,301.153777 772.053841,286.657004 C779.336578,283.069982 786.172864,278.758122 791.744204,272.727093 C799.222264,264.614476 799.510597,255.646922 792.451086,247.209057 C787.540121,241.345298 781.233996,237.228586 774.546528,233.706614 C753.647025,222.722521 731.101234,216.561393 708.229905,211.459644 C654.479027,199.471929 599.909655,193.589585 545.070551,189.649436 C502.51816,186.592104 459.928565,184.770715 417.273862,184.09234 C369.857012,183.339623 322.486667,183.367502 275.116322,185.997365 C244.478601,187.697948 213.887385,189.714486 183.463588,193.701098 C173.232412,195.039262 163.094246,197.027922 152.86307,198.328914 C144.817646,199.351122 141.004207,197.362463 139.878778,192.520912 C138.957972,188.590057 141.63668,185.012328 148.798503,182.020045 C160.936398,176.946175 173.799777,174.34419 186.691059,172.104625 C226.592645,165.153608 266.903478,162.105569 307.260817,159.642976 C336.205744,157.877344 365.178574,156.855135 394.170007,156.195346 C426.509824,155.451922 458.849641,154.61557 491.180157,155.191724 C549.442054,156.223225 607.648144,158.286227 665.696116,163.96413 C701.514533,167.467516 737.202735,171.742205 772.584002,178.209996 C807.955968,184.668494 842.993095,192.520912 876.244417,206.738901 C886.782528,211.24591 896.836984,216.626443 905.719505,223.97705 C910.044502,227.564072 913.876542,231.597148 916.490143,236.624554 C920.368689,244.086675 920.619818,251.437282 916.155304,258.871524 C912.183748,265.469414 906.640311,270.49682 900.678325,275.124636 C885.257153,287.103059 867.296788,294.044783 849.169005,300.549744 C821.051873,310.632435 792.041839,317.481231 762.892288,323.772459 C728.562042,331.16953 694.00857,337.423586 659.250475,342.497456 C629.440549,346.846488 599.500408,349.978162 569.374245,350.926028 C550.706999,351.511475 532.01185,352.180557 513.344605,351.920358 C458.561308,351.176934 404.243064,346.242456 351.115358,331.940832 C331.704027,326.718277 312.68334,320.408464 295.253137,310.112039 C288.742389,306.274111 282.622285,301.925079 278.018256,295.773244 C270.186756,285.318841 270.986648,275.728668 280.75277,266.956263 C288.14712,260.311909 297.159856,256.483274 306.516732,253.574627 C331.164565,245.908064 356.584386,242.64629 382.246036,241.270956 C428.844392,238.780485 475.359039,239.403102 521.622556,246.251898 C534.569644,248.166215 547.367915,250.861128 559.654628,255.591165 C563.337851,257.012964 566.788548,258.82506 569.802094,261.315531 C576.777896,267.104947 576.591874,273.266076 569.281234,278.395703 C567.253601,279.817502 564.872527,280.746782 562.649572,281.899089 C561.170702,282.670392 559.598821,283.29301 558.250166,284.240876 C556.362049,285.579039 554.966889,287.419014 555.450544,289.8909 C555.915598,292.288443 557.682801,293.793877 559.942961,294.379323 C561.803175,294.853256 563.812205,295.02982 565.737527,294.955477 C580.098377,294.388616 593.901164,291.396334 606.82965,284.956421 C611.591797,282.586757 616.037708,279.659524 619.507007,275.561398 C625.580605,268.396647 625.134154,262.058955 617.972331,256.027926 C609.675777,249.049032 599.565515,245.647866 589.445952,242.54407 C565.384086,235.174877 540.62464,231.2719 515.679173,228.28891 C473.238395,223.224333 430.620896,221.319308 387.93829,221.997683 C341.925902,222.731814 295.950717,224.785524 250.524296,233.065411 C231.33619,236.559505 212.334106,240.834194 194.252828,248.482171 C187.277026,251.427989 180.70117,255.033597 174.841497,259.837976 C161.447957,270.79419 161.010807,283.562501 173.716067,295.271433 C182.672997,303.532734 193.527344,308.783168 204.697928,313.141492 C250.263866,330.955795 297.355178,343.101488 345.618426,351.037542 C381.985606,357.022107 418.510904,360.915791 455.315235,362.830109 C498.816335,365.078967 542.270929,364.456349 585.753427,362.616374 C619.767437,361.17599 653.688436,358.750568 687.488521,354.754663 C744.597085,347.998795 801.147585,338.482965 855.623947,319.30262 C875.909578,312.165748 895.572038,303.607077 913.225468,291.043207 C919.838528,286.341049 925.958631,281.13708 931.120724,274.808681 C936.506043,268.210791 940.468299,261.027454 941.565825,252.440905 C941.844857,250.23851 942.254104,248.026823 942.821469,245.870893 C944.067813,241.112978 946.755822,238.808363 950.857593,238.752606 C954.977967,238.706142 958.633287,241.633375 959.414577,246.465632 C960.819038,255.182281 959.730813,263.610854 955.777859,271.667714 C949.843777,283.748357 940.682224,292.966817 930.20922,301.042263 C907.858751,318.271119 882.336617,329.385311 855.99599,338.715285 C816.233919,352.803174 775.234807,362.021635 733.649727,368.889016 C697.580181,374.845703 661.29671,379.008878 624.845821,381.60157 C603.713792,383.097711 582.535258,384.203555 561.32882,384.398704 C545.991357,384.538096 530.653894,385.170006 515.325732,384.956272 C465.425497,384.268605 415.543863,382.874684 365.75524,378.999585 C326.2536,375.93296 286.854271,372.020691 247.640964,366.48218 C192.96928,358.759861 138.716144,348.751512 86.034889,331.754976 C63.7588285,324.57164 41.8641119,316.235996 22.3969743,302.733553 C14.5189688,297.269385 7.44085526,291.098964 3.18096563,282.270801 C2.50198758,280.858295 1.58118174,280.0777 0,280.152042 C0.0279032072,275.1711 0.0279032072,270.152987 0.0279032072,265.12558 L0.0279032072,265.12558 L0.0279032072,265.12558 Z" id="Whirl" sketch:type="MSShapeGroup"></path>
                <path d="M1926.08618,610.925628 C1926.46707,610.386309 1926.85598,609.846991 1927.24489,609.307672 C1927.27212,610.1705 1926.75729,610.642217 1926.07437,610.983809 C1924.5451,618.506824 1922.3835,625.93198 1922.39272,633.714457 C1922.40199,670.398875 1922.26283,707.092573 1922.45766,743.776991 C1922.51333,755.070929 1925.42648,765.780217 1931.98572,775.208846 C1944.23211,792.794723 1967.65797,794.724993 1982.43714,779.245709 C1991.80748,769.445875 1995.06391,757.08472 1995.16596,744.055395 C1995.42574,706.535764 1995.28657,669.016133 1995.21235,631.487222 C1995.1938,623.329973 1993.26406,615.534651 1989.70148,608.175495 C1981.19395,590.571057 1966.61889,583.945033 1947.85037,589.151195 C1947.94314,587.731333 1948.3328,586.450672 1949.37189,585.392736 C1956.97021,577.699495 1964.5871,570.024814 1972.12048,562.266611 C1973.73478,560.605465 1975.58102,559.575369 1977.75197,559 C1982.88246,560.150738 1988.10573,560.985951 1993.14345,562.489335 C2033.07411,574.358642 2059.877,600.24097 2073.54286,639.403187 C2085.13982,672.62611 2084.73161,706.192399 2072.80066,739.174038 C2052.69617,794.771394 2000.6119,823.307843 1945.21554,817.182947 C1914.63667,813.804974 1888.67803,801.425259 1868.08183,778.466177 C1850.85339,759.256274 1841.7057,736.269352 1837.73491,711.018075 C1837.12259,707.176094 1836.56593,703.324833 1836,699.473573 C1837.42875,694.258131 1842.18814,691.743211 1845.60228,688.309557 C1870.47544,663.420205 1895.62693,638.809257 1920.72276,614.151909 C1922.22572,612.685646 1923.38542,610.42129 1926.10374,610.838897 C1926.0979,610.867809 1926.09205,610.896719 1926.08618,610.925628 L1926.08618,610.925628 L1926.08618,610.925628 Z M459.770096,615.728027 C455.076378,629.297283 450.512783,642.411756 446.023544,655.544792 C428.215299,707.612868 410.444231,759.690227 392.635986,811.758304 C390.433192,818.199524 390.36813,818.199524 383.24855,818.227368 C377.39302,818.255212 371.509607,817.856116 365.691256,818.338743 C361.127661,818.719276 359.324529,816.612422 357.781644,812.862778 C347.929483,788.954156 337.9472,765.101223 327.946327,741.257571 C305.342124,687.398203 282.700744,633.557399 260.087247,579.698031 C247.381677,549.441003 234.713285,519.174693 222.054188,488.908383 C220.0094,484.017139 217.620716,479.339366 214.776602,474.847218 C207.350303,463.106377 196.141147,457.741787 182.92438,455.75559 C177.970416,455.013086 172.96998,454.530458 167.969544,454.149925 C165.227669,453.945737 163.963618,452.859825 164.000796,450.038311 C164.084447,442.242021 164.093741,434.445731 164.037974,426.649442 C164.019385,423.911459 165.106841,422.454296 167.932366,422.472858 C169.605374,422.482139 171.278383,422.435733 172.951391,422.435733 C225.929991,422.435733 278.899297,422.426452 331.877897,422.435733 C340.912142,422.435733 340.912142,422.482139 340.930731,431.308653 C340.940026,436.877431 340.59613,442.474053 341.05156,448.005707 C341.441928,452.739168 339.31349,454.335551 335.121674,454.892429 C331.831424,455.32865 328.559763,455.894809 325.446109,457.342691 C316.774349,461.361493 313.298209,467.542837 315.435942,476.842697 C316.551281,481.678253 318.410179,486.365308 320.185427,491.024519 C345.103958,556.50407 370.059667,621.97434 395.033965,687.44461 C395.600929,688.920336 395.758935,690.702345 397.422649,691.574787 C399.662621,691.37988 399.736977,689.347276 400.192407,687.982925 C413.539297,648.778726 426.737474,609.518839 440.186603,570.351765 C441.831728,565.562616 441.738783,561.423157 440.037891,556.689696 C431.347542,532.641855 422.991794,508.482639 414.440863,484.388391 C412.953744,480.202526 410.927545,476.202287 409.514782,471.99786 C406.438306,462.809375 399.644032,458.252259 390.628376,456.25678 C389.54092,456.015466 388.434876,455.876247 387.347421,455.61637 C382.858181,454.53974 376.928296,456.219655 374.093476,452.53498 C371.565374,449.2494 373.229088,443.894092 373.387095,439.485476 C373.582279,434.00951 370.849699,427.085663 374.734796,423.447394 C378.155169,420.245347 384.856497,422.491421 390.09859,422.482139 C433.039139,422.407889 475.979689,422.445014 518.910944,422.445014 C520.583952,422.445014 522.256961,422.463577 523.929969,422.435733 C526.643961,422.389326 527.973073,423.456676 527.9266,426.398847 C527.805772,434.195136 527.824361,441.991426 527.945189,449.787716 C527.991662,453.073295 526.448776,453.955018 523.400183,454.224176 C519.831099,454.53974 516.196953,455.217274 512.804463,456.377437 C504.932029,459.087575 501.260705,465.306044 503.4635,473.399335 C506.372675,484.109952 509.94176,494.653506 513.482961,505.178497 C532.155594,560.782748 550.911877,616.359155 569.640277,671.935562 C569.974879,672.928661 569.965584,674.116667 571.248224,674.63642 C573.906449,674.246605 573.451019,671.731374 573.980805,670.107147 C592.086473,614.326551 610.108492,558.518111 628.149099,502.709672 C630.119532,496.621141 632.16432,490.560454 634.088279,484.471923 C634.664538,482.624945 635.138557,480.722279 635.380214,478.810332 C637.099695,465.018324 632.591866,458.76273 618.854608,455.699902 C617.767153,455.458588 616.679697,455.11518 615.582947,455.031648 C611.112297,454.706803 609.532234,452.432885 609.77389,447.950019 C610.117786,441.564486 609.801774,435.15111 609.857541,428.747015 C609.904013,422.55639 609.950486,422.435733 616.512396,422.426452 C636.309663,422.389326 656.116224,422.083044 675.904195,422.528546 C710.907249,423.317456 745.389812,418.268431 779.928141,413.859814 C781.582561,413.655626 783.218391,413.154436 784.872811,413.024498 C787.16855,412.82959 788.599902,413.785564 788.590607,416.328639 C788.581313,418.556151 788.683552,420.783662 788.683552,423.011173 L788.711436,573.358906 C788.711436,576.347483 788.311772,579.363905 789.640885,582.918642 C794.241658,580.598317 797.68062,576.997174 801.32406,573.869377 C828.491858,550.610446 877.808429,553.264897 901.89975,567.186843 C924.64337,580.347722 935.898999,600.311792 936.084889,626.299424 C936.354429,664.993152 936.131361,703.696161 936.168539,742.39917 C936.168539,748.237106 936.112772,754.121448 936.689031,759.922259 C937.804369,771.217598 942.721155,776.136685 953.948901,778.002226 C955.315191,778.224977 956.690776,778.466291 958.075655,778.642635 C968.011466,779.914173 968.011466,779.904892 967.974288,790.364914 C967.964994,794.541497 968.048644,798.718081 967.955699,802.894665 C967.825576,808.667632 967.769809,808.676913 961.719095,808.908945 C960.603756,808.955352 959.488418,808.927508 958.373079,808.927508 C919.893885,808.927508 881.423986,808.936789 842.944792,808.927508 C835.444138,808.927508 835.434843,808.890383 835.397665,801.121937 C835.379076,795.27472 835.555671,789.418221 835.341898,783.580285 C835.211775,780.118362 836.531593,778.354915 839.933377,778.011507 C840.760586,777.927976 841.597091,777.788756 842.405711,777.593849 C853.884408,774.967242 857.853156,770.540063 858.903433,758.762097 C859.24733,754.891796 859.154385,750.975089 859.154385,747.076944 C859.154385,708.930813 859.080029,670.784681 859.154385,632.63855 C859.172974,622.818938 856.691344,613.881049 850.575569,606.177572 C839.347824,592.051438 817.422119,592.701129 804.512071,607.504798 C798.535713,614.354395 795.068868,622.521936 792.680183,631.190668 C789.929014,641.186625 788.767203,651.423896 788.757908,661.735417 C788.72073,693.468172 788.915914,725.210208 789.046037,756.942963 C789.055332,759.718071 789.306283,762.437491 790.012664,765.194036 C791.36966,770.540063 794.427548,774.076237 799.68823,775.663339 C801.816668,776.303749 803.954401,777.120503 806.138607,777.371098 C818.23074,778.772574 815.935,778.763292 816.111596,789.000563 C816.213835,794.84778 816.027945,800.694997 816.158068,806.542215 C816.232424,809.456542 815.005551,810.579579 812.226498,810.449641 C810.55349,810.37539 808.880482,810.449641 807.207473,810.449641 C765.949227,810.458922 724.681685,810.458922 683.414144,810.468203 C682.019971,810.468203 680.625797,810.384672 679.231623,810.468203 C675.560299,810.700236 674.454255,808.955352 674.565789,805.428459 C674.788857,798.476767 674.90039,791.497232 674.537905,784.554822 C674.305543,780.062674 676.480454,778.689042 680.30049,778.24354 C683.060954,777.918694 685.849301,777.547442 688.535409,776.869908 C700.404474,773.862767 705.990464,767.384422 707.087214,755.263048 C707.468288,751.114308 707.570527,746.919162 707.570527,742.751859 C707.607705,650.031701 707.607705,557.320824 707.607705,464.609947 C707.607705,452.729887 707.533349,452.915513 696.00818,454.651115 C685.022091,456.303186 677.828155,462.150403 673.441155,472.164923 C668.282713,483.924326 664.964579,496.305577 661.005126,508.445513 C644.535288,558.907926 628.344284,609.45387 612.051041,659.97197 C597.802586,704.141663 583.563425,748.311356 569.287086,792.462487 C566.972758,799.609086 564.268061,806.625746 562.213979,813.846595 C561.256646,817.178581 559.695172,818.440837 556.386333,818.255212 C549.173807,817.865397 540.790176,820.742599 535.046181,817.24355 C529.590314,813.911564 529.227829,805.140739 526.913501,798.680956 C505.47111,739.048622 484.158841,679.369881 462.827984,619.691141 C462.372554,618.373197 462.112308,616.990283 459.770096,615.728027 L459.770096,615.728027 Z M1543.36604,926 C1543.27389,922.185662 1543.40291,918.362132 1543.05271,914.575368 C1542.638,910.191176 1544.68389,908.766544 1548.71115,908.720588 C1553.93645,908.665441 1558.9498,907.167279 1564,906 C1558.44293,914.005515 1551.25469,920.365809 1543.36604,926 L1543.36604,926 Z M1846.38288,635 C1844.71822,630.429725 1848.92663,628.01454 1850.48842,624.754039 C1861.7389,601.280291 1879.10561,583.435784 1902.28927,571.350565 C1906.89982,568.953958 1911.47296,566.074313 1917,566 C1906.29194,576.756866 1895.63998,587.541599 1884.87581,598.24273 C1873.84977,609.213247 1862.76763,620.109451 1851.62937,630.977787 C1850.08628,632.510501 1848.15042,633.671648 1846.38288,635 L1846.38288,635 Z M1577.03448,892.998298 C1578.43842,884.462286 1578.73594,875.870605 1578.72664,867.232532 C1578.68015,791.883674 1578.68015,716.525538 1578.71734,641.17668 C1578.71734,633.104582 1578.41052,625.060319 1577.23903,617.071725 C1575.55616,605.631614 1570.12637,599.758467 1559.02505,597.169829 C1555.23164,596.288393 1551.42892,595.286339 1547.50534,595.481183 C1543.00531,595.703862 1541.78733,593.551302 1542.02906,589.385357 C1542.32659,584.115298 1542.31729,578.808126 1542.04766,573.538066 C1541.81522,569.205113 1543.53527,567.60925 1547.79357,567.572137 C1559.21101,567.460797 1570.63774,567.293788 1582.04588,566.774205 C1605.39212,565.716482 1628.78486,565.002055 1651.88006,560.947449 C1656.18485,560.195909 1657.32845,561.559816 1657.33775,565.549473 C1657.34704,569.335009 1657.9142,573.129822 1658.25821,577.026697 C1661.83778,577.379272 1663.88325,575.115373 1665.9845,573.621571 C1705.72239,545.332115 1773.81793,557.273253 1798.50302,616.61709 C1805.29956,632.983964 1809.13946,649.916813 1808.56301,667.731098 C1808.53512,668.825934 1808.84194,669.92077 1809,671.024885 C1808.39566,673.622802 1806.38738,675.19083 1804.61154,676.916589 C1786.39756,694.647369 1768.1557,712.341036 1749.94172,730.071817 C1745.98095,733.931579 1742.22472,737.995462 1738.14308,741.71605 C1736.08832,743.590261 1734.42405,746.93044 1730.59344,745.019115 C1730.69572,707.497778 1730.90956,669.97644 1730.80729,632.455103 C1730.78869,622.861368 1727.97152,613.787216 1722.59752,605.715119 C1707.47964,583.02974 1677.82033,584.384368 1664.62706,608.210974 C1659.17867,618.055222 1657.95139,628.790185 1657.87701,639.61793 C1657.65387,673.520741 1657.62597,707.43283 1657.8956,741.344919 C1657.97928,752.154108 1658.84396,763.10247 1664.30164,772.853935 C1668.84816,780.972425 1674.45461,788.153808 1684.31005,790.352759 C1684.97948,793.08985 1682.85963,794.231077 1681.27904,795.743436 C1655.81294,820.098904 1630.35615,844.46365 1604.90865,868.846952 C1598.29806,875.184013 1591.74327,881.576743 1585.09549,887.867412 C1582.77109,890.075642 1580.86509,893.081802 1577.03448,892.998298 L1577.03448,892.998298 Z M1703.00539,827 C1702.91226,825.144021 1704.03915,824.034165 1705.30573,822.849696 C1736.11341,793.881504 1766.88385,764.876006 1797.6636,735.870509 C1799.28408,734.340958 1800.75555,732.652857 1803,732 C1802.71129,748.134891 1798.69735,763.49568 1793.00706,778.436776 C1787.95937,791.652464 1779.32613,802.079521 1766.8466,808.962498 C1746.98179,819.939819 1725.40337,824.976144 1703.00539,827 L1703.00539,827 Z M1577,940.814057 C1580.10918,935.028842 1585.78158,931.843724 1590.40833,927.618566 C1610.05353,909.668613 1629.80977,891.839379 1649.59377,874.038003 C1651.52775,872.30151 1652.94354,869.348543 1656.3951,870.128572 C1656.2748,878.179585 1656.14525,886.202741 1657.62582,894.21661 C1659.02309,901.775463 1663.61283,905.805612 1670.6455,907.653538 C1676.59551,909.213596 1682.69357,909.659327 1688.78238,909.622183 C1692.80765,909.594325 1694.10314,911.172955 1693.96434,915.082386 C1693.74226,921.749777 1693.69599,928.43574 1693.98285,935.10313 C1694.16792,939.34686 1692.89093,941.148355 1688.41224,940.990492 C1680.6578,940.721196 1672.8941,940.916204 1665.13041,940.916204 C1635.75052,940.87906 1606.37989,940.841915 1577,940.814057 L1577,940.814057 Z M2490.77633,414.476915 C2492.19151,416.935963 2491.3722,419.766187 2491.3722,422.45722 C2491.41875,532.065773 2491.40944,641.665046 2491.43737,751.273599 C2491.43737,754.595633 2491.43737,757.964063 2491.9122,761.248979 C2493.47634,772.03167 2497.7405,776.383719 2508.43813,778.044736 C2513.11194,778.768531 2517.86024,779.288179 2522.5806,779.353135 C2526.44441,779.408812 2528.14821,780.550181 2527.98993,784.651686 C2527.72924,791.601974 2527.66407,798.570821 2527.93407,805.51183 C2528.12959,810.151542 2525.99751,811.070205 2521.91956,810.99597 C2510.4771,810.801102 2499.02533,810.884617 2487.58287,810.884617 L2382.91555,810.884617 C2380.96037,810.884617 2379.00519,810.801102 2377.05932,810.884617 C2373.94965,811.023808 2372.51586,809.817483 2372.58103,806.523288 C2372.72999,799.016234 2372.72068,791.499901 2372.5531,783.992847 C2372.48792,780.828563 2373.66103,779.501606 2376.83587,779.297458 C2381.57486,779.000517 2386.30453,778.499428 2390.99696,777.840589 C2404.76702,775.919748 2410.00877,770.389212 2410.95842,756.609267 C2411.35877,750.791069 2411.46119,744.945032 2411.46119,739.108274 C2411.50774,658.154582 2411.53567,577.20089 2411.48912,496.256477 C2411.48912,489.872233 2411.2936,483.450872 2410.66049,477.103746 C2409.34773,463.750655 2403.55667,457.969574 2390.32662,455.705395 C2384.50763,454.712497 2378.67002,454.508349 2372.81379,454.65682 C2369.2386,454.749614 2367.86997,453.255627 2368.00963,449.66449 C2368.23308,444.106115 2368.30756,438.529182 2368.01894,432.980086 C2367.79549,428.488845 2369.81584,427.366035 2373.94965,427.180446 C2388.98592,426.512328 2404.01288,425.343121 2419.04915,424.70284 C2442.232,423.709942 2465.25658,421.909734 2487.4246,414.337724 C2488.47667,413.957268 2489.55667,413.771679 2490.77633,414.476915 L2490.77633,414.476915 Z M2360,688.656763 C2359.4612,723.03122 2350.38512,754.010897 2327.15148,779.462465 C2299.21724,810.052578 2263.6747,821.145899 2223.04138,817.250251 C2196.75142,814.736631 2173.62926,804.645047 2154.16725,786.660138 C2133.83202,767.858999 2121.91328,744.373806 2116.89682,717.428907 C2110.87707,685.122854 2113.97984,653.781437 2128.64834,624.016831 C2152.48581,575.645867 2202.92909,551.557777 2256.46586,559.488203 C2309.47311,567.344427 2347.61678,607.55308 2357.09231,658.484041 C2358.97813,668.631277 2359.88852,678.834165 2360,688.656763 L2360,688.656763 Z M2272.92588,688.409348 C2272.93516,670.024891 2272.82388,651.63114 2272.9908,633.246683 C2273.06498,625.87617 2271.59983,618.858847 2269.24445,611.980941 C2266.84271,605.01009 2262.83672,598.968686 2257.13374,594.302864 C2241.80526,581.755332 2219.94849,585.80772 2208.68163,603.151197 C2202.38518,612.836032 2200.21526,623.729148 2200.15962,635.003337 C2199.99271,670.656915 2199.8907,706.319788 2200.19672,741.98266 C2200.31727,755.264454 2203.29394,767.942108 2212.34452,778.454151 C2224.9467,793.092937 2245.99671,793.948028 2259.53548,780.238689 C2269.33718,770.312197 2272.66624,757.820433 2272.86097,744.399221 C2273.12989,725.745225 2272.92588,707.072639 2272.92588,688.409348 L2272.92588,688.409348 Z M1063.02302,529.995364 C1037.30333,529.649731 1017.58708,508.893077 1018.00657,482.653005 C1018.34217,461.644133 1036.35247,439.093925 1065.56795,440.028068 C1090.25289,440.82209 1110.27677,460.812746 1109.99711,485.315313 C1109.6988,510.275609 1088.6122,530.350338 1063.02302,529.995364 L1063.02302,529.995364 Z M1038.6093,811 C1026.99352,810.953478 1015.37774,810.925566 1003.76196,810.841827 C1000.48834,810.823218 996.861317,811.353564 995.912711,806.794453 C997.400721,799.620832 996.703216,792.335559 996.666016,785.115417 C996.647416,780.928478 998.033125,779.0304 1002.06935,778.397707 C1005.91028,777.792927 1009.714,776.8718 1013.46193,775.848327 C1020.66948,773.866509 1024.7522,769.065487 1025.59851,761.612736 C1025.97981,758.291099 1026.47272,754.960156 1026.47272,751.629214 C1026.53782,710.364611 1026.57502,669.090703 1026.46342,627.8261 C1026.45412,622.559862 1025.76591,617.256407 1024.97541,612.027386 C1023.5804,602.797513 1017.90736,597.19632 1009.156,594.498071 C1004.85937,593.167555 1000.40464,592.553471 995.949911,592.795383 C991.671882,593.037295 989.79327,591.632344 990.025771,587.119755 C990.304773,581.834909 990.239673,576.522149 990.016471,571.227998 C989.83047,567.022451 991.188279,565.440719 995.698809,565.347676 C1011.56472,565.022025 1027.43062,564.324202 1043.28723,563.561249 C1061.65485,562.668035 1080.00388,561.542214 1098.1855,558.546227 C1105.27215,557.383189 1105.34655,557.466927 1105.34655,565.068547 C1105.35585,600.75987 1105.34655,636.451193 1105.34655,672.142516 C1105.34655,674.366246 1105.47675,676.59928 1105.54185,678.823009 C1105.47675,686.899148 1105.24425,694.984591 1105.41165,703.06073 C1105.59765,711.964952 1104.47234,720.897087 1106.09985,729.764092 C1104.69554,739.729005 1105.13264,749.759049 1105.59765,759.733266 C1106.03475,769.130617 1110.77778,774.527115 1119.80814,776.983452 C1123.80717,778.072056 1127.9829,778.565184 1132.11213,779.086226 C1134.84634,779.439789 1135.98095,780.770305 1135.96235,783.449946 C1135.92515,791.228347 1135.91585,799.016052 1135.99955,806.803757 C1136.02745,809.66018 1134.75334,810.860435 1132.00052,810.813914 C1130.05681,810.776697 1128.1131,810.813914 1126.16939,810.823218 C1096.97649,810.888348 1067.80219,810.944174 1038.6093,811 L1038.6093,811 Z M1184.04184,598.699078 C1177.94438,594.12965 1170.81518,593.200904 1163.52797,593.284491 C1159.6334,593.321641 1157.96032,591.947097 1158.07186,587.999929 C1158.22987,582.464605 1158.27635,576.919994 1158.01609,571.38467 C1157.82089,567.400352 1159.39173,566.146545 1163.2863,566.016521 C1180.45401,565.477848 1197.60312,564.660552 1214.77082,563.991855 C1218.38655,563.852543 1221.95579,563.546057 1225.44138,562.533725 C1239.32798,563.722519 1252.86138,560.639084 1266.50631,559.013779 C1272.16691,558.345082 1272.16691,558.326507 1273.89576,564.465516 C1272.14832,566.768805 1271.75793,569.164968 1273.11499,572.164816 C1277.67879,569.703641 1281.83362,567.483939 1285.97915,565.227087 C1297.82087,558.809455 1310.59208,556.413291 1323.8931,557.119138 C1362.75513,559.199528 1376.85551,592.132847 1368.834,620.180963 C1362.82019,641.263488 1340.31721,653.634379 1319.42225,647.82972 C1304.07635,643.576065 1294.2981,629.654168 1294.41893,612.388788 C1294.45611,605.924719 1295.85035,599.581386 1296.60324,592.717956 C1283.94356,600.017897 1278.31085,607.930809 1275.39224,620.775361 C1273.6448,628.474661 1273.44031,636.2204 1273.43102,644.003288 C1273.37525,677.976801 1273.40313,711.950315 1273.41243,745.933116 C1273.41243,750.381807 1273.273,754.849074 1273.50538,759.297765 C1274.08166,770.349838 1279.07303,775.940886 1290.03173,777.965551 C1293.04328,778.522799 1296.08272,779.042896 1299.13145,779.228645 C1302.57986,779.442257 1303.9741,780.844663 1303.84397,784.438908 C1303.6116,790.828678 1303.82538,797.24631 1303.7975,803.645367 C1303.76961,810.86172 1303.74173,810.86172 1296.62183,810.991744 C1296.06413,811.001032 1295.50644,810.991744 1294.94874,810.991744 L1171.19627,810.991744 C1170.63858,810.991744 1170.08088,811.010319 1169.52319,810.991744 C1163.4815,810.815283 1163.39784,810.815283 1163.32348,805.047773 C1163.23983,798.918052 1163.30489,792.797618 1163.35137,786.667898 C1163.39784,779.600144 1163.42573,779.600144 1170.5921,778.33705 C1189.21911,775.040003 1193.01143,770.591311 1193.03932,751.728488 C1193.08579,718.312222 1193.09509,684.895956 1193.0672,651.470402 C1193.0672,649.259988 1192.7047,647.049573 1192.50951,644.848446 C1193.40182,636.879809 1193.4297,628.84616 1192.85342,620.905385 C1192.28643,612.732424 1191.56143,604.271551 1184.04184,598.699078 L1184.04184,598.699078 Z M1376.55148,427.06926 C1395.39859,427.013488 1414.19001,425.386802 1432.99072,424.327132 C1437.37075,424.076158 1441.85285,425.126532 1446.1308,423.444074 C1461.9156,422.375109 1477.20857,418.591902 1492.18603,414 C1493.65223,417.485756 1493.09545,420.311541 1493.09545,423.062965 C1493.12329,533.491702 1493.12329,643.911144 1493.12329,754.339881 C1493.12329,756.570765 1493.03977,758.801648 1493.18824,761.032532 C1493.8471,771.285301 1498.58904,776.713784 1508.60185,778.981849 C1513.81706,780.162359 1519.06938,780.450514 1524.36809,780.255312 C1527.35616,780.143768 1529.05435,781.073303 1528.99867,784.484696 C1528.86876,792.292788 1528.90588,800.100881 1528.99867,807.908973 C1529.02651,810.837008 1527.55104,811.878087 1524.9156,811.896678 C1522.96686,811.905973 1521.01812,811.924564 1519.06938,811.924564 L1433.0464,811.924564 C1415.50773,811.924564 1397.96907,811.822315 1380.4304,811.998926 C1376.30093,812.036108 1374.31507,811.125164 1374.50994,806.49608 C1374.82545,799.264299 1374.67698,791.995337 1374.5285,784.754261 C1374.46354,781.621728 1375.46575,780.097291 1378.80645,780.255312 C1384.68979,780.534173 1390.46178,779.381549 1396.19664,778.312584 C1404.99381,776.676603 1410.68228,771.805841 1412.29695,762.59415 C1412.79806,759.814841 1412.97437,757.072714 1412.97437,754.293404 C1413.00221,664.50034 1412.98365,574.716571 1413.04861,484.923507 C1413.04861,479.838952 1412.46399,474.819464 1410.88643,470.097427 C1408.67786,463.479139 1404.7247,458.264448 1396.75342,458.199381 C1390.13699,454.685739 1382.87097,455.3643 1375.78126,455.10403 C1371.9673,454.955304 1370.39903,453.50523 1370.38975,449.638365 C1370.38047,443.587094 1371.08573,437.517231 1370,431.48455 C1370.78878,427.915136 1373.77684,427.645571 1376.55148,427.06926 L1376.55148,427.06926 Z" id="Shape" sketch:type="MSShapeGroup"></path>
            </g>
        </g>
    </g>
</svg>