<?xml version="1.0" encoding="UTF-8"?>
<svg width="200px" height="200px" viewBox="0 0 200 200" version="1.1" xmlns="http://www.w3.org/2000/svg">
    <g fill-rule="evenodd">
        <g fill="#000000">
            <path d="M0,0 L200,0 L200,200 L0,200 L0,0 Z M13.7931034,13.7931034 L13.7931034,186.206897 L86.1143075,186.206897 L91.8965517,172.413793 L27.5862069,172.413793 L27.5862069,13.7931034 L13.7931034,13.7931034 Z M86.2068966,13.7931034 L41.3793103,13.7931039 L41.3793103,158.62069 L97.5862069,158.62069 L103.448276,144.827586 L55.1724138,144.827586 L55.1724138,89.6551724 L118.103448,89.6551724 L112.241379,75.862069 L55.1724138,75.862069 L55.1724138,27.5862069 L92.0689655,27.5862069 L86.2068966,13.7931034 Z M114.655172,13.7931034 L100,13.7931034 L135.862069,100 L100,186.206897 L114.655172,186.206897 L143.103448,117.586207 L171.551724,186.206897 L186.206897,186.206897 L150.344828,100 L186.206897,13.7931034 L171.551724,13.7931034 L143.103447,82.2413793 L114.655172,13.7931034 Z"></path>
        </g>
    </g>
</svg>