<svg xmlns="http://www.w3.org/2000/svg" width="48" height="30" viewBox="0 0 48 30">
  <path fill-rule="evenodd" d="M15.4613517,24.6431141 C17.3271866,22.9655533 19.8359269,22.4084674 20.4660632,22.0559007 C21.4214113,21.5213752 21.3884852,21.525308 21.4978347,20.7976576 C21.5213972,20.6408644 21.5498714,18.3382339 21.3884852,18.239108 C21.0025234,18.0020444 20.6555007,17.5291364 20.4660632,17.062071 C20.3222573,16.7075122 20.4291934,16.1751867 20.1802734,15.8705467 C19.9730734,15.6177067 19.6678734,15.5958667 19.5256334,15.3024267 C19.2232334,14.6780267 18.8662334,13.7534667 19.2036334,13.0772667 C19.2755934,12.9330667 19.4844734,12.8763592 19.5256334,12.7209592 C19.5970334,12.4571992 19.3190419,11.975496 19.2846019,11.713976 C19.2423219,11.386656 19.1840334,11.2119067 19.1347534,10.8848667 C19.0403934,10.2632667 19.0328334,9.51650669 19.1137534,8.88958669 C19.2011134,8.20834669 19.7743512,7.18280309 20.1802734,6.65339575 C21.0661519,5.498025 21.8639841,5.2 24.6830674,5.2 C25.8093291,5.2 26.2154383,6.2257516 26.8557313,6.2257516 C27.7298913,6.2257516 28.6544709,7.26211968 28.8977934,8.48050669 C29.0414334,9.19562669 29.1433534,10.1613467 29.0641134,10.8848667 C29.0134334,11.3538667 28.6250067,12.5471782 28.6877014,12.7209592 C28.7503961,12.8947402 28.9377357,12.8612198 29.0641134,13.0772667 C29.3070442,13.4925654 28.9445727,14.8714871 28.7555811,15.3024267 C28.5665895,15.7333663 28.3703933,15.5961859 28.1630484,15.7333663 C27.9557034,15.8705467 27.8559134,16.5044667 27.8085934,17.0034267 C27.7441934,17.6787867 27.4625258,17.8605378 26.9851134,18.3283403 C26.846264,18.4643946 26.8473313,20.6388976 26.8557313,20.7976576 C26.9148113,21.8972176 27.3512956,21.8417893 28.3456334,22.2740663 C28.9996589,22.5583963 31.2793306,23.3165932 32.6923584,24.5047016 C35.2659638,22.1497574 36.88,18.7633679 36.88,15 C36.88,7.88657242 31.1134276,2.12 24,2.12 C16.8865724,2.12 11.12,7.88657242 11.12,15 C11.12,18.8377454 12.7984648,22.2834644 15.4613517,24.6431141 L15.4613517,24.6431141 Z M24,29 C16.2680135,29 10,22.7319865 10,15 C10,7.2680135 16.2680135,1 24,1 C31.7319865,1 38,7.2680135 38,15 C38,22.7319865 31.7319865,29 24,29 Z"/>
</svg>
