<svg xmlns="http://www.w3.org/2000/svg" width="48" height="30" viewBox="0 0 48 30">
  <path fill-rule="evenodd" d="M37.0773707,9.24156472 C36.8925604,9.39387046 36.7024268,9.54563765 36.5069697,9.69686629 C33.0903508,12.3403654 29.1143388,13.8802149 24.5789335,14.3164147 C26.2147683,11.910876 28.1641254,9.77501467 30.4270046,7.90883087 C32.922128,5.85111661 35.6220276,4.42110487 38.5266994,3.61878074 C38.8008019,3.54307005 38.9688177,3.26731056 38.9104102,2.98900697 C38.9078741,2.97692267 38.9048719,2.9649409 38.9014103,2.95308848 C38.8272094,2.69902375 38.5610976,2.55321528 38.3070329,2.62741614 C35.2651672,3.51580171 32.4140976,5.0168415 29.7538224,7.13052969 C27.4645551,8.94943822 25.4461382,11.1473374 23.6985718,13.7242274 C23.0568029,9.29582762 24.620082,5.9862981 28.3884092,3.79563882 C32.0348078,1.67586087 36.3529689,0.751142209 41.3428923,1.02148283 C41.3505874,1.02189973 41.3582727,1.02248129 41.365943,1.02322712 C41.6628041,1.05209297 41.8800571,1.31614683 41.8511913,1.61300793 L41.8511418,1.61300312 C41.6268221,3.91994335 40.4144905,6.12693036 38.2141469,8.23396414 C36.8978828,8.35905399 35.6956502,8.40327302 34.607449,8.36662122 C33.6864884,8.33560226 32.8867832,8.23666303 32.2083277,8.06982599 C31.9334368,8.00221872 31.6532877,8.15968779 31.5681491,8.42966398 C31.5640481,8.44266843 31.560493,8.4558388 31.5574933,8.46914051 C31.4981038,8.73248643 31.6634432,8.99411513 31.9267891,9.05350458 L31.9267839,9.05352759 C32.6798314,9.22335392 33.4430096,9.32698553 34.2163185,9.36442241 C35.081694,9.40631637 36.0353781,9.36536381 37.0773707,9.24156472 L37.0773707,9.24156472 Z M19.3193436,15.04 L27.9576556,15.04 C28.2558893,15.04 28.4976556,15.2817662 28.4976556,15.58 C28.4976556,15.8782338 28.2558893,16.12 27.9576556,16.12 L19.3193436,16.12 C19.0211098,16.12 18.7793436,15.8782338 18.7793436,15.58 C18.7793436,15.2817662 19.0211098,15.04 19.3193436,15.04 Z M18.24,16.66 L29.0369991,16.66 C30.8264017,16.66 32.2769991,18.1105974 32.2769991,19.9 L32.2769991,24.76 C32.2769991,26.5494026 30.8264017,28 29.0369991,28 L18.24,28 C16.4505974,28 15,26.5494026 15,24.76 L15,19.9 C15,18.1105974 16.4505974,16.66 18.24,16.66 L18.24,16.66 Z"/>
</svg>
