<svg xmlns="http://www.w3.org/2000/svg" width="48" height="30" viewBox="0 0 48 30">
  <path fill-rule="evenodd" d="M37.2172572,9.24156472 C37.0312759,9.39387046 36.8399375,9.54563765 36.643242,9.69686629 C33.2049748,12.3403654 29.2037699,13.8802149 24.6396275,14.3164147 C26.2858273,11.910876 28.2475358,9.77501467 30.5247531,7.90883087 C33.0364555,5.85048602 35.754358,4.42022847 38.6784527,3.61802918 C38.952564,3.5428321 39.1206466,3.2671109 39.0619112,2.98900697 L39.0619112,2.98900697 C39.0594536,2.97737052 39.0565651,2.96582927 39.0532517,2.95440701 C38.9792669,2.6993606 38.7125345,2.55258112 38.4574881,2.62656586 L38.4574983,2.62660102 C35.3953141,3.51488997 32.5252498,5.01619953 29.8473055,7.13052969 C27.5435329,8.94943822 25.512327,11.1473374 23.7536876,13.7242274 C23.1078523,9.29582762 24.6810367,5.9862981 28.4732408,3.79563882 C32.1278862,1.68444366 36.4530873,0.758650002 41.448844,1.01825785 L41.448844,1.01825785 C41.4596478,1.01881928 41.4704345,1.01967281 41.4811922,1.0208175 C41.8106992,1.05587943 42.0493941,1.35142095 42.0143322,1.68092797 L42.0143388,1.68092867 C41.7714808,3.96327384 40.5537799,6.147619 38.3612362,8.23396414 C37.0366321,8.35905399 35.8267819,8.40327302 34.7316856,8.36662122 C33.8037788,8.33556509 32.9981883,8.23642576 32.3149123,8.06921039 C32.0394685,8.00179909 31.7589052,8.15937549 31.6731281,8.42966398 C31.6688686,8.4430861 31.6651925,8.45668645 31.6621101,8.47042678 C31.6031656,8.73318806 31.7683918,8.99398213 32.0311531,9.05292663 L32.0311628,9.05288352 C32.7899134,9.22309193 33.5588848,9.32693822 34.3380768,9.36442241 C35.2089356,9.40631637 36.1686623,9.36536381 37.2172572,9.24156472 Z M19.3432902,15.04 L28.0431793,15.04 C28.3414131,15.04 28.5831793,15.2817662 28.5831793,15.58 C28.5831793,15.8782338 28.3414131,16.12 28.0431793,16.12 L19.3432902,16.12 C19.0450565,16.12 18.8032902,15.8782338 18.8032902,15.58 C18.8032902,15.2817662 19.0450565,15.04 19.3432902,15.04 Z M18.6,16.66 L28.7864696,16.66 C30.7746947,16.66 32.3864696,18.2717749 32.3864696,20.26 L32.3864696,24.4 C32.3864696,26.3882251 30.7746947,28 28.7864696,28 L18.6,28 L18.6,28 C16.6117749,28 15,26.3882251 15,24.4 L15,20.26 L15,20.26 C15,18.2717749 16.6117749,16.66 18.6,16.66 L18.6,16.66 Z"/>
</svg>
