<svg xmlns="http://www.w3.org/2000/svg" width="48" height="30" viewBox="0 0 48 30">
  <path fill-rule="evenodd" d="M35.2950077,9.37395137 C34.9331132,9.38489278 34.5735502,9.38171647 34.2163185,9.36442241 C33.4430096,9.32698553 32.6798314,9.22335392 31.9267839,9.05352759 L31.9267891,9.05350458 C31.6634432,8.99411513 31.4981038,8.73248643 31.5574933,8.46914051 C31.560493,8.4558388 31.5640481,8.44266843 31.5681491,8.42966398 C31.6532877,8.15968779 31.9334368,8.00221872 32.2083277,8.06982599 C32.8867832,8.23666303 33.6864884,8.33560226 34.607449,8.36662122 C35.2578953,8.38852896 35.9202906,8.38154345 36.5946348,8.34566469 C38.7970342,6.46403898 40.2019199,4.463264 40.809292,2.34333974 L40.8091786,2.34330724 C40.8502311,2.20002047 40.767354,2.05058389 40.6240672,2.0095313 C40.606955,2.00462853 40.5893996,2.0014308 40.5716577,1.99998482 C36.4280212,1.66227635 32.6054011,2.53300893 29.1037974,4.61218256 C25.6433055,6.66694496 24.1773022,9.23636285 24.7057875,12.3204362 C26.2093163,10.3397903 27.8919946,8.6098215 29.7538224,7.13052969 C32.4140976,5.0168415 35.2651672,3.51580171 38.3070312,2.62741031 C38.5610976,2.55321528 38.8272094,2.69902375 38.9014103,2.95308848 C38.9048719,2.9649409 38.9078741,2.97692267 38.9104102,2.98900697 C38.9688177,3.26731056 38.8008019,3.54307005 38.5266994,3.61878074 C35.6220276,4.42110487 32.922128,5.85111661 30.4270046,7.90883087 C28.5430835,9.46249001 26.8764681,11.2030655 25.4271582,13.1305574 C29.1491949,12.717879 32.4384781,11.465677 35.2950077,9.37395137 L35.2950077,9.37395137 Z M22.8499685,15.04 C23.1253599,14.5909478 23.4082277,14.1523569 23.6985718,13.7242274 C23.0568029,9.29582762 24.620082,5.9862981 28.3884092,3.79563882 C32.0348078,1.67586087 36.3529689,0.751142209 41.3428923,1.02148283 C41.3505874,1.02189973 41.3582727,1.02248129 41.365943,1.02322712 C41.6628041,1.05209297 41.8800571,1.31614683 41.8511913,1.61300793 L41.8511418,1.61300312 C41.5743247,4.45983588 39.792934,7.15445694 36.5069697,9.69686629 C33.0903508,12.3403654 29.1143388,13.8802149 24.5789335,14.3164147 C24.4167173,14.5549579 24.2575841,14.796153 24.101534,15.04 L27.9576556,15.04 C28.2558893,15.04 28.4976556,15.2817662 28.4976556,15.58 C28.4976556,15.8782338 28.2558893,16.12 27.9576556,16.12 L19.3193436,16.12 C19.0211098,16.12 18.7793436,15.8782338 18.7793436,15.58 C18.7793436,15.2817662 19.0211098,15.04 19.3193436,15.04 L22.8499685,15.04 L22.8499685,15.04 Z M18.24,16.66 L29.0369991,16.66 C30.8264017,16.66 32.2769991,18.1105974 32.2769991,19.9 L32.2769991,24.76 C32.2769991,26.5494026 30.8264017,28 29.0369991,28 L18.24,28 C16.4505974,28 15,26.5494026 15,24.76 L15,19.9 C15,18.1105974 16.4505974,16.66 18.24,16.66 L18.24,16.66 Z M18.2398124,17.74 C17.0468774,17.74 16.0798124,18.7070649 16.0798124,19.9 L16.0798124,24.76 C16.0798124,25.9529351 17.0468774,26.92 18.2398124,26.92 L29.0371867,26.92 C30.2301218,26.92 31.1971867,25.9529351 31.1971867,24.76 L31.1971867,19.9 C31.1971867,18.7070649 30.2301218,17.74 29.0371867,17.74 L18.2398124,17.74 Z"/>
</svg>
