<svg xmlns="http://www.w3.org/2000/svg" width="48" height="30" viewBox="0 0 48 30">
  <path fill-rule="evenodd" d="M38.6858413,9.15729413 C38.4791955,9.32652273 38.2665973,9.49515294 38.0480467,9.66318476 C34.2277498,12.600406 29.7819666,14.3113499 24.7106972,14.7960164 C26.5398081,12.1231955 28.7194843,9.7500163 31.2497257,7.67647874 C34.0405061,5.38942891 37.0603978,3.80025385 40.3093919,2.90892131 C40.61396,2.825369 40.8007184,2.51901211 40.7354569,2.21000774 L40.7354569,2.21000774 L40.7354569,2.21000774 C40.7327262,2.19707836 40.7295167,2.18425474 40.7258352,2.17156334 C40.6436299,1.88817845 40.3472605,1.72509014 40.0638756,1.8072954 L40.063887,1.80733447 C36.6614601,2.79432219 33.4724998,4.46244392 30.4970061,6.81169966 C27.9372588,8.83270913 25.6803633,11.2748194 23.7263196,14.1380304 C23.0087248,9.21758625 24.7567075,5.54033123 28.9702676,3.10626536 C33.048325,0.750475872 37.8778212,-0.276927956 43.4587559,0.024053871 L43.4587559,0.024053871 C43.4674869,0.0245247363 43.4762066,0.0251864108 43.4849086,0.0260384202 C43.81468,0.0583259607 44.0558383,0.351832705 44.0235508,0.681604083 L44.0235916,0.681608075 C43.7726425,3.24469625 42.4170884,5.69673953 39.9569291,8.03773793 C38.4851467,8.17672666 37.1408687,8.22585891 35.9240951,8.18513469 C34.8930982,8.15062823 33.9980055,8.04047534 33.2388207,7.85466047 C32.9327592,7.77975679 32.6210097,7.95484927 32.5256979,8.2551822 L32.5256979,8.2551822 L32.5256979,8.2551822 C32.5209651,8.27009567 32.5168805,8.28520717 32.5134557,8.3004742 C32.4479618,8.59243118 32.6315464,8.88220237 32.9235034,8.94769626 L32.9235142,8.94764836 C33.7665705,9.13676881 34.6209831,9.25215358 35.486752,9.29380268 C36.4543728,9.34035152 37.5207359,9.29484867 38.6858413,9.15729413 Z M18.825878,15.6 L28.4924215,15.6 L28.4924215,15.6 C28.8237923,15.6 29.0924215,15.8686292 29.0924215,16.2 C29.0924215,16.5313708 28.8237923,16.8 28.4924215,16.8 L18.825878,16.8 C18.4945072,16.8 18.225878,16.5313708 18.225878,16.2 C18.225878,15.8686292 18.4945072,15.6 18.825878,15.6 Z M17.6,17.4 L29.7182995,17.4 C31.7065246,17.4 33.3182995,19.0117749 33.3182995,21 L33.3182995,26.4 C33.3182995,28.3882251 31.7065246,30 29.7182995,30 L17.6,30 L17.6,30 C15.6117749,30 14,28.3882251 14,26.4 L14,21 C14,19.0117749 15.6117749,17.4 17.6,17.4 L17.6,17.4 Z"/>
</svg>
