<svg xmlns="http://www.w3.org/2000/svg" width="48" height="30" viewBox="0 0 48 30">
  <path fill-rule="evenodd" d="M17.0348089,21.0885976 C16.1996372,21.3894924 15.5409701,21.6084639 15.0588077,21.7455123 C12.7066351,22.4140866 10.8507728,22.6136231 10.2841969,22.4639848 C8.95451936,22.1128038 9.37537952,21.0673045 9.51174482,20.9326862 C10.5200945,19.9372547 11.2414441,19.4693569 11.8596877,18.65512 C12.0170284,18.4478998 12.1557671,18.2264599 12.2759026,17.9907992 L12.2760938,17.9904239 C12.3126947,17.9185893 12.2961984,17.8311029 12.2359506,17.7775301 C10.233588,15.9970157 9,13.5638907 9,10.8810357 C9,5.42389036 14.1039539,1 20.4,1 C25.5508452,1 29.9038224,3.96091235 31.3169522,8.02616038 C35.7880107,9.36208429 39,13.0409583 39,17.370074 C39,20.0977823 37.7248198,22.5673405 35.6629776,24.3553218 C35.7964365,24.6378768 35.9555487,24.9008217 36.1403123,25.1441584 C36.7585559,25.9583952 37.7799055,26.7212494 38.7882552,27.7166808 C38.9246205,27.8512991 39.0454806,28.6018421 37.7158031,28.9530231 C37.1492272,29.1026614 35.2933649,28.903125 32.9411923,28.2345506 C32.2292514,28.0321907 31.1324908,27.6512199 29.6509104,27.0916382 C28.9856033,27.1963981 28.3001731,27.2511097 27.6,27.2511097 C22.8215237,27.2511097 18.7297252,24.7028281 17.0348089,21.0885976 L17.0348089,21.0885976 Z M18.0790512,19.5467456 C19.0723847,19.7110776 19.8460343,19.7932436 20.4,19.7932436 C26.0333044,19.7932436 30.6,15.8503456 30.6,10.9865344 C30.6,6.12272318 26.0333044,2.17982515 20.4,2.17982515 C14.7666956,2.17982515 10.2,6.12272318 10.2,10.9865344 C10.2,13.5484953 11.4536919,15.832944 13.4752253,17.4405148 C13.6210131,17.5564486 13.6655514,17.7587147 13.5819429,17.9251609 C13.5740009,17.9409751 13.5658828,17.9570882 13.55759,17.9735007 C13.2679849,18.5466636 12.5676574,19.4299171 12.1197227,19.9074485 C11.5155116,20.5515821 10.4181509,21.3098182 10.8494868,21.4232974 C11.3564231,21.5566661 13.0657613,21.1984827 15.1703368,20.6025998 C15.4876198,20.5127653 16.219744,20.1943968 17.3667094,19.6474942 C17.5882636,19.5418451 17.836888,19.5066833 18.0790512,19.5467456 Z"/>
</svg>
