<svg xmlns="http://www.w3.org/2000/svg" width="48" height="30" viewBox="0 0 48 30">
  <path fill-rule="evenodd" d="M17.1519103,21.0885976 C16.3307798,21.3894924 15.6831865,21.6084639 15.2091304,21.7455123 C12.8965034,22.4140866 11.0718425,22.6136231 10.5147921,22.4639848 C9.20746957,22.1128038 9.62125408,21.0673045 9.75532675,20.9326862 C10.7467237,19.9372547 11.4559457,19.4693569 12.0637951,18.65512 C12.2184906,18.4478998 12.3548967,18.2264599 12.4730124,17.9907992 L12.4736059,17.9896143 L12.4735925,17.9896076 C12.5094339,17.9179844 12.4931324,17.8312525 12.4337321,17.7775301 C10.465034,15.9970157 9.25218557,13.5638907 9.25218557,10.8810357 C9.25218557,5.42389036 14.2703299,1 20.4605245,1 C25.5247718,1 29.8045652,3.96091235 31.1939369,8.02616038 C35.5898262,9.36208429 38.7478144,13.0409583 38.7478144,17.370074 C38.7478144,20.0977823 37.494073,22.5673405 35.4668953,24.3553218 C35.5981104,24.6378768 35.7545476,24.9008217 35.9362049,25.1441584 C36.5440543,25.9583952 37.5482326,26.7212494 38.5396295,27.7166808 C38.6737022,27.8512991 38.7925304,28.6018421 37.4852079,28.9530231 C36.9281575,29.1026614 35.1034966,28.903125 32.7908696,28.2345506 C32.0908982,28.0321907 31.0125767,27.6512199 29.5559052,27.0916382 C28.9017835,27.1963981 28.227877,27.2511097 27.5394755,27.2511097 C22.8413367,27.2511097 18.818331,24.7028281 17.1519103,21.0885976 L17.1519103,21.0885976 Z M18.1842315,19.5476933 C19.158156,19.7113935 19.9169203,19.7932436 20.4605245,19.7932436 C25.9991198,19.7932436 30.4890383,15.8503456 30.4890383,10.9865344 C30.4890383,6.12272318 25.9991198,2.17982515 20.4605245,2.17982515 C14.9219293,2.17982515 10.4320107,6.12272318 10.4320107,10.9865344 C10.4320107,13.5484953 11.6646251,15.832944 13.6521717,17.4405148 C13.7959922,17.5568399 13.8399867,17.757307 13.7580945,17.923167 C13.7499598,17.9396162 13.741649,17.9563958 13.7331517,17.9735007 C13.4484155,18.5466636 12.7598622,19.4299171 12.3194584,19.9074485 C11.7254055,20.5515821 10.6464939,21.3098182 11.0705781,21.4232974 C11.5689916,21.5566661 13.2495918,21.1984827 15.3187843,20.6025998 C15.6303324,20.5128807 16.3487,20.1952143 17.4738873,19.6496006 C17.6943434,19.5426979 17.9426125,19.5070812 18.1842315,19.5476933 Z"/>
</svg>
