<svg xmlns="http://www.w3.org/2000/svg" width="48" height="30" viewBox="0 0 48 30">
  <path fill-rule="evenodd" d="M31.5352754,9.3508396 C31.6232221,9.8495465 31.6688635,10.3605922 31.6688635,10.8810357 C31.6688635,12.2222849 31.365732,13.5011183 30.816571,14.6671957 C30.974776,14.7730031 31.0789509,14.9532868 31.0789509,15.1579018 C31.0789509,15.4837016 30.8148381,15.7478144 30.4890383,15.7478144 C30.4038022,15.7478144 30.3227883,15.729737 30.2496214,15.6972071 C29.9715918,16.1354589 29.6567918,16.5531217 29.3089031,16.94695 C29.2992201,17.2480323 29.0639219,17.4921236 28.7665444,17.5156879 C28.3824336,17.8891873 27.9663569,18.2366657 27.5221213,18.5547668 C27.5334587,18.6004343 27.5394755,18.6482032 27.5394755,18.6973773 C27.5394755,19.023177 27.2753626,19.2872899 26.9495629,19.2872899 C26.8108389,19.2872899 26.6832989,19.2394058 26.5825695,19.1592644 C26.1068032,19.433271 25.6059677,19.6762634 25.0837563,19.8849859 C25.1150207,19.8798652 25.147112,19.8772025 25.1798252,19.8772025 C25.5056249,19.8772025 25.7697377,20.1413153 25.7697377,20.467115 C25.7697377,20.7929148 25.5056249,21.0570276 25.1798252,21.0570276 C24.8540254,21.0570276 24.5899126,20.7929148 24.5899126,20.467115 C24.5899126,20.2599521 24.6966981,20.0777302 24.8582276,19.972491 C24.020805,20.2877141 23.1309915,20.5156439 22.2035,20.6433097 C22.1285706,20.8830458 21.904778,21.0570276 21.6403497,21.0570276 C21.4151261,21.0570276 21.2193819,20.9308112 21.119991,20.7452521 C20.9017851,20.7564132 20.6819044,20.7620713 20.4605245,20.7620713 C19.772123,20.7620713 19.0982165,20.7073597 18.4440948,20.6025998 C18.362418,20.633976 18.2819307,20.6647907 18.2026329,20.6950439 C18.8207194,22.0812725 19.8245531,23.2965465 21.097619,24.2381486 C21.0672479,24.167056 21.0504371,24.0887864 21.0504371,24.0065905 C21.0504371,23.6807908 21.31455,23.4166779 21.6403497,23.4166779 C21.9661494,23.4166779 22.2302623,23.6807908 22.2302623,24.0065905 C22.2302623,24.3323902 21.9661494,24.5965031 21.6403497,24.5965031 C21.6317718,24.5965031 21.6232367,24.59632 21.6147481,24.5959575 C22.0520051,24.8786665 22.5162136,25.1308853 23.0033434,25.3490608 C23.109177,25.24828 23.2524076,25.1864157 23.4100874,25.1864157 C23.7224025,25.1864157 23.9780313,25.429118 23.998657,25.7362056 C24.8262243,26.0115839 25.7059589,26.193237 26.6212042,26.266481 C26.4634628,26.160599 26.3596503,25.980587 26.3596503,25.7763282 C26.3596503,25.4505285 26.6237632,25.1864157 26.9495629,25.1864157 C27.2753626,25.1864157 27.5394755,25.4505285 27.5394755,25.7763282 C27.5394755,26.0031215 27.4114936,26.200023 27.2238116,26.298751 C27.3286357,26.3016083 27.4338649,26.3030475 27.5394755,26.3030475 C28.336144,26.3030475 29.3580014,26.1370372 29.9611078,26.0398407 C29.9214439,25.9605309 29.8991258,25.8710359 29.8991258,25.7763282 C29.8991258,25.4505285 30.1632386,25.1864157 30.4890383,25.1864157 C30.8148381,25.1864157 31.0789509,25.4505285 31.0789509,25.7763282 C31.0789509,26.0077065 30.945742,26.2079722 30.7518314,26.304618 C31.4700052,26.6113586 31.7730987,26.7980459 32.2258344,26.9570576 C32.2367386,26.9564574 32.2477219,26.9561534 32.2587761,26.9561534 C32.4034783,26.9561534 32.5360119,27.0082535 32.6386415,27.0947183 C33.45718,27.3633602 34.23354,27.5947476 35.2847299,27.8366066 C35.2361023,27.7508436 35.208339,27.651697 35.208339,27.546066 C35.208339,27.2202662 35.4724518,26.9561534 35.7982515,26.9561534 C36.1240513,26.9561534 36.3881641,27.2202662 36.3881641,27.546066 C36.3881641,27.730779 36.3032689,27.8956637 36.1703683,28.0038303 C36.6487859,28.0683545 37.0573904,28.0741342 37.3961818,28.0211693 C37.4206662,28.0173416 37.442445,28.0034762 37.4562742,27.9829119 C37.4836971,27.9421334 37.4728703,27.8868453 37.4320918,27.8594224 L37.4318173,27.8598306 C36.3791854,27.1519519 35.538724,26.4057516 34.9104331,25.6212297 C33.9155312,24.3789352 34.1258547,24.2006772 34.1874966,24.1463087 C35.5673967,22.9292297 36.8042845,21.1078584 37.3170901,19.2314289 C37.1167536,19.1371463 36.9780767,18.9334566 36.9780767,18.6973773 C36.9780767,18.3834307 37.2233215,18.126764 37.5326847,18.1085037 C37.5559238,17.8920395 37.5679893,17.6762975 37.5679893,17.4621209 C37.5679893,15.9502452 37.1375133,14.5270062 36.3787213,13.282466 C36.3849249,13.3167588 36.3881641,13.3520832 36.3881641,13.3881641 C36.3881641,13.7139638 36.1240513,13.9780767 35.7982515,13.9780767 C35.4724518,13.9780767 35.208339,13.7139638 35.208339,13.3881641 C35.208339,13.0623644 35.4724518,12.7982515 35.7982515,12.7982515 C35.9225707,12.7982515 36.0379081,12.8367076 36.1330167,12.9023729 C35.314323,11.7057903 34.1831459,10.6940957 32.839113,9.95511872 C32.7890063,10.2301179 32.5482381,10.4386012 32.2587761,10.4386012 C31.9329764,10.4386012 31.6688635,10.1744884 31.6688635,9.84868866 C31.6688635,9.70072598 31.7233379,9.56548648 31.8133253,9.46193157 C31.7213987,9.42369821 31.6287068,9.38665998 31.5352754,9.3508396 L31.5352754,9.3508396 Z M31.1939369,8.02616038 C35.5898262,9.36208429 38.7478144,13.0409583 38.7478144,17.370074 C38.7478144,20.0977823 37.494073,22.5673405 35.4668953,24.3553218 C35.5981104,24.6378768 35.7545476,24.9008217 35.9362049,25.1441584 C36.5440543,25.9583952 37.5482326,26.7212494 38.5396295,27.7166808 C38.6737022,27.8512991 38.7925304,28.6018421 37.4852079,28.9530231 C36.9281575,29.1026614 35.1034966,28.903125 32.7908696,28.2345506 C32.6732787,28.2005554 32.5450101,28.1615194 32.4060636,28.1174427 C32.3589841,28.1295433 32.3096316,28.1359785 32.2587761,28.1359785 C32.0732346,28.1359785 31.9076998,28.0503201 31.7995599,27.9163917 C31.1925051,27.7079567 30.4446202,27.4330389 29.5559052,27.0916382 C28.9017835,27.1963981 28.227877,27.2511097 27.5394755,27.2511097 C22.8413367,27.2511097 18.818331,24.7028281 17.1519103,21.0885976 C16.3307798,21.3894924 15.6831865,21.6084639 15.2091304,21.7455123 C12.8965034,22.4140866 11.0718425,22.6136231 10.5147921,22.4639848 C9.20746957,22.1128038 9.62125408,21.0673045 9.75532675,20.9326862 C10.7467237,19.9372547 11.4559457,19.4693569 12.0637951,18.65512 C12.2184906,18.4478998 12.3548967,18.2264599 12.4730124,17.9907992 L12.4736059,17.9896143 L12.4735925,17.9896076 C12.5094339,17.9179844 12.4931324,17.8312525 12.4337321,17.7775301 C10.465034,15.9970157 9.25218557,13.5638907 9.25218557,10.8810357 C9.25218557,5.42389036 14.2703299,1 20.4605245,1 C25.5247718,1 29.8045652,3.96091235 31.1939369,8.02616038 Z M28.7193006,21.0570276 C28.3935009,21.0570276 28.129388,20.7929148 28.129388,20.467115 C28.129388,20.1413153 28.3935009,19.8772025 28.7193006,19.8772025 C29.0451003,19.8772025 29.3092132,20.1413153 29.3092132,20.467115 C29.3092132,20.7929148 29.0451003,21.0570276 28.7193006,21.0570276 Z M32.2587761,21.0570276 C31.9329764,21.0570276 31.6688635,20.7929148 31.6688635,20.467115 C31.6688635,20.1413153 31.9329764,19.8772025 32.2587761,19.8772025 C32.5845758,19.8772025 32.8486887,20.1413153 32.8486887,20.467115 C32.8486887,20.7929148 32.5845758,21.0570276 32.2587761,21.0570276 Z M35.7982515,21.0570276 C35.4724518,21.0570276 35.208339,20.7929148 35.208339,20.467115 C35.208339,20.1413153 35.4724518,19.8772025 35.7982515,19.8772025 C36.1240513,19.8772025 36.3881641,20.1413153 36.3881641,20.467115 C36.3881641,20.7929148 36.1240513,21.0570276 35.7982515,21.0570276 Z M23.4100874,22.8267653 C23.0842877,22.8267653 22.8201748,22.5626525 22.8201748,22.2368528 C22.8201748,21.9110531 23.0842877,21.6469402 23.4100874,21.6469402 C23.7358871,21.6469402 24,21.9110531 24,22.2368528 C24,22.5626525 23.7358871,22.8267653 23.4100874,22.8267653 Z M19.870612,22.8267653 C19.5448122,22.8267653 19.2806994,22.5626525 19.2806994,22.2368528 C19.2806994,21.9110531 19.5448122,21.6469402 19.870612,21.6469402 C20.1964117,21.6469402 20.4605245,21.9110531 20.4605245,22.2368528 C20.4605245,22.5626525 20.1964117,22.8267653 19.870612,22.8267653 Z M30.4890383,22.8267653 C30.1632386,22.8267653 29.8991258,22.5626525 29.8991258,22.2368528 C29.8991258,21.9110531 30.1632386,21.6469402 30.4890383,21.6469402 C30.8148381,21.6469402 31.0789509,21.9110531 31.0789509,22.2368528 C31.0789509,22.5626525 30.8148381,22.8267653 30.4890383,22.8267653 Z M34.0285138,22.8267653 C33.7027141,22.8267653 33.4386012,22.5626525 33.4386012,22.2368528 C33.4386012,21.9110531 33.7027141,21.6469402 34.0285138,21.6469402 C34.3543135,21.6469402 34.6184264,21.9110531 34.6184264,22.2368528 C34.6184264,22.5626525 34.3543135,22.8267653 34.0285138,22.8267653 Z M26.9495629,22.8267653 C26.6237632,22.8267653 26.3596503,22.5626525 26.3596503,22.2368528 C26.3596503,21.9110531 26.6237632,21.6469402 26.9495629,21.6469402 C27.2753626,21.6469402 27.5394755,21.9110531 27.5394755,22.2368528 C27.5394755,22.5626525 27.2753626,22.8267653 26.9495629,22.8267653 Z M25.1798252,24.5965031 C24.8540254,24.5965031 24.5899126,24.3323902 24.5899126,24.0065905 C24.5899126,23.6807908 24.8540254,23.4166779 25.1798252,23.4166779 C25.5056249,23.4166779 25.7697377,23.6807908 25.7697377,24.0065905 C25.7697377,24.3323902 25.5056249,24.5965031 25.1798252,24.5965031 Z M32.2587761,24.5965031 C31.9329764,24.5965031 31.6688635,24.3323902 31.6688635,24.0065905 C31.6688635,23.6807908 31.9329764,23.4166779 32.2587761,23.4166779 C32.5845758,23.4166779 32.8486887,23.6807908 32.8486887,24.0065905 C32.8486887,24.3323902 32.5845758,24.5965031 32.2587761,24.5965031 Z M28.7193006,24.5965031 C28.3935009,24.5965031 28.129388,24.3323902 28.129388,24.0065905 C28.129388,23.6807908 28.3935009,23.4166779 28.7193006,23.4166779 C29.0451003,23.4166779 29.3092132,23.6807908 29.3092132,24.0065905 C29.3092132,24.3323902 29.0451003,24.5965031 28.7193006,24.5965031 Z M34.0285138,26.3662408 C33.7027141,26.3662408 33.4386012,26.102128 33.4386012,25.7763282 C33.4386012,25.4505285 33.7027141,25.1864157 34.0285138,25.1864157 C34.3543135,25.1864157 34.6184264,25.4505285 34.6184264,25.7763282 C34.6184264,26.102128 34.3543135,26.3662408 34.0285138,26.3662408 Z M30.4890383,19.2872899 C30.1632386,19.2872899 29.8991258,19.023177 29.8991258,18.6973773 C29.8991258,18.3715776 30.1632386,18.1074647 30.4890383,18.1074647 C30.8148381,18.1074647 31.0789509,18.3715776 31.0789509,18.6973773 C31.0789509,19.023177 30.8148381,19.2872899 30.4890383,19.2872899 Z M34.0285138,19.2872899 C33.7027141,19.2872899 33.4386012,19.023177 33.4386012,18.6973773 C33.4386012,18.3715776 33.7027141,18.1074647 34.0285138,18.1074647 C34.3543135,18.1074647 34.6184264,18.3715776 34.6184264,18.6973773 C34.6184264,19.023177 34.3543135,19.2872899 34.0285138,19.2872899 Z M32.2587761,17.5175522 C31.9329764,17.5175522 31.6688635,17.2534393 31.6688635,16.9276396 C31.6688635,16.6018399 31.9329764,16.337727 32.2587761,16.337727 C32.5845758,16.337727 32.8486887,16.6018399 32.8486887,16.9276396 C32.8486887,17.2534393 32.5845758,17.5175522 32.2587761,17.5175522 Z M35.7982515,17.5175522 C35.4724518,17.5175522 35.208339,17.2534393 35.208339,16.9276396 C35.208339,16.6018399 35.4724518,16.337727 35.7982515,16.337727 C36.1240513,16.337727 36.3881641,16.6018399 36.3881641,16.9276396 C36.3881641,17.2534393 36.1240513,17.5175522 35.7982515,17.5175522 Z M34.0285138,15.7478144 C33.7027141,15.7478144 33.4386012,15.4837016 33.4386012,15.1579018 C33.4386012,14.8321021 33.7027141,14.5679893 34.0285138,14.5679893 C34.3543135,14.5679893 34.6184264,14.8321021 34.6184264,15.1579018 C34.6184264,15.4837016 34.3543135,15.7478144 34.0285138,15.7478144 Z M32.2587761,13.9780767 C31.9329764,13.9780767 31.6688635,13.7139638 31.6688635,13.3881641 C31.6688635,13.0623644 31.9329764,12.7982515 32.2587761,12.7982515 C32.5845758,12.7982515 32.8486887,13.0623644 32.8486887,13.3881641 C32.8486887,13.7139638 32.5845758,13.9780767 32.2587761,13.9780767 Z M34.0285138,12.208339 C33.7027141,12.208339 33.4386012,11.9442261 33.4386012,11.6184264 C33.4386012,11.2926267 33.7027141,11.0285138 34.0285138,11.0285138 C34.3543135,11.0285138 34.6184264,11.2926267 34.6184264,11.6184264 C34.6184264,11.9442261 34.3543135,12.208339 34.0285138,12.208339 Z M18.1842315,19.5476933 C19.158156,19.7113935 19.9169203,19.7932436 20.4605245,19.7932436 C25.9991198,19.7932436 30.4890383,15.8503456 30.4890383,10.9865344 C30.4890383,6.12272318 25.9991198,2.17982515 20.4605245,2.17982515 C14.9219293,2.17982515 10.4320107,6.12272318 10.4320107,10.9865344 C10.4320107,13.5484953 11.6646251,15.832944 13.6521717,17.4405148 C13.7959922,17.5568399 13.8399867,17.757307 13.7580945,17.923167 C13.7499598,17.9396162 13.741649,17.9563958 13.7331517,17.9735007 C13.4484155,18.5466636 12.7598622,19.4299171 12.3194584,19.9074485 C11.7254055,20.5515821 10.6464939,21.3098182 11.0705781,21.4232974 C11.5689916,21.5566661 13.2495918,21.1984827 15.3187843,20.6025998 C15.6303324,20.5128807 16.3487,20.1952143 17.4738873,19.6496006 C17.6943434,19.5426979 17.9426125,19.5070812 18.1842315,19.5476933 Z"/>
</svg>
