<svg xmlns="http://www.w3.org/2000/svg" width="48" height="30" viewBox="0 0 48 30">
  <path fill-rule="evenodd" d="M19.7126994,20.068059 C20.0509735,20.068059 20.3251988,20.3399115 20.3251988,20.6805259 C20.3251988,21.018782 20.0526332,21.2929927 19.7126994,21.2929927 L14.5067636,21.2929927 C11.2933306,21.2929927 8.68832842,18.6879905 8.68832842,15.4745575 C8.68832842,13.0077003 10.2235024,10.8994022 12.390598,10.0529156 C12.651141,7.59224816 14.7331144,5.67508771 17.2628645,5.67508771 C18.0447628,5.67508771 18.7838845,5.85823637 19.4396697,6.18397395 C20.7852032,3.69279527 23.419882,2.00028653 26.4498675,2.00028653 C30.8471969,2.00028653 34.4119367,5.56502634 34.4119367,9.96235575 C34.4119367,10.0759592 34.4095575,10.1890071 34.4048461,10.301452 C37.1643297,10.6028929 39.3116716,12.9410727 39.3116716,15.7807909 C39.3116716,18.8250959 36.8437748,21.2929927 33.7994698,21.2929927 L28.2873006,21.2929927 C27.9490265,21.2929927 27.6748012,21.0211402 27.6748012,20.6805259 C27.6748012,20.3422697 27.9473668,20.068059 28.2873006,20.068059 L33.7994698,20.068059 C36.1672626,20.068059 38.0867379,18.1485837 38.0867379,15.7807909 C38.0867379,13.4129982 36.1672626,11.4935229 33.7994698,11.4935229 C33.5242307,11.4935229 33.2550493,11.5194597 32.9942367,11.5690224 C33.1202081,11.0541464 33.1870029,10.5160515 33.1870029,9.96235575 C33.1870029,6.24153856 30.1706846,3.22522025 26.4498675,3.22522025 C23.3769175,3.22522025 20.7844911,5.28258584 19.9748711,8.09503404 C19.3029716,7.36062093 18.3367074,6.90002143 17.2628645,6.90002143 C15.2333279,6.90002143 13.5880633,8.54528596 13.5880633,10.5748226 C13.5880633,10.707905 13.5951376,10.8393351 13.6089292,10.9687577 C11.5018473,11.3862649 9.91326214,13.2448942 9.91326214,15.4745575 C9.91326214,18.0114783 11.9698428,20.068059 14.5067636,20.068059 L19.7126994,20.068059 Z M23.3875331,15.1656428 C23.3875331,14.8288675 23.6593856,14.5558572 24,14.5558572 C24.3382561,14.5558572 24.6124669,14.8314359 24.6124669,15.1656428 L24.6124669,25.9082575 L26.5995402,23.9211842 C26.8381361,23.6825883 27.223785,23.6813968 27.4646358,23.9222476 C27.703819,24.1614308 27.7044269,24.5486153 27.4656991,24.7873431 L24.4320161,27.8210262 C24.3128937,27.9401486 24.1571162,28.0000944 23.9996655,27.9997117 C23.8433625,27.9997436 23.687171,27.9402133 23.5679839,27.8210262 L20.5343009,24.7873431 C20.2957049,24.5487472 20.2945135,24.1630983 20.5353642,23.9222476 C20.7745474,23.6830644 21.161732,23.6824564 21.4004598,23.9211842 L23.3875331,25.9082575 L23.3875331,15.1656428 Z"/>
</svg>
