<svg xmlns="http://www.w3.org/2000/svg" width="48" height="30" viewBox="0 0 48 30">
  <path fill-rule="evenodd" d="M19.7999681,20.3732411 C20.1313566,20.3732411 20.4,20.6346434 20.4,20.9621645 C20.4,21.2874179 20.1329825,21.5510879 19.7999681,21.5510879 L14.7,21.5510879 C11.5519769,21.5510879 9,19.0462229 9,15.9563154 C9,13.584285 10.5039253,11.5570306 12.6269093,10.7430832 C12.8821489,8.3770047 14.9217433,6.53354055 17.4,6.53354055 C18.1659826,6.53354055 18.8900593,6.70964892 19.532496,7.02286504 C20.8506409,4.62744812 23.4316904,3 26.4,3 C30.707821,3 34.2,6.42770998 34.2,10.6560045 C34.2,10.7652411 34.1976692,10.8739433 34.1930538,10.9820659 C36.8963676,11.2719192 39,13.5202185 39,16.2507771 C39,19.1780579 36.5823376,21.5510879 33.6,21.5510879 L28.2000319,21.5510879 C27.8686434,21.5510879 27.6,21.2896855 27.6,20.9621645 C27.6,20.6369111 27.8670175,20.3732411 28.2000319,20.3732411 L33.6,20.3732411 C35.9195959,20.3732411 37.8,18.5275511 37.8,16.2507771 C37.8,13.9740031 35.9195959,12.1283131 33.6,12.1283131 C33.3303634,12.1283131 33.0666613,12.1532528 32.8111575,12.2009103 C32.9345648,11.7058264 33,11.188416 33,10.6560045 C33,7.07821684 30.0450793,4.17784685 26.4,4.17784685 C23.3896005,4.17784685 20.8499433,6.15612659 20.0568032,8.86046332 C19.3985804,8.1542813 18.4519847,7.7113874 17.4,7.7113874 C15.4117749,7.7113874 13.8,9.2934074 13.8,11.244928 C13.8,11.3728946 13.8069303,11.4992725 13.8204412,11.6237201 C11.7562492,12.0251781 10.2,13.8123611 10.2,15.9563154 C10.2,18.3957161 12.2147186,20.3732411 14.7,20.3732411 L19.7999681,20.3732411 Z M23.4,15.6592754 C23.4,15.3354459 23.6663189,15.0729302 24,15.0729302 C24.3313708,15.0729302 24.6,15.3379156 24.6,15.6592754 L24.6,25.9889403 L26.5466261,24.0782508 C26.7803654,23.8488266 27.1581644,23.8476809 27.3941125,24.0792733 C27.6284271,24.3092622 27.6290227,24.6815633 27.3951543,24.9111143 L24.4232224,27.8281815 C24.3065247,27.9427248 24.1539181,28.0003663 23.9996723,27.9999982 C23.8465509,28.000029 23.6935387,27.942787 23.5767776,27.8281815 L20.6048457,24.9111143 C20.3711065,24.6816901 20.3699393,24.3108656 20.6058875,24.0792733 C20.840202,23.8492844 21.2195054,23.8486998 21.4533739,24.0782508 L23.4,25.9889403 L23.4,15.6592754 Z"/>
</svg>
