<svg xmlns="http://www.w3.org/2000/svg" width="48" height="30" viewBox="0 0 48 30">
  <path fill-rule="evenodd" d="M23.3875331,21.2927062 L14.5067636,21.2927062 C11.2933306,21.2927062 8.68832842,18.687704 8.68832842,15.474271 C8.68832842,13.0074138 10.2235024,10.8991157 12.390598,10.052629 C12.651141,7.59196163 14.7331144,5.67480118 17.2628645,5.67480118 C18.0447628,5.67480118 18.7838845,5.85794984 19.4396697,6.18368743 C20.7852032,3.69250874 23.419882,2 26.4498675,2 C30.8471969,2 34.4119367,5.56473981 34.4119367,9.96206922 C34.4119367,10.0756727 34.4095575,10.1887205 34.4048461,10.3011655 C37.1643297,10.6026064 39.3116716,12.9407861 39.3116716,15.7805044 C39.3116716,18.8248094 36.8437748,21.2927062 33.7994698,21.2927062 L24.6124669,21.2927062 L24.6124669,15.2761941 C24.6124669,14.8775546 24.3382561,14.5555707 24,14.5555707 C23.6593856,14.5555707 23.3875331,14.8782048 23.3875331,15.2761941 L23.3875331,21.2927062 L23.3875331,21.2927062 Z M23.3875331,25.907971 L23.3875331,21.2927062 L24.6124669,21.2927062 L24.6124669,25.907971 L26.5995402,23.9208977 C26.8381361,23.6823018 27.223785,23.6811103 27.4646358,23.921961 C27.703819,24.1611442 27.7044269,24.5483288 27.4656991,24.7870566 L24.4320161,27.8207397 C24.3128937,27.939862 24.1571162,27.9998079 24.0010041,28 C23.8433625,27.9994571 23.687171,27.9399268 23.5679839,27.8207397 L20.5343009,24.7870566 C20.2957049,24.5484607 20.2945135,24.1628118 20.5353642,23.921961 C20.7745474,23.6827779 21.161732,23.6821699 21.4004598,23.9208977 L23.3875331,25.907971 Z"/>
</svg>
