<svg xmlns="http://www.w3.org/2000/svg" width="48" height="30" viewBox="0 0 48 30">
  <path fill-rule="evenodd" d="M16.7723585,4.04347826 C17.0426454,2.99333996 17.9959238,2.2173913 19.1304348,2.2173913 C20.4751281,2.2173913 21.5652174,3.30748061 21.5652174,4.65217391 C21.5652174,5.99686722 20.4751281,7.08695652 19.1304348,7.08695652 C17.9959238,7.08695652 17.0426454,6.31100787 16.7723585,5.26086957 L10.6086957,5.26086957 C10.2725223,5.26086957 10,4.98834724 10,4.65217391 C10,4.31600059 10.2725223,4.04347826 10.6086957,4.04347826 L16.7723585,4.04347826 L16.7723585,4.04347826 Z M14.9462715,24.7391304 C15.2165584,23.6889921 16.1698369,22.9130435 17.3043478,22.9130435 C18.6490411,22.9130435 19.7391304,24.0031328 19.7391304,25.3478261 C19.7391304,26.6925194 18.6490411,27.7826087 17.3043478,27.7826087 C16.1698369,27.7826087 15.2165584,27.00666 14.9462715,25.9565217 L10.6086957,25.9565217 C10.2725223,25.9565217 10,25.6839994 10,25.3478261 C10,25.0116528 10.2725223,24.7391304 10.6086957,24.7391304 L14.9462715,24.7391304 L14.9462715,24.7391304 Z M27.7288802,14.3913043 C27.9991671,13.341166 28.9524456,12.5652174 30.0869565,12.5652174 C31.4316498,12.5652174 32.5217391,13.6553067 32.5217391,15 C32.5217391,16.3446933 31.4316498,17.4347826 30.0869565,17.4347826 C28.9524456,17.4347826 27.9991671,16.658834 27.7288802,15.6086957 L10.6086957,15.6086957 C10.2725223,15.6086957 10,15.3361733 10,15 C10,14.6638267 10.2725223,14.3913043 10.6086957,14.3913043 L27.7288802,14.3913043 L27.7288802,14.3913043 Z M33.688634,14.3913043 L37.3913043,14.3913043 C37.7274777,14.3913043 38,14.6638267 38,15 C38,15.3361733 37.7274777,15.6086957 37.3913043,15.6086957 L33.688634,15.6086957 C33.7218442,15.4107427 33.7391304,15.20739 33.7391304,15 C33.7391304,14.79261 33.7218442,14.5892573 33.688634,14.3913043 L33.688634,14.3913043 Z M22.7321123,4.04347826 L37.3913043,4.04347826 C37.7274777,4.04347826 38,4.31600059 38,4.65217391 C38,4.98834724 37.7274777,5.26086957 37.3913043,5.26086957 L22.7321123,5.26086957 C22.7653225,5.06291658 22.7826087,4.85956395 22.7826087,4.65217391 C22.7826087,4.44478387 22.7653225,4.24143124 22.7321123,4.04347826 L22.7321123,4.04347826 Z M20.9060253,24.7391304 L37.3913043,24.7391304 C37.7274777,24.7391304 38,25.0116528 38,25.3478261 C38,25.6839994 37.7274777,25.9565217 37.3913043,25.9565217 L20.9060253,25.9565217 C20.9392355,25.7585688 20.9565217,25.5552161 20.9565217,25.3478261 C20.9565217,25.140436 20.9392355,24.9370834 20.9060253,24.7391304 L20.9060253,24.7391304 Z M30.0869565,16.2173913 C30.7593032,16.2173913 31.3043478,15.6723467 31.3043478,15 C31.3043478,14.3276533 30.7593032,13.7826087 30.0869565,13.7826087 C29.4146099,13.7826087 28.8695652,14.3276533 28.8695652,15 C28.8695652,15.6723467 29.4146099,16.2173913 30.0869565,16.2173913 Z M17.3043478,26.5652174 C17.9766945,26.5652174 18.5217391,26.0201727 18.5217391,25.3478261 C18.5217391,24.6754794 17.9766945,24.1304348 17.3043478,24.1304348 C16.6320012,24.1304348 16.0869565,24.6754794 16.0869565,25.3478261 C16.0869565,26.0201727 16.6320012,26.5652174 17.3043478,26.5652174 Z M19.1304348,5.86956522 C19.8027814,5.86956522 20.3478261,5.32452056 20.3478261,4.65217391 C20.3478261,3.97982726 19.8027814,3.43478261 19.1304348,3.43478261 C18.4580881,3.43478261 17.9130435,3.97982726 17.9130435,4.65217391 C17.9130435,5.32452056 18.4580881,5.86956522 19.1304348,5.86956522 Z"/>
</svg>
