<svg xmlns="http://www.w3.org/2000/svg" width="48" height="30" viewBox="0 0 48 30">
  <path fill-rule="evenodd" d="M16.7723585,4.84615385 C17.0426454,3.78447556 17.9959238,3 19.1304348,3 C20.4751281,3 21.5652174,4.10206831 21.5652174,5.46153846 C21.5652174,6.82100861 20.4751281,7.92307692 19.1304348,7.92307692 C17.9959238,7.92307692 17.0426454,7.13860136 16.7723585,6.07692308 L10.6153846,6.07692308 C10.2755171,6.07692308 10,5.801406 10,5.46153846 C10,5.12167092 10.2755171,4.84615385 10.6153846,4.84615385 L16.7723585,4.84615385 L16.7723585,4.84615385 Z M14.9462715,23.9230769 C15.2165584,22.8613986 16.1698369,22.0769231 17.3043478,22.0769231 C18.6490411,22.0769231 19.7391304,23.1789914 19.7391304,24.5384615 C19.7391304,25.8979317 18.6490411,27 17.3043478,27 C16.1698369,27 15.2165584,26.2155244 14.9462715,25.1538462 L10.6153846,25.1538462 C10.2755171,25.1538462 10,24.8783291 10,24.5384615 C10,24.198594 10.2755171,23.9230769 10.6153846,23.9230769 L14.9462715,23.9230769 L14.9462715,23.9230769 Z M27.7288802,14.3846154 C27.9991671,13.3229371 28.9524456,12.5384615 30.0869565,12.5384615 C31.4316498,12.5384615 32.5217391,13.6405298 32.5217391,15 C32.5217391,16.3594702 31.4316498,17.4615385 30.0869565,17.4615385 C28.9524456,17.4615385 27.9991671,16.6770629 27.7288802,15.6153846 L10.6153846,15.6153846 C10.2755171,15.6153846 10,15.3398675 10,15 C10,14.6601325 10.2755171,14.3846154 10.6153846,14.3846154 L27.7288802,14.3846154 L27.7288802,14.3846154 Z M33.688634,14.3846154 L37.3846154,14.3846154 C37.7244829,14.3846154 38,14.6601325 38,15 C38,15.3398675 37.7244829,15.6153846 37.3846154,15.6153846 L33.688634,15.6153846 C33.7218442,15.4152563 33.7391304,15.2096691 33.7391304,15 C33.7391304,14.7903309 33.7218442,14.5847437 33.688634,14.3846154 L33.688634,14.3846154 Z M22.7321123,4.84615385 L37.3846154,4.84615385 C37.7244829,4.84615385 38,5.12167092 38,5.46153846 C38,5.801406 37.7244829,6.07692308 37.3846154,6.07692308 L22.7321123,6.07692308 C22.7653225,5.87679479 22.7826087,5.67120751 22.7826087,5.46153846 C22.7826087,5.25186941 22.7653225,5.04628214 22.7321123,4.84615385 L22.7321123,4.84615385 Z M20.9060253,23.9230769 L37.3846154,23.9230769 C37.7244829,23.9230769 38,24.198594 38,24.5384615 C38,24.8783291 37.7244829,25.1538462 37.3846154,25.1538462 L20.9060253,25.1538462 C20.9392355,24.9537179 20.9565217,24.7481306 20.9565217,24.5384615 C20.9565217,24.3287925 20.9392355,24.1232052 20.9060253,23.9230769 L20.9060253,23.9230769 Z M30.0869565,16.2307692 C30.7593032,16.2307692 31.3043478,15.6797351 31.3043478,15 C31.3043478,14.3202649 30.7593032,13.7692308 30.0869565,13.7692308 C29.4146099,13.7692308 28.8695652,14.3202649 28.8695652,15 C28.8695652,15.6797351 29.4146099,16.2307692 30.0869565,16.2307692 Z M17.3043478,25.7692308 C17.9766945,25.7692308 18.5217391,25.2181966 18.5217391,24.5384615 C18.5217391,23.8587265 17.9766945,23.3076923 17.3043478,23.3076923 C16.6320012,23.3076923 16.0869565,23.8587265 16.0869565,24.5384615 C16.0869565,25.2181966 16.6320012,25.7692308 17.3043478,25.7692308 Z M19.1304348,6.69230769 C19.8027814,6.69230769 20.3478261,6.14127354 20.3478261,5.46153846 C20.3478261,4.78180338 19.8027814,4.23076923 19.1304348,4.23076923 C18.4580881,4.23076923 17.9130435,4.78180338 17.9130435,5.46153846 C17.9130435,6.14127354 18.4580881,6.69230769 19.1304348,6.69230769 Z"/>
</svg>
