<svg xmlns="http://www.w3.org/2000/svg" width="48" height="30" viewBox="0 0 48 30">
  <path fill-rule="evenodd" d="M17.4525464,5.68292683 C17.8886437,4.69229732 18.8846023,4 20.0434783,4 C21.604283,4 22.8695652,5.25578668 22.8695652,6.80487805 C22.8695652,8.35396942 21.604283,9.6097561 20.0434783,9.6097561 C18.6762412,9.6097561 17.5357717,8.64613481 17.2739233,7.36585366 L11.8414634,7.36585366 L11.8414634,7.36585366 C11.376736,7.36585366 11,6.98911766 11,6.52439024 C11,6.05966283 11.376736,5.68292683 11.8414634,5.68292683 L11.8414634,5.68292683 L17.4525464,5.68292683 Z M23.7876675,5.68292683 L36.1585366,5.68292683 L36.1585366,5.68292683 C36.623264,5.68292683 37,6.05966283 37,6.52439024 L37,6.52439024 C37,6.98911766 36.623264,7.36585366 36.1585366,7.36585366 L23.9114444,7.36585366 C23.9378496,7.18263735 23.951512,6.99534124 23.951512,6.80487805 C23.951512,6.41501536 23.8942682,6.03842235 23.7876675,5.68292683 Z M27.6264595,14.3780488 C28.0625567,13.3874193 29.0585153,12.695122 30.2173913,12.695122 C31.778196,12.695122 33.0434783,13.9509086 33.0434783,15.5 C33.0434783,17.0490914 31.778196,18.304878 30.2173913,18.304878 C28.8501542,18.304878 27.7096848,17.3412568 27.4478363,16.0609756 L11.8414634,16.0609756 C11.376736,16.0609756 11,15.6842396 11,15.2195122 C11,14.7547848 11.376736,14.3780488 11.8414634,14.3780488 L11.8414634,14.3780488 L27.6264595,14.3780488 Z M33.9615806,14.3780488 L36.1585366,14.3780488 L36.1585366,14.3780488 C36.623264,14.3780488 37,14.7547848 37,15.2195122 C37,15.6842396 36.623264,16.0609756 36.1585366,16.0609756 L34.0853574,16.0609756 C34.1117626,15.8777593 34.1254251,15.6904632 34.1254251,15.5 C34.1254251,15.1101373 34.0681812,14.7335443 33.9615806,14.3780488 Z M15.7568943,23.0731707 C16.1929915,22.0825412 17.1889501,21.3902439 18.3478261,21.3902439 C19.9086308,21.3902439 21.173913,22.6460306 21.173913,24.195122 C21.173913,25.7442133 19.9086308,27 18.3478261,27 C16.980589,27 15.8401196,26.0363787 15.5782711,24.7560976 L11.8414634,24.7560976 C11.376736,24.7560976 11,24.3793616 11,23.9146341 C11,23.4499067 11.376736,23.0731707 11.8414634,23.0731707 L11.8414634,23.0731707 L15.7568943,23.0731707 Z M22.0920154,23.0731707 L36.1585366,23.0731707 C36.623264,23.0731707 37,23.4499067 37,23.9146341 L37,23.9146341 C37,24.3793616 36.623264,24.7560976 36.1585366,24.7560976 L22.2157922,24.7560976 C22.2421974,24.5728813 22.2558598,24.3855851 22.2558598,24.195122 C22.2558598,23.8052593 22.198616,23.4286663 22.0920154,23.0731707 Z M18.3478261,25.3170732 C18.972148,25.3170732 19.4782609,24.8147585 19.4782609,24.195122 C19.4782609,23.5754854 18.972148,23.0731707 18.3478261,23.0731707 C17.7235042,23.0731707 17.2173913,23.5754854 17.2173913,24.195122 C17.2173913,24.8147585 17.7235042,25.3170732 18.3478261,25.3170732 Z M30.2173913,16.6219512 C30.8417132,16.6219512 31.3478261,16.1196365 31.3478261,15.5 C31.3478261,14.8803635 30.8417132,14.3780488 30.2173913,14.3780488 C29.5930694,14.3780488 29.0869565,14.8803635 29.0869565,15.5 C29.0869565,16.1196365 29.5930694,16.6219512 30.2173913,16.6219512 Z M20.0434783,7.92682927 C20.6678002,7.92682927 21.173913,7.4245146 21.173913,6.80487805 C21.173913,6.1852415 20.6678002,5.68292683 20.0434783,5.68292683 C19.4191564,5.68292683 18.9130435,6.1852415 18.9130435,6.80487805 C18.9130435,7.4245146 19.4191564,7.92682927 20.0434783,7.92682927 Z"/>
</svg>
