<svg xmlns="http://www.w3.org/2000/svg" width="300" height="300" viewBox="0 0 300 300">
  <g fill="none" fill-rule="evenodd">
    <g fill-rule="nonzero">
      <rect width="300" height="300" fill="#00247D"/>
      <path fill="#000000" stroke="#FFFFFF" stroke-width="60" d="M0,0 L300,300 M300,0 L0,300"/>
      <path fill="#000000" stroke="#CF142B" stroke-width="40" d="M0,0 L300,300 M300,0 L0,300"/>
      <path fill="#FFFFFF" d="M150,150 L150,120 L30,0 L0,0 L150,150 Z M150,150 L180,150 L300,30 L300,0 L150,150 Z M150,150 L150,180 L270,300 L300,300 L150,150 Z M150,150 L120,150 L0,270 L0,300 L150,150 Z"/>
      <path fill="#000000" stroke="#FFFFFF" stroke-width="100" d="M150,0 L150,300 M0,150 L300,150"/>
      <path fill="#000000" stroke="#CF142B" stroke-width="60" d="M150,0 L150,300 M0,150 L300,150"/>
    </g>
  </g>
</svg>
