<svg xmlns="http://www.w3.org/2000/svg" width="30" height="30" viewBox="0 0 30 30">
  <path fill-rule="evenodd" d="M15,0 C23.28125,0 30,6.71875 30,15 C30,23.28125 23.28125,30 15,30 C6.71875,30 0,23.28125 0,15 C0,6.71875 6.71875,0 15,0 Z M22.5,16.0742188 C22.890625,15.859375 23.125,15.4492188 23.125,15 C23.125,14.5507812 22.890625,14.140625 22.5,13.9257812 L11.875,7.67578125 C11.5039062,7.44140625 11.015625,7.44140625 10.625,7.65625 C10.234375,7.890625 10,8.30078125 10,8.75 L10,21.25 C10,21.6992188 10.234375,22.109375 10.625,22.34375 C10.8203125,22.4414062 11.0351562,22.5 11.25,22.5 C11.4648438,22.5 11.6796875,22.4414062 11.875,22.3242188 L22.5,16.0742188 Z"/>
</svg>
