<svg xmlns="http://www.w3.org/2000/svg" width="48" height="30" viewBox="0 0 48 30">
  <path fill-rule="evenodd" d="M13.2711111,21.8095238 L13.2711111,19.952381 L15.2133333,19.952381 C15.5447042,19.952381 15.8133333,19.6837518 15.8133333,19.352381 L15.8133333,19.3142857 C15.8133333,19.2089084 15.7861678,19.109876 15.7384578,19.0238095 C15.6361382,19.208389 15.4393269,19.3333333 15.2133333,19.3333333 L12.6,19.3333333 C12.2686292,19.3333333 12,19.0647042 12,18.7333333 L12,18.6952381 C12,18.3638672 12.2686292,18.0952381 12.6,18.0952381 L12.6,18.0952381 L13.2711111,18.0952381 L13.2711111,16.2380952 L15.2133333,16.2380952 C15.5447042,16.2380952 15.8133333,15.9694661 15.8133333,15.6380952 L15.8133333,15.6380952 L15.8133333,15.6 C15.8133333,15.4946227 15.7861678,15.3955903 15.7384578,15.3095238 C15.6361382,15.4941032 15.4393269,15.6190476 15.2133333,15.6190476 L12.6,15.6190476 L12.6,15.6190476 C12.2686292,15.6190476 12,15.3504185 12,15.0190476 L12,14.9809524 C12,14.6495815 12.2686292,14.3809524 12.6,14.3809524 L12.6,14.3809524 L13.2711111,14.3809524 L13.2711111,12.5238095 L15.2133333,12.5238095 C15.5447042,12.5238095 15.8133333,12.2551804 15.8133333,11.9238095 L15.8133333,11.9238095 L15.8133333,11.8857143 C15.8133333,11.780337 15.7861678,11.6813046 15.7384578,11.5952381 C15.6361382,11.7798175 15.4393269,11.9047619 15.2133333,11.9047619 L12.6,11.9047619 C12.2686292,11.9047619 12,11.6361328 12,11.3047619 L12,11.2666667 L12,11.2666667 C12,10.9352958 12.2686292,10.6666667 12.6,10.6666667 L12.6,10.6666667 L13.2711111,10.6666667 L13.2711111,8.80952381 L15.2133333,8.80952381 C15.5447042,8.80952381 15.8133333,8.54089466 15.8133333,8.20952381 L15.8133333,8.20952381 L15.8133333,8.17142857 C15.8133333,8.0660513 15.7861678,7.96701888 15.7384578,7.88095238 C15.6361382,8.06553181 15.4393269,8.19047619 15.2133333,8.19047619 L12.6,8.19047619 L12.6,8.19047619 C12.2686292,8.19047619 12,7.92184704 12,7.59047619 L12,7.55238095 C12,7.2210101 12.2686292,6.95238095 12.6,6.95238095 L12.6,6.95238095 L13.2711111,6.95238095 L13.2711111,3.5 L13.2711111,3.5 C13.2711111,2.67157288 13.942684,2 14.7711111,2 L14.7711111,2 L33.38,2 L33.38,2 C34.2084271,2 34.88,2.67157288 34.88,3.5 L34.88,26.5 C34.88,27.3284271 34.2084271,28 33.38,28 L14.7711111,28 C13.942684,28 13.2711111,27.3284271 13.2711111,26.5 L13.2711111,23.6666667 L15.2133333,23.6666667 C15.5447042,23.6666667 15.8133333,23.3980375 15.8133333,23.0666667 L15.8133333,23.0666667 L15.8133333,23.0285714 C15.8133333,22.9231942 15.7861678,22.8241617 15.7384578,22.7380952 C15.6361382,22.9226747 15.4393269,23.047619 15.2133333,23.047619 L12.6,23.047619 C12.2686292,23.047619 12,22.7789899 12,22.447619 L12,22.4095238 L12,22.4095238 C12,22.078153 12.2686292,21.8095238 12.6,21.8095238 L12.6,21.8095238 L13.2711111,21.8095238 Z M19.5911111,7.57142857 C19.2597403,7.57142857 18.9911111,7.84005772 18.9911111,8.17142857 L18.9911111,8.17142857 L18.9911111,14.4 C18.9911111,14.7313708 19.2597403,15 19.5911111,15 L29.8311111,15 C30.162482,15 30.4311111,14.7313708 30.4311111,14.4 L30.4311111,8.17142857 C30.4311111,7.84005772 30.162482,7.57142857 29.8311111,7.57142857 L19.5911111,7.57142857 Z M21.5168254,9.42857143 L27.9053968,9.42857143 L27.9053968,9.42857143 C28.2472874,9.42857143 28.5244444,9.70572849 28.5244444,10.047619 C28.5244444,10.3895096 28.2472874,10.6666667 27.9053968,10.6666667 L21.5168254,10.6666667 C21.1749348,10.6666667 20.8977778,10.3895096 20.8977778,10.047619 C20.8977778,9.70572849 21.1749348,9.42857143 21.5168254,9.42857143 Z M21.5168254,11.9047619 L27.9053968,11.9047619 L27.9053968,11.9047619 C28.2472874,11.9047619 28.5244444,12.181919 28.5244444,12.5238095 C28.5244444,12.8657001 28.2472874,13.1428571 27.9053968,13.1428571 L21.5168254,13.1428571 C21.1749348,13.1428571 20.8977778,12.8657001 20.8977778,12.5238095 C20.8977778,12.181919 21.1749348,11.9047619 21.5168254,11.9047619 Z"/>
</svg>
