<svg xmlns="http://www.w3.org/2000/svg" width="48" height="30" viewBox="0 0 48 30">
  <path fill-rule="evenodd" d="M14.1733333,21.2857143 L14.1733333,19.5714286 L15.9485714,19.5714286 C16.2641627,19.5714286 16.52,19.3155913 16.52,19 L16.52,19 C16.52,18.895918 16.4921731,18.7983352 16.443553,18.7142857 C16.3447503,18.8850861 16.1600807,19 15.9485714,19 L13.5714286,19 C13.2558373,19 13,18.7441627 13,18.4285714 C13,18.1129801 13.2558373,17.8571429 13.5714286,17.8571429 L13.5714286,17.8571429 L14.1733333,17.8571429 L14.1733333,16.1428571 L15.9485714,16.1428571 C16.2641627,16.1428571 16.52,15.8870199 16.52,15.5714286 C16.52,15.4673465 16.4921731,15.3697638 16.443553,15.2857143 C16.3447503,15.4565147 16.1600807,15.5714286 15.9485714,15.5714286 L13.5714286,15.5714286 C13.2558373,15.5714286 13,15.3155913 13,15 C13,14.6844087 13.2558373,14.4285714 13.5714286,14.4285714 L13.5714286,14.4285714 L14.1733333,14.4285714 L14.1733333,12.7142857 L15.9485714,12.7142857 C16.2641627,12.7142857 16.52,12.4584484 16.52,12.1428571 C16.52,12.0387751 16.4921731,11.9411924 16.443553,11.8571429 C16.3447503,12.0279432 16.1600807,12.1428571 15.9485714,12.1428571 L13.5714286,12.1428571 C13.2558373,12.1428571 13,11.8870199 13,11.5714286 C13,11.2558373 13.2558373,11 13.5714286,11 L13.5714286,11 L14.1733333,11 L14.1733333,9.28571429 L15.9485714,9.28571429 C16.2641627,9.28571429 16.52,9.029877 16.52,8.71428571 C16.52,8.61020367 16.4921731,8.51262096 16.443553,8.42857143 C16.3447503,8.59937182 16.1600807,8.71428571 15.9485714,8.71428571 L13.5714286,8.71428571 C13.2558373,8.71428571 13,8.45844843 13,8.14285714 L13,8.14285714 L13,8.14285714 C13,7.82726586 13.2558373,7.57142857 13.5714286,7.57142857 L13.5714286,7.57142857 L14.1733333,7.57142857 L14.1733333,4.5 L14.1733333,4.5 C14.1733333,3.67157288 14.8449062,3 15.6733333,3 L15.6733333,3 L32.62,3 L32.62,3 C33.4484271,3 34.12,3.67157288 34.12,4.5 L34.12,25.5 L34.12,25.5 C34.12,26.3284271 33.4484271,27 32.62,27 L15.6733333,27 L15.6733333,27 C14.8449062,27 14.1733333,26.3284271 14.1733333,25.5 L14.1733333,23 L15.9485714,23 C16.2641627,23 16.52,22.7441627 16.52,22.4285714 C16.52,22.3244894 16.4921731,22.2269067 16.443553,22.1428571 C16.3447503,22.3136575 16.1600807,22.4285714 15.9485714,22.4285714 L13.5714286,22.4285714 C13.2558373,22.4285714 13,22.1727341 13,21.8571429 C13,21.5415516 13.2558373,21.2857143 13.5714286,21.2857143 L13.5714286,21.2857143 L14.1733333,21.2857143 Z M20.0533333,8.14285714 C19.7219625,8.14285714 19.4533333,8.41148629 19.4533333,8.74285714 L19.4533333,14.4 C19.4533333,14.7313708 19.7219625,15 20.0533333,15 L20.0533333,15 L29.4133333,15 C29.7447042,15 30.0133333,14.7313708 30.0133333,14.4 L30.0133333,8.74285714 C30.0133333,8.41148629 29.7447042,8.14285714 29.4133333,8.14285714 L20.0533333,8.14285714 Z M21.7847619,9.85714286 L27.6819048,9.85714286 L27.6819048,9.85714286 C27.997496,9.85714286 28.2533333,10.1129801 28.2533333,10.4285714 L28.2533333,10.4285714 C28.2533333,10.7441627 27.997496,11 27.6819048,11 L21.7847619,11 C21.4691706,11 21.2133333,10.7441627 21.2133333,10.4285714 C21.2133333,10.1129801 21.4691706,9.85714286 21.7847619,9.85714286 Z M21.7847619,12.1428571 L27.6819048,12.1428571 C27.997496,12.1428571 28.2533333,12.3986944 28.2533333,12.7142857 C28.2533333,13.029877 27.997496,13.2857143 27.6819048,13.2857143 L21.7847619,13.2857143 C21.4691706,13.2857143 21.2133333,13.029877 21.2133333,12.7142857 C21.2133333,12.3986944 21.4691706,12.1428571 21.7847619,12.1428571 Z"/>
</svg>
