<svg xmlns="http://www.w3.org/2000/svg" width="48" height="30" viewBox="0 0 48 30">
  <path fill-rule="evenodd" d="M13.2383334,21.8133341 L13.2383334,19.9558341 L14.4766668,19.9558341 L14.4766668,21.8133341 L15.0958335,21.8133341 C15.4377898,21.8133341 15.7150002,22.0905445 15.7150002,22.4325008 C15.7150002,22.7744572 15.4377898,23.0516675 15.0958335,23.0516675 L12.6191667,23.0516675 C12.2772104,23.0516675 12,22.7744572 12,22.4325008 C12,22.0905445 12.2772104,21.8133341 12.6191667,21.8133341 L13.2383334,21.8133341 Z M13.2383334,18.098334 L13.2383334,16.2408339 L14.4766668,16.2408339 L14.4766668,18.098334 L15.0958335,18.098334 C15.4377898,18.098334 15.7150002,18.3755444 15.7150002,18.7175007 C15.7150002,19.059457 15.4377898,19.3366674 15.0958335,19.3366674 L12.6191667,19.3366674 C12.2772104,19.3366674 12,19.059457 12,18.7175007 C12,18.3755444 12.2772104,18.098334 12.6191667,18.098334 L13.2383334,18.098334 L13.2383334,18.098334 Z M13.2383334,14.3833338 L13.2383334,12.5258338 L14.4766668,12.5258338 L14.4766668,14.3833338 L15.0958335,14.3833338 C15.4377898,14.3833338 15.7150002,14.6605442 15.7150002,15.0025005 C15.7150002,15.3444569 15.4377898,15.6216672 15.0958335,15.6216672 L12.6191667,15.6216672 C12.2772104,15.6216672 12,15.3444569 12,15.0025005 C12,14.6605442 12.2772104,14.3833338 12.6191667,14.3833338 L13.2383334,14.3833338 Z M13.2383334,10.6683337 L13.2383334,8.81083361 L14.4766668,8.81083361 L14.4766668,10.6683337 L15.0958335,10.6683337 C15.4377898,10.6683337 15.7150002,10.9455441 15.7150002,11.2875004 C15.7150002,11.6294567 15.4377898,11.9066671 15.0958335,11.9066671 L12.6191667,11.9066671 C12.2772104,11.9066671 12,11.6294567 12,11.2875004 C12,10.9455441 12.2772104,10.6683337 12.6191667,10.6683337 L13.2383334,10.6683337 L13.2383334,10.6683337 Z M13.2383334,6.95333354 L13.2383334,3.85714286 C13.2383334,2.83147118 14.0698046,2 15.0954762,2 L32.4328581,2 C33.4585297,2 34.2900009,2.83147118 34.2900009,3.85714286 L34.2900009,26.1478582 C34.2900009,27.1735299 33.4585297,28.0050011 32.4328581,28.0050011 L15.0954762,28.0050011 C14.0698046,28.0050011 13.2383334,27.1735299 13.2383334,26.1478582 L13.2383334,23.6708342 L14.4766668,23.6708342 L14.4766668,25.8380963 C14.4766668,26.3509321 14.8924024,26.7666677 15.4052382,26.7666677 L32.1230961,26.7666677 C32.6359319,26.7666677 33.0516675,26.3509321 33.0516675,25.8380963 L33.0516675,4.16690481 C33.0516675,3.65406897 32.6359319,3.23833338 32.1230961,3.23833338 L15.4052382,3.23833338 C14.8924024,3.23833338 14.4766668,3.65406897 14.4766668,4.16690481 L14.4766668,6.95333354 L15.0958335,6.95333354 C15.4377898,6.95333354 15.7150002,7.23054391 15.7150002,7.57250023 C15.7150002,7.91445655 15.4377898,8.19166692 15.0958335,8.19166692 L12.6191667,8.19166692 C12.2772104,8.19166692 12,7.91445655 12,7.57250023 C12,7.23054391 12.2772104,6.95333354 12.6191667,6.95333354 L13.2383334,6.95333354 Z M18.8107145,6.95333354 L29.9559531,6.95333354 C30.2978437,6.95333354 30.5750008,7.2304906 30.5750008,7.57238116 L30.5750008,15.0026196 C30.5750008,15.3445102 30.2978437,15.6216672 29.9559531,15.6216672 L18.8107145,15.6216672 C18.468824,15.6216672 18.1916669,15.3445102 18.1916669,15.0026196 L18.1916669,7.57238116 C18.1916669,7.2304906 18.468824,6.95333354 18.8107145,6.95333354 Z M19.4300003,8.19166692 L19.4300003,14.3833338 L29.3366674,14.3833338 L29.3366674,8.19166692 L19.4300003,8.19166692 Z M21.2875004,9.43000031 L27.4791673,9.43000031 C27.8211236,9.43000031 28.098334,9.70721068 28.098334,10.049167 C28.098334,10.3911233 27.8211236,10.6683337 27.4791673,10.6683337 L21.2875004,10.6683337 C20.9455441,10.6683337 20.6683337,10.3911233 20.6683337,10.049167 C20.6683337,9.70721068 20.9455441,9.43000031 21.2875004,9.43000031 Z M21.2875004,11.9066671 L27.4791673,11.9066671 C27.8211236,11.9066671 28.098334,12.1838774 28.098334,12.5258338 C28.098334,12.8677901 27.8211236,13.1450005 27.4791673,13.1450005 L21.2875004,13.1450005 C20.9455441,13.1450005 20.6683337,12.8677901 20.6683337,12.5258338 C20.6683337,12.1838774 20.9455441,11.9066671 21.2875004,11.9066671 Z"/>
</svg>
