<svg xmlns="http://www.w3.org/2000/svg" width="48" height="30" viewBox="0 0 48 30">
  <path fill-rule="evenodd" d="M18.0862204,25.3420513 L18.0862204,26.3069492 C18.0862204,26.6157226 18.3396942,26.8695652 18.65237,26.8695652 L35.6070273,26.8695652 C35.917494,26.8695652 36.1731769,26.6176734 36.1731769,26.3069492 L36.1731769,21.7800073 C36.1731769,21.4712339 35.9197031,21.2173913 35.6070273,21.2173913 L18.65237,21.2173913 C18.3419033,21.2173913 18.0862204,21.4692831 18.0862204,21.7800073 L18.0862204,22.6684614 L16.8778015,23.8116734 C16.7646058,23.9187609 16.7647904,24.0919264 16.8778015,24.1988393 L18.0862204,25.3420513 Z M16.9557856,22.1337434 L16.9557856,21.5016501 C16.9557856,20.7203364 17.5870682,20.0869565 18.3704502,20.0869565 L35.8889471,20.0869565 C36.6702448,20.0869565 37.3036117,20.7211379 37.3036117,21.5016501 L37.3036117,26.5853064 C37.3036117,27.3666201 36.672329,28 35.8889471,28 L18.3704502,28 C17.5891525,28 16.9557856,27.3658187 16.9557856,26.5853064 L16.9557856,25.8767693 L15.3871291,24.3927583 C15.1609108,24.1787469 15.1626781,23.8300939 15.3871291,23.6177544 L16.9557856,22.1337434 L16.9557856,22.1337434 Z M13.5644812,7.25509479 L13.5644812,8.21999268 C13.5644812,8.52876607 13.817955,8.7826087 14.1306308,8.7826087 L31.0852881,8.7826087 C31.3957549,8.7826087 31.6514378,8.53071693 31.6514378,8.21999268 L31.6514378,3.6930508 C31.6514378,3.38427741 31.3979639,3.13043478 31.0852881,3.13043478 L14.1306308,3.13043478 C13.8201641,3.13043478 13.5644812,3.38232655 13.5644812,3.6930508 L13.5644812,4.58150484 L12.3560624,5.72471683 C12.2428667,5.83180442 12.2430513,6.00496987 12.3560624,6.1118828 L13.5644812,7.25509479 Z M12.4340465,4.04678685 L12.4340465,3.41469359 C12.4340465,2.6333799 13.0653291,2 13.848711,2 L31.3672079,2 C32.1485056,2 32.7818725,2.63418133 32.7818725,3.41469359 L32.7818725,8.49834988 C32.7818725,9.27966358 32.1505899,9.91304348 31.3672079,9.91304348 L13.848711,9.91304348 C13.0674134,9.91304348 12.4340465,9.27886215 12.4340465,8.49834988 L12.4340465,7.78981278 L10.86539,6.30580174 C10.6391717,6.09179034 10.6409389,5.74313742 10.86539,5.53079789 L12.4340465,4.04678685 Z M15.8253508,16.2985731 L15.8253508,17.2634709 C15.8253508,17.5722443 16.0788246,17.826087 16.3915004,17.826087 L33.3461577,17.826087 C33.6566244,17.826087 33.9123073,17.5741952 33.9123073,17.2634709 L33.9123073,12.7365291 C33.9123073,12.4277557 33.6588335,12.173913 33.3461577,12.173913 L16.3915004,12.173913 C16.0810337,12.173913 15.8253508,12.4258048 15.8253508,12.7365291 L15.8253508,13.6249831 L14.6169319,14.7681951 C14.5037363,14.8752827 14.5039209,15.0484481 14.6169319,15.1553611 L15.8253508,16.2985731 Z M14.694916,13.0902651 L14.694916,12.4581719 C14.694916,11.6768582 15.3261987,11.0434783 16.1095806,11.0434783 L33.6280775,11.0434783 C34.4093752,11.0434783 35.0427421,11.6776596 35.0427421,12.4581719 L35.0427421,17.5418281 C35.0427421,18.3231418 34.4114594,18.9565217 33.6280775,18.9565217 L16.1095806,18.9565217 C15.3282829,18.9565217 14.694916,18.3223404 14.694916,17.5418281 L14.694916,16.833291 L13.1262595,15.34928 C12.9000413,15.1352686 12.9018085,14.7866157 13.1262595,14.5742761 L14.694916,13.0902651 Z M16.3485622,6.52173913 C16.0364013,6.52173913 15.7833449,6.26868268 15.7833449,5.95652174 C15.7833449,5.64436079 16.0364013,5.39130435 16.3485622,5.39130435 C16.6607232,5.39130435 16.9137796,5.64436079 16.9137796,5.95652174 C16.9137796,6.26868268 16.6607232,6.52173913 16.3485622,6.52173913 Z M18.6094318,15.5652174 C18.2972709,15.5652174 18.0442144,15.3121609 18.0442144,15 C18.0442144,14.6878391 18.2972709,14.4347826 18.6094318,14.4347826 C18.9215928,14.4347826 19.1746492,14.6878391 19.1746492,15 C19.1746492,15.3121609 18.9215928,15.5652174 18.6094318,15.5652174 Z M20.8703014,24.6086957 C20.5581404,24.6086957 20.305084,24.3556392 20.305084,24.0434783 C20.305084,23.7313173 20.5581404,23.4782609 20.8703014,23.4782609 C21.1824623,23.4782609 21.4355188,23.7313173 21.4355188,24.0434783 C21.4355188,24.3556392 21.1824623,24.6086957 20.8703014,24.6086957 Z M27.6529101,24.6086957 C27.3407491,24.6086957 27.0876927,24.3556392 27.0876927,24.0434783 C27.0876927,23.7313173 27.3407491,23.4782609 27.6529101,23.4782609 C27.965071,23.4782609 28.2181275,23.7313173 28.2181275,24.0434783 C28.2181275,24.3556392 27.965071,24.6086957 27.6529101,24.6086957 Z M18.6094318,6.52173913 C18.2972709,6.52173913 18.0442144,6.26868268 18.0442144,5.95652174 C18.0442144,5.64436079 18.2972709,5.39130435 18.6094318,5.39130435 C18.9215928,5.39130435 19.1746492,5.64436079 19.1746492,5.95652174 C19.1746492,6.26868268 18.9215928,6.52173913 18.6094318,6.52173913 Z M20.8703014,15.5652174 C20.5581404,15.5652174 20.305084,15.3121609 20.305084,15 C20.305084,14.6878391 20.5581404,14.4347826 20.8703014,14.4347826 C21.1824623,14.4347826 21.4355188,14.6878391 21.4355188,15 C21.4355188,15.3121609 21.1824623,15.5652174 20.8703014,15.5652174 Z M23.1311709,24.6086957 C22.81901,24.6086957 22.5659535,24.3556392 22.5659535,24.0434783 C22.5659535,23.7313173 22.81901,23.4782609 23.1311709,23.4782609 C23.4433319,23.4782609 23.6963883,23.7313173 23.6963883,24.0434783 C23.6963883,24.3556392 23.4433319,24.6086957 23.1311709,24.6086957 Z M29.9137796,24.6086957 C29.6016187,24.6086957 29.3485622,24.3556392 29.3485622,24.0434783 C29.3485622,23.7313173 29.6016187,23.4782609 29.9137796,23.4782609 C30.2259406,23.4782609 30.478997,23.7313173 30.478997,24.0434783 C30.478997,24.3556392 30.2259406,24.6086957 29.9137796,24.6086957 Z M20.8703014,6.52173913 C20.5581404,6.52173913 20.305084,6.26868268 20.305084,5.95652174 C20.305084,5.64436079 20.5581404,5.39130435 20.8703014,5.39130435 C21.1824623,5.39130435 21.4355188,5.64436079 21.4355188,5.95652174 C21.4355188,6.26868268 21.1824623,6.52173913 20.8703014,6.52173913 Z M23.1311709,15.5652174 C22.81901,15.5652174 22.5659535,15.3121609 22.5659535,15 C22.5659535,14.6878391 22.81901,14.4347826 23.1311709,14.4347826 C23.4433319,14.4347826 23.6963883,14.6878391 23.6963883,15 C23.6963883,15.3121609 23.4433319,15.5652174 23.1311709,15.5652174 Z M25.3920405,24.6086957 C25.0798796,24.6086957 24.8268231,24.3556392 24.8268231,24.0434783 C24.8268231,23.7313173 25.0798796,23.4782609 25.3920405,23.4782609 C25.7042015,23.4782609 25.9572579,23.7313173 25.9572579,24.0434783 C25.9572579,24.3556392 25.7042015,24.6086957 25.3920405,24.6086957 Z M32.1746492,24.6086957 C31.8624883,24.6086957 31.6094318,24.3556392 31.6094318,24.0434783 C31.6094318,23.7313173 31.8624883,23.4782609 32.1746492,23.4782609 C32.4868101,23.4782609 32.7398666,23.7313173 32.7398666,24.0434783 C32.7398666,24.3556392 32.4868101,24.6086957 32.1746492,24.6086957 Z M23.1311709,6.52173913 C22.81901,6.52173913 22.5659535,6.26868268 22.5659535,5.95652174 C22.5659535,5.64436079 22.81901,5.39130435 23.1311709,5.39130435 C23.4433319,5.39130435 23.6963883,5.64436079 23.6963883,5.95652174 C23.6963883,6.26868268 23.4433319,6.52173913 23.1311709,6.52173913 Z M25.3920405,6.52173913 C25.0798796,6.52173913 24.8268231,6.26868268 24.8268231,5.95652174 C24.8268231,5.64436079 25.0798796,5.39130435 25.3920405,5.39130435 C25.7042015,5.39130435 25.9572579,5.64436079 25.9572579,5.95652174 C25.9572579,6.26868268 25.7042015,6.52173913 25.3920405,6.52173913 Z"/>
</svg>
