<svg xmlns="http://www.w3.org/2000/svg" width="48" height="30" viewBox="0 0 48 30">
  <path fill-rule="evenodd" d="M14.3857143,2 L33.6142857,2 C33.9456566,2 34.2142857,2.26862915 34.2142857,2.6 L34.2142857,27.4 C34.2142857,27.7313708 33.9456566,28 33.6142857,28 L14.3857143,28 C14.0543434,28 13.7857143,27.7313708 13.7857143,27.4 L13.7857143,2.6 C13.7857143,2.26862915 14.0543434,2 14.3857143,2 Z M25.700138,6.52173913 C25.3879771,6.52173913 25.1349206,6.77479558 25.1349206,7.08695652 C25.1349206,7.39911747 25.3879771,7.65217391 25.700138,7.65217391 L30.2443064,7.65217391 C30.5564674,7.65217391 30.8095238,7.39911747 30.8095238,7.08695652 C30.8095238,6.77479558 30.5564674,6.52173913 30.2443064,6.52173913 L25.700138,6.52173913 Z M25.700138,9.34782609 C25.3879771,9.34782609 25.1349206,9.60088253 25.1349206,9.91304348 C25.1349206,10.2252044 25.3879771,10.4782609 25.700138,10.4782609 L30.2443064,10.4782609 C30.5564674,10.4782609 30.8095238,10.2252044 30.8095238,9.91304348 C30.8095238,9.60088253 30.5564674,9.34782609 30.2443064,9.34782609 L25.700138,9.34782609 Z M17.7556936,15 C17.4435326,15 17.1904762,15.2530564 17.1904762,15.5652174 C17.1904762,15.8773783 17.4435326,16.1304348 17.7556936,16.1304348 L25.7046239,16.1304348 C26.0167848,16.1304348 26.2698413,15.8773783 26.2698413,15.5652174 C26.2698413,15.2530564 26.0167848,15 25.7046239,15 L17.7556936,15 Z M17.7556936,18.3913043 C17.4435326,18.3913043 17.1904762,18.6443608 17.1904762,18.9565217 C17.1904762,19.2686827 17.4435326,19.5217391 17.7556936,19.5217391 L24.0022429,19.5217391 C24.3144039,19.5217391 24.5674603,19.2686827 24.5674603,18.9565217 C24.5674603,18.6443608 24.3144039,18.3913043 24.0022429,18.3913043 L17.7556936,18.3913043 Z M17.7556936,21.7826087 C17.4435326,21.7826087 17.1904762,22.0356651 17.1904762,22.3478261 C17.1904762,22.659987 17.4435326,22.9130435 17.7556936,22.9130435 L25.7046239,22.9130435 C26.0167848,22.9130435 26.2698413,22.659987 26.2698413,22.3478261 C26.2698413,22.0356651 26.0167848,21.7826087 25.7046239,21.7826087 L17.7556936,21.7826087 Z M28.5374396,21.7826087 C28.2252787,21.7826087 27.9722222,22.0356651 27.9722222,22.3478261 C27.9722222,22.659987 28.2252787,22.9130435 28.5374396,22.9130435 L30.2443064,22.9130435 C30.5564674,22.9130435 30.8095238,22.659987 30.8095238,22.3478261 C30.8095238,22.0356651 30.5564674,21.7826087 30.2443064,21.7826087 L28.5374396,21.7826087 Z M28.5374396,18.3913043 C28.2252787,18.3913043 27.9722222,18.6443608 27.9722222,18.9565217 C27.9722222,19.2686827 28.2252787,19.5217391 28.5374396,19.5217391 L30.2443064,19.5217391 C30.5564674,19.5217391 30.8095238,19.2686827 30.8095238,18.9565217 C30.8095238,18.6443608 30.5564674,18.3913043 30.2443064,18.3913043 L28.5374396,18.3913043 Z M28.5374396,15 C28.2252787,15 27.9722222,15.2530564 27.9722222,15.5652174 C27.9722222,15.8773783 28.2252787,16.1304348 28.5374396,16.1304348 L30.2443064,16.1304348 C30.5564674,16.1304348 30.8095238,15.8773783 30.8095238,15.5652174 C30.8095238,15.2530564 30.5564674,15 30.2443064,15 L28.5374396,15 Z M17.2082076,10.6769331 C17.2032407,10.6987664 17.2007338,10.7210871 17.2007338,10.7434783 C17.2007338,10.9091584 17.3350441,11.0434688 17.5007243,11.0434688 L21.8579501,11.0434783 C21.8819457,11.0434783 21.9058547,11.0405994 21.9291645,11.0349035 C22.0901186,10.9955728 22.1887139,10.83321 22.1493833,10.6722559 C22.0894992,10.4272237 21.9866891,10.2288803 21.8409453,10.0772276 C21.5208978,9.74420429 20.8797865,9.53354281 20.7079325,9.45912656 C20.4700958,9.35613845 20.3656927,9.36934399 20.3515612,9.1073786 C20.349552,9.06955471 20.3492968,8.55148882 20.3825083,8.51907446 C20.4967011,8.40762255 20.5640734,8.36432113 20.5794773,8.20341954 C20.5907959,8.08454449 20.6146648,7.9335158 20.6642598,7.90083316 C20.7138549,7.86815052 20.7607833,7.90083316 20.8059884,7.79816368 C20.8511935,7.69549419 20.9378934,7.36697207 20.8797865,7.26802896 C20.8495581,7.21655672 20.8047482,7.22454281 20.7897521,7.18314024 C20.7747561,7.14173767 20.8676643,6.85743639 20.8797865,6.74569917 C20.89874,6.57332367 20.8743617,6.34324507 20.8400043,6.17287083 C20.7818037,5.88259541 20.5606525,5.63568522 20.3515612,5.63568522 C20.1984089,5.63568522 20.1012712,5.39130435 19.8318794,5.39130435 C19.1575798,5.39130435 18.9667455,5.46230751 18.7548512,5.73756958 C18.6577583,5.86369858 18.5206449,6.1080299 18.4997492,6.27033237 C18.4803938,6.41969334 18.4822021,6.59760567 18.5047722,6.74569917 C18.5165595,6.82361503 18.5305016,6.8652483 18.5406146,6.94323087 C18.5488524,7.00553687 18.6153454,7.12030056 18.5982672,7.18314024 C18.5884221,7.22016361 18.5384599,7.23367394 18.5212477,7.26802896 C18.4405446,7.42913068 18.5259358,7.64940308 18.5982672,7.79816368 C18.6322897,7.86807448 18.7052908,7.87327777 18.7548512,7.9335158 C18.8143907,8.00609496 18.7888125,8.13291921 18.8232096,8.2173913 C18.8685214,8.32866761 18.9515261,8.44133589 19.0438447,8.49781526 C19.0824469,8.52143157 19.0756361,9.07002329 19.0700002,9.1073786 C19.0438447,9.28073815 19.0517204,9.27980117 18.8232096,9.40714955 C18.6659308,9.49480061 18.0193669,9.63550843 17.5688138,10.0772276 C17.376461,10.265809 17.2562589,10.4657108 17.2082076,10.6769331 Z"/>
</svg>
