<svg xmlns="http://www.w3.org/2000/svg" width="48" height="30" viewBox="0 0 48 30">
  <path fill-rule="evenodd" d="M14.5652174,2 L33.784783,2 C34.0969439,2 34.3500004,2.25305645 34.3500004,2.56521739 L34.3500004,27.4347826 C34.3500004,27.7469436 34.0969439,28 33.784783,28 L14.5652174,28 C14.2530564,28 14,27.7469436 14,27.4347826 L14,2.56521739 C14,2.25305645 14.2530564,2 14.5652174,2 Z M15.1305556,3.13043478 L15.1305556,26.8695652 L33.2194448,26.8695652 L33.2194448,3.13043478 L15.1305556,3.13043478 Z M25.8707732,6.52173913 L30.3931163,6.52173913 C30.7052772,6.52173913 30.9583337,6.77479558 30.9583337,7.08695652 C30.9583337,7.39911747 30.7052772,7.65217391 30.3931163,7.65217391 L25.8707732,7.65217391 C25.5586122,7.65217391 25.3055558,7.39911747 25.3055558,7.08695652 C25.3055558,6.77479558 25.5586122,6.52173913 25.8707732,6.52173913 Z M25.8707732,9.34782609 L30.3931163,9.34782609 C30.7052772,9.34782609 30.9583337,9.60088253 30.9583337,9.91304348 C30.9583337,10.2252044 30.7052772,10.4782609 30.3931163,10.4782609 L25.8707732,10.4782609 C25.5586122,10.4782609 25.3055558,10.2252044 25.3055558,9.91304348 C25.3055558,9.60088253 25.5586122,9.34782609 25.8707732,9.34782609 Z M17.9568841,15 L25.870894,15 C26.1830549,15 26.4361113,15.2530564 26.4361113,15.5652174 C26.4361113,15.8773783 26.1830549,16.1304348 25.870894,16.1304348 L17.9568841,16.1304348 C17.6447232,16.1304348 17.3916667,15.8773783 17.3916667,15.5652174 C17.3916667,15.2530564 17.6447232,15 17.9568841,15 Z M17.9568841,18.3913043 L24.1750606,18.3913043 C24.4872215,18.3913043 24.740278,18.6443608 24.740278,18.9565217 C24.740278,19.2686827 24.4872215,19.5217391 24.1750606,19.5217391 L17.9568841,19.5217391 C17.6447232,19.5217391 17.3916667,19.2686827 17.3916667,18.9565217 C17.3916667,18.6443608 17.6447232,18.3913043 17.9568841,18.3913043 Z M17.9568841,21.7826087 L25.870894,21.7826087 C26.1830549,21.7826087 26.4361113,22.0356651 26.4361113,22.3478261 C26.4361113,22.659987 26.1830549,22.9130435 25.870894,22.9130435 L17.9568841,22.9130435 C17.6447232,22.9130435 17.3916667,22.659987 17.3916667,22.3478261 C17.3916667,22.0356651 17.6447232,21.7826087 17.9568841,21.7826087 Z M28.6971621,21.7826087 L30.3931163,21.7826087 C30.7052772,21.7826087 30.9583337,22.0356651 30.9583337,22.3478261 C30.9583337,22.659987 30.7052772,22.9130435 30.3931163,22.9130435 L28.6971621,22.9130435 C28.3850012,22.9130435 28.1319447,22.659987 28.1319447,22.3478261 C28.1319447,22.0356651 28.3850012,21.7826087 28.6971621,21.7826087 Z M28.6971621,18.3913043 L30.3931163,18.3913043 C30.7052772,18.3913043 30.9583337,18.6443608 30.9583337,18.9565217 C30.9583337,19.2686827 30.7052772,19.5217391 30.3931163,19.5217391 L28.6971621,19.5217391 C28.3850012,19.5217391 28.1319447,19.2686827 28.1319447,18.9565217 C28.1319447,18.6443608 28.3850012,18.3913043 28.6971621,18.3913043 Z M28.6971621,15 L30.3931163,15 C30.7052772,15 30.9583337,15.2530564 30.9583337,15.5652174 C30.9583337,15.8773783 30.7052772,16.1304348 30.3931163,16.1304348 L28.6971621,16.1304348 C28.3850012,16.1304348 28.1319447,15.8773783 28.1319447,15.5652174 C28.1319447,15.2530564 28.3850012,15 28.6971621,15 Z M17.4029644,10.7072693 C17.4459247,10.484828 17.5677863,10.2748141 17.7685492,10.0772276 C18.2173694,9.63550843 18.8614465,9.49480061 19.0181204,9.40714955 C19.2457523,9.27980117 19.237907,9.28073815 19.2639618,9.1073786 C19.2695761,9.07002329 19.2763607,8.52143157 19.237907,8.49781526 C19.1459434,8.44133589 19.0632579,8.32866761 19.0181204,8.2173913 C18.9838557,8.13291921 19.0093354,8.00609496 18.950025,7.9335158 C18.9006552,7.87327777 18.8279349,7.86807448 18.7940432,7.79816368 C18.72199,7.64940308 18.6369272,7.42913068 18.7173199,7.26802896 C18.7344659,7.23367394 18.7842359,7.22016361 18.7940432,7.18314024 C18.8110557,7.12030056 18.7448184,7.00553687 18.7366123,6.94323087 C18.7265382,6.8652483 18.7126498,6.82361503 18.7009078,6.74569917 C18.6784245,6.59760567 18.6766232,6.41969334 18.6959041,6.27033237 C18.7167194,6.1080299 18.8533055,5.86369858 18.950025,5.73756958 C19.1611042,5.46230751 19.3512046,5.39130435 20.0229108,5.39130435 C20.2912664,5.39130435 20.3880305,5.63568522 20.5405938,5.63568522 C20.7488809,5.63568522 20.9691815,5.88259541 21.0271582,6.17287083 C21.0613835,6.34324507 21.0856681,6.57332367 21.0667875,6.74569917 C21.0547119,6.85743639 20.962161,7.14173767 20.9770994,7.18314024 C20.9920377,7.22454281 21.0366753,7.21655672 21.0667875,7.26802896 C21.1246709,7.36697207 21.0383044,7.69549419 20.9932732,7.79816368 C20.9482419,7.90083316 20.901494,7.86815052 20.8520897,7.90083316 C20.8026854,7.9335158 20.7789083,8.08454449 20.7676333,8.20341954 C20.7522887,8.36432113 20.6851754,8.40762255 20.5714218,8.51907446 C20.538338,8.55148882 20.5385923,9.06955471 20.5405938,9.1073786 C20.5546709,9.36934399 20.6586725,9.35613845 20.8955944,9.45912656 C21.0667875,9.53354281 21.705433,9.74420429 22.0242495,10.0772276 C22.1744973,10.2341706 22.2789406,10.4411185 22.3375794,10.6980713 L22.3375025,10.6980888 C22.3722189,10.8502148 22.2770396,11.0016804 22.1249137,11.0363968 C22.1042917,11.0411029 22.0832064,11.0434783 22.0620542,11.0434783 L17.6804976,11.0434783 L17.6804976,11.0435313 C17.5243878,11.0435313 17.3978359,10.9169793 17.3978359,10.7608696 C17.3978359,10.7428803 17.3995532,10.7249321 17.4029644,10.7072693 Z"/>
</svg>
