<svg xmlns="http://www.w3.org/2000/svg" width="48" height="30" viewBox="0 0 48 30">
  <path fill-rule="evenodd" d="M14.6,2 L33.8285714,2 C34.1599423,2 34.4285714,2.26862915 34.4285714,2.6 L34.4285714,27.4 C34.4285714,27.7313708 34.1599423,28 33.8285714,28 L14.6,28 C14.2686292,28 14,27.7313708 14,27.4 L14,2.6 L14,2.6 C14,2.26862915 14.2686292,2 14.6,2 L14.6,2 Z M25.9144237,6.52173913 C25.6022628,6.52173913 25.3492063,6.77479558 25.3492063,7.08695652 C25.3492063,7.39911747 25.6022628,7.65217391 25.9144237,7.65217391 L30.4585921,7.65217391 C30.7707531,7.65217391 31.0238095,7.39911747 31.0238095,7.08695652 L31.0238095,7.08695652 C31.0238095,6.77479558 30.7707531,6.52173913 30.4585921,6.52173913 L30.4585921,6.52173913 L25.9144237,6.52173913 Z M25.9144237,9.34782609 C25.6022628,9.34782609 25.3492063,9.60088253 25.3492063,9.91304348 C25.3492063,10.2252044 25.6022628,10.4782609 25.9144237,10.4782609 L30.4585921,10.4782609 C30.7707531,10.4782609 31.0238095,10.2252044 31.0238095,9.91304348 L31.0238095,9.91304348 C31.0238095,9.60088253 30.7707531,9.34782609 30.4585921,9.34782609 L30.4585921,9.34782609 L25.9144237,9.34782609 Z M17.9699793,15 C17.6578184,15 17.4047619,15.2530564 17.4047619,15.5652174 C17.4047619,15.8773783 17.6578184,16.1304348 17.9699793,16.1304348 L25.9189096,16.1304348 C26.2310705,16.1304348 26.484127,15.8773783 26.484127,15.5652174 L26.484127,15.5652174 C26.484127,15.2530564 26.2310705,15 25.9189096,15 L25.9189096,15 L17.9699793,15 Z M17.9699793,18.3913043 C17.6578184,18.3913043 17.4047619,18.6443608 17.4047619,18.9565217 C17.4047619,19.2686827 17.6578184,19.5217391 17.9699793,19.5217391 L24.2165286,19.5217391 C24.5286896,19.5217391 24.781746,19.2686827 24.781746,18.9565217 C24.781746,18.6443608 24.5286896,18.3913043 24.2165286,18.3913043 L17.9699793,18.3913043 Z M17.9699793,21.7826087 C17.6578184,21.7826087 17.4047619,22.0356651 17.4047619,22.3478261 C17.4047619,22.659987 17.6578184,22.9130435 17.9699793,22.9130435 L25.9189096,22.9130435 C26.2310705,22.9130435 26.484127,22.659987 26.484127,22.3478261 C26.484127,22.0356651 26.2310705,21.7826087 25.9189096,21.7826087 L17.9699793,21.7826087 Z M28.7517253,21.7826087 C28.4395644,21.7826087 28.1865079,22.0356651 28.1865079,22.3478261 C28.1865079,22.659987 28.4395644,22.9130435 28.7517253,22.9130435 L30.4585921,22.9130435 C30.7707531,22.9130435 31.0238095,22.659987 31.0238095,22.3478261 C31.0238095,22.0356651 30.7707531,21.7826087 30.4585921,21.7826087 L28.7517253,21.7826087 Z M28.7517253,18.3913043 C28.4395644,18.3913043 28.1865079,18.6443608 28.1865079,18.9565217 C28.1865079,19.2686827 28.4395644,19.5217391 28.7517253,19.5217391 L30.4585921,19.5217391 C30.7707531,19.5217391 31.0238095,19.2686827 31.0238095,18.9565217 C31.0238095,18.6443608 30.7707531,18.3913043 30.4585921,18.3913043 L28.7517253,18.3913043 Z M28.7517253,15 L28.7517253,15 C28.4395644,15 28.1865079,15.2530564 28.1865079,15.5652174 C28.1865079,15.8773783 28.4395644,16.1304348 28.7517253,16.1304348 L30.4585921,16.1304348 C30.7707531,16.1304348 31.0238095,15.8773783 31.0238095,15.5652174 L31.0238095,15.5652174 C31.0238095,15.2530564 30.7707531,15 30.4585921,15 L28.7517253,15 Z M17.4224933,10.6769331 C17.4175264,10.6987664 17.4150195,10.7210871 17.4150195,10.7434783 C17.4150195,10.9091584 17.5493298,11.0434688 17.71501,11.0434688 L17.71501,11.0434783 L22.0722358,11.0434783 C22.0962314,11.0434783 22.1201404,11.0405994 22.1434502,11.0349035 C22.3044043,10.9955728 22.4029996,10.83321 22.363669,10.6722559 L22.3636612,10.6722578 C22.3037849,10.4272237 22.2009748,10.2288803 22.055231,10.0772276 C21.7351836,9.74420429 21.0940722,9.53354281 20.9222182,9.45912656 C20.6843815,9.35613845 20.5799784,9.36934399 20.565847,9.1073786 C20.5638378,9.06955471 20.5635825,8.55148882 20.596794,8.51907446 C20.7109868,8.40762255 20.7783592,8.36432113 20.7937631,8.20341954 C20.8050816,8.08454449 20.8289505,7.9335158 20.8785455,7.90083316 C20.9281406,7.86815052 20.975069,7.90083316 21.0202741,7.79816368 C21.0654792,7.69549419 21.1521791,7.36697207 21.0940722,7.26802896 C21.0638438,7.21655672 21.0190339,7.22454281 21.0040379,7.18314024 C20.9890418,7.14173767 21.08195,6.85743639 21.0940722,6.74569917 C21.1130257,6.57332367 21.0886474,6.34324507 21.05429,6.17287083 C20.9960894,5.88259541 20.7749382,5.63568522 20.565847,5.63568522 C20.4126946,5.63568522 20.3155569,5.39130435 20.0461651,5.39130435 C19.3718655,5.39130435 19.1810312,5.46230751 18.969137,5.73756958 C18.872044,5.86369858 18.7349306,6.1080299 18.7140349,6.27033237 C18.6946795,6.41969334 18.6964878,6.59760567 18.7190579,6.74569917 C18.7308452,6.82361503 18.7447873,6.8652483 18.7549003,6.94323087 C18.7631381,7.00553687 18.8296311,7.12030056 18.8125529,7.18314024 C18.8027078,7.22016361 18.7527456,7.23367394 18.7355334,7.26802896 C18.6548303,7.42913068 18.7402215,7.64940308 18.8125529,7.79816368 C18.8465754,7.86807448 18.9195766,7.87327777 18.969137,7.9335158 C19.0286764,8.00609496 19.0030983,8.13291921 19.0374953,8.2173913 C19.0828071,8.32866761 19.1658118,8.44133589 19.2581305,8.49781526 C19.2967326,8.52143157 19.2899218,9.07002329 19.2842859,9.1073786 C19.2581305,9.28073815 19.2660061,9.27980117 19.0374953,9.40714955 C18.8802165,9.49480061 18.2336526,9.63550843 17.7830996,10.0772276 C17.5907467,10.265809 17.4705446,10.4657108 17.4224933,10.6769331 Z"/>
</svg>
