<svg xmlns="http://www.w3.org/2000/svg" width="48" height="30" viewBox="0 0 48 30">
  <path fill-rule="evenodd" d="M13.6,11.0797063 L13.6,11.0797063 C14.1743761,11.0797063 14.64,11.5453302 14.64,12.1197063 L14.64,12.1197063 L14.64,12.154743 C14.64,12.7291192 14.1743761,13.194743 13.6,13.194743 L13.08,13.194743 L13.08,25.8849633 L34.92,25.8849633 L34.92,13.194743 L34.4,13.194743 C33.8256239,13.194743 33.36,12.7291192 33.36,12.154743 L33.36,12.1197063 C33.36,11.5453302 33.8256239,11.0797063 34.4,11.0797063 L34.4,11.0797063 L35.96,11.0797063 C36.5343761,11.0797063 37,11.5453302 37,12.1197063 L37,26.96 C37,27.5343761 36.5343761,28 35.96,28 L35.96,28 L12.04,28 C11.4656239,28 11,27.5343761 11,26.96 L11,12.1197063 C11,11.5453302 11.4656239,11.0797063 12.04,11.0797063 L13.6,11.0797063 Z M17.7599918,11.1766114 C17.7599918,9.65664709 17.0533662,8.69608389 15.9984251,7.62337276 L12.2351307,3.78663756 L12.2351307,3.78663756 C11.8380893,3.38184796 11.838461,2.73361918 12.2359662,2.3292851 L12.255126,2.3097961 L12.255126,2.3097961 C12.6543913,1.90367174 13.3072886,1.89811134 13.7134129,2.29737659 C13.7175122,2.30140665 13.7215777,2.30547092 13.7256091,2.30956897 L17.5556851,6.20303652 C18.8032952,7.4716621 19.8399918,9.22757275 19.8399918,11.1095015 L19.8399918,20.0143401 L21.6512275,18.1725948 C22.0506448,17.7664496 22.7036822,17.7609954 23.1098275,18.1604127 C23.1139221,18.1644394 23.1179829,18.1685003 23.1220096,18.1725948 L23.1428357,18.1937717 L23.1428357,18.1937717 C23.5398044,18.5974272 23.5409696,19.2444611 23.1454573,19.6495437 L19.4880714,23.3954281 L19.4880714,23.3954281 C19.0868099,23.8063991 18.4283653,23.8142701 18.0173944,23.4130086 C18.0123578,23.408091 18.0073712,23.4031224 18.0024355,23.3981035 L14.3160249,19.6495969 L14.3160249,19.6495969 C13.9180344,19.2449024 13.9180344,18.595844 14.3160249,18.1911496 L14.3342723,18.1725948 C14.7336895,17.7664496 15.386727,17.7609954 15.7928722,18.1604127 C15.7969668,18.1644394 15.8010277,18.1685003 15.8050544,18.1725948 L17.7599918,20.1604623 L17.7599918,11.1766114 Z M30.3574089,11.1766114 L30.3574089,20.1604623 L32.3123463,18.1725948 C32.316373,18.1685003 32.3204339,18.1644394 32.3245285,18.1604127 C32.7306737,17.7609954 33.3837112,17.7664496 33.7831284,18.1725948 L33.8013758,18.1911496 C34.1993663,18.595844 34.1993663,19.2449024 33.8013758,19.6495969 L33.8013758,19.6495969 L30.1149652,23.3981035 C30.1100295,23.4031224 30.1050429,23.408091 30.1000063,23.4130086 C29.6890354,23.8142701 29.0305908,23.8063991 28.6293293,23.3954281 L28.6293293,23.3954281 L24.9719434,19.6495437 C24.5764311,19.2444611 24.5775963,18.5974272 24.974565,18.1937717 L24.974565,18.1937717 L24.9953911,18.1725948 C24.9994178,18.1685003 25.0034786,18.1644394 25.0075732,18.1604127 C25.4137185,17.7609954 26.0667559,17.7664496 26.4661732,18.1725948 L28.2774089,20.0143401 L28.2774089,11.1095015 C28.2774089,9.22757275 29.3141055,7.4716621 30.5617156,6.20303652 L34.3917916,2.30956897 C34.395823,2.30547092 34.3998885,2.30140665 34.4039878,2.29737659 C34.8101121,1.89811134 35.4630094,1.90367174 35.8622747,2.3097961 L35.8622747,2.3097961 L35.8814345,2.3292851 C36.2789397,2.73361918 36.2793114,3.38184796 35.88227,3.78663756 L35.88227,3.78663756 L32.1189756,7.62337276 C31.0640345,8.69608389 30.3574089,9.65664709 30.3574089,11.1766114 Z"/>
</svg>
