<svg xmlns="http://www.w3.org/2000/svg" width="48" height="30" viewBox="0 0 48 30">
  <path fill-rule="evenodd" d="M14.1156562,11.2209982 L14.1156562,11.2209982 C14.4052433,11.2209982 14.64,11.4557549 14.64,11.745342 C14.64,12.0349291 14.4052433,12.2696858 14.1156562,12.2696858 L12.56,12.2696858 C12.2728119,12.2696858 12.04,12.5024977 12.04,12.7896858 L12.04,12.7896858 L12.04,26.4313124 C12.04,26.7185005 12.2728119,26.9513124 12.56,26.9513124 L35.44,26.9513124 C35.7271881,26.9513124 35.96,26.7185005 35.96,26.4313124 L35.96,26.4313124 L35.96,12.7896858 C35.96,12.5024977 35.7271881,12.2696858 35.44,12.2696858 L33.8843438,12.2696858 C33.5947567,12.2696858 33.36,12.0349291 33.36,11.745342 C33.36,11.4557549 33.5947567,11.2209982 33.8843438,11.2209982 L33.8843438,11.2209982 L35.96,11.2209982 C36.5343761,11.2209982 37,11.6866221 37,12.2609982 L37,26.96 C37,27.5343761 36.5343761,28 35.96,28 L35.96,28 L12.04,28 C11.4656239,28 11,27.5343761 11,26.96 L11,26.96 L11,12.2609982 C11,11.6866221 11.4656239,11.2209982 12.04,11.2209982 L12.04,11.2209982 L14.1156562,11.2209982 Z M33.2369971,19.3669592 C33.4405626,19.5722252 33.4405626,19.9032273 33.2369971,20.1084933 L29.561568,23.814625 L29.561568,23.814625 C29.3593418,24.0185405 29.0300989,24.0199099 28.8261833,23.8176837 C28.8251595,23.8166684 28.8241399,23.8156488 28.8231246,23.814625 L25.1476955,20.1084933 L25.1476955,20.1084933 C24.94413,19.9032273 24.94413,19.5722252 25.1476955,19.3669592 C25.3490858,19.1638865 25.6769679,19.1625228 25.8800405,19.3639131 C25.8810601,19.3649242 25.8820754,19.3659396 25.8830866,19.3669592 L28.68,22.1872365 L28.68,11.2505445 C28.68,9.38433078 29.2084618,7.92374052 30.4560719,6.66570853 L34.9308239,2.15357675 L34.9308239,2.15357675 C35.1322143,1.95050411 35.4600963,1.94914033 35.6631689,2.15053066 C35.6641885,2.15154179 35.6652039,2.15255716 35.666215,2.15357675 L35.666215,2.15357675 L35.666215,2.15357675 C35.8693552,2.35841389 35.8681678,2.68908766 35.6635618,2.89246064 L31.2492832,7.28013623 C30.1943421,8.34388975 29.72,9.80982216 29.72,11.3170941 L29.72,22.1718013 L32.5016061,19.3669592 L32.5016061,19.3669592 C32.7029964,19.1638865 33.0308784,19.1625228 33.233951,19.3639131 C33.2349706,19.3649242 33.235986,19.3659396 33.2369971,19.3669592 Z M14.7641134,19.3669592 C14.7651246,19.3659396 14.7661399,19.3649242 14.7671595,19.3639131 C14.9702321,19.1625228 15.2981142,19.1638865 15.4995045,19.3669592 L15.4995045,19.3669592 L18.2811105,22.1718013 L18.2811105,11.3170941 C18.2811105,9.80982216 17.8067685,8.34388975 16.7518274,7.28013623 L12.3375488,2.89246064 C12.1329427,2.68908766 12.1317553,2.35841389 12.3348955,2.15357675 L12.3348955,2.15357675 L12.3348955,2.15357675 C12.3359067,2.15255716 12.336922,2.15154179 12.3379416,2.15053066 C12.5410143,1.94914033 12.8688963,1.95050411 13.0702866,2.15357675 L13.0702866,2.15357675 L17.5450386,6.66570853 C18.7926488,7.92374052 19.3211105,9.38433078 19.3211105,11.2505445 L19.3211105,22.1872365 L22.118024,19.3669592 C22.1190351,19.3659396 22.1200505,19.3649242 22.12107,19.3639131 C22.3241427,19.1625228 22.6520247,19.1638865 22.853415,19.3669592 C23.0569805,19.5722252 23.0569805,19.9032273 22.853415,20.1084933 L22.853415,20.1084933 L19.1779859,23.814625 C19.1769706,23.8156488 19.175951,23.8166684 19.1749272,23.8176837 C18.9710117,24.0199099 18.6417687,24.0185405 18.4395425,23.814625 L18.4395425,23.814625 L14.7641134,20.1084933 C14.5605479,19.9032273 14.5605479,19.5722252 14.7641134,19.3669592 Z"/>
</svg>
